<svg width="20" height="24" viewBox="0 0 20 24" fill="none" xmlns="http://www.w3.org/2000/svg">
<path d="M10.4909 0.77168C11.7187 0.75293 12.9374 0.76268 14.1554 0.75293C14.1959 2.27618 14.8139 3.64718 15.7972 4.66268L15.7957 4.66118C16.8539 5.61443 18.2309 6.23243 19.7489 6.33743L19.7699 6.33893V10.1159C18.3359 10.0799 16.9874 9.74918 15.7717 9.18068L15.8332 9.20618C15.2452 8.92343 14.7479 8.63318 14.2754 8.30918L14.3144 8.33468C14.3054 11.0714 14.3234 13.8082 14.2957 16.5352C14.2184 17.9249 13.7564 19.1924 13.0154 20.2507L13.0304 20.2274C11.7914 22.0019 9.78441 23.1667 7.50216 23.2357H7.49166C7.39941 23.2402 7.29066 23.2424 7.18116 23.2424C5.88366 23.2424 4.67091 22.8809 3.63741 22.2532L3.66741 22.2704C1.78641 21.1387 0.488906 19.2022 0.248906 16.9499L0.245906 16.9192C0.227156 16.4504 0.218156 15.9817 0.236906 15.5227C0.604406 11.9384 3.60741 9.16568 7.25766 9.16568C7.66791 9.16568 8.06991 9.20093 8.46066 9.26768L8.41866 9.26168C8.43741 10.6484 8.38116 12.0359 8.38116 13.4227C8.06391 13.3079 7.69791 13.2412 7.31616 13.2412C5.91516 13.2412 4.72341 14.1367 4.28241 15.3869L4.27566 15.4094C4.17591 15.7297 4.11816 16.0979 4.11816 16.4789C4.11816 16.6334 4.12791 16.7864 4.14591 16.9364L4.14441 16.9184C4.39341 18.4529 5.70891 19.6109 7.29516 19.6109C7.34091 19.6109 7.38591 19.6102 7.43091 19.6079H7.42416C8.52141 19.5749 9.47391 18.9847 10.0124 18.1124L10.0199 18.0989C10.2202 17.8199 10.3574 17.4824 10.4032 17.1157L10.4039 17.1052C10.4977 15.4274 10.4602 13.7594 10.4692 12.0817C10.4782 8.30468 10.4602 4.53668 10.4879 0.76943L10.4909 0.77168Z" fill="#337BEF"/>
</svg>
