<svg width="24" height="24" viewBox="0 0 24 24" fill="none" xmlns="http://www.w3.org/2000/svg">
<path d="M18.9129 16.8014H17.2787C16.6599 16.8014 16.4687 16.3094 15.3572 15.1829C14.3889 14.2454 13.9607 14.1194 13.7229 14.1194C13.3892 14.1194 13.2939 14.2147 13.2939 14.6752V16.1512C13.2939 16.5487 13.1672 16.7864 12.1194 16.7864C10.0059 16.6447 8.18941 15.4919 7.13491 13.8119L7.11916 13.7857C5.89516 12.2654 4.99291 10.4332 4.54666 8.42918L4.53016 8.34143C4.53016 8.10368 4.62541 7.88093 5.08591 7.88093H6.72016C7.13266 7.88093 7.29166 8.07143 7.45141 8.51543C8.25991 10.8494 9.60991 12.8969 10.1657 12.8969C10.3719 12.8969 10.4672 12.8017 10.4672 12.2782V9.86393C10.4034 8.75243 9.81616 8.65793 9.81616 8.26118C9.82291 8.04893 9.99691 7.87943 10.2099 7.87943C10.2167 7.87943 10.2227 7.87943 10.2294 7.88018H10.2287H12.8004C13.1499 7.88018 13.2767 8.07068 13.2767 8.48318V11.7382C13.2767 12.0869 13.4357 12.2144 13.5309 12.2144C13.7372 12.2144 13.9127 12.0869 14.2929 11.7067C15.0834 10.7414 15.7592 9.63743 16.2744 8.44718L16.3089 8.35718C16.4177 8.08493 16.6787 7.89593 16.9839 7.89593C16.9982 7.89593 17.0117 7.89668 17.0259 7.89743H17.0237H18.6579C19.1499 7.89743 19.2617 8.15018 19.1499 8.50043C18.4944 9.94418 17.7579 11.1847 16.9044 12.3337L16.9434 12.2782C16.7694 12.5639 16.7057 12.6907 16.9434 13.0094C17.1174 13.2472 17.6897 13.7392 18.0707 14.1839C18.6219 14.7292 19.0839 15.3637 19.4327 16.0642L19.4514 16.1054C19.6104 16.5644 19.3719 16.8029 18.9114 16.8029L18.9129 16.8014ZM15.4532 0.75293H8.54791C2.24566 0.75293 0.753906 2.24468 0.753906 8.54693V15.4522C0.753906 21.7544 2.24566 23.2462 8.54791 23.2462H15.4532C21.7554 23.2462 23.2472 21.7544 23.2472 15.4522V8.54693C23.2472 2.24468 21.7389 0.75293 15.4532 0.75293Z" fill="#337BEF"/>
</svg>
