<svg width="24" height="24" viewBox="0 0 24 24" fill="none" xmlns="http://www.w3.org/2000/svg">
<g clip-path="url(#clip0_485_20381)">
<path fill-rule="evenodd" clip-rule="evenodd" d="M9.58613 15.1049V8.37072C11.9768 9.49564 13.8283 10.5823 16.0181 11.7539C14.212 12.7556 11.9768 13.8795 9.58613 15.1049ZM22.9092 5.0215C22.4968 4.47819 21.794 4.05527 21.0457 3.91525C18.8463 3.49759 5.12518 3.49641 2.92698 3.91525C2.32693 4.02774 1.7926 4.29964 1.3336 4.72209C-0.600435 6.51717 0.00559941 16.1436 0.471777 17.7029C0.667809 18.3779 0.921228 18.8647 1.24038 19.1842C1.65157 19.6066 2.21456 19.8975 2.86123 20.0279C4.67214 20.4025 14.0016 20.612 21.0074 20.0842C21.6529 19.9717 22.2243 19.6715 22.6749 19.2311C24.4631 17.4432 24.3412 7.27612 22.9092 5.0215Z" fill="#337BEF"/>
</g>
<defs>
<clipPath id="clip0_485_20381">
<rect width="24" height="24" fill="white"/>
</clipPath>
</defs>
</svg>
