<svg width="180" height="67" viewBox="0 0 180 67" fill="none" xmlns="http://www.w3.org/2000/svg">
<g clip-path="url(#clip0_175_9945)">
<path d="M70.1285 19.5747C70.3158 19.5739 70.503 19.5731 70.6959 19.5722C71.2078 19.5707 71.7195 19.5718 72.2313 19.5743C72.7703 19.5764 73.3092 19.5754 73.8482 19.5749C74.7551 19.5745 75.6619 19.5765 76.5688 19.58C77.6099 19.5839 78.651 19.5842 79.6921 19.5825C80.7 19.5808 81.7079 19.5818 82.7159 19.5839C83.1414 19.5847 83.5669 19.5847 83.9924 19.584C87.8367 19.5792 91.5637 19.5908 94.6508 22.1999C94.7583 22.2889 94.8658 22.3778 94.9765 22.4695C96.7895 24.1137 97.6981 26.6123 97.8189 29.0103C97.9022 32.346 96.9304 35.8924 94.6508 38.3999C94.5475 38.5169 94.4443 38.6339 94.3379 38.7544C93.5752 39.572 92.8227 40.0605 91.8008 40.4999C91.6002 40.5987 91.3999 40.6983 91.2008 40.7999C91.3397 40.9064 91.3397 40.9064 91.4814 41.015C93.6542 42.7115 95.3433 44.5495 95.7008 47.3999C96.0737 52.3059 94.7097 58.2159 91.6601 62.1749C89.9231 64.1842 87.8686 65.2792 85.3508 65.9999C85.2644 66.027 85.1779 66.0541 85.0889 66.082C84.6112 66.178 84.1505 66.171 83.6633 66.173C83.5536 66.1737 83.4439 66.1743 83.3308 66.175C82.963 66.177 82.5952 66.178 82.2274 66.1789C81.9638 66.1801 81.7001 66.1813 81.4365 66.1826C80.5709 66.1865 79.7054 66.1888 78.8398 66.191C78.5419 66.1918 78.244 66.1926 77.9461 66.1934C76.7075 66.1966 75.4688 66.1994 74.2302 66.2011C72.4541 66.2036 70.678 66.2085 68.902 66.2171C67.6534 66.2229 66.4049 66.2258 65.1564 66.2266C64.4103 66.2272 63.6644 66.229 62.9184 66.2338C62.2171 66.2383 61.5158 66.2393 60.8145 66.2375C60.5569 66.2375 60.2993 66.2387 60.0417 66.2414C59.6905 66.2448 59.3395 66.2435 58.9882 66.2411C58.6932 66.2419 58.6932 66.2419 58.3922 66.2426C57.9008 66.1499 57.9008 66.1499 57.5451 65.7903C56.8091 64.6143 57.0634 63.6107 57.3562 62.308C57.3834 62.1903 57.4107 62.0726 57.4388 61.9513C57.4679 61.8224 57.4971 61.6936 57.5272 61.5608C57.6245 61.1321 57.7228 60.7037 57.8211 60.2753C57.8914 59.9665 57.9616 59.6576 58.0317 59.3487C58.1828 58.6838 58.3344 58.019 58.4863 57.3543C58.7288 56.2934 58.9702 55.2323 59.2114 54.1712C59.2945 53.8059 59.3775 53.4407 59.4605 53.0754C59.5021 52.8925 59.5437 52.7095 59.5865 52.5211C59.7148 51.957 59.8431 51.3931 59.9715 50.8291C60.7728 47.3077 61.5671 43.7847 62.3597 40.2613C62.6379 39.025 62.9164 37.7888 63.1951 36.5527C63.8353 33.7126 64.4752 30.8725 65.1042 28.0299C65.2517 27.3643 65.3999 26.6988 65.5481 26.0333C65.6978 25.3606 65.8453 24.6874 65.9923 24.0142C66.0663 23.6815 66.1404 23.3488 66.2146 23.0162C66.2455 22.8719 66.2765 22.7276 66.3083 22.5789C66.7575 20.5899 66.7575 20.5899 67.6297 19.9209C68.4174 19.5012 69.2571 19.5675 70.1285 19.5747ZM77.5508 27.5999C77.0209 29.8512 76.4945 32.1033 75.9851 34.3593C75.9463 34.5285 75.9076 34.6976 75.8676 34.8719C75.8323 35.0293 75.7971 35.1868 75.7607 35.349C75.7297 35.4861 75.6987 35.6232 75.6667 35.7644C75.6006 36.1509 75.5887 36.5087 75.6008 36.8999C76.5319 36.9111 77.4629 36.9193 78.394 36.9247C78.7102 36.9269 79.0263 36.93 79.3424 36.9339C79.7993 36.9394 80.2561 36.9419 80.7131 36.9439C80.9218 36.9474 80.9218 36.9474 81.1347 36.9509C82.5539 36.9513 84.1175 36.688 85.2008 35.6999C86.4014 34.2096 86.9157 32.1199 86.893 30.2296C86.806 29.4472 86.4576 28.8818 85.9414 28.3031C84.3034 27.3621 82.4203 27.5475 80.5976 27.5718C80.3016 27.5741 80.0056 27.5761 79.7097 27.578C78.99 27.5829 78.2704 27.5906 77.5508 27.5999ZM73.6508 44.5499C73.1876 46.105 72.7984 47.6695 72.4344 49.2503C72.3781 49.4928 72.3218 49.7353 72.2654 49.9778C72.119 50.6085 71.9732 51.2393 71.8275 51.8701C71.678 52.5169 71.5279 53.1635 71.3779 53.8101C71.0849 55.0732 70.7926 56.3365 70.5008 57.5999C71.4422 57.6112 72.3836 57.6193 73.3252 57.6247C73.6445 57.6269 73.9637 57.63 74.283 57.6339C78.1567 57.7241 78.1567 57.7241 81.4824 55.9494C83.1164 54.2515 83.8915 51.4589 84.0107 49.132C83.9779 47.875 83.8062 46.7152 82.9508 45.7499C81.7881 44.676 80.7302 44.505 79.1879 44.5206C79.0293 44.5211 78.8708 44.5215 78.7075 44.5219C78.2031 44.5236 77.6988 44.5274 77.1945 44.5312C76.8517 44.5327 76.509 44.5341 76.1662 44.5353C75.3277 44.5386 74.4892 44.5436 73.6508 44.5499Z" fill="white"/>
<path d="M167.046 19.5754C167.254 19.5754 167.461 19.5752 167.669 19.5748C168.1 19.5746 168.531 19.5764 168.962 19.5799C169.513 19.5841 170.064 19.5837 170.615 19.5818C171.042 19.5808 171.469 19.5819 171.896 19.5838C172.197 19.5848 172.498 19.5841 172.799 19.5835C172.983 19.5854 173.167 19.5873 173.356 19.5892C173.517 19.59 173.678 19.5909 173.844 19.5917C174.572 19.6846 175.057 19.9417 175.547 20.4842C176.25 21.5009 176.123 22.8904 176.175 24.0927C176.181 24.2298 176.187 24.3669 176.194 24.5082C176.214 24.9633 176.234 25.4184 176.254 25.8736C176.269 26.2017 176.284 26.5297 176.299 26.8578C176.339 27.746 176.378 28.6343 176.418 29.5225C176.451 30.2654 176.484 31.0083 176.517 31.7512C176.6 33.6047 176.683 35.4582 176.765 37.3117C176.832 38.8177 176.899 40.3237 176.967 41.8297C177.046 43.5824 177.124 45.3351 177.202 47.0879C177.244 48.0142 177.285 48.9406 177.327 49.8669C177.366 50.7385 177.404 51.6101 177.443 52.4816C177.457 52.8004 177.471 53.1191 177.486 53.4378C177.558 55.0261 177.624 56.6095 177.6 58.1998C177.748 58.1875 177.897 58.1751 178.05 58.1623C178.733 58.1596 179.287 58.424 179.85 58.7998C180.542 60.1847 180.086 62.8425 179.737 64.3123C179.714 64.413 179.69 64.5137 179.666 64.6174C179.493 65.2598 179.295 65.7037 178.8 66.1498C178.268 66.265 177.743 66.2516 177.201 66.2461C176.954 66.248 176.954 66.248 176.702 66.25C176.148 66.2533 175.594 66.2513 175.04 66.2493C174.643 66.2505 174.247 66.2521 173.85 66.254C172.884 66.2579 171.918 66.2577 170.952 66.2561C170.167 66.2548 169.382 66.2549 168.597 66.256C168.429 66.2563 168.429 66.2563 168.258 66.2565C168.031 66.2569 167.804 66.2572 167.577 66.2575C165.449 66.2604 163.321 66.2586 161.192 66.2553C159.366 66.2526 157.539 66.2542 155.713 66.2589C153.592 66.2645 151.472 66.267 149.351 66.265C149.125 66.2648 148.899 66.2646 148.673 66.2644C148.562 66.2643 148.451 66.2643 148.336 66.2642C147.552 66.2637 146.768 66.2654 145.983 66.2679C145.028 66.271 144.072 66.2708 143.116 66.2666C142.629 66.2646 142.141 66.2644 141.653 66.2672C141.125 66.27 140.596 66.2673 140.068 66.2631C139.913 66.2652 139.759 66.2673 139.6 66.2695C138.587 66.2534 138.587 66.2534 138.188 65.9526C137.62 65.2903 137.505 64.7448 137.55 63.8998C137.649 63.2328 137.788 62.5798 137.946 61.9248C138.019 61.6215 138.086 61.3173 138.153 61.0126C138.583 59.1406 138.583 59.1406 139.35 58.4998C140.032 58.212 140.545 58.203 141.276 58.2414C141.966 58.1979 142.246 58.1603 142.725 57.6515C143.084 57.0917 143.352 56.4894 143.625 55.8842C143.732 55.6638 143.839 55.4439 143.948 55.2243C144.166 54.7794 144.382 54.3329 144.594 53.8848C145.019 52.9928 145.493 52.1287 145.969 51.2623C146.14 50.9457 146.311 50.6289 146.481 50.312C146.566 50.1548 146.651 49.9977 146.738 49.8357C147.199 48.9808 147.657 48.1247 148.115 47.2686C148.209 47.0941 148.302 46.9197 148.398 46.7399C148.588 46.3865 148.777 46.0331 148.966 45.6797C149.435 44.803 149.905 43.9264 150.375 43.0498C150.562 42.6998 150.75 42.3498 150.937 41.9998C153.75 36.7498 153.75 36.7498 156.562 31.4998C156.655 31.3265 156.748 31.1532 156.844 30.9746C157.031 30.6255 157.218 30.2765 157.405 29.9275C157.93 28.9469 158.455 27.966 158.979 26.9848C159.309 26.367 159.641 25.7499 159.972 25.133C160.309 24.5075 160.642 23.8803 160.971 23.251C161.114 22.9818 161.257 22.7127 161.4 22.4436C161.461 22.3242 161.522 22.2048 161.585 22.0818C162.248 20.8465 163.048 20.2353 164.367 19.7741C165.253 19.546 166.137 19.5676 167.046 19.5754ZM165 33.8998C164.304 35.2873 163.609 36.675 162.914 38.0629C162.592 38.7077 162.269 39.3525 161.945 39.9971C160.153 43.5689 160.153 43.5689 158.414 47.1672C157.822 48.4137 157.207 49.6479 156.589 50.8815C156.536 50.9866 156.483 51.0917 156.429 51.2001C156.052 51.9523 155.674 52.7042 155.297 53.4561C154.913 54.2202 154.529 54.9845 154.146 55.749C153.994 56.052 153.842 56.3548 153.689 56.6577C153.598 56.8405 153.506 57.0234 153.414 57.2063C153.294 57.446 153.294 57.446 153.171 57.6906C152.989 58.0061 152.989 58.0061 153 58.1998C157.306 58.1998 161.613 58.1998 166.05 58.1998C165.921 54.0628 165.921 54.0628 165.79 49.9258C165.737 48.239 165.684 46.5522 165.632 44.8653C165.593 43.6368 165.555 42.4083 165.516 41.1799C165.495 40.5295 165.474 39.879 165.455 39.2286C165.436 38.6162 165.416 38.0038 165.397 37.3914C165.389 37.1669 165.382 36.9423 165.376 36.7177C165.366 36.4106 165.356 36.1035 165.346 35.7964C165.341 35.6247 165.335 35.453 165.33 35.276C165.3 34.8084 165.235 34.3602 165.15 33.8998C165.1 33.8998 165.051 33.8998 165 33.8998Z" fill="white"/>
<path d="M123.244 19.6259C123.341 19.6252 123.437 19.6244 123.537 19.6237C123.855 19.6215 124.173 19.6205 124.491 19.6196C124.713 19.6188 124.935 19.6179 125.157 19.617C125.622 19.6155 126.087 19.6146 126.552 19.6141C127.146 19.6132 127.74 19.6096 128.334 19.6054C128.793 19.6026 129.251 19.6018 129.71 19.6016C129.929 19.6011 130.148 19.5999 130.367 19.5979C130.674 19.5954 130.981 19.5957 131.288 19.5966C131.462 19.5961 131.636 19.5955 131.816 19.595C132.562 19.6798 133.046 19.9292 133.547 20.4845C133.992 21.1266 133.995 21.6668 134.029 22.4295C134.038 22.6292 134.038 22.6292 134.048 22.833C134.123 24.5479 134.161 26.2639 134.2 27.98C134.209 28.3551 134.218 28.7302 134.227 29.1053C134.248 30.0106 134.269 30.916 134.29 31.8213C134.315 32.8789 134.34 33.9365 134.364 34.994C134.409 36.8824 134.453 38.7707 134.496 40.6591C134.539 42.4857 134.581 44.3123 134.624 46.1389C134.671 48.1358 134.718 50.1327 134.765 52.1295C134.77 52.3429 134.774 52.5563 134.779 52.7696C134.782 52.8746 134.784 52.9795 134.787 53.0877C134.804 53.8226 134.821 54.5575 134.838 55.2924C134.862 56.2831 134.885 57.2739 134.908 58.2647C134.916 58.6268 134.924 58.9889 134.933 59.351C134.955 60.2867 134.975 61.2224 134.993 62.1582C135 62.5218 135.01 62.8852 135.021 63.2486C135.026 63.4498 135.03 63.651 135.034 63.8521C135.038 64.0169 135.043 64.1816 135.047 64.3513C134.981 64.9868 134.719 65.4582 134.358 65.9774C133.959 66.2451 133.612 66.2097 133.136 66.2131C133.039 66.2144 132.942 66.2156 132.842 66.2169C132.521 66.2204 132.2 66.2206 131.879 66.2204C131.656 66.2215 131.433 66.2226 131.21 66.2239C130.742 66.2259 130.274 66.2261 129.806 66.2252C129.206 66.2244 128.607 66.229 128.008 66.235C127.547 66.2389 127.086 66.2393 126.624 66.2388C126.403 66.239 126.182 66.2405 125.961 66.2432C125.652 66.2465 125.343 66.245 125.034 66.2424C124.858 66.2427 124.682 66.243 124.501 66.2433C124.051 66.1501 124.051 66.1501 123.701 65.7967C122.996 64.6788 123.111 63.4956 123.121 62.2132C123.122 62.0314 123.122 61.8497 123.122 61.6624C123.124 60.9864 123.128 60.3104 123.132 59.6345C123.138 58.1216 123.144 56.6088 123.151 55.0501C118.943 55.0501 114.736 55.0501 110.401 55.0501C110.302 55.2976 110.203 55.5451 110.101 55.8001C109.973 56.052 109.842 56.3019 109.708 56.5501C109.63 56.6939 109.553 56.8377 109.472 56.9859C109.389 57.1391 109.305 57.2923 109.219 57.4501C109.132 57.61 109.046 57.7698 108.956 57.9346C108.183 59.3515 107.386 60.7537 106.579 62.1517C106.335 62.5769 106.094 63.0037 105.854 63.4308C105.772 63.5752 105.691 63.7196 105.606 63.8684C105.45 64.1456 105.294 64.4231 105.139 64.7009C105.033 64.8875 105.033 64.8875 104.925 65.0778C104.863 65.1874 104.802 65.297 104.738 65.4098C104.541 65.7156 104.386 65.9231 104.101 66.1501C103.721 66.2103 103.721 66.2103 103.263 66.2155C103.091 66.2183 102.919 66.2212 102.742 66.2242C102.464 66.2249 102.464 66.2249 102.18 66.2257C101.989 66.2272 101.799 66.2287 101.602 66.2302C101.198 66.2325 100.795 66.2338 100.391 66.2335C99.8744 66.2334 99.3582 66.2396 98.8419 66.2473C98.3483 66.2536 97.8547 66.2533 97.3611 66.2538C97.1761 66.257 96.9911 66.2603 96.8005 66.2636C95.5499 66.2536 95.5499 66.2536 95.1176 65.954C94.6715 65.4334 94.4899 64.9487 94.4531 64.2798C94.5547 63.4674 94.992 62.7956 95.4006 62.1001C95.4901 61.9475 95.5796 61.795 95.6719 61.6378C95.8863 61.2787 96.1023 60.9209 96.3199 60.5638C96.887 59.6293 97.4363 58.6843 97.9881 57.7407C98.2122 57.3577 98.4365 56.9747 98.6607 56.5917C98.7158 56.4977 98.7708 56.4038 98.8274 56.307C99.308 55.4867 99.7913 54.6681 100.276 53.8501C101.016 52.5988 101.753 51.3453 102.488 50.0907C102.542 49.9995 102.595 49.9083 102.65 49.8143C103.034 49.1596 103.417 48.5049 103.801 47.8501C104.238 47.1032 104.675 46.3563 105.113 45.6095C105.193 45.4725 105.193 45.4725 105.275 45.3328C106.034 44.0386 106.795 42.7464 107.559 41.4555C108.221 40.3355 108.88 39.2134 109.538 38.0907C109.618 37.9539 109.618 37.9539 109.7 37.8143C110.084 37.1596 110.467 36.5049 110.851 35.8501C111.288 35.1032 111.725 34.3563 112.163 33.6095C112.243 33.4725 112.243 33.4725 112.325 33.3328C113.083 32.0398 113.843 30.7486 114.607 29.4592C115.122 28.5884 115.634 27.7158 116.145 26.8421C116.58 26.0974 117.016 25.3533 117.454 24.61C117.689 24.2098 117.924 23.8094 118.158 23.4081C118.377 23.0325 118.598 22.6583 118.819 22.2845C118.879 22.18 118.939 22.0755 119.001 21.9679C119.604 20.9634 120.411 20.25 121.501 19.8001C122.087 19.654 122.64 19.6295 123.244 19.6259ZM123.001 32.8501C122.94 32.9569 122.879 33.0637 122.816 33.1738C121.616 35.2775 120.412 37.3792 119.2 39.4762C118.389 40.8804 117.585 42.2881 116.782 43.697C116.225 44.6727 115.663 45.6442 115.091 46.6109C114.888 46.9071 114.888 46.9071 114.901 47.1001C117.623 47.1001 120.346 47.1001 123.151 47.1001C123.151 42.3976 123.151 37.6951 123.151 32.8501C123.101 32.8501 123.052 32.8501 123.001 32.8501Z" fill="white"/>
<path d="M81.4004 -0.0340682C81.5926 -0.0340456 81.7847 -0.0340229 81.9826 -0.0339996C82.1893 -0.032468 82.3959 -0.0309033 82.6025 -0.0293075C82.8163 -0.0287472 83.03 -0.0283205 83.2437 -0.0280212C83.8033 -0.0268818 84.3628 -0.0239398 84.9223 -0.02061C85.4944 -0.0175281 86.0666 -0.0161681 86.6388 -0.0146591C87.7592 -0.0114523 88.8796 -0.00633935 90 -1.06171e-05C89.85 0.299989 89.85 0.299989 89.3665 0.463576C89.1464 0.524844 88.9258 0.584857 88.7051 0.643935C88.4547 0.713378 88.2043 0.782849 87.9539 0.852345C87.82 0.889052 87.6861 0.925758 87.5481 0.963577C84.8961 1.69219 82.2686 2.48758 79.65 3.32811C79.4938 3.37813 79.3376 3.42814 79.1767 3.47967C78.7343 3.62148 78.2921 3.76379 77.85 3.90643C77.651 3.97053 77.651 3.97053 77.4479 4.03593C77.3269 4.07522 77.2059 4.1145 77.0812 4.15498C76.9757 4.18919 76.8701 4.2234 76.7613 4.25865C76.4885 4.3478 76.4885 4.3478 76.2 4.49999C79.8615 4.86071 82.7606 4.06017 86.1883 2.83652C87.7269 2.29183 89.2914 1.84624 90.8625 1.40624C91.1217 1.33298 91.3808 1.25969 91.64 1.18637C92.8717 0.839353 92.8717 0.839353 93.3591 0.708846C93.6549 0.626458 93.9489 0.537298 94.2419 0.444991C95.7445 -0.00473391 97.119 -0.0796581 98.6807 -0.0586044C98.9297 -0.0574818 99.1787 -0.0566294 99.4277 -0.0560317C100.075 -0.0537687 100.722 -0.0478993 101.37 -0.0412093C102.033 -0.0350107 102.697 -0.0323183 103.361 -0.0293075C104.657 -0.0229219 105.954 -0.0127162 107.25 -1.06171e-05C107.2 0.0989894 107.151 0.197989 107.1 0.299989C106.648 0.434408 106.202 0.551085 105.744 0.659755C105.452 0.73139 105.161 0.803097 104.87 0.874867C104.638 0.931321 104.638 0.931321 104.401 0.988915C101.109 1.79436 97.8765 2.72317 94.6618 3.79608C94.3603 3.89655 94.0585 3.99618 93.7566 4.09555C89.9018 5.36922 86.148 6.87811 82.4391 8.52707C82.0676 8.69216 81.6956 8.85583 81.3234 9.01933C78.0781 10.4535 74.8909 12.0006 71.7936 13.7318C71.3958 13.9523 70.9959 14.1683 70.5949 14.383C68.4719 15.5216 66.4034 16.7405 64.35 18C64.2302 18.0733 64.1104 18.1466 63.9869 18.2221C56.7552 22.666 49.8909 27.7118 43.3213 33.0785C43.0811 33.2746 42.8406 33.4701 42.6 33.6656C41.6928 34.404 40.7977 35.1558 39.9064 35.9133C39.7558 36.0409 39.6052 36.1685 39.45 36.3C39.3237 36.43 39.1975 36.5599 39.0674 36.6938C38.4428 37.2091 37.7939 37.1498 37.0158 37.1351C36.7874 37.1353 36.7874 37.1353 36.5543 37.1355C36.0527 37.1349 35.5512 37.1291 35.0496 37.1232C34.7011 37.1218 34.3527 37.1208 34.0042 37.12C33.0883 37.1172 32.1725 37.1098 31.2566 37.1015C30.3216 37.0938 29.3865 37.0904 28.4514 37.0866C26.6175 37.0786 24.7838 37.0658 22.95 37.05C23.3729 36.6229 23.7785 36.2171 24.2689 35.8687C24.3744 35.7932 24.4799 35.7177 24.5886 35.6399C24.7006 35.5607 24.8127 35.4816 24.9281 35.4C25.1707 35.2268 25.4133 35.0535 25.6559 34.8803C25.8413 34.7483 25.8413 34.7483 26.0304 34.6137C26.4967 34.281 26.9606 33.9449 27.4243 33.6085C28.7141 32.6735 30.0119 31.7502 31.3156 30.8348C31.6642 30.59 32.0125 30.3448 32.3607 30.0996C37.3663 26.5802 42.4334 23.0712 47.7 19.95C44.3282 19.6938 41.8938 19.7133 39.0622 21.7905C38.5726 22.1413 38.059 22.4241 37.5281 22.7062C36.0334 23.535 34.5702 24.4191 33.1019 25.2935C32.4094 25.7057 31.7158 26.1158 31.0219 26.5254C29.0942 27.6639 27.1707 28.8047 25.2855 30.0129C24.7939 30.3279 24.2991 30.6371 23.802 30.9433C21.7621 32.202 19.7618 33.5122 17.7723 34.8485C17.6705 34.9169 17.5686 34.9852 17.4637 35.0557C17.2756 35.182 17.0876 35.3086 16.8997 35.4354C16.7186 35.5571 16.5359 35.6765 16.352 35.7939C16.0379 35.9999 16.0379 35.9999 15.7296 36.2764C14.3347 37.3723 12.7742 37.1829 11.0889 37.1525C10.7684 37.1506 10.4479 37.1491 10.1274 37.148C9.28864 37.144 8.45008 37.1337 7.61141 37.1221C6.75369 37.1113 5.89595 37.1065 5.03818 37.1013C3.3587 37.09 1.67937 37.0721 0 37.05C0.446257 36.5962 0.85023 36.2025 1.40039 35.8805C1.5217 35.8086 1.64301 35.7368 1.76799 35.6628C1.89612 35.5885 2.02424 35.5141 2.15625 35.4375C2.42813 35.2771 2.70001 35.1168 2.97187 34.9564C3.1051 34.8784 3.23832 34.8003 3.37559 34.7199C3.8715 34.4286 4.36389 34.1316 4.85625 33.8344C8.30918 31.7612 11.7944 29.7434 15.2965 27.7546C15.9148 27.4027 16.5278 27.044 17.1363 26.6754C17.6459 26.3682 18.156 26.084 18.6937 25.8281C19.393 25.4851 20.0711 25.1175 20.7469 24.7312C22.1725 23.9188 23.6301 23.1694 25.0868 22.4147C25.5606 22.1685 26.0329 21.9194 26.5048 21.6696C31.6003 18.9735 36.7467 16.415 42.0054 14.0526C42.6589 13.759 43.3112 13.4627 43.9629 13.1648C55.3986 7.95629 67.2708 3.74095 79.35 0.299989C79.5145 0.247818 79.6789 0.195646 79.8484 0.141894C80.3925 0.0019116 80.8405 -0.036286 81.4004 -0.0340682ZM66.8096 7.86268C66.304 8.09813 65.7942 8.31695 65.2793 8.53124C61.2632 10.2035 57.3045 12.0327 53.4 13.95C53.2964 14.0008 53.1929 14.0515 53.0862 14.1039C52.3877 14.4465 51.6899 14.7906 50.9929 15.1363C50.7617 15.2509 50.5303 15.3653 50.2987 15.4793C49.9746 15.6391 49.6511 15.8002 49.3277 15.9615C49.2304 16.0093 49.1331 16.057 49.0328 16.1062C48.5719 16.3378 48.1845 16.5518 47.85 16.95C51.1902 17.2 53.7121 17.1648 56.6349 15.3416C57.6778 14.6951 58.7765 14.1597 59.8756 13.6164C60.2446 13.434 60.6129 13.2503 60.9811 13.0663C65.708 10.7116 70.5698 8.61527 75.45 6.59999C75.45 6.55049 75.45 6.50099 75.45 6.44999C72.2363 6.23297 69.7755 6.46517 66.8096 7.86268Z" fill="white"/>
<path d="M120.6 20.25C120.6 20.7 120.6 20.7 120.375 20.9631C120.279 21.0526 120.183 21.1421 120.084 21.2344C119.686 21.6004 119.686 21.6004 119.4 22.05C119.301 22.0005 119.202 21.951 119.1 21.9C119.523 21.1991 119.951 20.751 120.6 20.25Z" fill="white"/>
</g>
<defs>
<clipPath id="clip0_175_9945">
<rect width="180" height="66.15" fill="white"/>
</clipPath>
</defs>
</svg>
