<svg width="146" height="47" viewBox="0 0 146 47" fill="none" xmlns="http://www.w3.org/2000/svg">
<path d="M53.3502 8.19434V28.6374H49.4229V18.3432L46.048 25.0145V28.6374H42.1172V8.19434H46.048V17.9718L49.4229 11.3005V8.19434H53.3502Z" fill="white"/>
<path d="M63.2391 23.2244V23.6004C63.2391 24.2486 63.1618 24.6973 63.0015 24.9453C62.7893 25.244 62.3498 25.3939 61.6832 25.3939C61.0869 25.3939 60.6728 25.2694 60.4444 25.0214C60.216 24.778 60.1007 24.3536 60.1007 23.7573V13.0755C60.1007 12.4792 60.216 12.0617 60.4444 11.8241C60.6728 11.5865 61.0857 11.4677 61.6832 11.4677C62.3152 11.4677 62.7489 11.6084 62.9761 11.8875C63.1526 12.1343 63.2391 12.5738 63.2391 13.2059V13.3051H67.2345C67.1284 11.7653 66.8977 10.6707 66.5379 10.0155C65.7962 8.66142 64.1792 7.98438 61.6832 7.98438C59.5205 7.98438 58.0257 8.49418 57.201 9.51149C56.4628 10.41 56.0938 11.9659 56.0938 14.1805V22.6488C56.0938 24.8472 56.4628 26.4032 57.201 27.3178C58.0453 28.3547 59.5401 28.8738 61.6832 28.8738C63.8458 28.8738 65.3406 28.364 66.1653 27.3432C66.8551 26.5093 67.2311 25.1356 67.2911 23.2232H63.2391V23.2244Z" fill="white"/>
<path d="M105.157 11.5713H102.361V28.636H98.3787V11.5713H95.6094V8.19531H105.157V11.5713Z" fill="white"/>
<path d="M115.971 28.636H107.188V8.19531H115.733V11.6763H111.065V17.2726H115.971V20.5956H111.065V25.1527H115.971V28.636Z" fill="white"/>
<path d="M129.292 28.6359H125.363V11.5193C124.78 12.0291 124.285 12.5919 123.88 13.2067C123.033 14.4904 122.503 16.6796 122.292 19.7742C122.222 20.7938 122.186 25.0315 122.186 28.6359H118.215V25.5759C118.215 22.7108 118.356 18.4905 118.637 16.7673C119.076 14.0591 119.912 11.9587 121.142 10.4639C121.863 9.6023 122.759 8.84681 123.832 8.19629H129.292V28.6359Z" fill="white"/>
<path d="M88.5953 8.19434C87.5237 8.84601 86.6287 9.60265 85.9067 10.4631C84.6771 11.9579 83.8398 14.0606 83.4003 16.7688C83.1177 18.492 82.9805 22.7111 82.9805 25.5774V28.6385H86.9493C86.9493 25.6708 86.9713 22.2752 87.0232 20.5969H90.1258V28.6385H94.0567V8.19434H88.5953ZM87.3311 17.2521C87.6103 15.4585 88.0497 14.1079 88.6437 13.2059C89.0509 12.59 89.5457 12.0283 90.1258 11.5185V17.2521H87.3311Z" fill="white"/>
<path d="M78.9008 16.6925C79.5951 16.6925 80.1626 16.8966 80.6044 17.3061C81.0254 17.696 81.2353 18.1919 81.2353 18.7951V28.636H77.3863V20.576C77.3863 20.2069 77.1856 20.0212 76.7866 20.0212H73.6966V28.6349H69.8477V8.19531H73.6966V16.6925H74.9884L77.2918 8.19531H81.2676L78.5859 16.6925H78.9008Z" fill="white"/>
<path d="M135.769 8.19531V16.6636H143.156C143.806 16.6636 144.339 16.8678 144.753 17.2761C145.148 17.6856 145.345 18.1815 145.345 18.7652V26.5322C145.345 27.1355 145.148 27.6326 144.753 28.0213C144.339 28.4296 143.806 28.6349 143.156 28.6349H132.031V8.19531H135.769ZM141.736 20.5472C141.736 20.1769 141.548 19.9924 141.174 19.9924H135.771V25.3361H141.174C141.549 25.3361 141.736 25.1424 141.736 24.7525V20.5472Z" fill="white"/>
<path d="M20.4189 6.2793V15.0717L13.1836 22.314V6.2793H20.4189Z" fill="url(#paint0_linear_715_3299)"/>
<path d="M20.4189 25.3125V42.6909L16.8053 46.3115L13.1836 42.6909V32.5548L20.4189 25.3125Z" fill="url(#paint1_linear_715_3299)"/>
<path d="M7.24226 6.27968V36.7401L0 29.5047V0.984375L7.24226 6.27968Z" fill="url(#paint2_linear_715_3299)"/>
<path d="M33.6094 0.984375V29.5047L26.3672 36.7401V6.27968L33.6094 0.984375Z" fill="url(#paint3_linear_715_3299)"/>
<path d="M46.3882 40.3026H44.8315V38.891H43.5567V40.3026H42V38.891C42 36.1997 42.4905 34.2258 43.4733 32.9678H44.9049C45.8943 34.2809 46.3882 36.2564 46.3882 38.891V40.3026ZM44.8315 37.6714C44.8315 36.445 44.6196 35.2537 44.1941 34.0974C43.7686 35.2537 43.5567 36.445 43.5567 37.6714H44.8315Z" fill="white"/>
<path d="M51.7688 33.1773C51.7688 34.2919 51.3534 35.2747 50.5258 36.1239C51.0414 36.6529 51.3901 37.3053 51.5703 38.0778C51.7021 38.615 51.7688 39.3559 51.7688 40.3036H50.2121C50.2121 39.5227 50.1837 38.9387 50.1287 38.5483C50.0302 37.9009 49.8333 37.357 49.533 36.9182C49.2961 37.0717 49.0942 37.1868 48.9273 37.2635V40.3036H47.3906V32.9688H48.9273V36.0822C49.7833 35.4215 50.2121 34.382 50.2121 32.9688H51.7688C51.7688 32.9904 51.7688 33.0255 51.7688 33.0739C51.7688 33.1223 51.7688 33.1556 51.7688 33.1773Z" fill="white"/>
<path d="M57.8593 41.5574H56.4795V40.3026H52.8438V32.9678H54.4005V38.9444H55.6435V32.9678H57.2003V38.9444H57.8577V41.5574H57.8593Z" fill="white"/>
<path d="M62.9087 40.3023H61.3519V37.8363C60.9949 38.7339 60.5193 39.5565 59.9253 40.3023H58.457V32.9675H60.0138V38.3268C60.5861 37.5893 60.9682 36.735 61.16 35.7656C61.2869 35.1116 61.3519 34.1772 61.3519 32.9658H62.9087V40.3023Z" fill="white"/>
<path d="M68.4338 37.9313C68.4338 38.809 68.2836 39.4297 67.985 39.7917C67.6579 40.1955 67.0656 40.3974 66.208 40.3974C65.3587 40.3974 64.7664 40.1922 64.431 39.7801C64.139 39.418 63.9922 38.8023 63.9922 37.9313V35.3401C63.9922 34.4691 64.139 33.8501 64.431 33.4797C64.7647 33.0759 65.357 32.874 66.208 32.874C67.0639 32.874 67.6563 33.0759 67.985 33.4797C68.2836 33.8434 68.4338 34.4625 68.4338 35.3401V37.9313ZM66.8253 38.3068V34.953C66.8253 34.7027 66.7903 34.5292 66.7202 34.4308C66.6301 34.3123 66.4583 34.2522 66.208 34.2522C65.9711 34.2522 65.8075 34.3006 65.7174 34.3974C65.6273 34.4958 65.5806 34.6627 65.5806 34.8996V38.3702C65.5806 38.6071 65.6257 38.7739 65.7174 38.8724C65.8075 38.9692 65.9711 39.0175 66.208 39.0175C66.4733 39.0175 66.6468 38.9591 66.7302 38.839C66.7936 38.7422 66.8253 38.5654 66.8253 38.3068Z" fill="white"/>
<path d="M73.8761 40.3026H72.3193V36.9489H71.0763V40.3026H69.5195V32.9678H71.0763V35.6324H72.3193V32.9678H73.8761V40.3026Z" fill="white"/>
<path d="M78.5492 40.3026H75.0703V32.9678H78.4558V34.346H76.6054V35.6307H78.5492V36.9472H76.6054V38.9228H78.5492V40.3026Z" fill="white"/>
<path d="M83.9712 35.6117C83.9712 37.417 83.2737 38.3181 81.8822 38.3181C81.6035 38.3181 81.3282 38.298 81.0562 38.2563V40.3036H79.5195V32.9688H81.5668C82.4578 32.9688 83.0885 33.1923 83.4573 33.6378C83.7993 34.0399 83.9712 34.699 83.9712 35.6117ZM82.4144 35.6317C82.4144 35.1996 82.3644 34.8942 82.2676 34.7124C82.1274 34.4688 81.8605 34.347 81.4667 34.347H81.0562V36.9482C81.2665 36.9832 81.4767 36.9999 81.6886 36.9999C82.019 36.9999 82.2326 36.8397 82.331 36.5194C82.3861 36.3542 82.4144 36.0572 82.4144 35.6317Z" fill="white"/>
<path d="M89.2706 40.3026H87.7138V36.9489H86.4708V40.3026H84.9141V32.9678H86.4708V35.6324H87.7138V32.9678H89.2706V40.3026Z" fill="white"/>
<path d="M94.7971 37.9313C94.7971 38.809 94.6469 39.4297 94.3483 39.7917C94.0212 40.1955 93.4289 40.3974 92.5713 40.3974C91.722 40.3974 91.1297 40.1922 90.7943 39.7801C90.5023 39.418 90.3555 38.8023 90.3555 37.9313V35.3401C90.3555 34.4691 90.5023 33.8501 90.7943 33.4797C91.128 33.0759 91.7203 32.874 92.5713 32.874C93.4272 32.874 94.0196 33.0759 94.3483 33.4797C94.6469 33.8434 94.7971 34.4625 94.7971 35.3401V37.9313ZM93.1886 38.3068V34.953C93.1886 34.7027 93.1536 34.5292 93.0835 34.4308C92.9934 34.3123 92.8216 34.2522 92.5713 34.2522C92.3343 34.2522 92.1708 34.3006 92.0807 34.3974C91.9906 34.4958 91.9439 34.6627 91.9439 34.8996V38.3702C91.9439 38.6071 91.989 38.7739 92.0807 38.8724C92.1708 38.9692 92.3343 39.0175 92.5713 39.0175C92.8366 39.0175 93.0101 38.9591 93.0935 38.839C93.1569 38.7422 93.1886 38.5654 93.1886 38.3068Z" fill="white"/>
<path d="M99.3617 40.3026H95.8828V32.9678H99.2683V34.346H97.4195V35.6307H99.3634V36.9472H97.4195V38.9228H99.3634V40.3026H99.3617Z" fill="white"/>
<path d="M106.988 37.9313C106.988 38.809 106.838 39.4297 106.54 39.7917C106.213 40.1955 105.62 40.3974 104.763 40.3974C103.913 40.3974 103.321 40.1922 102.986 39.7801C102.694 39.418 102.547 38.8023 102.547 37.9313V35.3401C102.547 34.4691 102.694 33.8501 102.986 33.4797C103.319 33.0759 103.912 32.874 104.763 32.874C105.619 32.874 106.211 33.0759 106.54 33.4797C106.838 33.8434 106.988 34.4625 106.988 35.3401V37.9313ZM105.38 38.3068V34.953C105.38 34.7027 105.345 34.5292 105.275 34.4308C105.185 34.3123 105.013 34.2522 104.763 34.2522C104.526 34.2522 104.362 34.3006 104.272 34.3974C104.182 34.4958 104.135 34.6627 104.135 34.8996V38.3702C104.135 38.6071 104.18 38.7739 104.272 38.8724C104.362 38.9692 104.526 39.0175 104.763 39.0175C105.028 39.0175 105.201 38.9591 105.285 38.839C105.348 38.7422 105.38 38.5654 105.38 38.3068Z" fill="white"/>
<path d="M112.526 37.9526C112.526 38.8303 112.394 39.4293 112.129 39.7497C111.828 40.1184 111.251 40.3036 110.393 40.3036H108.074V32.9688H112.149V34.347H109.609V35.6017C109.881 35.56 110.157 35.5399 110.435 35.5399C111.201 35.5399 111.752 35.7552 112.087 36.1873C112.379 36.5694 112.526 37.1568 112.526 37.9526ZM110.969 37.9526C110.969 37.5972 110.934 37.3453 110.864 37.2001C110.759 36.9699 110.552 36.8547 110.243 36.8547C110.033 36.8547 109.823 36.8714 109.611 36.9065V38.9237H110.021C110.38 38.9237 110.627 38.8503 110.764 38.7035C110.901 38.5583 110.969 38.3064 110.969 37.9526Z" fill="white"/>
<path d="M120.925 41.5574H119.545V40.3026H113.559V32.9678H115.125V38.9444H116.16V32.9678H117.665V38.9444H118.699V32.9678H120.266V38.9444H120.923V41.5574H120.925Z" fill="white"/>
<path d="M125 40.3026H121.52V32.9678H124.905V34.346H123.056V35.6307H125V36.9472H123.056V38.9228H125V40.3026Z" fill="white"/>
<path d="M130.309 37.9314C130.309 38.809 130.159 39.4297 129.86 39.7918C129.533 40.1956 128.941 40.3975 128.083 40.3975C127.234 40.3975 126.641 40.1922 126.306 39.7801C126.014 39.418 125.867 38.8023 125.867 37.9314V35.3402C125.867 34.4625 126.014 33.8451 126.306 33.4914C126.633 33.0876 127.225 32.8857 128.083 32.8857C129.072 32.8857 129.713 33.1527 130.005 33.69C130.207 34.0587 130.309 34.7829 130.309 35.8641H128.7V34.9547C128.7 34.7044 128.665 34.5309 128.595 34.4325C128.505 34.3207 128.333 34.2639 128.083 34.2639C127.846 34.2639 127.683 34.3107 127.592 34.4058C127.502 34.5009 127.456 34.6644 127.456 34.9013V38.3702C127.456 38.6071 127.501 38.774 127.592 38.8724C127.683 38.9692 127.846 39.0176 128.083 39.0176C128.348 39.0176 128.522 38.9592 128.605 38.8391C128.669 38.7423 128.699 38.5637 128.699 38.3068V37.0521H130.307V37.9314H130.309Z" fill="white"/>
<path d="M134.355 34.3059H133.247V40.3026H131.668V34.3059H130.57V32.9678H134.353V34.3059H134.355Z" fill="white"/>
<path d="M139.596 38.1719C139.596 38.9795 139.444 39.5368 139.142 39.8438C138.839 40.1508 138.283 40.3026 137.475 40.3026H135.156V32.9678H137.402C138.183 32.9678 138.715 33.0729 139.001 33.2815C139.334 33.5384 139.503 34.0406 139.503 34.7865C139.503 35.4055 139.252 35.8877 138.75 36.2281C139.091 36.465 139.324 36.747 139.449 37.074C139.546 37.3393 139.596 37.7047 139.596 38.1719ZM137.913 34.9333C137.913 34.5145 137.717 34.3059 137.327 34.3059H136.69V35.7058H137.045C137.624 35.7058 137.913 35.4489 137.913 34.9333ZM138.008 38.0468C138.008 37.3009 137.742 36.9289 137.214 36.9289H136.691V38.9244H137.098C137.454 38.9244 137.694 38.866 137.819 38.7509C137.944 38.6374 138.008 38.4022 138.008 38.0468Z" fill="white"/>
<path d="M145 37.9313C145 38.809 144.85 39.4297 144.551 39.7917C144.224 40.1955 143.632 40.3974 142.774 40.3974C141.925 40.3974 141.333 40.1922 140.997 39.7801C140.705 39.418 140.559 38.8023 140.559 37.9313V35.3401C140.559 34.4691 140.705 33.8501 140.997 33.4797C141.331 33.0759 141.923 32.874 142.774 32.874C143.63 32.874 144.223 33.0759 144.551 33.4797C144.85 33.8434 145 34.4625 145 35.3401V37.9313ZM143.392 38.3068V34.953C143.392 34.7027 143.357 34.5292 143.287 34.4308C143.197 34.3123 143.025 34.2522 142.774 34.2522C142.537 34.2522 142.374 34.3006 142.284 34.3974C142.194 34.4958 142.147 34.6627 142.147 34.8996V38.3702C142.147 38.6071 142.192 38.7739 142.284 38.8724C142.374 38.9692 142.537 39.0175 142.774 39.0175C143.04 39.0175 143.213 38.9591 143.297 38.839C143.36 38.7422 143.392 38.5654 143.392 38.3068Z" fill="white"/>
<defs>
<linearGradient id="paint0_linear_715_3299" x1="16.8017" y1="-1.51073" x2="16.8017" y2="36.6291" gradientUnits="userSpaceOnUse">
<stop stop-color="#0047FF"/>
<stop offset="1" stop-color="#2E3192"/>
</linearGradient>
<linearGradient id="paint1_linear_715_3299" x1="16.8017" y1="-1.50995" x2="16.8017" y2="36.6299" gradientUnits="userSpaceOnUse">
<stop stop-color="#0047FF"/>
<stop offset="1" stop-color="#2E3192"/>
</linearGradient>
<linearGradient id="paint2_linear_715_3299" x1="3.62113" y1="0.464695" x2="3.62113" y2="36.6352" gradientUnits="userSpaceOnUse">
<stop stop-color="#0047FF"/>
<stop offset="1" stop-color="#2E3192"/>
</linearGradient>
<linearGradient id="paint3_linear_715_3299" x1="29.9881" y1="0.464695" x2="29.9881" y2="36.6352" gradientUnits="userSpaceOnUse">
<stop stop-color="#0047FF"/>
<stop offset="1" stop-color="#2E3192"/>
</linearGradient>
</defs>
</svg>
