<svg width="167" height="44" viewBox="0 0 167 44" fill="none" xmlns="http://www.w3.org/2000/svg">
<mask id="path-1-inside-1_414_17088" fill="white">
<path class="clients-icon"  fill-rule="evenodd" clip-rule="evenodd" d="M61.6939 0.583585H67.4738V20.478H74.9333V25.3122H61.6939V19.447C59.3018 23.2444 54.8716 25.7696 49.7985 25.7696C43.3734 25.7696 37.9747 21.7195 36.4498 16.1639C36.2063 21.418 31.85 25.7696 26.547 25.7696C22.2898 25.7696 18.6413 22.9645 17.2428 19.1408C16.4826 23.3503 12.544 25.311 10.4854 25.311H0.875V0.583585H9.61251C11.3593 0.583585 15.1227 3.0701 15.1227 7.37057C15.122 8.82367 14.7515 10.2527 14.0461 11.5231C15.148 12.2794 16.038 13.305 16.6317 14.5024V0.583585H21.9472V16.1081H21.9495L21.9472 16.1547C21.9472 18.7266 23.9751 20.6931 26.547 20.6931C29.1189 20.6931 31.1456 18.7266 31.1456 16.1547L31.1433 16.1081H31.1456V0.584722H36.4612V9.69435C38.002 4.15233 43.3893 0.10563 49.7985 0.10563C54.5075 0.10563 58.6612 2.2405 61.1477 5.6192L57.0782 9.00246C55.6068 6.75037 52.8984 5.33243 49.7996 5.33243C45.1281 5.33243 41.3409 8.69861 41.3409 12.9502C41.3409 17.2017 45.1293 20.6942 49.7996 20.6942C52.9689 20.6942 55.7297 19.0612 57.1784 16.7135H50.471V11.5049H61.6939V0.583585ZM75.6059 25.311V0.583585H90.9961V5.42233H81.3846V9.3871H90.9961V14.293H81.3846V20.4768H90.9961V25.311H75.6059ZM151.01 8.3299L156.253 0.583585H163.008L153.697 14.491V25.3099H148.32V14.491L145.051 9.60673C145.369 10.6947 145.542 11.8372 145.542 13.0162C145.542 20.1024 139.415 25.7685 131.856 25.7685C126.292 25.7685 121.509 22.6971 119.369 18.2509C119.042 23.0749 114.699 25.311 112.501 25.311H102.89V0.583585H111.628C113.375 0.583585 117.14 3.0701 117.14 7.37057C117.139 8.82343 116.769 10.2522 116.065 11.5231C116.909 12.1033 117.631 12.8424 118.192 13.699C118.178 13.4725 118.171 13.246 118.171 13.0162C118.171 5.92987 124.298 0.104492 131.856 0.104492C135.281 0.104492 138.411 1.3028 140.811 3.27039L139.01 0.583585H145.765L151.01 8.3299ZM7.79752 10.1095H5.98242V5.67359H7.79752C8.87292 5.67359 9.20863 7.15184 9.20863 7.95868C9.20863 8.76552 8.60322 10.1095 7.79752 10.1095ZM9.7799 20.1398H5.98242V15.7039H9.7799C10.8553 15.7039 11.7293 17.1833 11.7293 17.989C11.7293 18.7958 10.5856 20.1398 9.7799 20.1398ZM109.814 10.1095H107.998V5.67359H109.814C110.889 5.67359 111.225 7.15184 111.225 7.95868C111.225 8.76552 110.621 10.1095 109.814 10.1095ZM111.796 20.1398H107.998V15.7039H111.796C112.872 15.7039 113.746 17.1833 113.746 17.989C113.746 18.7958 112.603 20.1398 111.796 20.1398ZM139.936 13.0159C139.936 17.2151 136.319 20.6928 131.856 20.6928C127.395 20.6928 123.778 17.2151 123.778 13.0159C123.778 8.81673 127.395 5.33105 131.856 5.33105C136.319 5.33105 139.936 8.81673 139.936 13.0159Z"/>
</mask>
<path class="clients-icon"  fill-rule="evenodd" clip-rule="evenodd" d="M61.6939 0.583585H67.4738V20.478H74.9333V25.3122H61.6939V19.447C59.3018 23.2444 54.8716 25.7696 49.7985 25.7696C43.3734 25.7696 37.9747 21.7195 36.4498 16.1639C36.2063 21.418 31.85 25.7696 26.547 25.7696C22.2898 25.7696 18.6413 22.9645 17.2428 19.1408C16.4826 23.3503 12.544 25.311 10.4854 25.311H0.875V0.583585H9.61251C11.3593 0.583585 15.1227 3.0701 15.1227 7.37057C15.122 8.82367 14.7515 10.2527 14.0461 11.5231C15.148 12.2794 16.038 13.305 16.6317 14.5024V0.583585H21.9472V16.1081H21.9495L21.9472 16.1547C21.9472 18.7266 23.9751 20.6931 26.547 20.6931C29.1189 20.6931 31.1456 18.7266 31.1456 16.1547L31.1433 16.1081H31.1456V0.584722H36.4612V9.69435C38.002 4.15233 43.3893 0.10563 49.7985 0.10563C54.5075 0.10563 58.6612 2.2405 61.1477 5.6192L57.0782 9.00246C55.6068 6.75037 52.8984 5.33243 49.7996 5.33243C45.1281 5.33243 41.3409 8.69861 41.3409 12.9502C41.3409 17.2017 45.1293 20.6942 49.7996 20.6942C52.9689 20.6942 55.7297 19.0612 57.1784 16.7135H50.471V11.5049H61.6939V0.583585ZM75.6059 25.311V0.583585H90.9961V5.42233H81.3846V9.3871H90.9961V14.293H81.3846V20.4768H90.9961V25.311H75.6059ZM151.01 8.3299L156.253 0.583585H163.008L153.697 14.491V25.3099H148.32V14.491L145.051 9.60673C145.369 10.6947 145.542 11.8372 145.542 13.0162C145.542 20.1024 139.415 25.7685 131.856 25.7685C126.292 25.7685 121.509 22.6971 119.369 18.2509C119.042 23.0749 114.699 25.311 112.501 25.311H102.89V0.583585H111.628C113.375 0.583585 117.14 3.0701 117.14 7.37057C117.139 8.82343 116.769 10.2522 116.065 11.5231C116.909 12.1033 117.631 12.8424 118.192 13.699C118.178 13.4725 118.171 13.246 118.171 13.0162C118.171 5.92987 124.298 0.104492 131.856 0.104492C135.281 0.104492 138.411 1.3028 140.811 3.27039L139.01 0.583585H145.765L151.01 8.3299ZM7.79752 10.1095H5.98242V5.67359H7.79752C8.87292 5.67359 9.20863 7.15184 9.20863 7.95868C9.20863 8.76552 8.60322 10.1095 7.79752 10.1095ZM9.7799 20.1398H5.98242V15.7039H9.7799C10.8553 15.7039 11.7293 17.1833 11.7293 17.989C11.7293 18.7958 10.5856 20.1398 9.7799 20.1398ZM109.814 10.1095H107.998V5.67359H109.814C110.889 5.67359 111.225 7.15184 111.225 7.95868C111.225 8.76552 110.621 10.1095 109.814 10.1095ZM111.796 20.1398H107.998V15.7039H111.796C112.872 15.7039 113.746 17.1833 113.746 17.989C113.746 18.7958 112.603 20.1398 111.796 20.1398ZM139.936 13.0159C139.936 17.2151 136.319 20.6928 131.856 20.6928C127.395 20.6928 123.778 17.2151 123.778 13.0159C123.778 8.81673 127.395 5.33105 131.856 5.33105C136.319 5.33105 139.936 8.81673 139.936 13.0159Z" fill="white"/>
<path class="clients-icon"  d="M67.4738 0.583585H68.9292V-0.871848H67.4738V0.583585ZM61.6939 0.583585V-0.871848H60.2385V0.583585H61.6939ZM67.4738 20.478H66.0183V21.9334H67.4738V20.478ZM74.9333 20.478H76.3887V19.0225H74.9333V20.478ZM74.9333 25.3122V26.7676H76.3887V25.3122H74.9333ZM61.6939 25.3122H60.2385V26.7676H61.6939V25.3122ZM61.6939 19.447H63.1493V14.4057L60.4624 18.6712L61.6939 19.447ZM36.4498 16.1639L37.8533 15.7786L34.9959 16.0965L36.4498 16.1639ZM17.2428 19.1408L18.6096 18.6409L16.7649 13.5974L15.8105 18.8822L17.2428 19.1408ZM0.875 25.311H-0.580432V26.7665H0.875V25.311ZM0.875 0.583585V-0.871848H-0.580432V0.583585H0.875ZM15.1227 7.37057L16.5781 7.37129V7.37057H15.1227ZM14.0461 11.5231L12.7737 10.8166L12.1311 11.974L13.2225 12.7231L14.0461 11.5231ZM16.6317 14.5024L15.3277 15.1488L18.0871 14.5024H16.6317ZM16.6317 0.583585V-0.871848H15.1762V0.583585H16.6317ZM21.9472 0.583585H23.4027V-0.871848H21.9472V0.583585ZM21.9472 16.1081H20.4918V17.5635H21.9472V16.1081ZM21.9495 16.1081L23.4032 16.179L23.4776 14.6527H21.9495V16.1081ZM21.9472 16.1547L20.4935 16.0838L20.4918 16.1193V16.1547H21.9472ZM31.1456 16.1547H32.601V16.1193L32.5993 16.0839L31.1456 16.1547ZM31.1433 16.1081V14.6527H29.6153L29.6896 16.1789L31.1433 16.1081ZM31.1456 16.1081V17.5635H32.601V16.1081H31.1456ZM31.1456 0.584722V-0.87071H29.6902V0.584722H31.1456ZM36.4612 0.584722H37.9166V-0.87071H36.4612V0.584722ZM36.4612 9.69435H35.0058L37.8634 10.0842L36.4612 9.69435ZM61.1477 5.6192L62.0781 6.73837L63.133 5.86138L62.3199 4.75653L61.1477 5.6192ZM57.0782 9.00246L55.8598 9.79853L56.753 11.1656L58.0087 10.1216L57.0782 9.00246ZM57.1784 16.7135L58.417 17.4778L59.7867 15.2581H57.1784V16.7135ZM50.471 16.7135H49.0156V18.1689H50.471V16.7135ZM50.471 11.5049V10.0495H49.0156V11.5049H50.471ZM61.6939 11.5049V12.9603H63.1493V11.5049H61.6939ZM75.6059 0.583585V-0.871848H74.1504V0.583585H75.6059ZM75.6059 25.311H74.1504V26.7665H75.6059V25.311ZM90.9961 0.583585H92.4515V-0.871848H90.9961V0.583585ZM90.9961 5.42233V6.87776H92.4515V5.42233H90.9961ZM81.3846 5.42233V3.9669H79.9292V5.42233H81.3846ZM81.3846 9.3871H79.9292V10.8425H81.3846V9.3871ZM90.9961 9.3871H92.4515V7.93167H90.9961V9.3871ZM90.9961 14.293V15.7484H92.4515V14.293H90.9961ZM81.3846 14.293V12.8376H79.9292V14.293H81.3846ZM81.3846 20.4768H79.9292V21.9323H81.3846V20.4768ZM90.9961 20.4768H92.4515V19.0214H90.9961V20.4768ZM90.9961 25.311V26.7665H92.4515V25.311H90.9961ZM156.253 0.583585V-0.871848H155.481L155.048 -0.232183L156.253 0.583585ZM151.01 8.3299L149.805 9.14592L151.011 10.9262L152.216 9.14567L151.01 8.3299ZM163.008 0.583585L164.218 1.39329L165.734 -0.871848H163.008V0.583585ZM153.697 14.491L152.488 13.6813L152.242 14.0488V14.491H153.697ZM153.697 25.3099V26.7653H155.153V25.3099H153.697ZM148.32 25.3099H146.865V26.7653H148.32V25.3099ZM148.32 14.491H149.776V14.0488L149.53 13.6814L148.32 14.491ZM145.051 9.60673L146.26 8.79713L143.654 10.0158L145.051 9.60673ZM119.369 18.2509L120.68 17.6196L118.289 12.653L117.916 18.1526L119.369 18.2509ZM102.89 25.311H101.435V26.7665H102.89V25.311ZM102.89 0.583585V-0.871848H101.435V0.583585H102.89ZM117.14 7.37057L118.596 7.37205V7.37057H117.14ZM116.065 11.5231L114.792 10.8179L114.152 11.9737L115.24 12.7223L116.065 11.5231ZM118.192 13.699L116.974 14.4962L119.974 19.0784L119.645 13.6113L118.192 13.699ZM140.811 3.27039L139.888 4.39592L142.02 2.46023L140.811 3.27039ZM139.01 0.583585V-0.871848H136.283L137.801 1.39374L139.01 0.583585ZM145.765 0.583585L146.971 -0.232427L146.538 -0.871848H145.765V0.583585ZM5.98242 10.1095H4.52699V11.5649H5.98242V10.1095ZM5.98242 5.67359V4.21816H4.52699V5.67359H5.98242ZM5.98242 20.1398H4.52699V21.5952H5.98242V20.1398ZM5.98242 15.7039V14.2484H4.52699V15.7039H5.98242ZM107.998 10.1095H106.542V11.5649H107.998V10.1095ZM107.998 5.67359V4.21816H106.542V5.67359H107.998ZM107.998 20.1398H106.542V21.5952H107.998V20.1398ZM107.998 15.7039V14.2484H106.542V15.7039H107.998ZM67.4738 -0.871848H61.6939V2.03902H67.4738V-0.871848ZM68.9292 20.478V0.583585H66.0183V20.478H68.9292ZM74.9333 19.0225H67.4738V21.9334H74.9333V19.0225ZM76.3887 25.3122V20.478H73.4779V25.3122H76.3887ZM61.6939 26.7676H74.9333V23.8567H61.6939V26.7676ZM60.2385 19.447V25.3122H63.1493V19.447H60.2385ZM49.7985 27.2251C55.3545 27.2251 60.2578 24.4575 62.9254 20.2227L60.4624 18.6712C58.3459 22.0313 54.3888 24.3142 49.7985 24.3142V27.2251ZM35.0463 16.5491C36.7586 22.7877 42.7721 27.2251 49.7985 27.2251V24.3142C43.9746 24.3142 39.1908 20.6514 37.8533 15.7786L35.0463 16.5491ZM26.547 27.2251C32.6609 27.2251 37.6257 22.2285 37.9037 16.2312L34.9959 16.0965C34.7868 20.6074 31.0392 24.3142 26.547 24.3142V27.2251ZM15.8759 19.6408C17.4684 23.9945 21.6334 27.2251 26.547 27.2251V24.3142C22.9461 24.3142 19.8143 21.9345 18.6096 18.6409L15.8759 19.6408ZM10.4854 26.7665C11.8939 26.7665 13.6949 26.1314 15.2318 24.9631C16.8065 23.766 18.2194 21.9223 18.675 19.3995L15.8105 18.8822C15.5059 20.5688 14.5694 21.8102 13.4702 22.6458C12.3331 23.5102 11.1354 23.8556 10.4854 23.8556V26.7665ZM0.875 26.7665H10.4854V23.8556H0.875V26.7665ZM-0.580432 0.583585V25.311H2.33043V0.583585H-0.580432ZM9.61251 -0.871848H0.875V2.03902H9.61251V-0.871848ZM16.5781 7.37057C16.5781 4.76741 15.4327 2.71612 14.0518 1.33525C13.3637 0.647173 12.6029 0.109633 11.8632 -0.261545C11.1459 -0.62146 10.354 -0.871848 9.61251 -0.871848V2.03902C9.74446 2.03902 10.078 2.09944 10.5577 2.34014C11.0149 2.56957 11.5224 2.92244 11.9935 3.39355C12.931 4.33106 13.6672 5.67326 13.6672 7.37057H16.5781ZM15.3186 12.2296C16.1438 10.7433 16.5773 9.07136 16.5781 7.37129L13.6672 7.36985C13.6666 8.57598 13.3591 9.76212 12.7737 10.8166L15.3186 12.2296ZM17.9356 13.8559C17.2317 12.4361 16.1763 11.2199 14.8698 10.3231L13.2225 12.7231C14.1196 13.3389 14.8443 14.1739 15.3277 15.1488L17.9356 13.8559ZM15.1762 0.583585V14.5024H18.0871V0.583585H15.1762ZM21.9472 -0.871848H16.6317V2.03902H21.9472V-0.871848ZM23.4027 16.1081V0.583585H20.4918V16.1081H23.4027ZM21.9495 14.6527H21.9472V17.5635H21.9495V14.6527ZM23.4009 16.2256L23.4032 16.179L20.4958 16.0372L20.4935 16.0838L23.4009 16.2256ZM26.547 19.2376C24.7531 19.2376 23.4027 17.8972 23.4027 16.1547H20.4918C20.4918 19.556 23.1971 22.1485 26.547 22.1485V19.2376ZM29.6902 16.1547C29.6902 17.8977 28.3404 19.2376 26.547 19.2376V22.1485C29.8973 22.1485 32.601 19.5555 32.601 16.1547H29.6902ZM29.6896 16.1789L29.6919 16.2256L32.5993 16.0839L32.597 16.0372L29.6896 16.1789ZM31.1456 14.6527H31.1433V17.5635H31.1456V14.6527ZM29.6902 0.584722V16.1081H32.601V0.584722H29.6902ZM36.4612 -0.87071H31.1456V2.04015H36.4612V-0.87071ZM37.9166 9.69435V0.584722H35.0058V9.69435H37.9166ZM49.7985 -1.3498C42.786 -1.3498 36.788 3.08543 35.0589 9.30449L37.8634 10.0842C39.216 5.21922 43.9926 1.56106 49.7985 1.56106V-1.3498ZM62.3199 4.75653C59.5465 0.988022 54.9486 -1.3498 49.7985 -1.3498V1.56106C54.0664 1.56106 57.7758 3.49297 59.9755 6.48187L62.3199 4.75653ZM58.0087 10.1216L62.0781 6.73837L60.2172 4.50003L56.1478 7.88329L58.0087 10.1216ZM49.7996 6.78786C52.463 6.78786 54.6864 8.00266 55.8598 9.79853L58.2966 8.20639C56.5271 5.49808 53.3337 3.87699 49.7996 3.87699V6.78786ZM42.7963 12.9502C42.7963 9.64726 45.779 6.78786 49.7996 6.78786V3.87699C44.4773 3.87699 39.8855 7.74996 39.8855 12.9502H42.7963ZM49.7996 19.2388C45.8126 19.2388 42.7963 16.2824 42.7963 12.9502H39.8855C39.8855 18.121 44.446 22.1496 49.7996 22.1496V19.2388ZM55.9398 15.9492C54.76 17.861 52.4715 19.2388 49.7996 19.2388V22.1496C53.4663 22.1496 56.6993 20.2613 58.417 17.4778L55.9398 15.9492ZM50.471 18.1689H57.1784V15.2581H50.471V18.1689ZM49.0156 11.5049V16.7135H51.9264V11.5049H49.0156ZM61.6939 10.0495H50.471V12.9603H61.6939V10.0495ZM60.2385 0.583585V11.5049H63.1493V0.583585H60.2385ZM74.1504 0.583585V25.311H77.0613V0.583585H74.1504ZM90.9961 -0.871848H75.6059V2.03902H90.9961V-0.871848ZM92.4515 5.42233V0.583585H89.5407V5.42233H92.4515ZM81.3846 6.87776H90.9961V3.9669H81.3846V6.87776ZM82.84 9.3871V5.42233H79.9292V9.3871H82.84ZM90.9961 7.93167H81.3846V10.8425H90.9961V7.93167ZM92.4515 14.293V9.3871H89.5407V14.293H92.4515ZM81.3846 15.7484H90.9961V12.8376H81.3846V15.7484ZM82.84 20.4768V14.293H79.9292V20.4768H82.84ZM90.9961 19.0214H81.3846V21.9323H90.9961V19.0214ZM92.4515 25.311V20.4768H89.5407V25.311H92.4515ZM75.6059 26.7665H90.9961V23.8556H75.6059V26.7665ZM155.048 -0.232183L149.805 7.51413L152.216 9.14567L157.458 1.39935L155.048 -0.232183ZM163.008 -0.871848H156.253V2.03902H163.008V-0.871848ZM154.907 15.3007L164.218 1.39329L161.799 -0.226118L152.488 13.6813L154.907 15.3007ZM155.153 25.3099V14.491H152.242V25.3099H155.153ZM148.32 26.7653H153.697V23.8545H148.32V26.7653ZM146.865 14.491V25.3099H149.776V14.491H146.865ZM143.841 10.4163L147.111 15.3006L149.53 13.6814L146.26 8.79713L143.841 10.4163ZM146.998 13.0162C146.998 11.6938 146.804 10.4137 146.448 9.19765L143.654 10.0158C143.935 10.9756 144.087 11.9805 144.087 13.0162H146.998ZM131.856 27.2239C140.117 27.2239 146.998 21.0045 146.998 13.0162H144.087C144.087 19.2004 138.714 24.3131 131.856 24.3131V27.2239ZM118.057 18.8823C120.451 23.8548 125.758 27.2239 131.856 27.2239V24.3131C126.826 24.3131 122.567 21.5394 120.68 17.6196L118.057 18.8823ZM112.501 26.7665C113.999 26.7665 115.953 26.0476 117.566 24.7103C119.225 23.334 120.626 21.2181 120.821 18.3492L117.916 18.1526C117.784 20.1077 116.85 21.5219 115.708 22.4696C114.518 23.4564 113.201 23.8556 112.501 23.8556V26.7665ZM102.89 26.7665H112.501V23.8556H102.89V26.7665ZM101.435 0.583585V25.311H104.346V0.583585H101.435ZM111.628 -0.871848H102.89V2.03902H111.628V-0.871848ZM118.596 7.37057C118.596 4.76711 117.45 2.71575 116.068 1.335C115.38 0.646965 114.619 0.109486 113.879 -0.261638C113.161 -0.621492 112.369 -0.871848 111.628 -0.871848V2.03902C111.76 2.03902 112.094 2.09948 112.574 2.34023C113.031 2.56972 113.539 2.92265 114.01 3.3938C114.948 4.33142 115.685 5.67356 115.685 7.37057H118.596ZM117.338 12.2283C118.161 10.742 118.594 9.0711 118.596 7.37205L115.685 7.3691C115.684 8.57576 115.376 9.76238 114.792 10.8179L117.338 12.2283ZM119.41 12.9017C118.745 11.8869 117.889 11.0113 116.89 10.3239L115.24 12.7223C115.928 13.1953 116.517 13.7979 116.974 14.4962L119.41 12.9017ZM116.716 13.0162C116.716 13.2751 116.724 13.5307 116.739 13.7866L119.645 13.6113C119.633 13.4143 119.627 13.217 119.627 13.0162H116.716ZM131.856 -1.35094C123.572 -1.35094 116.716 5.05067 116.716 13.0162H119.627C119.627 6.80907 125.025 1.55992 131.856 1.55992V-1.35094ZM141.733 2.14485C139.078 -0.0318411 135.624 -1.35094 131.856 -1.35094V1.55992C134.938 1.55992 137.743 2.63743 139.888 4.39592L141.733 2.14485ZM137.801 1.39374L139.601 4.08055L142.02 2.46023L140.219 -0.226574L137.801 1.39374ZM145.765 -0.871848H139.01V2.03902H145.765V-0.871848ZM152.216 7.51389L146.971 -0.232427L144.56 1.3996L149.805 9.14592L152.216 7.51389ZM5.98242 11.5649H7.79752V8.65406H5.98242V11.5649ZM4.52699 5.67359V10.1095H7.43785V5.67359H4.52699ZM7.79752 4.21816H5.98242V7.12903H7.79752V4.21816ZM10.6641 7.95868C10.6641 7.40286 10.5559 6.61054 10.2265 5.9008C9.90024 5.1979 9.15735 4.21816 7.79752 4.21816V7.12903C7.70168 7.12903 7.60137 7.08611 7.54379 7.03846C7.50926 7.00988 7.53613 7.01846 7.5862 7.12634C7.63372 7.2287 7.67828 7.36979 7.70993 7.53504C7.74128 7.69872 7.7532 7.85074 7.7532 7.95868H10.6641ZM7.79752 11.5649C9.02813 11.5649 9.75721 10.5989 10.0658 10.064C10.4245 9.44251 10.6641 8.65652 10.6641 7.95868H7.7532C7.7532 7.99243 7.7444 8.08889 7.70346 8.23028C7.66403 8.36642 7.60733 8.50051 7.54459 8.60926C7.478 8.72465 7.43265 8.7634 7.4384 8.75871C7.44902 8.75006 7.57446 8.65406 7.79752 8.65406V11.5649ZM5.98242 21.5952H9.7799V18.6843H5.98242V21.5952ZM4.52699 15.7039V20.1398H7.43785V15.7039H4.52699ZM9.7799 14.2484H5.98242V17.1593H9.7799V14.2484ZM13.1847 17.989C13.1847 17.1737 12.7958 16.3024 12.3222 15.671C11.8561 15.0495 10.9908 14.2484 9.7799 14.2484V17.1593C9.70593 17.1593 9.69103 17.1329 9.746 17.1686C9.80454 17.2065 9.89483 17.2859 9.99353 17.4175C10.0904 17.5466 10.1694 17.6918 10.2208 17.823C10.2774 17.9673 10.2739 18.0253 10.2739 17.989H13.1847ZM9.7799 21.5952C10.3628 21.5952 10.8582 21.3636 11.1989 21.1494C11.5595 20.9228 11.8811 20.6315 12.1466 20.3315C12.4134 20.0301 12.6565 19.6826 12.8396 19.3166C13.0127 18.9706 13.1847 18.5037 13.1847 17.989H10.2739C10.2739 17.8776 10.3029 17.8812 10.2364 18.0142C10.1799 18.1272 10.0867 18.2669 9.96686 18.4023C9.8457 18.5392 9.73034 18.6343 9.6499 18.6849C9.54957 18.748 9.59989 18.6843 9.7799 18.6843V21.5952ZM107.998 11.5649H109.814V8.65406H107.998V11.5649ZM106.542 5.67359V10.1095H109.453V5.67359H106.542ZM109.814 4.21816H107.998V7.12903H109.814V4.21816ZM112.681 7.95868C112.681 7.40286 112.572 6.61054 112.243 5.9008C111.917 5.1979 111.174 4.21816 109.814 4.21816V7.12903C109.718 7.12903 109.618 7.08611 109.56 7.03846C109.526 7.00989 109.553 7.01846 109.603 7.12635C109.65 7.22871 109.695 7.3698 109.726 7.53504C109.758 7.69872 109.77 7.85074 109.77 7.95868H112.681ZM109.814 11.5649C111.045 11.5649 111.774 10.5994 112.083 10.0637C112.442 9.44188 112.681 8.656 112.681 7.95868H109.77C109.77 7.99273 109.761 8.08938 109.72 8.23075C109.681 8.36692 109.624 8.50094 109.561 8.60956C109.495 8.72482 109.45 8.76339 109.456 8.75857C109.467 8.74968 109.592 8.65406 109.814 8.65406V11.5649ZM107.998 21.5952H111.796V18.6843H107.998V21.5952ZM106.542 15.7039V20.1398H109.453V15.7039H106.542ZM111.796 14.2484H107.998V17.1593H111.796V14.2484ZM115.201 17.989C115.201 17.1737 114.812 16.3024 114.339 15.671C113.873 15.0495 113.007 14.2484 111.796 14.2484V17.1593C111.722 17.1593 111.708 17.1329 111.763 17.1686C111.821 17.2065 111.911 17.2859 112.01 17.4175C112.107 17.5466 112.186 17.6918 112.237 17.823C112.294 17.9673 112.29 18.0253 112.29 17.989H115.201ZM111.796 21.5952C112.379 21.5952 112.875 21.3638 113.216 21.1495C113.577 20.9228 113.898 20.6314 114.164 20.3313C114.431 20.0298 114.674 19.6822 114.856 19.3162C115.03 18.9702 115.201 18.5034 115.201 17.989H112.29C112.29 17.8779 112.319 17.8817 112.253 18.0146C112.196 18.1275 112.103 18.2672 111.984 18.4025C111.863 18.5393 111.747 18.6343 111.667 18.6848C111.567 18.7477 111.617 18.6843 111.796 18.6843V21.5952ZM131.856 22.1483C137.057 22.1483 141.391 18.0832 141.391 13.0159H138.48C138.48 16.347 135.581 19.2374 131.856 19.2374V22.1483ZM122.323 13.0159C122.323 18.0829 126.657 22.1483 131.856 22.1483V19.2374C128.133 19.2374 125.234 16.3473 125.234 13.0159H122.323ZM131.856 3.87562C126.655 3.87562 122.323 7.95081 122.323 13.0159H125.234C125.234 9.68264 128.135 6.78649 131.856 6.78649V3.87562ZM141.391 13.0159C141.391 7.95056 137.059 3.87562 131.856 3.87562V6.78649C135.579 6.78649 138.48 9.68289 138.48 13.0159H141.391Z" fill="white" fill-opacity="0.2" mask="url(#path-1-inside-1_414_17088)"/>
<mask id="path-3-inside-2_414_17088" fill="white">
<path class="clients-icon"  fill-rule="evenodd" clip-rule="evenodd" d="M2.39062 30.624V41.9129H8.0658V40.784H3.64014V36.6144H7.76537V35.4855H3.64014V31.754H8.03507V30.624H2.39062ZM32.1969 30.624L29.5477 36.2833L26.9132 30.624H25.5283L28.915 37.5328V41.9129H30.1645V37.5328L33.5819 30.624H32.1969ZM50.8669 30.624V41.9129H56.5409V40.784H52.1164V36.6144H56.2405V35.4855H52.1164V31.754H56.5113V30.624H50.8669ZM76.2339 41.9129H77.7838L79.4271 34.2519C79.5921 33.4383 79.682 32.611 79.7878 31.5265H79.8174C79.9073 32.76 79.9983 33.5145 80.1486 34.2519L81.6541 41.9129H83.2041L85.8545 30.624H84.4695L82.8274 38.4967C82.6821 39.2109 82.5951 39.9384 82.5041 40.6986C82.4918 40.8019 82.4793 40.9059 82.4667 41.0105H82.4371C82.3312 39.91 82.2413 39.159 82.1059 38.4056L80.6151 30.624H79.064L77.4083 38.4967C77.2613 39.2194 77.173 39.9556 77.0807 40.7255C77.0694 40.82 77.058 40.915 77.0464 41.0105H77.0168C76.9258 39.9567 76.8211 39.1749 76.6856 38.4056L75.2108 30.624H73.8259L76.2339 41.9129ZM102.973 30.624V41.9129H108.647V40.784H104.222V36.6144H108.347V35.4855H104.222V31.754H108.619V30.624H102.973ZM131.256 30.624H129.6L126.38 41.9129H127.764L128.591 38.6617H132.158L133.047 41.9129H134.432L131.256 30.624ZM130.384 31.5269H130.415L131.875 37.5332H128.895L130.384 31.5269Z"/>
</mask>
<path class="clients-icon"  fill-rule="evenodd" clip-rule="evenodd" d="M2.39062 30.624V41.9129H8.0658V40.784H3.64014V36.6144H7.76537V35.4855H3.64014V31.754H8.03507V30.624H2.39062ZM32.1969 30.624L29.5477 36.2833L26.9132 30.624H25.5283L28.915 37.5328V41.9129H30.1645V37.5328L33.5819 30.624H32.1969ZM50.8669 30.624V41.9129H56.5409V40.784H52.1164V36.6144H56.2405V35.4855H52.1164V31.754H56.5113V30.624H50.8669ZM76.2339 41.9129H77.7838L79.4271 34.2519C79.5921 33.4383 79.682 32.611 79.7878 31.5265H79.8174C79.9073 32.76 79.9983 33.5145 80.1486 34.2519L81.6541 41.9129H83.2041L85.8545 30.624H84.4695L82.8274 38.4967C82.6821 39.2109 82.5951 39.9384 82.5041 40.6986C82.4918 40.8019 82.4793 40.9059 82.4667 41.0105H82.4371C82.3312 39.91 82.2413 39.159 82.1059 38.4056L80.6151 30.624H79.064L77.4083 38.4967C77.2613 39.2194 77.173 39.9556 77.0807 40.7255C77.0694 40.82 77.058 40.915 77.0464 41.0105H77.0168C76.9258 39.9567 76.8211 39.1749 76.6856 38.4056L75.2108 30.624H73.8259L76.2339 41.9129ZM102.973 30.624V41.9129H108.647V40.784H104.222V36.6144H108.347V35.4855H104.222V31.754H108.619V30.624H102.973ZM131.256 30.624H129.6L126.38 41.9129H127.764L128.591 38.6617H132.158L133.047 41.9129H134.432L131.256 30.624ZM130.384 31.5269H130.415L131.875 37.5332H128.895L130.384 31.5269Z" fill="white"/>
<path class="clients-icon"  d="M2.39062 41.9129H0.935193V43.3683H2.39062V41.9129ZM2.39062 30.624V29.1686H0.935193V30.624H2.39062ZM8.0658 41.9129V43.3683H9.52123V41.9129H8.0658ZM8.0658 40.784H9.52123V39.3286H8.0658V40.784ZM3.64014 40.784H2.18471V42.2395H3.64014V40.784ZM3.64014 36.6144V35.159H2.18471V36.6144H3.64014ZM7.76537 36.6144V38.0699H9.2208V36.6144H7.76537ZM7.76537 35.4855H9.2208V34.0301H7.76537V35.4855ZM3.64014 35.4855H2.18471V36.941H3.64014V35.4855ZM3.64014 31.754V30.2986H2.18471V31.754H3.64014ZM8.03507 31.754V33.2095H9.4905V31.754H8.03507ZM8.03507 30.624H9.4905V29.1686H8.03507V30.624ZM29.5477 36.2833L28.2282 36.8975L29.544 39.724L30.8658 36.9003L29.5477 36.2833ZM32.1969 30.624V29.1686H31.2713L30.8788 30.007L32.1969 30.624ZM26.9132 30.624L28.2327 30.0098L27.8411 29.1686H26.9132V30.624ZM25.5283 30.624V29.1686H23.194L24.2214 31.2646L25.5283 30.624ZM28.915 37.5328H30.3704V37.1952L30.2218 36.8922L28.915 37.5328ZM28.915 41.9129H27.4595V43.3683H28.915V41.9129ZM30.1645 41.9129V43.3683H31.6199V41.9129H30.1645ZM30.1645 37.5328L28.8599 36.8875L28.7091 37.1925V37.5328H30.1645ZM33.5819 30.624L34.8864 31.2693L35.9256 29.1686H33.5819V30.624ZM50.8669 41.9129H49.4114V43.3683H50.8669V41.9129ZM50.8669 30.624V29.1686H49.4114V30.624H50.8669ZM56.5409 41.9129V43.3683H57.9963V41.9129H56.5409ZM56.5409 40.784H57.9963V39.3286H56.5409V40.784ZM52.1164 40.784H50.6609V42.2395H52.1164V40.784ZM52.1164 36.6144V35.159H50.6609V36.6144H52.1164ZM56.2405 36.6144V38.0699H57.6959V36.6144H56.2405ZM56.2405 35.4855H57.6959V34.0301H56.2405V35.4855ZM52.1164 35.4855H50.6609V36.941H52.1164V35.4855ZM52.1164 31.754V30.2986H50.6609V31.754H52.1164ZM56.5113 31.754V33.2095H57.9667V31.754H56.5113ZM56.5113 30.624H57.9667V29.1686H56.5113V30.624ZM77.7838 41.9129V43.3683H78.9602L79.2069 42.2182L77.7838 41.9129ZM76.2339 41.9129L74.8104 42.2165L75.0561 43.3683H76.2339V41.9129ZM79.4271 34.2519L80.8501 34.5572L80.8518 34.5492L80.8535 34.5412L79.4271 34.2519ZM79.7878 31.5265V30.071H78.4675L78.3393 31.3851L79.7878 31.5265ZM79.8174 31.5265L81.269 31.4207L81.1706 30.071H79.8174V31.5265ZM80.1486 34.2519L81.5767 33.9713L81.5747 33.9614L80.1486 34.2519ZM81.6541 41.9129L80.226 42.1936L80.4569 43.3683H81.6541V41.9129ZM83.2041 41.9129V43.3683H84.3574L84.621 42.2456L83.2041 41.9129ZM85.8545 30.624L87.2714 30.9567L87.6912 29.1686H85.8545V30.624ZM84.4695 30.624V29.1686H83.2863L83.0447 30.3268L84.4695 30.624ZM82.8274 38.4967L81.4026 38.1995L81.4012 38.2066L82.8274 38.4967ZM82.5041 40.6986L81.059 40.5256V40.5256L82.5041 40.6986ZM82.4667 41.0105V42.4659H83.7565L83.9115 41.1854L82.4667 41.0105ZM82.4371 41.0105L80.9883 41.1498L81.1149 42.4659H82.4371V41.0105ZM82.1059 38.4056L83.5384 38.1481L83.5369 38.1399L83.5353 38.1318L82.1059 38.4056ZM80.6151 30.624L82.0446 30.3502L81.8182 29.1686H80.6151V30.624ZM79.064 30.624V29.1686H77.8829L77.6398 30.3245L79.064 30.624ZM77.4083 38.4967L75.984 38.1971L75.982 38.2066L77.4083 38.4967ZM77.0807 40.7255L78.5258 40.8988V40.8988L77.0807 40.7255ZM77.0464 41.0105V42.4659H78.3362L78.4913 41.1854L77.0464 41.0105ZM77.0168 41.0105L75.5668 41.1358L75.6817 42.4659H77.0168V41.0105ZM76.6856 38.4056L78.119 38.1533L78.1174 38.1439L78.1156 38.1346L76.6856 38.4056ZM75.2108 30.624L76.6408 30.353L76.4163 29.1686H75.2108V30.624ZM73.8259 30.624V29.1686H72.0272L72.4025 30.9276L73.8259 30.624ZM102.973 41.9129H101.518V43.3683H102.973V41.9129ZM102.973 30.624V29.1686H101.518V30.624H102.973ZM108.647 41.9129V43.3683H110.103V41.9129H108.647ZM108.647 40.784H110.103V39.3286H108.647V40.784ZM104.222 40.784H102.766V42.2395H104.222V40.784ZM104.222 36.6144V35.159H102.766V36.6144H104.222ZM108.347 36.6144V38.0699H109.802V36.6144H108.347ZM108.347 35.4855H109.802V34.0301H108.347V35.4855ZM104.222 35.4855H102.766V36.941H104.222V35.4855ZM104.222 31.754V30.2986H102.766V31.754H104.222ZM108.619 31.754V33.2095H110.074V31.754H108.619ZM108.619 30.624H110.074V29.1686H108.619V30.624ZM129.6 30.624V29.1686H128.502L128.2 30.2247L129.6 30.624ZM131.256 30.624L132.657 30.2298L132.358 29.1686H131.256V30.624ZM126.38 41.9129L124.98 41.5136L124.451 43.3683H126.38V41.9129ZM127.764 41.9129V43.3683H128.896L129.175 42.2714L127.764 41.9129ZM128.591 38.6617V37.2062H127.459L127.18 38.3032L128.591 38.6617ZM132.158 38.6617L133.562 38.2779L133.269 37.2062H132.158V38.6617ZM133.047 41.9129L131.643 42.2967L131.936 43.3683H133.047V41.9129ZM134.432 41.9129V43.3683H136.353L135.833 41.5187L134.432 41.9129ZM130.415 31.5269L131.829 31.1831L131.559 30.0714H130.415V31.5269ZM130.384 31.5269V30.0714H129.246L128.972 31.1765L130.384 31.5269ZM131.875 37.5332V38.9886H133.727L133.289 37.1894L131.875 37.5332ZM128.895 37.5332L127.482 37.1828L127.034 38.9886H128.895V37.5332ZM3.84606 41.9129V30.624H0.935193V41.9129H3.84606ZM8.0658 40.4575H2.39062V43.3683H8.0658V40.4575ZM6.61037 40.784V41.9129H9.52123V40.784H6.61037ZM3.64014 42.2395H8.0658V39.3286H3.64014V42.2395ZM2.18471 36.6144V40.784H5.09557V36.6144H2.18471ZM7.76537 35.159H3.64014V38.0699H7.76537V35.159ZM6.30993 35.4855V36.6144H9.2208V35.4855H6.30993ZM3.64014 36.941H7.76537V34.0301H3.64014V36.941ZM2.18471 31.754V35.4855H5.09557V31.754H2.18471ZM8.03507 30.2986H3.64014V33.2095H8.03507V30.2986ZM6.57964 30.624V31.754H9.4905V30.624H6.57964ZM2.39062 32.0795H8.03507V29.1686H2.39062V32.0795ZM30.8658 36.9003L33.5151 31.2411L30.8788 30.007L28.2295 35.6662L30.8658 36.9003ZM25.5938 31.2383L28.2282 36.8975L30.8672 35.669L28.2327 30.0098L25.5938 31.2383ZM25.5283 32.0795H26.9132V29.1686H25.5283V32.0795ZM30.2218 36.8922L26.8352 29.9834L24.2214 31.2646L27.6081 38.1734L30.2218 36.8922ZM30.3704 41.9129V37.5328H27.4595V41.9129H30.3704ZM30.1645 40.4575H28.915V43.3683H30.1645V40.4575ZM28.7091 37.5328V41.9129H31.6199V37.5328H28.7091ZM32.2773 29.9787L28.8599 36.8875L31.469 38.1781L34.8864 31.2693L32.2773 29.9787ZM32.1969 32.0795H33.5819V29.1686H32.1969V32.0795ZM52.3223 41.9129V30.624H49.4114V41.9129H52.3223ZM56.5409 40.4575H50.8669V43.3683H56.5409V40.4575ZM55.0855 40.784V41.9129H57.9963V40.784H55.0855ZM52.1164 42.2395H56.5409V39.3286H52.1164V42.2395ZM50.6609 36.6144V40.784H53.5718V36.6144H50.6609ZM56.2405 35.159H52.1164V38.0699H56.2405V35.159ZM54.785 35.4855V36.6144H57.6959V35.4855H54.785ZM52.1164 36.941H56.2405V34.0301H52.1164V36.941ZM50.6609 31.754V35.4855H53.5718V31.754H50.6609ZM56.5113 30.2986H52.1164V33.2095H56.5113V30.2986ZM55.0559 30.624V31.754H57.9667V30.624H55.0559ZM50.8669 32.0795H56.5113V29.1686H50.8669V32.0795ZM77.7838 40.4575H76.2339V43.3683H77.7838V40.4575ZM78.004 33.9467L76.3607 41.6077L79.2069 42.2182L80.8501 34.5572L78.004 33.9467ZM78.3393 31.3851C78.2331 32.473 78.149 33.2314 78.0007 33.9627L80.8535 34.5412C81.0352 33.6452 81.1309 32.7489 81.2364 31.6678L78.3393 31.3851ZM79.8174 30.071H79.7878V32.9819H79.8174V30.071ZM81.5747 33.9614C81.4424 33.3118 81.3569 32.6274 81.269 31.4207L78.3658 31.6322C78.4577 32.8927 78.5543 33.7172 78.7224 34.5425L81.5747 33.9614ZM83.0822 41.6323L81.5767 33.9713L78.7204 34.5326L80.226 42.1936L83.0822 41.6323ZM83.2041 40.4575H81.6541V43.3683H83.2041V40.4575ZM84.4375 30.2914L81.7872 41.5803L84.621 42.2456L87.2714 30.9567L84.4375 30.2914ZM84.4695 32.0795H85.8545V29.1686H84.4695V32.0795ZM84.2522 38.7938L85.8943 30.9212L83.0447 30.3268L81.4026 38.1995L84.2522 38.7938ZM83.9492 40.8715C84.0415 40.1006 84.1222 39.4328 84.2536 38.7867L81.4012 38.2066C81.242 38.989 81.1487 39.7763 81.059 40.5256L83.9492 40.8715ZM83.9115 41.1854C83.9243 41.0796 83.9369 40.9747 83.9492 40.8715L81.059 40.5256C81.0466 40.6291 81.0343 40.7321 81.0218 40.8356L83.9115 41.1854ZM82.4371 42.4659H82.4667V39.5551H82.4371V42.4659ZM80.6734 38.6631C80.7983 39.3577 80.8837 40.0623 80.9883 41.1498L83.8858 40.8712C83.7787 39.7578 83.6844 38.9603 83.5384 38.1481L80.6734 38.6631ZM79.1857 30.8979L80.6765 38.6795L83.5353 38.1318L82.0446 30.3502L79.1857 30.8979ZM79.064 32.0795H80.6151V29.1686H79.064V32.0795ZM78.8325 38.7962L80.4883 30.9236L77.6398 30.3245L75.984 38.1971L78.8325 38.7962ZM78.5258 40.8988C78.6194 40.1182 78.7014 39.4415 78.8345 38.7867L75.982 38.2066C75.8212 38.9973 75.7266 39.7931 75.6356 40.5522L78.5258 40.8988ZM78.4913 41.1854C78.503 41.089 78.5144 40.9932 78.5258 40.8988L75.6356 40.5522C75.6243 40.6468 75.613 40.741 75.6015 40.8355L78.4913 41.1854ZM77.0168 42.4659H77.0464V39.5551H77.0168V42.4659ZM75.2523 38.6579C75.3795 39.381 75.479 40.1201 75.5668 41.1358L78.4668 40.8852C78.3725 39.7933 78.2626 38.9688 78.119 38.1533L75.2523 38.6579ZM73.7808 30.895L75.2557 38.6766L78.1156 38.1346L76.6408 30.353L73.7808 30.895ZM73.8259 32.0795H75.2108V29.1686H73.8259V32.0795ZM77.6573 41.6093L75.2493 30.3204L72.4025 30.9276L74.8104 42.2165L77.6573 41.6093ZM104.429 41.9129V30.624H101.518V41.9129H104.429ZM108.647 40.4575H102.973V43.3683H108.647V40.4575ZM107.192 40.784V41.9129H110.103V40.784H107.192ZM104.222 42.2395H108.647V39.3286H104.222V42.2395ZM102.766 36.6144V40.784H105.677V36.6144H102.766ZM108.347 35.159H104.222V38.0699H108.347V35.159ZM106.891 35.4855V36.6144H109.802V35.4855H106.891ZM104.222 36.941H108.347V34.0301H104.222V36.941ZM102.766 31.754V35.4855H105.677V31.754H102.766ZM108.619 30.2986H104.222V33.2095H108.619V30.2986ZM107.163 30.624V31.754H110.074V30.624H107.163ZM102.973 32.0795H108.619V29.1686H102.973V32.0795ZM129.6 32.0795H131.256V29.1686H129.6V32.0795ZM127.779 42.3122L131 31.0233L128.2 30.2247L124.98 41.5136L127.779 42.3122ZM127.764 40.4575H126.38V43.3683H127.764V40.4575ZM127.18 38.3032L126.354 41.5545L129.175 42.2714L130.001 39.0201L127.18 38.3032ZM132.158 37.2062H128.591V40.1171H132.158V37.2062ZM134.451 41.5291L133.562 38.2779L130.754 39.0454L131.643 42.2967L134.451 41.5291ZM134.432 40.4575H133.047V43.3683H134.432V40.4575ZM129.855 31.0182L133.031 42.3071L135.833 41.5187L132.657 30.2298L129.855 31.0182ZM130.415 30.0714H130.384V32.9823H130.415V30.0714ZM133.289 37.1894L131.829 31.1831L129.001 31.8706L130.461 37.877L133.289 37.1894ZM128.895 38.9886H131.875V36.0778H128.895V38.9886ZM128.972 31.1765L127.482 37.1828L130.307 37.8835L131.797 31.8772L128.972 31.1765Z" fill="white" fill-opacity="0.2" mask="url(#path-3-inside-2_414_17088)"/>
<mask id="path-5-inside-3_414_17088" fill="white">
<path class="clients-icon"  fill-rule="evenodd" clip-rule="evenodd" d="M151.898 41.9129H153.148H153.149V36.9456H155.332C156.808 36.9456 157.258 37.9106 157.258 39.0395C157.258 39.7906 157.379 41.1903 157.65 41.9129H159.11V41.6569C158.821 41.6569 158.726 41.1982 158.679 40.9751C158.677 40.9664 158.676 40.9581 158.674 40.9502C158.553 40.1081 158.478 39.2785 158.432 38.4363C158.252 36.9285 157.889 36.4642 156.431 36.3288V36.2981C157.74 36.1183 158.553 35.1692 158.598 33.8445C158.673 31.2397 157.166 30.624 154.804 30.624H151.898V41.9129ZM155.119 35.817H153.148L153.146 31.7544H154.907C155.752 31.7544 157.273 31.7988 157.301 33.7413C157.332 35.7123 155.706 35.8034 155.119 35.817Z"/>
</mask>
<path class="clients-icon"  fill-rule="evenodd" clip-rule="evenodd" d="M151.898 41.9129H153.148H153.149V36.9456H155.332C156.808 36.9456 157.258 37.9106 157.258 39.0395C157.258 39.7906 157.379 41.1903 157.65 41.9129H159.11V41.6569C158.821 41.6569 158.726 41.1982 158.679 40.9751C158.677 40.9664 158.676 40.9581 158.674 40.9502C158.553 40.1081 158.478 39.2785 158.432 38.4363C158.252 36.9285 157.889 36.4642 156.431 36.3288V36.2981C157.74 36.1183 158.553 35.1692 158.598 33.8445C158.673 31.2397 157.166 30.624 154.804 30.624H151.898V41.9129ZM155.119 35.817H153.148L153.146 31.7544H154.907C155.752 31.7544 157.273 31.7988 157.301 33.7413C157.332 35.7123 155.706 35.8034 155.119 35.817Z" fill="white"/>
<path class="clients-icon"  d="M151.898 41.9129H150.443V43.3683H151.898V41.9129ZM153.149 41.9129V43.3683H154.605V41.9129H153.149ZM153.149 36.9456V35.4901H151.694V36.9456H153.149ZM157.65 41.9129L156.287 42.4237L156.641 43.3683H157.65V41.9129ZM159.11 41.9129V43.3683H160.565V41.9129H159.11ZM159.11 41.6569H160.565V40.2014H159.11V41.6569ZM158.679 40.9751L157.254 41.2709L157.254 41.2709L158.679 40.9751ZM158.674 40.9502L157.233 41.1565L157.24 41.203L157.25 41.2488L158.674 40.9502ZM158.432 38.4363L159.885 38.3558L159.882 38.3098L159.877 38.264L158.432 38.4363ZM156.431 36.3288H154.976V37.6553L156.296 37.778L156.431 36.3288ZM156.431 36.2981L156.233 34.8562L154.976 35.0289V36.2981H156.431ZM158.598 33.8445L160.052 33.8933L160.053 33.8865L158.598 33.8445ZM151.898 30.624V29.1686H150.443V30.624H151.898ZM153.148 35.817L151.692 35.8174L151.693 37.2725H153.148V35.817ZM155.119 35.817V37.2725H155.136L155.152 37.2721L155.119 35.817ZM153.146 31.7544V30.299H151.691L151.691 31.7548L153.146 31.7544ZM157.301 33.7413L155.846 33.7626L155.846 33.764L157.301 33.7413ZM153.148 40.4575H151.898V43.3683H153.148V40.4575ZM153.149 40.4575H153.148V43.3683H153.149V40.4575ZM151.694 36.9456V41.9129H154.605V36.9456H151.694ZM155.332 35.4901H153.149V38.401H155.332V35.4901ZM158.714 39.0395C158.714 38.3197 158.576 37.4207 157.998 36.6761C157.366 35.8632 156.414 35.4901 155.332 35.4901V38.401C155.544 38.401 155.645 38.4357 155.677 38.4497C155.686 38.4534 155.691 38.4563 155.694 38.4579C155.695 38.4588 155.696 38.4594 155.697 38.4598C155.698 38.4602 155.698 38.4604 155.698 38.4604C155.698 38.4604 155.698 38.4602 155.698 38.4601C155.697 38.4599 155.698 38.4605 155.699 38.4623C155.715 38.4824 155.803 38.6304 155.803 39.0395H158.714ZM159.013 41.4021C158.941 41.2102 158.859 40.822 158.798 40.3137C158.74 39.8312 158.714 39.3516 158.714 39.0395H155.803C155.803 39.4784 155.837 40.0742 155.907 40.6601C155.975 41.22 156.088 41.893 156.287 42.4237L159.013 41.4021ZM159.11 40.4575H157.65V43.3683H159.11V40.4575ZM157.654 41.6569V41.9129H160.565V41.6569H157.654ZM157.254 41.2709C157.272 41.3566 157.335 41.6911 157.482 42.0091C157.593 42.2492 158.049 43.1123 159.11 43.1123V40.2014C159.466 40.2014 159.745 40.3561 159.915 40.5127C160.058 40.6453 160.115 40.7689 160.125 40.7902C160.14 40.8231 160.133 40.8167 160.104 40.6794L157.254 41.2709ZM157.25 41.2488C157.251 41.255 157.252 41.2619 157.254 41.2709L160.104 40.6794C160.103 40.671 160.101 40.6612 160.099 40.6515L157.25 41.2488ZM156.978 38.5169C157.027 39.3927 157.106 40.2651 157.233 41.1565L160.115 40.7438C160.001 39.951 159.93 39.1642 159.885 38.3558L156.978 38.5169ZM156.296 37.778C156.947 37.8384 156.928 37.9493 156.839 37.8527C156.804 37.8152 156.824 37.8128 156.861 37.9318C156.903 38.0611 156.946 38.268 156.986 38.6087L159.877 38.264C159.786 37.5013 159.621 36.5781 158.982 35.8831C158.303 35.1435 157.373 34.9545 156.566 34.8796L156.296 37.778ZM154.976 36.2981V36.3288H157.886V36.2981H154.976ZM157.143 33.7958C157.131 34.1684 157.016 34.4018 156.894 34.5416C156.775 34.6777 156.575 34.8091 156.233 34.8562L156.629 37.7399C157.596 37.6072 158.457 37.1742 159.083 36.4596C159.706 35.7488 160.021 34.8453 160.052 33.8933L157.143 33.7958ZM154.804 32.0795C155.935 32.0795 156.495 32.2439 156.762 32.4365C156.901 32.5371 157.172 32.7896 157.143 33.8026L160.053 33.8865C160.099 32.2946 159.654 30.9368 158.468 30.0784C157.409 29.312 156.035 29.1686 154.804 29.1686V32.0795ZM151.898 32.0795H154.804V29.1686H151.898V32.0795ZM153.354 41.9129V30.624H150.443V41.9129H153.354ZM153.148 37.2725H155.119V34.3616H153.148V37.2725ZM151.691 31.7548L151.692 35.8174L154.603 35.8166L154.602 31.754L151.691 31.7548ZM154.907 30.299H153.146V33.2098H154.907V30.299ZM158.757 33.72C158.747 33.0454 158.605 32.4227 158.295 31.8849C157.98 31.3378 157.541 30.9665 157.081 30.7275C156.235 30.2888 155.299 30.299 154.907 30.299V33.2098C155.112 33.2098 155.283 33.2135 155.444 33.2346C155.604 33.2558 155.695 33.2879 155.74 33.3113C155.769 33.3263 155.769 33.3303 155.773 33.3378C155.783 33.3547 155.842 33.4659 155.846 33.7626L158.757 33.72ZM155.152 37.2721C155.458 37.265 156.341 37.2451 157.161 36.7782C157.6 36.5287 158.027 36.1495 158.331 35.5968C158.632 35.0489 158.767 34.4139 158.757 33.7186L155.846 33.764C155.851 34.0543 155.794 34.1698 155.781 34.1937C155.77 34.2129 155.759 34.2268 155.722 34.2481C155.672 34.2764 155.587 34.3082 155.46 34.3307C155.334 34.3527 155.209 34.3591 155.085 34.362L155.152 37.2721Z" fill="white" fill-opacity="0.2" mask="url(#path-5-inside-3_414_17088)"/>
<mask id="path-7-inside-4_414_17088" fill="white">
<path class="clients-icon"  fill-rule="evenodd" clip-rule="evenodd" d="M166.133 43.2869H165.777V40.9585H165.763L165.003 43.2869H164.797L164.054 40.9585H164.041V43.2869H163.687V40.5693H164.261L164.899 42.4846L165.564 40.5693H166.133V43.2869ZM163.298 40.9585H162.596V43.2869H162.203V40.9585H161.492V40.5693H163.298V40.9585Z"/>
</mask>
<path class="clients-icon"  fill-rule="evenodd" clip-rule="evenodd" d="M166.133 43.2869H165.777V40.9585H165.763L165.003 43.2869H164.797L164.054 40.9585H164.041V43.2869H163.687V40.5693H164.261L164.899 42.4846L165.564 40.5693H166.133V43.2869ZM163.298 40.9585H162.596V43.2869H162.203V40.9585H161.492V40.5693H163.298V40.9585Z" fill="white"/>
<path class="clients-icon"  d="M166.133 43.2869V44.7423H167.588V43.2869H166.133ZM165.777 43.2869H164.321V44.7423H165.777V43.2869ZM165.777 40.9585H167.232V39.5031H165.777V40.9585ZM165.763 40.9585V39.5031H164.707L164.38 40.5068L165.763 40.9585ZM165.003 43.2869V44.7423H166.059L166.386 43.7386L165.003 43.2869ZM164.797 43.2869L163.41 43.7294L163.734 44.7423H164.797V43.2869ZM164.054 40.9585L165.44 40.516L165.117 39.5031H164.054V40.9585ZM164.041 40.9585V39.5031H162.586V40.9585H164.041ZM164.041 43.2869V44.7423H165.497V43.2869H164.041ZM163.687 43.2869H162.232V44.7423H163.687V43.2869ZM163.687 40.5693V39.1139H162.232V40.5693H163.687ZM164.261 40.5693L165.642 40.1091L165.31 39.1139H164.261V40.5693ZM164.899 42.4846L163.519 42.9448L164.872 47.004L166.274 42.9617L164.899 42.4846ZM165.564 40.5693V39.1139H164.528L164.189 40.0922L165.564 40.5693ZM166.133 40.5693H167.588V39.1139H166.133V40.5693ZM163.298 40.9585V42.414H164.754V40.9585H163.298ZM162.596 40.9585V39.5031H161.141V40.9585H162.596ZM162.596 43.2869V44.7423H164.051V43.2869H162.596ZM162.203 43.2869H160.748V44.7423H162.203V43.2869ZM162.203 40.9585H163.659V39.5031H162.203V40.9585ZM161.492 40.9585H160.037V42.414H161.492V40.9585ZM161.492 40.5693V39.1139H160.037V40.5693H161.492ZM163.298 40.5693H164.754V39.1139H163.298V40.5693ZM166.133 41.8314H165.777V44.7423H166.133V41.8314ZM167.232 43.2869V40.9585H164.321V43.2869H167.232ZM165.777 39.5031H165.763V42.414H165.777V39.5031ZM164.38 40.5068L163.619 42.8351L166.386 43.7386L167.147 41.4102L164.38 40.5068ZM165.003 41.8314H164.797V44.7423H165.003V41.8314ZM166.183 42.8443L165.44 40.516L162.667 41.401L163.41 43.7294L166.183 42.8443ZM164.054 39.5031H164.041V42.414H164.054V39.5031ZM162.586 40.9585V43.2869H165.497V40.9585H162.586ZM164.041 41.8314H163.687V44.7423H164.041V41.8314ZM165.143 43.2869V40.5693H162.232V43.2869H165.143ZM163.687 42.0248H164.261V39.1139H163.687V42.0248ZM162.88 41.0296L163.519 42.9448L166.28 42.0243L165.642 40.1091L162.88 41.0296ZM166.274 42.9617L166.939 41.0465L164.189 40.0922L163.524 42.0075L166.274 42.9617ZM165.564 42.0248H166.133V39.1139H165.564V42.0248ZM164.677 40.5693V43.2869H167.588V40.5693H164.677ZM163.298 39.5031H162.596V42.414H163.298V39.5031ZM161.141 40.9585V43.2869H164.051V40.9585H161.141ZM162.596 41.8314H162.203V44.7423H162.596V41.8314ZM163.659 43.2869V40.9585H160.748V43.2869H163.659ZM162.203 39.5031H161.492V42.414H162.203V39.5031ZM162.948 40.9585V40.5693H160.037V40.9585H162.948ZM161.492 42.0248H163.298V39.1139H161.492V42.0248ZM161.843 40.5693V40.9585H164.754V40.5693H161.843Z" fill="white" fill-opacity="0.2" mask="url(#path-7-inside-4_414_17088)"/>
</svg>
