<svg width="214" height="178" viewBox="0 0 214 178" fill="none" xmlns="http://www.w3.org/2000/svg">
<path d="M26.2156 59.9509L27.293 55.6403L28.5863 50.8977L25.353 47.6645L27.5089 46.1565L27.293 42.4912L28.5863 37.318L30.9569 31.7141L32.6822 26.9715L36.9928 25.6782L38.5021 22.4449L42.5967 18.997L46.2619 18.6723L49.1719 22.2289L50.4652 18.565H53.4825L54.7758 16.3017L55.9618 13.7151L56.3924 9.18849L58.3324 7.24852L58.6583 4.55455L61.9989 1.75195L63.2935 4.55328L65.2452 6.50489H69.0087L70.8904 8.38664L74.1664 8.17714L76.6754 9.71097H81.2757L83.7149 12.1502L86.7128 12.4994L88.5247 10.6874H92.1486L94.4494 8.38664H97.3063L99.6769 9.57129C99.6769 9.57129 100.792 11.3134 101.419 11.3134C102.046 11.3134 102.186 14.4497 102.186 14.4497H105.254L107.345 16.9587H110.133L110.691 15.1468L112.503 16.9587C112.503 16.9587 115.429 18.3529 115.988 18.3529C116.547 18.3529 119.055 19.7471 119.055 19.7471L121.006 20.8619L123.515 21.8384L127.001 21.1413L130.067 22.1164L128.952 25.7416L128.952 30.0632L131.607 29.5801L135.578 29.2025L137.846 31.4709L143.234 35.1582L145.314 33.0785L149.378 37.1421V45.6495L154.484 50.7542L159.209 48.6745L164.503 47.3515L169.23 49.4311L173.578 47.3515L176.413 53.4016L181.99 54.4414L186.245 58.6951L187.757 62.8544L195.697 67.0137L198.628 71.2674L200.612 69.2821L205.339 70.4164L207.985 66.2571L212.995 70.6996L210.444 73.6302L209.687 83.8396H203.637L201.085 86.5801L198.911 84.4061L193.712 86.2012L190.356 89.5574L188.891 88.092H184.827L182.463 85.7292L180.951 82.1376H177.169L174.712 84.5949L168.096 86.2969L162.991 85.1627H158.643L156.941 89.5108H152.593L149.568 86.4857L147.11 88.9443L145.976 93.4812L143.234 96.2231L137.656 96.884L132.931 98.3971L128.582 99.1537L125.936 101.801L122.345 102.556L119.902 105.018V108.953L121.98 110.374L123.401 111.796V113.873L124.166 115.841L122.089 117.92L119.466 118.575L118.153 119.887L116.13 121.91H113.671V123.602L111.758 125.517L109.298 127.211L107.221 126.228L104.761 129.016L102.738 131.038L103.504 134.427L102.738 140.112L104.488 143.283L104.05 150.06H100.443L99.2398 152.247L94.9758 154.872L91.2045 156.892L89.0718 159.025L86.9948 159.136L83.9607 160.51L85.6872 164.941L84.1107 166.517H79.7548L76.4504 164.716L75.699 162.311L72.5446 161.71L69.5415 164.415H63.3828L61.8062 169.595L56.7727 174.627H51.2153L49.2624 176.58H46.2593L44.7552 174.479H41.0214V171.755L39.3634 170.098L35.6995 168.373V163.846L32.8775 160.671L32.2502 159.966L30.9569 155.008L27.7236 153.068L24.2757 149.189L25.569 144.663L24.2757 137.98L20.1798 134.963L15.4372 131.299L13.9292 126.34L10.6959 123.754L9.6173 120.737L12.4199 117.503L14.5758 112.761V108.234L12.2039 103.923L9.83328 100.259L11.9892 98.5355L13.2825 95.3023H15.8691L17.8091 93.577L19.3171 87.7571L19.7491 84.3091L18.0238 79.9972L15.6532 77.6266L12.4199 77.1959L10.0493 74.6093L8.1093 71.8067L5.19935 74.2847L2.93606 72.0227L0.996094 68.7894L2.93606 65.3401L7.03068 61.2442L9.83328 58.0109L10.9106 54.131L14.1439 53.9163L16.5158 56.503L17.8091 59.7362L22.1197 61.2442L26.2156 59.9509Z" fill="#F3F4F6" stroke="#E3E4E7" stroke-width="1.29331"/>
</svg>
