<svg width="200" height="63" viewBox="0 0 200 63" fill="none" xmlns="http://www.w3.org/2000/svg">
<mask id="path-1-inside-1_414_17065" fill="white">
<path class="clients-icon" d="M38.5583 0.347195C38.5583 0.728472 38.2219 0.840612 36.5398 1.04246C35.8669 1.13218 35.2165 1.28917 35.0819 1.37888C34.9698 1.4686 34.5661 1.60316 34.1848 1.69288C33.4896 1.84987 33.198 1.96201 30.5963 3.21798C27.3218 4.76552 22.1634 8.26429 19.2926 10.8884C16.4218 13.49 11.9811 18.1102 10.9494 19.5904C10.6578 19.9941 10.2541 20.5324 10.0298 20.7567C9.80556 21.0034 9.357 21.609 9.02058 22.1024C8.68415 22.6182 8.34773 23.0668 8.28045 23.1341C8.19074 23.2014 7.89917 23.6499 7.60761 24.1433C7.31605 24.6367 7.00205 25.0853 6.93477 25.1526C6.66563 25.3544 5.6788 27.1711 4.35555 29.8625C3.66028 31.2754 3.00986 32.6211 2.8753 32.823C2.76316 33.0473 2.67344 33.3388 2.67344 33.4958C2.67344 33.6528 2.53888 34.0565 2.35945 34.3929C2.18003 34.7294 1.97818 35.3125 1.88846 35.7162C1.79875 36.1423 1.64176 36.6133 1.52962 36.8152C0.699778 38.3627 -0.421623 48.2535 0.161506 48.9936C0.273646 49.1506 0.45307 49.8458 0.542782 50.5635C0.610066 51.2812 0.834346 52.1335 1.01377 52.4699C1.17077 52.8063 1.32776 53.21 1.32776 53.3895C1.32776 53.9726 3.39114 56.7761 4.64711 57.8975C6.01522 59.1086 8.59444 60.4992 9.85041 60.7234C10.2765 60.8132 10.7475 60.9477 10.8597 61.0599C11.2634 61.3514 16.377 61.5084 18.4852 61.2841C20.9971 60.9926 24.0474 60.4992 24.3613 60.2973C24.4735 60.23 25.1239 60.0506 25.7967 59.9385C26.4696 59.8039 27.6583 59.5348 28.4657 59.3329C29.2731 59.1535 30.4842 58.8395 31.2019 58.6825C31.8972 58.5255 32.5476 58.3461 32.6821 58.2788C32.7943 58.1891 33.4223 58.0321 34.0951 57.9199C34.7679 57.7854 36.0688 57.5162 36.9883 57.3368C37.9079 57.135 39.276 56.8658 40.0161 56.7537C40.7562 56.6415 41.8103 56.4397 42.371 56.3051C43.8289 55.9463 51.432 55.7668 52.8001 56.0584C53.4281 56.193 54.3925 56.4173 54.9756 56.5294C55.5587 56.664 56.2091 56.8434 56.4334 56.978C56.6577 57.0901 57.3754 57.4265 58.0258 57.6957C58.6538 57.9872 59.1921 58.3012 59.1921 58.3909C59.1921 58.5031 59.3042 58.5704 59.4388 58.5704C59.8873 58.5704 61.6592 60.1403 62.489 61.2841L63.2964 62.3607L64.6645 61.1271C67.2886 58.7498 69.7557 58.1218 74.8468 58.5704C76.3719 58.6825 77.8073 58.9068 78.0316 59.0189C78.2559 59.1535 78.682 59.2432 78.9736 59.2432C79.2652 59.2432 79.781 59.4002 80.1398 59.5796C80.4763 59.759 80.9473 59.916 81.1491 59.916C81.351 59.916 82.2256 60.2749 83.0555 60.701C83.9078 61.1271 84.6927 61.486 84.7824 61.486C85.3656 61.486 84.7376 60.8804 82.5845 59.2432C81.2388 58.2564 80.0726 57.3817 79.938 57.2695C79.8259 57.1798 79.31 56.8434 78.8166 56.5518C78.3232 56.2603 77.8746 55.9463 77.8073 55.8566C77.6728 55.6771 73.7479 53.6362 73.5236 53.6362C73.4339 53.6362 73.075 53.524 72.7162 53.367C71.6845 52.9409 70.1818 52.5148 68.3876 52.1335C66.2345 51.6849 58.6762 51.4831 56.9493 51.8419C56.2764 51.9765 54.9083 52.1784 53.9215 52.2905C51.4095 52.5821 47.3501 53.3671 43.941 54.2193C43.1336 54.3987 41.9225 54.6903 41.2496 54.8249C40.5768 54.9819 39.9264 55.1613 39.7918 55.2286C39.6797 55.3183 39.119 55.4529 38.5583 55.5201C37.9976 55.6098 37.3472 55.7668 37.1005 55.879C36.8538 55.9911 36.1585 56.193 35.5305 56.3051C33.8035 56.6415 32.2336 57.0004 31.4935 57.2247C30.4618 57.5387 26.806 58.1218 23.1951 58.5479C21.6027 58.7273 20.6383 58.7273 18.6198 58.4582C17.2068 58.2564 15.9508 58.0321 15.8163 57.9199C15.6817 57.8302 15.278 57.6732 14.9191 57.5835C13.551 57.2471 10.9718 55.2286 10.2317 53.9053C9.73827 53.0531 9.02058 51.5055 8.72901 50.7205C8.34773 49.644 8.19074 45.0462 8.45987 43.6557C9.06543 40.8298 9.2 40.2691 9.40185 39.6411C9.51399 39.2598 9.82798 38.2506 10.0971 37.4207C10.3663 36.5909 10.6802 35.8508 10.77 35.7835C10.8821 35.7162 10.9718 35.5143 10.9718 35.3125C10.9718 35.1106 11.3307 34.2135 11.7568 33.3164C12.1829 32.4193 12.5418 31.5894 12.5418 31.4773C12.5418 31.3427 12.6091 31.2082 12.7212 31.1633C12.8109 31.1184 13.1249 30.5802 13.4165 29.9746C14.0893 28.5841 15.9508 25.5339 17.2741 23.5826C18.6422 21.5865 19.3599 20.5773 19.4945 20.4427C19.5617 20.3754 20.1673 19.6129 20.8401 18.7606C22.5671 16.5402 23.2175 15.8001 26.8957 12.1443C30.3721 8.64557 31.2692 7.86058 33.1307 6.58219C36.7192 4.1151 38.7826 3.21798 41.2721 3.01613C42.4832 2.92642 42.5729 2.94885 43.3579 3.73383C43.8513 4.22724 44.1653 4.74309 44.1653 5.07951C44.1653 5.79721 43.4252 6.53733 42.7075 6.53733C42.0795 6.53733 40.6665 7.36717 40.1058 8.04001C39.433 8.86985 39.0068 9.96882 39.0068 10.9332C39.0068 11.7855 39.0966 11.9425 39.7694 12.3686L40.5544 12.8396L41.4291 12.391C44.1429 11.0005 46.2735 6.60461 45.5334 3.93568C45.197 2.65728 43.8962 1.19946 42.9318 1.02004C42.4608 0.930324 42.1019 0.728472 42.0346 0.459336C41.9001 0.100487 41.6534 0.0332031 40.218 0.0332031C38.9171 0.0332031 38.5583 0.100487 38.5583 0.347195ZM134.102 1.06489C133.676 1.13218 133.003 1.3116 132.599 1.49102C132.218 1.67045 131.747 1.82745 131.545 1.82745C131.343 1.82745 131.007 1.91716 130.782 2.05173C130.58 2.16387 129.908 2.47786 129.28 2.72457C126.14 4.04782 121.004 7.14289 118.155 9.45297C115.24 11.8303 114.253 12.705 111.898 15.06C108.422 18.5363 106.762 20.4651 104.205 23.9191C103.016 25.5114 101.962 26.9244 101.85 27.059C101.76 27.1711 101.424 27.687 101.132 28.1804C100.841 28.6738 100.527 29.1224 100.46 29.1896C100.123 29.4588 97.544 34.0117 96.4674 36.2545C95.817 37.6001 95.1666 38.901 95.0545 39.1028C94.9423 39.3271 94.8526 39.6187 94.8526 39.7532C94.8526 39.8878 94.7181 40.3139 94.5386 40.6952C93.1705 43.7903 92.5201 47.603 92.6771 51.5055C92.8117 54.1745 92.9238 54.7127 94.0004 56.9555C94.5386 58.0994 95.9965 59.6917 96.9833 60.2076C99.0242 61.2841 99.3831 61.3739 102.097 61.3514C103.532 61.329 104.856 61.2169 105.013 61.0823C105.147 60.9701 105.641 60.7907 106.067 60.701C106.739 60.544 108.78 59.6469 110.552 58.6601C112.032 57.8526 115.352 54.9594 117.056 52.9633C117.729 52.1559 118.402 51.3934 118.559 51.214C119.613 50.0926 122.103 45.8312 123.112 43.4314C123.381 42.8034 123.673 42.1082 123.785 41.8615C123.897 41.6148 124.054 41.0541 124.144 40.6279C124.211 40.2018 124.39 39.7084 124.525 39.5514C124.659 39.3944 124.749 38.0263 124.772 36.4115C124.794 33.4061 124.682 33.0248 123.516 31.8361C122.843 31.1409 121.295 30.8942 119.591 31.2082C118.761 31.3427 117.976 31.5446 117.841 31.6343C117.729 31.7464 117.37 31.9034 117.079 31.9931C116.137 32.2847 113.625 34.1238 112.212 35.5592C110.687 37.1067 109.969 38.1608 108.825 40.5158C108.399 41.3681 107.951 42.2652 107.838 42.467C107.726 42.6913 107.637 43.0277 107.637 43.2296C107.637 43.409 107.502 43.7903 107.367 44.0594C106.919 44.822 105.977 48.6796 106.156 48.8814C106.224 48.9263 107.098 48.2535 108.13 47.3788C109.162 46.5041 110.104 45.7864 110.261 45.7864C110.395 45.7864 110.552 45.6967 110.597 45.6069C110.687 45.3827 112.795 44.1043 113.378 43.9024C113.67 43.8127 113.939 43.3193 114.23 42.3773C115.666 37.5553 118.783 33.6752 121.206 33.6752C123.381 33.6752 123.987 35.3573 123.134 39.1701C123 39.7757 122.776 40.3812 122.663 40.4934C122.529 40.6279 122.439 40.9195 122.439 41.1438C122.439 41.3681 122.305 41.839 122.125 42.153C121.946 42.4895 121.564 43.252 121.273 43.88C120.757 45.0238 119.546 47.1545 119.299 47.3563C119.232 47.4236 118.671 48.1189 118.066 48.9263C115.599 52.1784 111.965 55.4753 109.61 56.5294C108.22 57.1574 106.448 57.3368 104.833 57.0004C103.734 56.7761 103.353 56.5518 102.501 55.6771C101.11 54.2642 100.617 52.6269 100.751 50.0253C100.841 47.9619 101.289 45.3602 101.603 45.0238C101.716 44.8893 101.805 44.5528 101.805 44.2388C101.805 43.9024 101.962 43.3642 102.142 43.0053C102.321 42.6689 102.478 42.1979 102.478 41.996C102.478 41.7942 102.635 41.3456 102.815 40.9868C102.994 40.6504 103.151 40.2467 103.151 40.1345C103.151 39.2374 106.874 32.1501 109.251 28.5392C109.476 28.2252 109.767 27.7318 109.902 27.4402C110.059 27.1711 110.238 26.9468 110.328 26.9468C110.418 26.9468 110.552 26.7674 110.62 26.5431C110.754 26.1619 112.167 24.1882 114.275 21.4744C118.873 15.5758 125.287 9.4754 130.513 6.04391C132.15 4.96737 135.201 3.39741 135.672 3.39741C135.873 3.39741 136.12 3.30769 136.255 3.17313C136.367 3.06099 137.085 2.90399 137.802 2.83671C140.157 2.61243 140.314 3.30769 138.228 4.69823C137.623 5.10194 136.928 5.61778 136.681 5.81963C136.434 6.02149 135.582 6.71675 134.775 7.36717C131.814 9.69968 129.055 12.9966 127.485 16.0468C126.117 18.7157 125.781 19.8147 125.736 21.5193C125.669 24.0985 126.476 24.9732 128.898 24.9732C130.087 24.9732 130.603 24.861 131.836 24.233C133.765 23.2462 137.174 19.9044 138.856 17.3028C140.583 14.6787 142.041 11.7406 142.31 10.3501C142.378 9.92396 142.535 9.45297 142.647 9.31841C142.759 9.20627 142.893 8.06244 142.961 6.78404C143.006 5.52807 143.118 4.40667 143.185 4.29453C143.252 4.18239 143.858 3.98054 144.508 3.82354C145.518 3.59926 146.011 3.62169 147.536 3.93568C148.545 4.13753 149.532 4.38424 149.756 4.49638C149.958 4.58609 150.497 4.8328 150.923 5.01223C151.349 5.21408 151.954 5.46078 152.268 5.59535C152.896 5.88692 154.668 6.85132 155.184 7.21017C155.363 7.32231 156.328 7.9503 157.315 8.60071C158.302 9.22869 159.916 10.2828 160.903 10.9108C163.034 12.2789 164.761 13.2657 165.075 13.2657C165.277 13.2657 169.359 9.13898 169.471 8.82499C169.516 8.73528 169.045 8.44371 168.461 8.15215C167.878 7.88301 167.25 7.56902 167.071 7.45688C163.258 5.10194 159.176 2.90399 157.09 2.05173C154.623 1.06489 154.489 1.04246 150.093 1.04246C146.953 1.04246 145.719 1.10975 145.495 1.3116C145.361 1.4686 145.047 1.60316 144.822 1.60316C144.598 1.60316 143.858 1.78259 143.207 2.0293L142.019 2.45543L140.92 1.76016C139.888 1.10975 139.686 1.06489 137.354 1.02004C136.008 0.997608 134.528 1.02004 134.102 1.06489ZM141.413 5.52807C141.593 6.22334 141.122 9.69968 140.83 9.99125C140.696 10.1258 140.606 10.395 140.606 10.6192C140.606 11.6509 138.116 16.1814 136.524 18.0429C134.662 20.2409 131.993 22.6855 131.433 22.6855C131.298 22.6855 131.186 22.7752 131.186 22.8874C131.186 23.0668 129.235 23.8069 128.741 23.8069C128.607 23.8069 128.158 23.4481 127.71 23.0219C126.588 21.8781 126.656 21.0034 128.203 17.8635C129.145 15.8898 129.235 15.7777 130.76 13.7143C132.689 11.1351 135.694 8.197 138.071 6.58219C140.628 4.8328 141.189 4.65338 141.413 5.52807Z"/>
</mask>
<path class="clients-icon" d="M38.5583 0.347195C38.5583 0.728472 38.2219 0.840612 36.5398 1.04246C35.8669 1.13218 35.2165 1.28917 35.0819 1.37888C34.9698 1.4686 34.5661 1.60316 34.1848 1.69288C33.4896 1.84987 33.198 1.96201 30.5963 3.21798C27.3218 4.76552 22.1634 8.26429 19.2926 10.8884C16.4218 13.49 11.9811 18.1102 10.9494 19.5904C10.6578 19.9941 10.2541 20.5324 10.0298 20.7567C9.80556 21.0034 9.357 21.609 9.02058 22.1024C8.68415 22.6182 8.34773 23.0668 8.28045 23.1341C8.19074 23.2014 7.89917 23.6499 7.60761 24.1433C7.31605 24.6367 7.00205 25.0853 6.93477 25.1526C6.66563 25.3544 5.6788 27.1711 4.35555 29.8625C3.66028 31.2754 3.00986 32.6211 2.8753 32.823C2.76316 33.0473 2.67344 33.3388 2.67344 33.4958C2.67344 33.6528 2.53888 34.0565 2.35945 34.3929C2.18003 34.7294 1.97818 35.3125 1.88846 35.7162C1.79875 36.1423 1.64176 36.6133 1.52962 36.8152C0.699778 38.3627 -0.421623 48.2535 0.161506 48.9936C0.273646 49.1506 0.45307 49.8458 0.542782 50.5635C0.610066 51.2812 0.834346 52.1335 1.01377 52.4699C1.17077 52.8063 1.32776 53.21 1.32776 53.3895C1.32776 53.9726 3.39114 56.7761 4.64711 57.8975C6.01522 59.1086 8.59444 60.4992 9.85041 60.7234C10.2765 60.8132 10.7475 60.9477 10.8597 61.0599C11.2634 61.3514 16.377 61.5084 18.4852 61.2841C20.9971 60.9926 24.0474 60.4992 24.3613 60.2973C24.4735 60.23 25.1239 60.0506 25.7967 59.9385C26.4696 59.8039 27.6583 59.5348 28.4657 59.3329C29.2731 59.1535 30.4842 58.8395 31.2019 58.6825C31.8972 58.5255 32.5476 58.3461 32.6821 58.2788C32.7943 58.1891 33.4223 58.0321 34.0951 57.9199C34.7679 57.7854 36.0688 57.5162 36.9883 57.3368C37.9079 57.135 39.276 56.8658 40.0161 56.7537C40.7562 56.6415 41.8103 56.4397 42.371 56.3051C43.8289 55.9463 51.432 55.7668 52.8001 56.0584C53.4281 56.193 54.3925 56.4173 54.9756 56.5294C55.5587 56.664 56.2091 56.8434 56.4334 56.978C56.6577 57.0901 57.3754 57.4265 58.0258 57.6957C58.6538 57.9872 59.1921 58.3012 59.1921 58.3909C59.1921 58.5031 59.3042 58.5704 59.4388 58.5704C59.8873 58.5704 61.6592 60.1403 62.489 61.2841L63.2964 62.3607L64.6645 61.1271C67.2886 58.7498 69.7557 58.1218 74.8468 58.5704C76.3719 58.6825 77.8073 58.9068 78.0316 59.0189C78.2559 59.1535 78.682 59.2432 78.9736 59.2432C79.2652 59.2432 79.781 59.4002 80.1398 59.5796C80.4763 59.759 80.9473 59.916 81.1491 59.916C81.351 59.916 82.2256 60.2749 83.0555 60.701C83.9078 61.1271 84.6927 61.486 84.7824 61.486C85.3656 61.486 84.7376 60.8804 82.5845 59.2432C81.2388 58.2564 80.0726 57.3817 79.938 57.2695C79.8259 57.1798 79.31 56.8434 78.8166 56.5518C78.3232 56.2603 77.8746 55.9463 77.8073 55.8566C77.6728 55.6771 73.7479 53.6362 73.5236 53.6362C73.4339 53.6362 73.075 53.524 72.7162 53.367C71.6845 52.9409 70.1818 52.5148 68.3876 52.1335C66.2345 51.6849 58.6762 51.4831 56.9493 51.8419C56.2764 51.9765 54.9083 52.1784 53.9215 52.2905C51.4095 52.5821 47.3501 53.3671 43.941 54.2193C43.1336 54.3987 41.9225 54.6903 41.2496 54.8249C40.5768 54.9819 39.9264 55.1613 39.7918 55.2286C39.6797 55.3183 39.119 55.4529 38.5583 55.5201C37.9976 55.6098 37.3472 55.7668 37.1005 55.879C36.8538 55.9911 36.1585 56.193 35.5305 56.3051C33.8035 56.6415 32.2336 57.0004 31.4935 57.2247C30.4618 57.5387 26.806 58.1218 23.1951 58.5479C21.6027 58.7273 20.6383 58.7273 18.6198 58.4582C17.2068 58.2564 15.9508 58.0321 15.8163 57.9199C15.6817 57.8302 15.278 57.6732 14.9191 57.5835C13.551 57.2471 10.9718 55.2286 10.2317 53.9053C9.73827 53.0531 9.02058 51.5055 8.72901 50.7205C8.34773 49.644 8.19074 45.0462 8.45987 43.6557C9.06543 40.8298 9.2 40.2691 9.40185 39.6411C9.51399 39.2598 9.82798 38.2506 10.0971 37.4207C10.3663 36.5909 10.6802 35.8508 10.77 35.7835C10.8821 35.7162 10.9718 35.5143 10.9718 35.3125C10.9718 35.1106 11.3307 34.2135 11.7568 33.3164C12.1829 32.4193 12.5418 31.5894 12.5418 31.4773C12.5418 31.3427 12.6091 31.2082 12.7212 31.1633C12.8109 31.1184 13.1249 30.5802 13.4165 29.9746C14.0893 28.5841 15.9508 25.5339 17.2741 23.5826C18.6422 21.5865 19.3599 20.5773 19.4945 20.4427C19.5617 20.3754 20.1673 19.6129 20.8401 18.7606C22.5671 16.5402 23.2175 15.8001 26.8957 12.1443C30.3721 8.64557 31.2692 7.86058 33.1307 6.58219C36.7192 4.1151 38.7826 3.21798 41.2721 3.01613C42.4832 2.92642 42.5729 2.94885 43.3579 3.73383C43.8513 4.22724 44.1653 4.74309 44.1653 5.07951C44.1653 5.79721 43.4252 6.53733 42.7075 6.53733C42.0795 6.53733 40.6665 7.36717 40.1058 8.04001C39.433 8.86985 39.0068 9.96882 39.0068 10.9332C39.0068 11.7855 39.0966 11.9425 39.7694 12.3686L40.5544 12.8396L41.4291 12.391C44.1429 11.0005 46.2735 6.60461 45.5334 3.93568C45.197 2.65728 43.8962 1.19946 42.9318 1.02004C42.4608 0.930324 42.1019 0.728472 42.0346 0.459336C41.9001 0.100487 41.6534 0.0332031 40.218 0.0332031C38.9171 0.0332031 38.5583 0.100487 38.5583 0.347195ZM134.102 1.06489C133.676 1.13218 133.003 1.3116 132.599 1.49102C132.218 1.67045 131.747 1.82745 131.545 1.82745C131.343 1.82745 131.007 1.91716 130.782 2.05173C130.58 2.16387 129.908 2.47786 129.28 2.72457C126.14 4.04782 121.004 7.14289 118.155 9.45297C115.24 11.8303 114.253 12.705 111.898 15.06C108.422 18.5363 106.762 20.4651 104.205 23.9191C103.016 25.5114 101.962 26.9244 101.85 27.059C101.76 27.1711 101.424 27.687 101.132 28.1804C100.841 28.6738 100.527 29.1224 100.46 29.1896C100.123 29.4588 97.544 34.0117 96.4674 36.2545C95.817 37.6001 95.1666 38.901 95.0545 39.1028C94.9423 39.3271 94.8526 39.6187 94.8526 39.7532C94.8526 39.8878 94.7181 40.3139 94.5386 40.6952C93.1705 43.7903 92.5201 47.603 92.6771 51.5055C92.8117 54.1745 92.9238 54.7127 94.0004 56.9555C94.5386 58.0994 95.9965 59.6917 96.9833 60.2076C99.0242 61.2841 99.3831 61.3739 102.097 61.3514C103.532 61.329 104.856 61.2169 105.013 61.0823C105.147 60.9701 105.641 60.7907 106.067 60.701C106.739 60.544 108.78 59.6469 110.552 58.6601C112.032 57.8526 115.352 54.9594 117.056 52.9633C117.729 52.1559 118.402 51.3934 118.559 51.214C119.613 50.0926 122.103 45.8312 123.112 43.4314C123.381 42.8034 123.673 42.1082 123.785 41.8615C123.897 41.6148 124.054 41.0541 124.144 40.6279C124.211 40.2018 124.39 39.7084 124.525 39.5514C124.659 39.3944 124.749 38.0263 124.772 36.4115C124.794 33.4061 124.682 33.0248 123.516 31.8361C122.843 31.1409 121.295 30.8942 119.591 31.2082C118.761 31.3427 117.976 31.5446 117.841 31.6343C117.729 31.7464 117.37 31.9034 117.079 31.9931C116.137 32.2847 113.625 34.1238 112.212 35.5592C110.687 37.1067 109.969 38.1608 108.825 40.5158C108.399 41.3681 107.951 42.2652 107.838 42.467C107.726 42.6913 107.637 43.0277 107.637 43.2296C107.637 43.409 107.502 43.7903 107.367 44.0594C106.919 44.822 105.977 48.6796 106.156 48.8814C106.224 48.9263 107.098 48.2535 108.13 47.3788C109.162 46.5041 110.104 45.7864 110.261 45.7864C110.395 45.7864 110.552 45.6967 110.597 45.6069C110.687 45.3827 112.795 44.1043 113.378 43.9024C113.67 43.8127 113.939 43.3193 114.23 42.3773C115.666 37.5553 118.783 33.6752 121.206 33.6752C123.381 33.6752 123.987 35.3573 123.134 39.1701C123 39.7757 122.776 40.3812 122.663 40.4934C122.529 40.6279 122.439 40.9195 122.439 41.1438C122.439 41.3681 122.305 41.839 122.125 42.153C121.946 42.4895 121.564 43.252 121.273 43.88C120.757 45.0238 119.546 47.1545 119.299 47.3563C119.232 47.4236 118.671 48.1189 118.066 48.9263C115.599 52.1784 111.965 55.4753 109.61 56.5294C108.22 57.1574 106.448 57.3368 104.833 57.0004C103.734 56.7761 103.353 56.5518 102.501 55.6771C101.11 54.2642 100.617 52.6269 100.751 50.0253C100.841 47.9619 101.289 45.3602 101.603 45.0238C101.716 44.8893 101.805 44.5528 101.805 44.2388C101.805 43.9024 101.962 43.3642 102.142 43.0053C102.321 42.6689 102.478 42.1979 102.478 41.996C102.478 41.7942 102.635 41.3456 102.815 40.9868C102.994 40.6504 103.151 40.2467 103.151 40.1345C103.151 39.2374 106.874 32.1501 109.251 28.5392C109.476 28.2252 109.767 27.7318 109.902 27.4402C110.059 27.1711 110.238 26.9468 110.328 26.9468C110.418 26.9468 110.552 26.7674 110.62 26.5431C110.754 26.1619 112.167 24.1882 114.275 21.4744C118.873 15.5758 125.287 9.4754 130.513 6.04391C132.15 4.96737 135.201 3.39741 135.672 3.39741C135.873 3.39741 136.12 3.30769 136.255 3.17313C136.367 3.06099 137.085 2.90399 137.802 2.83671C140.157 2.61243 140.314 3.30769 138.228 4.69823C137.623 5.10194 136.928 5.61778 136.681 5.81963C136.434 6.02149 135.582 6.71675 134.775 7.36717C131.814 9.69968 129.055 12.9966 127.485 16.0468C126.117 18.7157 125.781 19.8147 125.736 21.5193C125.669 24.0985 126.476 24.9732 128.898 24.9732C130.087 24.9732 130.603 24.861 131.836 24.233C133.765 23.2462 137.174 19.9044 138.856 17.3028C140.583 14.6787 142.041 11.7406 142.31 10.3501C142.378 9.92396 142.535 9.45297 142.647 9.31841C142.759 9.20627 142.893 8.06244 142.961 6.78404C143.006 5.52807 143.118 4.40667 143.185 4.29453C143.252 4.18239 143.858 3.98054 144.508 3.82354C145.518 3.59926 146.011 3.62169 147.536 3.93568C148.545 4.13753 149.532 4.38424 149.756 4.49638C149.958 4.58609 150.497 4.8328 150.923 5.01223C151.349 5.21408 151.954 5.46078 152.268 5.59535C152.896 5.88692 154.668 6.85132 155.184 7.21017C155.363 7.32231 156.328 7.9503 157.315 8.60071C158.302 9.22869 159.916 10.2828 160.903 10.9108C163.034 12.2789 164.761 13.2657 165.075 13.2657C165.277 13.2657 169.359 9.13898 169.471 8.82499C169.516 8.73528 169.045 8.44371 168.461 8.15215C167.878 7.88301 167.25 7.56902 167.071 7.45688C163.258 5.10194 159.176 2.90399 157.09 2.05173C154.623 1.06489 154.489 1.04246 150.093 1.04246C146.953 1.04246 145.719 1.10975 145.495 1.3116C145.361 1.4686 145.047 1.60316 144.822 1.60316C144.598 1.60316 143.858 1.78259 143.207 2.0293L142.019 2.45543L140.92 1.76016C139.888 1.10975 139.686 1.06489 137.354 1.02004C136.008 0.997608 134.528 1.02004 134.102 1.06489ZM141.413 5.52807C141.593 6.22334 141.122 9.69968 140.83 9.99125C140.696 10.1258 140.606 10.395 140.606 10.6192C140.606 11.6509 138.116 16.1814 136.524 18.0429C134.662 20.2409 131.993 22.6855 131.433 22.6855C131.298 22.6855 131.186 22.7752 131.186 22.8874C131.186 23.0668 129.235 23.8069 128.741 23.8069C128.607 23.8069 128.158 23.4481 127.71 23.0219C126.588 21.8781 126.656 21.0034 128.203 17.8635C129.145 15.8898 129.235 15.7777 130.76 13.7143C132.689 11.1351 135.694 8.197 138.071 6.58219C140.628 4.8328 141.189 4.65338 141.413 5.52807Z" fill="#050C1A" fill-opacity="0.55" stroke="white" stroke-opacity="0.2" stroke-width="0.567546" mask="url(#path-1-inside-1_414_17065)"/>
<mask id="path-2-inside-2_414_17065" fill="white">
<path class="clients-icon" d="M183.217 1.58117C182.029 1.94002 179.943 2.90443 179.36 3.37541C179.203 3.50998 178.014 4.38468 176.713 5.34908C173.775 7.5246 166.172 15.038 163.368 18.5143C162.897 19.1199 162.247 19.8824 161.956 20.1964C160.767 21.4748 156.528 27.351 155.294 29.4592C155.182 29.6835 154.532 30.7152 153.904 31.7693C153.253 32.8458 152.715 33.7878 152.715 33.9C152.715 34.0121 152.581 34.2364 152.446 34.3934C152.289 34.5728 151.975 35.0438 151.728 35.4699C151.504 35.896 150.966 36.9053 150.517 37.7127C150.091 38.5201 149.261 40.0677 148.701 41.1666C148.095 42.3329 147.489 43.23 147.22 43.3197C146.009 43.7683 145.112 43.9926 144.551 43.9926C143.946 43.9926 143.923 43.9701 144.08 43.1403C144.17 42.6917 144.372 42.0638 144.529 41.7498C145.067 40.7854 145.493 39.6415 145.65 38.8341C145.74 38.408 145.919 37.937 146.032 37.78C146.144 37.623 146.256 36.5016 146.278 35.2681C146.301 33.1823 146.256 33.0028 145.695 32.2403C145.247 31.6796 144.753 31.3432 143.879 31.074C142.735 30.7152 142.578 30.7152 141.344 31.074C138.227 31.9936 135.737 33.6308 132.328 37.0174C129.412 39.9331 128.515 40.9424 127.371 42.6469C127.192 42.916 126.901 43.2749 126.766 43.4543C126.609 43.6113 126.474 43.7907 126.474 43.858C126.474 43.9253 126.183 44.3963 125.824 44.9345C124.904 46.2802 123.155 49.7341 122.998 50.5191C122.908 50.878 122.751 51.2144 122.639 51.2817C122.527 51.3714 122.437 51.6181 122.437 51.8424C122.437 52.0891 122.28 52.7395 122.078 53.3226C121.854 53.973 121.72 55.1842 121.72 56.5298C121.697 58.9521 122.101 60.0959 123.267 60.9257C124.119 61.5313 127.214 61.5537 128.044 60.9706C128.336 60.7687 128.762 60.5893 128.986 60.5893C129.211 60.5893 129.39 60.522 129.39 60.4099C129.39 60.3202 129.861 59.9837 130.467 59.6473C131.543 59.0193 131.767 58.8399 134.459 56.485C135.872 55.2514 136.5 54.5562 138.473 52.1788C138.765 51.7975 139.124 51.3938 139.258 51.2368C139.37 51.0798 139.483 50.9004 139.483 50.8331C139.483 50.6537 140.469 49.2856 140.671 49.1959C140.761 49.151 140.828 48.9716 140.828 48.8146C140.828 48.6352 140.963 48.366 141.12 48.209C141.277 48.052 141.658 47.4465 141.95 46.8634C142.578 45.585 143.43 45.114 145.157 45.114C146.57 45.114 146.861 45.428 146.323 46.4596C146.144 46.8185 145.987 47.1998 145.987 47.3343C145.987 47.4465 145.875 47.8278 145.718 48.1866C145 49.8911 144.215 53.0759 143.946 55.2066C143.609 58.1222 144.036 59.7595 145.404 60.836C146.615 61.778 149.643 61.464 151.055 60.2529C151.212 60.1183 151.661 59.7819 152.087 59.4679C152.491 59.1539 153.59 58.1671 154.509 57.2924C155.429 56.3953 156.259 55.6551 156.349 55.6551C156.55 55.6551 156.55 55.6551 156.618 57.6961C156.685 59.3782 157.246 60.522 158.232 61.0603C159.197 61.5537 161.395 61.464 162.651 60.836C163.66 60.3426 166.688 58.1446 167.181 57.5391C167.316 57.4045 167.652 57.2027 167.944 57.113C168.437 56.956 168.46 57.0008 168.325 57.6961C168.168 58.5932 168.684 60.4323 169.222 60.993C169.536 61.2846 170.007 61.3743 171.308 61.3519C172.9 61.3519 173.102 61.2846 174.582 60.3875C176.848 58.9969 178.642 57.4045 181.311 54.5113C183.083 52.5825 183.711 51.8424 184.137 51.1695C184.339 50.8555 184.742 50.3621 185.012 50.0481C185.281 49.7341 185.841 48.9716 186.267 48.366C186.671 47.738 187.187 47.0204 187.389 46.7288C187.748 46.2354 187.748 46.2354 186.94 46.2354C186.178 46.2354 186.043 46.3699 184.585 48.2987C182.679 50.878 181.849 51.8648 180.414 53.3002C177.812 55.9018 176.332 56.6644 175.569 55.7449C175.121 55.2066 175.547 54.287 179.023 48.5006C180.75 45.6074 182.343 42.9384 182.522 42.5796C182.724 42.2208 182.993 41.7722 183.105 41.5703C183.89 40.2695 184.496 39.3275 184.742 38.9463C184.877 38.6996 185.124 38.251 185.258 37.937C185.37 37.6454 185.55 37.3314 185.639 37.2642C185.729 37.1969 186.043 36.681 186.357 36.0755C186.649 35.4923 186.985 35.0214 187.075 35.0214C187.187 35.0214 187.254 34.9092 187.254 34.7746C187.254 34.6177 187.568 34.0121 187.927 33.4065C188.308 32.8234 188.6 32.1954 188.6 32.0384C188.6 31.8366 187.927 31.7917 185.886 31.8141C183.307 31.8814 183.128 31.9039 182.634 32.4421C182.343 32.7561 182.029 33.0028 181.939 33.0028C181.849 33.0028 181.423 32.644 180.997 32.2179C179.988 31.1637 178.889 30.8946 177.094 31.2086C176.332 31.3656 175.614 31.545 175.48 31.6572C175.367 31.7469 175.009 31.9039 174.717 31.9936C174.403 32.0833 174.067 32.2403 173.932 32.3524C173.798 32.4646 173.035 33.0253 172.272 33.586C171.487 34.1467 170.388 35.0214 169.805 35.5372C168.684 36.5913 164.804 41.0096 164.198 41.9292C163.996 42.2656 163.727 42.6469 163.593 42.7815C163.481 42.916 163.234 43.23 163.077 43.4543C162.92 43.701 162.449 44.3738 162 45.0018C161.552 45.6074 160.722 46.8185 160.161 47.6932C159.578 48.5455 159.062 49.308 158.995 49.3753C158.905 49.4426 158.614 49.8911 158.322 50.3846C158.031 50.878 157.717 51.3265 157.649 51.3938C157.582 51.4611 157.044 52.1115 156.483 52.8516C153.926 56.1934 151.997 57.1578 150.921 55.6551C150.54 55.1169 150.45 54.7356 150.54 54.0179C150.697 52.5152 151.168 50.407 151.392 50.1827C151.504 50.0481 151.594 49.7566 151.594 49.5323C151.594 49.308 151.728 48.7922 151.908 48.4109C152.065 48.0072 152.379 47.2446 152.603 46.6839C153.366 44.7551 154.734 41.974 154.913 41.974C155.16 41.974 160.52 38.0716 161.574 37.1072C161.821 36.8829 162.628 36.21 163.368 35.5821C165.095 34.1467 173.394 25.9156 174.65 24.4129C175.614 23.2242 176.354 22.3495 177.229 21.3403C177.498 21.0263 178.216 20.1516 178.799 19.3666L179.875 17.9761H179.091C178.418 17.9761 178.193 18.1331 177.117 19.4787C176.466 20.331 175.838 21.116 175.704 21.2506C175.592 21.3851 174.784 22.3047 173.932 23.2691C171.958 25.5119 165.701 31.7693 163.481 33.7205C162.561 34.5504 161.44 35.5148 161.014 35.896C160.587 36.2773 160.161 36.5913 160.072 36.5913C159.982 36.5913 159.78 36.7259 159.601 36.9053C158.973 37.5333 157.582 38.3856 157.201 38.3856C156.887 38.3856 156.819 38.251 156.909 37.8697C156.976 37.6006 157.156 37.2193 157.29 37.0399C157.447 36.8605 157.784 36.2549 158.053 35.6942C158.345 35.1335 158.659 34.5279 158.771 34.3485C158.883 34.1691 159.802 32.5991 160.812 30.8722C161.843 29.1452 162.74 27.6874 162.853 27.665C162.942 27.6201 163.032 27.508 163.032 27.3958C163.032 27.2388 163.727 26.1174 164.871 24.3905C165.208 23.8971 166.845 21.6094 168.235 19.6582C172.183 14.1184 179.001 6.87419 182.612 4.33982C183.957 3.39784 185.124 3.03899 185.595 3.42027C186.088 3.82398 185.774 5.41637 184.855 7.39003C184.428 8.30958 184.137 9.09456 184.204 9.16185C184.361 9.31884 185.909 8.78057 185.909 8.55629C185.909 8.44415 186.021 8.0853 186.178 7.72645C186.985 5.75279 187.232 4.7211 187.254 3.4427V2.02973L186.223 1.6036C185.034 1.08776 184.877 1.08776 183.217 1.58117ZM143.901 33.6532C144.686 34.3037 145.179 36.053 144.888 37.0623C144.753 37.5109 144.641 38.0491 144.641 38.251C144.641 39.036 142.667 43.073 142.107 43.4094C141.322 43.9029 138.653 41.9292 137.913 40.2695C137.06 38.4528 137.531 36.7932 139.415 34.9765C141.12 33.3168 142.892 32.801 143.901 33.6532ZM180.234 33.8102C181.266 34.0794 181.087 34.8868 179.337 37.78C178.44 39.2827 177.633 40.6732 177.543 40.8526C177.453 41.0321 177.207 41.4582 176.982 41.7946C176.78 42.131 175.861 43.6337 174.941 45.1588C174.022 46.6839 173.214 47.9623 173.125 48.0296C173.057 48.0969 172.743 48.5455 172.452 49.0389C172.16 49.5323 171.801 50.0481 171.667 50.2051C171.263 50.6985 170.994 51.035 170.388 51.9545C168.908 54.1525 166.643 56.1037 165.544 56.1037C164.624 56.1037 163.839 55.1617 163.996 54.1973C164.31 52.2685 165.095 50.4518 167.069 47.0204C170.859 40.4489 177.072 33.6532 179.292 33.6757C179.539 33.6757 179.965 33.743 180.234 33.8102ZM137.128 42.1535C137.98 43.073 138.989 43.8804 139.684 44.2168C140.806 44.7551 141.411 45.6522 140.896 45.9887C140.761 46.0559 140.425 46.5494 140.133 47.0652C137.442 51.7078 132.934 56.1037 130.848 56.1037C130.556 56.1037 129.951 55.7449 129.48 55.3187L128.65 54.5337L128.762 52.9413C128.829 52.0667 129.009 51.2368 129.143 51.1022C129.278 50.9677 129.39 50.6985 129.39 50.4967C129.39 49.9809 131.409 46.0559 132.53 44.3963C133.068 43.6113 133.853 42.445 134.279 41.7946C134.705 41.1666 135.199 40.6284 135.401 40.6284C135.58 40.6284 136.343 41.3236 137.128 42.1535Z"/>
</mask>
<path class="clients-icon" d="M183.217 1.58117C182.029 1.94002 179.943 2.90443 179.36 3.37541C179.203 3.50998 178.014 4.38468 176.713 5.34908C173.775 7.5246 166.172 15.038 163.368 18.5143C162.897 19.1199 162.247 19.8824 161.956 20.1964C160.767 21.4748 156.528 27.351 155.294 29.4592C155.182 29.6835 154.532 30.7152 153.904 31.7693C153.253 32.8458 152.715 33.7878 152.715 33.9C152.715 34.0121 152.581 34.2364 152.446 34.3934C152.289 34.5728 151.975 35.0438 151.728 35.4699C151.504 35.896 150.966 36.9053 150.517 37.7127C150.091 38.5201 149.261 40.0677 148.701 41.1666C148.095 42.3329 147.489 43.23 147.22 43.3197C146.009 43.7683 145.112 43.9926 144.551 43.9926C143.946 43.9926 143.923 43.9701 144.08 43.1403C144.17 42.6917 144.372 42.0638 144.529 41.7498C145.067 40.7854 145.493 39.6415 145.65 38.8341C145.74 38.408 145.919 37.937 146.032 37.78C146.144 37.623 146.256 36.5016 146.278 35.2681C146.301 33.1823 146.256 33.0028 145.695 32.2403C145.247 31.6796 144.753 31.3432 143.879 31.074C142.735 30.7152 142.578 30.7152 141.344 31.074C138.227 31.9936 135.737 33.6308 132.328 37.0174C129.412 39.9331 128.515 40.9424 127.371 42.6469C127.192 42.916 126.901 43.2749 126.766 43.4543C126.609 43.6113 126.474 43.7907 126.474 43.858C126.474 43.9253 126.183 44.3963 125.824 44.9345C124.904 46.2802 123.155 49.7341 122.998 50.5191C122.908 50.878 122.751 51.2144 122.639 51.2817C122.527 51.3714 122.437 51.6181 122.437 51.8424C122.437 52.0891 122.28 52.7395 122.078 53.3226C121.854 53.973 121.72 55.1842 121.72 56.5298C121.697 58.9521 122.101 60.0959 123.267 60.9257C124.119 61.5313 127.214 61.5537 128.044 60.9706C128.336 60.7687 128.762 60.5893 128.986 60.5893C129.211 60.5893 129.39 60.522 129.39 60.4099C129.39 60.3202 129.861 59.9837 130.467 59.6473C131.543 59.0193 131.767 58.8399 134.459 56.485C135.872 55.2514 136.5 54.5562 138.473 52.1788C138.765 51.7975 139.124 51.3938 139.258 51.2368C139.37 51.0798 139.483 50.9004 139.483 50.8331C139.483 50.6537 140.469 49.2856 140.671 49.1959C140.761 49.151 140.828 48.9716 140.828 48.8146C140.828 48.6352 140.963 48.366 141.12 48.209C141.277 48.052 141.658 47.4465 141.95 46.8634C142.578 45.585 143.43 45.114 145.157 45.114C146.57 45.114 146.861 45.428 146.323 46.4596C146.144 46.8185 145.987 47.1998 145.987 47.3343C145.987 47.4465 145.875 47.8278 145.718 48.1866C145 49.8911 144.215 53.0759 143.946 55.2066C143.609 58.1222 144.036 59.7595 145.404 60.836C146.615 61.778 149.643 61.464 151.055 60.2529C151.212 60.1183 151.661 59.7819 152.087 59.4679C152.491 59.1539 153.59 58.1671 154.509 57.2924C155.429 56.3953 156.259 55.6551 156.349 55.6551C156.55 55.6551 156.55 55.6551 156.618 57.6961C156.685 59.3782 157.246 60.522 158.232 61.0603C159.197 61.5537 161.395 61.464 162.651 60.836C163.66 60.3426 166.688 58.1446 167.181 57.5391C167.316 57.4045 167.652 57.2027 167.944 57.113C168.437 56.956 168.46 57.0008 168.325 57.6961C168.168 58.5932 168.684 60.4323 169.222 60.993C169.536 61.2846 170.007 61.3743 171.308 61.3519C172.9 61.3519 173.102 61.2846 174.582 60.3875C176.848 58.9969 178.642 57.4045 181.311 54.5113C183.083 52.5825 183.711 51.8424 184.137 51.1695C184.339 50.8555 184.742 50.3621 185.012 50.0481C185.281 49.7341 185.841 48.9716 186.267 48.366C186.671 47.738 187.187 47.0204 187.389 46.7288C187.748 46.2354 187.748 46.2354 186.94 46.2354C186.178 46.2354 186.043 46.3699 184.585 48.2987C182.679 50.878 181.849 51.8648 180.414 53.3002C177.812 55.9018 176.332 56.6644 175.569 55.7449C175.121 55.2066 175.547 54.287 179.023 48.5006C180.75 45.6074 182.343 42.9384 182.522 42.5796C182.724 42.2208 182.993 41.7722 183.105 41.5703C183.89 40.2695 184.496 39.3275 184.742 38.9463C184.877 38.6996 185.124 38.251 185.258 37.937C185.37 37.6454 185.55 37.3314 185.639 37.2642C185.729 37.1969 186.043 36.681 186.357 36.0755C186.649 35.4923 186.985 35.0214 187.075 35.0214C187.187 35.0214 187.254 34.9092 187.254 34.7746C187.254 34.6177 187.568 34.0121 187.927 33.4065C188.308 32.8234 188.6 32.1954 188.6 32.0384C188.6 31.8366 187.927 31.7917 185.886 31.8141C183.307 31.8814 183.128 31.9039 182.634 32.4421C182.343 32.7561 182.029 33.0028 181.939 33.0028C181.849 33.0028 181.423 32.644 180.997 32.2179C179.988 31.1637 178.889 30.8946 177.094 31.2086C176.332 31.3656 175.614 31.545 175.48 31.6572C175.367 31.7469 175.009 31.9039 174.717 31.9936C174.403 32.0833 174.067 32.2403 173.932 32.3524C173.798 32.4646 173.035 33.0253 172.272 33.586C171.487 34.1467 170.388 35.0214 169.805 35.5372C168.684 36.5913 164.804 41.0096 164.198 41.9292C163.996 42.2656 163.727 42.6469 163.593 42.7815C163.481 42.916 163.234 43.23 163.077 43.4543C162.92 43.701 162.449 44.3738 162 45.0018C161.552 45.6074 160.722 46.8185 160.161 47.6932C159.578 48.5455 159.062 49.308 158.995 49.3753C158.905 49.4426 158.614 49.8911 158.322 50.3846C158.031 50.878 157.717 51.3265 157.649 51.3938C157.582 51.4611 157.044 52.1115 156.483 52.8516C153.926 56.1934 151.997 57.1578 150.921 55.6551C150.54 55.1169 150.45 54.7356 150.54 54.0179C150.697 52.5152 151.168 50.407 151.392 50.1827C151.504 50.0481 151.594 49.7566 151.594 49.5323C151.594 49.308 151.728 48.7922 151.908 48.4109C152.065 48.0072 152.379 47.2446 152.603 46.6839C153.366 44.7551 154.734 41.974 154.913 41.974C155.16 41.974 160.52 38.0716 161.574 37.1072C161.821 36.8829 162.628 36.21 163.368 35.5821C165.095 34.1467 173.394 25.9156 174.65 24.4129C175.614 23.2242 176.354 22.3495 177.229 21.3403C177.498 21.0263 178.216 20.1516 178.799 19.3666L179.875 17.9761H179.091C178.418 17.9761 178.193 18.1331 177.117 19.4787C176.466 20.331 175.838 21.116 175.704 21.2506C175.592 21.3851 174.784 22.3047 173.932 23.2691C171.958 25.5119 165.701 31.7693 163.481 33.7205C162.561 34.5504 161.44 35.5148 161.014 35.896C160.587 36.2773 160.161 36.5913 160.072 36.5913C159.982 36.5913 159.78 36.7259 159.601 36.9053C158.973 37.5333 157.582 38.3856 157.201 38.3856C156.887 38.3856 156.819 38.251 156.909 37.8697C156.976 37.6006 157.156 37.2193 157.29 37.0399C157.447 36.8605 157.784 36.2549 158.053 35.6942C158.345 35.1335 158.659 34.5279 158.771 34.3485C158.883 34.1691 159.802 32.5991 160.812 30.8722C161.843 29.1452 162.74 27.6874 162.853 27.665C162.942 27.6201 163.032 27.508 163.032 27.3958C163.032 27.2388 163.727 26.1174 164.871 24.3905C165.208 23.8971 166.845 21.6094 168.235 19.6582C172.183 14.1184 179.001 6.87419 182.612 4.33982C183.957 3.39784 185.124 3.03899 185.595 3.42027C186.088 3.82398 185.774 5.41637 184.855 7.39003C184.428 8.30958 184.137 9.09456 184.204 9.16185C184.361 9.31884 185.909 8.78057 185.909 8.55629C185.909 8.44415 186.021 8.0853 186.178 7.72645C186.985 5.75279 187.232 4.7211 187.254 3.4427V2.02973L186.223 1.6036C185.034 1.08776 184.877 1.08776 183.217 1.58117ZM143.901 33.6532C144.686 34.3037 145.179 36.053 144.888 37.0623C144.753 37.5109 144.641 38.0491 144.641 38.251C144.641 39.036 142.667 43.073 142.107 43.4094C141.322 43.9029 138.653 41.9292 137.913 40.2695C137.06 38.4528 137.531 36.7932 139.415 34.9765C141.12 33.3168 142.892 32.801 143.901 33.6532ZM180.234 33.8102C181.266 34.0794 181.087 34.8868 179.337 37.78C178.44 39.2827 177.633 40.6732 177.543 40.8526C177.453 41.0321 177.207 41.4582 176.982 41.7946C176.78 42.131 175.861 43.6337 174.941 45.1588C174.022 46.6839 173.214 47.9623 173.125 48.0296C173.057 48.0969 172.743 48.5455 172.452 49.0389C172.16 49.5323 171.801 50.0481 171.667 50.2051C171.263 50.6985 170.994 51.035 170.388 51.9545C168.908 54.1525 166.643 56.1037 165.544 56.1037C164.624 56.1037 163.839 55.1617 163.996 54.1973C164.31 52.2685 165.095 50.4518 167.069 47.0204C170.859 40.4489 177.072 33.6532 179.292 33.6757C179.539 33.6757 179.965 33.743 180.234 33.8102ZM137.128 42.1535C137.98 43.073 138.989 43.8804 139.684 44.2168C140.806 44.7551 141.411 45.6522 140.896 45.9887C140.761 46.0559 140.425 46.5494 140.133 47.0652C137.442 51.7078 132.934 56.1037 130.848 56.1037C130.556 56.1037 129.951 55.7449 129.48 55.3187L128.65 54.5337L128.762 52.9413C128.829 52.0667 129.009 51.2368 129.143 51.1022C129.278 50.9677 129.39 50.6985 129.39 50.4967C129.39 49.9809 131.409 46.0559 132.53 44.3963C133.068 43.6113 133.853 42.445 134.279 41.7946C134.705 41.1666 135.199 40.6284 135.401 40.6284C135.58 40.6284 136.343 41.3236 137.128 42.1535Z" fill="#050C1A" fill-opacity="0.55" stroke="white" stroke-opacity="0.2" stroke-width="0.567546" mask="url(#path-2-inside-2_414_17065)"/>
<mask id="path-3-inside-3_414_17065" fill="white">
<path class="clients-icon" d="M198.356 3.57704C196.404 5.16943 194.184 6.73939 193.309 7.1431C193.13 7.21038 192.928 7.34495 192.861 7.43466C192.636 7.7038 187.904 9.90174 187.523 9.90174C187.411 9.90174 187.007 10.0587 186.671 10.2382C186.312 10.4176 185.773 10.5746 185.437 10.5746C185.123 10.5746 184.764 10.6867 184.652 10.7989C184.383 11.068 181.086 11.4717 179.045 11.4717C177.677 11.4717 177.677 11.4717 176.578 12.6604C174.537 14.8583 173.573 16.0022 173.573 16.1816C173.573 16.7647 180.099 16.518 182.544 15.8227C185.078 15.105 189.272 13.1314 190.954 11.8754C193.466 10.0139 196.337 7.32252 198.019 5.28157C198.894 4.22745 200.083 2.47807 199.993 2.38835C199.948 2.3435 199.208 2.88177 198.356 3.57704ZM40.6865 15.89C40.3277 15.9349 39.8343 16.1367 39.5876 16.3162C39.3409 16.4956 39.0044 16.6301 38.8474 16.6301C38.5783 16.6301 36.3579 17.8861 36.0888 18.2001C36.0215 18.2674 35.5505 18.6038 35.0347 18.9402C34.0927 19.5907 30.9079 22.6409 29.2482 24.48C26.983 26.9919 24.5832 30.6028 23.2375 33.4736C21.6451 36.9051 21.3984 37.8919 21.3984 40.9646C21.3984 43.7456 21.5779 44.4185 22.632 45.2932C23.3048 45.8539 24.7626 46.4594 25.4131 46.4594C27.0279 46.437 30.1678 44.9119 32.3882 43.0952C34.003 41.772 38.511 37.0172 39.3409 35.8061C39.8343 35.066 40.3053 34.4156 40.4174 34.3931C40.5071 34.3483 40.5744 34.2361 40.5744 34.124C40.5744 33.9446 41.9425 31.7691 42.3686 31.2756C42.4808 31.1187 42.5929 30.9392 42.5929 30.8719C42.5929 30.7822 42.8621 30.3785 43.1761 29.9748C43.6246 29.3693 43.961 29.1898 44.7909 29.0553C45.374 28.9656 46.0244 28.8086 46.2487 28.6964C46.5403 28.5619 46.6748 28.5843 46.7645 28.8534C46.8991 29.2123 46.5627 30.0421 45.5983 31.6569C45.3516 32.0831 44.9254 33.0026 44.6339 33.6754C44.3647 34.3483 44.0507 35.1108 43.9386 35.3575C43.4676 36.3444 43.1985 37.9368 43.1088 40.0226C43.0191 41.8841 43.0863 42.3775 43.4452 43.1625C44.0732 44.5082 45.2619 45.652 46.2711 45.9211C46.6075 45.9884 46.9215 46.1454 46.9888 46.2576C47.1907 46.6164 49.8372 46.4594 51.138 46.0333C52.3267 45.6296 54.5022 44.5979 55.018 44.1942C55.1526 44.1045 56.1395 43.3419 57.2384 42.5345C58.315 41.7271 59.6382 40.6506 60.1765 40.1123C61.3652 38.9685 62.038 38.5423 62.2174 38.8339C62.2847 38.946 62.2174 39.2825 62.0829 39.5516C61.9035 39.8656 61.7913 41.0318 61.7913 42.4448C61.7689 45.2483 61.9259 45.5399 63.7201 46.1454C64.6621 46.4594 64.9761 46.4594 65.8732 46.2351C68.0936 45.6296 69.7533 44.6652 71.6821 42.8485C72.1979 42.3775 72.7138 41.9738 72.8259 41.9738C73.095 41.9738 73.3193 42.7588 73.3193 43.8353C73.3193 44.9792 73.8352 45.6969 74.979 46.123C75.8761 46.4594 76.0331 46.4594 77.0424 46.123C78.2311 45.7417 79.5543 45.1586 79.9132 44.867C80.0477 44.7549 80.7654 44.2166 81.5056 43.6335C83.4792 42.1308 87.1798 38.2283 89.7142 35.0211C90.9477 33.4736 92.0467 32.1055 92.1589 31.9485C92.5177 31.5224 92.428 31.4326 91.643 31.4326C90.9477 31.4326 90.701 31.6569 89.0638 33.6082C86.8434 36.3219 83.3447 39.7534 82.313 40.2469C80.3842 41.1888 79.6216 40.045 80.8327 38.0489C81.1467 37.5555 81.5056 36.9051 81.6401 36.5911C81.7523 36.2995 81.9541 35.9855 82.0438 35.9182C82.1335 35.851 82.47 35.38 82.7615 34.8641C83.0531 34.3707 83.8156 33.0923 84.4212 32.0831C85.0492 31.0514 85.6547 30.0421 85.7669 29.8178C85.9014 29.5935 87.7181 26.5433 89.8488 23.0446C91.957 19.5234 93.6391 16.6077 93.5494 16.5404C93.4821 16.4732 92.2486 16.4059 90.8132 16.4059C88.7722 16.4059 88.1218 16.4732 87.8975 16.7423C87.3817 17.3703 86.8659 17.3478 86.1257 16.6526C85.0492 15.6433 83.0531 15.4863 81.2813 16.2937C80.9224 16.4732 80.4514 16.6526 80.272 16.7199C78.6123 17.3478 73.8576 21.4746 71.5924 24.2557C71.2559 24.6818 70.7401 25.2874 70.4485 25.6014C70.157 25.9153 68.9907 27.3732 67.8693 28.8534C64.6845 33.0699 63.0921 34.9538 60.5802 37.5106C55.7357 42.4224 52.6631 43.5214 50.5997 41.0991C50.0839 40.4936 49.9942 40.1571 49.9942 39.0806C49.9942 37.9143 50.5324 35.694 51.0931 34.4604C51.2277 34.2137 51.5641 33.4512 51.8781 32.7783C52.5061 31.4326 53.4032 29.7505 53.8518 29.1226C54.0088 28.8983 54.3452 28.3824 54.5919 27.9563C55.3096 26.7452 56.3189 25.3322 57.1711 24.3902C59.6382 21.6316 62.7109 18.873 63.3388 18.873C63.4958 18.873 63.6753 18.7384 63.7425 18.5814C63.7874 18.4244 64.2584 18.3123 64.9537 18.3123C65.8956 18.3123 66.1648 18.402 66.5685 18.873C67.4656 19.9719 66.9946 20.9363 65.4022 21.2055C63.3389 21.5867 61.4997 24.9509 62.6884 26.1396C63.608 27.0592 65.4471 26.2518 66.6582 24.4127C67.8917 22.5063 68.1833 21.7662 68.3179 20.0616C68.4749 18.245 68.116 17.3927 66.7703 16.4059C66.1199 15.9125 65.8059 15.8676 64.0117 15.8676C62.5763 15.89 61.7913 16.0022 61.3203 16.2489C60.9615 16.4507 60.5802 16.6301 60.4905 16.6301C60.3111 16.6301 58.0234 17.9758 57.844 18.2001C57.7767 18.2674 57.1711 18.7608 56.4983 19.2991C55.8255 19.8149 54.3676 21.0709 53.2687 22.0802C50.4427 24.6818 49.9045 25.1528 49.725 25.1528C49.6353 25.1528 49.4335 25.3098 49.254 25.4668C48.7158 26.0051 46.0244 27.3956 45.5086 27.3956C44.9703 27.3956 44.6563 26.8125 45.0376 26.4312C45.1721 26.2966 45.2843 26.0499 45.2843 25.8705C45.2843 25.6911 45.4189 25.2425 45.5983 24.8612C46.6524 22.3941 46.9215 19.2094 46.1814 17.7516C45.5086 16.4283 44.6114 15.9125 42.8396 15.8452C42.0322 15.8003 41.0678 15.8227 40.6865 15.89ZM43.8265 18.3795C44.5442 18.8954 44.9254 19.9271 44.903 21.2952C44.903 22.0802 44.7684 22.8427 44.6339 22.9773C44.4993 23.1118 44.3872 23.4034 44.3872 23.6501C44.3872 24.0538 43.7368 25.6686 43.1536 26.7228C42.3014 28.2479 39.0717 26.947 37.726 24.5472C37.3896 23.9417 37.3448 22.5511 37.6588 22.3493C37.7933 22.282 37.883 22.0129 37.883 21.7886C37.883 21.2503 40.3725 18.716 41.2472 18.3571C41.7407 18.1777 43.5573 18.1777 43.8265 18.3795ZM85.6547 18.6487C86.3051 19.2991 86.3276 19.2542 84.6006 22.125C84.4436 22.3717 84.2193 22.8427 84.0623 23.1791C83.9278 23.538 83.7484 23.8071 83.6362 23.8071C83.5465 23.8071 83.4119 23.9865 83.3222 24.1884C83.2549 24.4127 82.9858 24.8837 82.7391 25.2649C82.4924 25.6238 82.1784 26.2069 82.0438 26.5433C81.9093 26.9022 81.7074 27.1713 81.5953 27.1713C81.4831 27.1713 81.3934 27.3059 81.3934 27.4629C81.3934 27.6423 81.1018 28.203 80.7206 28.6964C80.3617 29.2123 80.0477 29.7281 80.0477 29.8403C80.0477 29.9524 79.9132 30.1991 79.7562 30.3561C79.5992 30.5131 78.9936 31.4551 78.3881 32.4195C77.8049 33.4063 76.9751 34.6623 76.549 35.223C76.1228 35.7837 75.5621 36.5462 75.293 36.9275C75.0238 37.2864 74.0594 38.3405 73.1623 39.2152C71.7045 40.673 71.4129 40.8524 70.6728 40.8524C70.2243 40.8524 69.7308 40.7627 69.5963 40.673C69.0804 40.3366 68.7889 39.4619 68.9459 38.6769C69.1028 37.8695 69.1477 37.7125 69.7981 36.4117C70 35.9855 70.1794 35.5594 70.1794 35.4248C70.1794 35.2903 70.628 34.438 71.1887 33.5184C71.7494 32.6213 72.1979 31.8139 72.1979 31.7691C72.1979 31.5896 73.6333 29.5263 75.3154 27.2835C80.9448 19.7252 84.1072 17.1011 85.6547 18.6487ZM36.4925 26.0275C36.9859 26.8125 38.8923 28.2927 39.4306 28.2927C39.7894 28.2927 41.4715 29.2123 41.4715 29.3917C41.4715 29.616 40.7538 31.0738 40.5744 31.2084C40.5071 31.2756 40.1931 31.7242 39.9016 32.2176C39.61 32.711 39.2736 33.2045 39.1839 33.339C39.0942 33.4512 38.5559 34.1689 38.0176 34.909C36.6271 36.7929 33.5096 39.731 32.2087 40.359C30.9079 41.0094 30.1902 40.8973 29.3155 39.888C28.1941 38.6545 28.4857 36.6808 30.3472 32.7783C31.3341 30.6925 34.474 25.7584 35.0795 25.3322C35.5505 24.9734 35.9991 25.1977 36.4925 26.0275ZM98.6854 16.9666C98.4611 17.2133 98.2144 17.5721 98.1247 17.7516C98.0574 17.931 97.5416 18.7832 97.0033 19.6579C96.4426 20.5102 96.0838 21.3176 96.1735 21.4073C96.2632 21.497 97.4519 21.5419 98.7751 21.5195L101.22 21.4522L102.184 20.0392C102.722 19.2542 103.149 18.5814 103.149 18.5365C103.149 18.4917 103.395 18.0655 103.709 17.617C104.023 17.1684 104.203 16.7199 104.158 16.6301C104.091 16.518 102.924 16.4507 101.556 16.4732C99.4031 16.4956 99.0443 16.5629 98.6854 16.9666Z"/>
</mask>
<path class="clients-icon" d="M198.356 3.57704C196.404 5.16943 194.184 6.73939 193.309 7.1431C193.13 7.21038 192.928 7.34495 192.861 7.43466C192.636 7.7038 187.904 9.90174 187.523 9.90174C187.411 9.90174 187.007 10.0587 186.671 10.2382C186.312 10.4176 185.773 10.5746 185.437 10.5746C185.123 10.5746 184.764 10.6867 184.652 10.7989C184.383 11.068 181.086 11.4717 179.045 11.4717C177.677 11.4717 177.677 11.4717 176.578 12.6604C174.537 14.8583 173.573 16.0022 173.573 16.1816C173.573 16.7647 180.099 16.518 182.544 15.8227C185.078 15.105 189.272 13.1314 190.954 11.8754C193.466 10.0139 196.337 7.32252 198.019 5.28157C198.894 4.22745 200.083 2.47807 199.993 2.38835C199.948 2.3435 199.208 2.88177 198.356 3.57704ZM40.6865 15.89C40.3277 15.9349 39.8343 16.1367 39.5876 16.3162C39.3409 16.4956 39.0044 16.6301 38.8474 16.6301C38.5783 16.6301 36.3579 17.8861 36.0888 18.2001C36.0215 18.2674 35.5505 18.6038 35.0347 18.9402C34.0927 19.5907 30.9079 22.6409 29.2482 24.48C26.983 26.9919 24.5832 30.6028 23.2375 33.4736C21.6451 36.9051 21.3984 37.8919 21.3984 40.9646C21.3984 43.7456 21.5779 44.4185 22.632 45.2932C23.3048 45.8539 24.7626 46.4594 25.4131 46.4594C27.0279 46.437 30.1678 44.9119 32.3882 43.0952C34.003 41.772 38.511 37.0172 39.3409 35.8061C39.8343 35.066 40.3053 34.4156 40.4174 34.3931C40.5071 34.3483 40.5744 34.2361 40.5744 34.124C40.5744 33.9446 41.9425 31.7691 42.3686 31.2756C42.4808 31.1187 42.5929 30.9392 42.5929 30.8719C42.5929 30.7822 42.8621 30.3785 43.1761 29.9748C43.6246 29.3693 43.961 29.1898 44.7909 29.0553C45.374 28.9656 46.0244 28.8086 46.2487 28.6964C46.5403 28.5619 46.6748 28.5843 46.7645 28.8534C46.8991 29.2123 46.5627 30.0421 45.5983 31.6569C45.3516 32.0831 44.9254 33.0026 44.6339 33.6754C44.3647 34.3483 44.0507 35.1108 43.9386 35.3575C43.4676 36.3444 43.1985 37.9368 43.1088 40.0226C43.0191 41.8841 43.0863 42.3775 43.4452 43.1625C44.0732 44.5082 45.2619 45.652 46.2711 45.9211C46.6075 45.9884 46.9215 46.1454 46.9888 46.2576C47.1907 46.6164 49.8372 46.4594 51.138 46.0333C52.3267 45.6296 54.5022 44.5979 55.018 44.1942C55.1526 44.1045 56.1395 43.3419 57.2384 42.5345C58.315 41.7271 59.6382 40.6506 60.1765 40.1123C61.3652 38.9685 62.038 38.5423 62.2174 38.8339C62.2847 38.946 62.2174 39.2825 62.0829 39.5516C61.9035 39.8656 61.7913 41.0318 61.7913 42.4448C61.7689 45.2483 61.9259 45.5399 63.7201 46.1454C64.6621 46.4594 64.9761 46.4594 65.8732 46.2351C68.0936 45.6296 69.7533 44.6652 71.6821 42.8485C72.1979 42.3775 72.7138 41.9738 72.8259 41.9738C73.095 41.9738 73.3193 42.7588 73.3193 43.8353C73.3193 44.9792 73.8352 45.6969 74.979 46.123C75.8761 46.4594 76.0331 46.4594 77.0424 46.123C78.2311 45.7417 79.5543 45.1586 79.9132 44.867C80.0477 44.7549 80.7654 44.2166 81.5056 43.6335C83.4792 42.1308 87.1798 38.2283 89.7142 35.0211C90.9477 33.4736 92.0467 32.1055 92.1589 31.9485C92.5177 31.5224 92.428 31.4326 91.643 31.4326C90.9477 31.4326 90.701 31.6569 89.0638 33.6082C86.8434 36.3219 83.3447 39.7534 82.313 40.2469C80.3842 41.1888 79.6216 40.045 80.8327 38.0489C81.1467 37.5555 81.5056 36.9051 81.6401 36.5911C81.7523 36.2995 81.9541 35.9855 82.0438 35.9182C82.1335 35.851 82.47 35.38 82.7615 34.8641C83.0531 34.3707 83.8156 33.0923 84.4212 32.0831C85.0492 31.0514 85.6547 30.0421 85.7669 29.8178C85.9014 29.5935 87.7181 26.5433 89.8488 23.0446C91.957 19.5234 93.6391 16.6077 93.5494 16.5404C93.4821 16.4732 92.2486 16.4059 90.8132 16.4059C88.7722 16.4059 88.1218 16.4732 87.8975 16.7423C87.3817 17.3703 86.8659 17.3478 86.1257 16.6526C85.0492 15.6433 83.0531 15.4863 81.2813 16.2937C80.9224 16.4732 80.4514 16.6526 80.272 16.7199C78.6123 17.3478 73.8576 21.4746 71.5924 24.2557C71.2559 24.6818 70.7401 25.2874 70.4485 25.6014C70.157 25.9153 68.9907 27.3732 67.8693 28.8534C64.6845 33.0699 63.0921 34.9538 60.5802 37.5106C55.7357 42.4224 52.6631 43.5214 50.5997 41.0991C50.0839 40.4936 49.9942 40.1571 49.9942 39.0806C49.9942 37.9143 50.5324 35.694 51.0931 34.4604C51.2277 34.2137 51.5641 33.4512 51.8781 32.7783C52.5061 31.4326 53.4032 29.7505 53.8518 29.1226C54.0088 28.8983 54.3452 28.3824 54.5919 27.9563C55.3096 26.7452 56.3189 25.3322 57.1711 24.3902C59.6382 21.6316 62.7109 18.873 63.3388 18.873C63.4958 18.873 63.6753 18.7384 63.7425 18.5814C63.7874 18.4244 64.2584 18.3123 64.9537 18.3123C65.8956 18.3123 66.1648 18.402 66.5685 18.873C67.4656 19.9719 66.9946 20.9363 65.4022 21.2055C63.3389 21.5867 61.4997 24.9509 62.6884 26.1396C63.608 27.0592 65.4471 26.2518 66.6582 24.4127C67.8917 22.5063 68.1833 21.7662 68.3179 20.0616C68.4749 18.245 68.116 17.3927 66.7703 16.4059C66.1199 15.9125 65.8059 15.8676 64.0117 15.8676C62.5763 15.89 61.7913 16.0022 61.3203 16.2489C60.9615 16.4507 60.5802 16.6301 60.4905 16.6301C60.3111 16.6301 58.0234 17.9758 57.844 18.2001C57.7767 18.2674 57.1711 18.7608 56.4983 19.2991C55.8255 19.8149 54.3676 21.0709 53.2687 22.0802C50.4427 24.6818 49.9045 25.1528 49.725 25.1528C49.6353 25.1528 49.4335 25.3098 49.254 25.4668C48.7158 26.0051 46.0244 27.3956 45.5086 27.3956C44.9703 27.3956 44.6563 26.8125 45.0376 26.4312C45.1721 26.2966 45.2843 26.0499 45.2843 25.8705C45.2843 25.6911 45.4189 25.2425 45.5983 24.8612C46.6524 22.3941 46.9215 19.2094 46.1814 17.7516C45.5086 16.4283 44.6114 15.9125 42.8396 15.8452C42.0322 15.8003 41.0678 15.8227 40.6865 15.89ZM43.8265 18.3795C44.5442 18.8954 44.9254 19.9271 44.903 21.2952C44.903 22.0802 44.7684 22.8427 44.6339 22.9773C44.4993 23.1118 44.3872 23.4034 44.3872 23.6501C44.3872 24.0538 43.7368 25.6686 43.1536 26.7228C42.3014 28.2479 39.0717 26.947 37.726 24.5472C37.3896 23.9417 37.3448 22.5511 37.6588 22.3493C37.7933 22.282 37.883 22.0129 37.883 21.7886C37.883 21.2503 40.3725 18.716 41.2472 18.3571C41.7407 18.1777 43.5573 18.1777 43.8265 18.3795ZM85.6547 18.6487C86.3051 19.2991 86.3276 19.2542 84.6006 22.125C84.4436 22.3717 84.2193 22.8427 84.0623 23.1791C83.9278 23.538 83.7484 23.8071 83.6362 23.8071C83.5465 23.8071 83.4119 23.9865 83.3222 24.1884C83.2549 24.4127 82.9858 24.8837 82.7391 25.2649C82.4924 25.6238 82.1784 26.2069 82.0438 26.5433C81.9093 26.9022 81.7074 27.1713 81.5953 27.1713C81.4831 27.1713 81.3934 27.3059 81.3934 27.4629C81.3934 27.6423 81.1018 28.203 80.7206 28.6964C80.3617 29.2123 80.0477 29.7281 80.0477 29.8403C80.0477 29.9524 79.9132 30.1991 79.7562 30.3561C79.5992 30.5131 78.9936 31.4551 78.3881 32.4195C77.8049 33.4063 76.9751 34.6623 76.549 35.223C76.1228 35.7837 75.5621 36.5462 75.293 36.9275C75.0238 37.2864 74.0594 38.3405 73.1623 39.2152C71.7045 40.673 71.4129 40.8524 70.6728 40.8524C70.2243 40.8524 69.7308 40.7627 69.5963 40.673C69.0804 40.3366 68.7889 39.4619 68.9459 38.6769C69.1028 37.8695 69.1477 37.7125 69.7981 36.4117C70 35.9855 70.1794 35.5594 70.1794 35.4248C70.1794 35.2903 70.628 34.438 71.1887 33.5184C71.7494 32.6213 72.1979 31.8139 72.1979 31.7691C72.1979 31.5896 73.6333 29.5263 75.3154 27.2835C80.9448 19.7252 84.1072 17.1011 85.6547 18.6487ZM36.4925 26.0275C36.9859 26.8125 38.8923 28.2927 39.4306 28.2927C39.7894 28.2927 41.4715 29.2123 41.4715 29.3917C41.4715 29.616 40.7538 31.0738 40.5744 31.2084C40.5071 31.2756 40.1931 31.7242 39.9016 32.2176C39.61 32.711 39.2736 33.2045 39.1839 33.339C39.0942 33.4512 38.5559 34.1689 38.0176 34.909C36.6271 36.7929 33.5096 39.731 32.2087 40.359C30.9079 41.0094 30.1902 40.8973 29.3155 39.888C28.1941 38.6545 28.4857 36.6808 30.3472 32.7783C31.3341 30.6925 34.474 25.7584 35.0795 25.3322C35.5505 24.9734 35.9991 25.1977 36.4925 26.0275ZM98.6854 16.9666C98.4611 17.2133 98.2144 17.5721 98.1247 17.7516C98.0574 17.931 97.5416 18.7832 97.0033 19.6579C96.4426 20.5102 96.0838 21.3176 96.1735 21.4073C96.2632 21.497 97.4519 21.5419 98.7751 21.5195L101.22 21.4522L102.184 20.0392C102.722 19.2542 103.149 18.5814 103.149 18.5365C103.149 18.4917 103.395 18.0655 103.709 17.617C104.023 17.1684 104.203 16.7199 104.158 16.6301C104.091 16.518 102.924 16.4507 101.556 16.4732C99.4031 16.4956 99.0443 16.5629 98.6854 16.9666Z" fill="#050C1A" fill-opacity="0.55" stroke="white" stroke-opacity="0.2" stroke-width="0.567546" mask="url(#path-3-inside-3_414_17065)"/>
</svg>
