<svg width="400" height="125" viewBox="0 0 400 125" fill="none" xmlns="http://www.w3.org/2000/svg">
<mask id="path-1-inside-1_49_8085" fill="white">
<path d="M77.1166 0.627985C77.1166 1.39054 76.4437 1.61482 73.0795 2.01852C71.7338 2.19795 70.433 2.51194 70.1639 2.69136C69.9396 2.87079 69.1322 3.13992 68.3696 3.31935C66.9791 3.63334 66.396 3.85762 61.1927 6.36956C54.6437 9.46463 44.3268 16.4622 38.5852 21.7103C32.8436 26.9136 23.9622 36.154 21.8988 39.1145C21.3156 39.9219 20.5082 40.9984 20.0597 41.447C19.6111 41.9404 18.714 43.1515 18.0412 44.1384C17.3683 45.17 16.6955 46.0672 16.5609 46.2017C16.3815 46.3363 15.7983 47.2334 15.2152 48.2203C14.6321 49.2071 14.0041 50.1042 13.8695 50.2388C13.3313 50.6425 11.3576 54.2758 8.71109 59.6585C7.32055 62.4845 6.01973 65.1758 5.75059 65.5795C5.52631 66.0281 5.34689 66.6112 5.34689 66.9252C5.34689 67.2392 5.07775 68.0466 4.7189 68.7195C4.36006 69.3923 3.95635 70.5586 3.77693 71.366C3.5975 72.2182 3.28351 73.1602 3.05923 73.5639C1.39956 76.659 -0.843246 96.4405 0.323011 97.9208C0.547291 98.2347 0.90614 99.6253 1.08556 101.061C1.22013 102.496 1.66869 104.201 2.02754 104.873C2.34153 105.546 2.65553 106.354 2.65553 106.713C2.65553 107.879 6.78228 113.486 9.29422 115.729C12.0304 118.151 17.1889 120.932 19.7008 121.38C20.5531 121.56 21.4951 121.829 21.7193 122.053C22.5268 122.636 32.7539 122.95 36.9704 122.502C41.9943 121.919 48.0947 120.932 48.7227 120.528C48.947 120.394 50.2478 120.035 51.5935 119.811C52.9392 119.541 55.3165 119.003 56.9313 118.599C58.5462 118.241 60.9684 117.613 62.4038 117.299C63.7943 116.985 65.0951 116.626 65.3643 116.491C65.5886 116.312 66.8445 115.998 68.1902 115.773C69.5359 115.504 72.1376 114.966 73.9766 114.607C75.8157 114.204 78.552 113.665 80.0322 113.441C81.5125 113.217 83.6207 112.813 84.7421 112.544C87.6577 111.826 102.864 111.467 105.6 112.05C106.856 112.32 108.785 112.768 109.951 112.992C111.117 113.262 112.418 113.62 112.867 113.89C113.315 114.114 114.751 114.787 116.052 115.325C117.308 115.908 118.384 116.536 118.384 116.715C118.384 116.94 118.608 117.074 118.878 117.074C119.775 117.074 123.318 120.214 124.978 122.502L126.593 124.655L129.329 122.188C134.577 117.433 139.511 116.177 149.694 117.074C152.744 117.299 155.615 117.747 156.063 117.971C156.512 118.241 157.364 118.42 157.947 118.42C158.53 118.42 159.562 118.734 160.28 119.093C160.953 119.452 161.895 119.766 162.298 119.766C162.702 119.766 164.451 120.483 166.111 121.336C167.816 122.188 169.385 122.906 169.565 122.906C170.731 122.906 169.475 121.694 165.169 118.42C162.478 116.446 160.145 114.697 159.876 114.473C159.652 114.293 158.62 113.62 157.633 113.037C156.646 112.454 155.749 111.826 155.615 111.647C155.346 111.288 147.496 107.206 147.047 107.206C146.868 107.206 146.15 106.982 145.432 106.668C143.369 105.815 140.364 104.963 136.775 104.201C132.469 103.303 117.352 102.9 113.899 103.617C112.553 103.887 109.817 104.29 107.843 104.515C102.819 105.098 94.7001 106.668 87.882 108.372C86.2672 108.731 83.845 109.314 82.4993 109.583C81.1536 109.897 79.8528 110.256 79.5836 110.391C79.3594 110.57 78.238 110.839 77.1166 110.974C75.9952 111.153 74.6943 111.467 74.2009 111.692C73.7075 111.916 72.317 112.32 71.061 112.544C67.6071 113.217 64.4672 113.934 62.9869 114.383C60.9235 115.011 53.612 116.177 46.3902 117.029C43.2054 117.388 41.2766 117.388 37.2395 116.85C34.4136 116.446 31.9017 115.998 31.6325 115.773C31.3634 115.594 30.556 115.28 29.8383 115.101C27.1021 114.428 21.9436 110.391 20.4634 107.744C19.4765 106.04 18.0412 102.945 17.458 101.375C16.6955 99.2216 16.3815 90.0261 16.9197 87.245C18.1309 81.5932 18.4 80.4718 18.8037 79.2158C19.028 78.4532 19.656 76.4347 20.1942 74.775C20.7325 73.1154 21.3605 71.6351 21.5399 71.5005C21.7642 71.366 21.9436 70.9623 21.9436 70.5586C21.9436 70.1549 22.6613 68.3606 23.5136 66.5664C24.3659 64.7721 25.0836 63.1125 25.0836 62.8882C25.0836 62.619 25.2181 62.3499 25.4424 62.2602C25.6218 62.1705 26.2498 61.0939 26.8329 59.8828C28.1786 57.1018 31.9017 51.0013 34.5482 47.0989C37.2844 43.1067 38.7198 41.0881 38.9889 40.819C39.1235 40.6844 40.3346 39.1593 41.6803 37.4548C45.1342 33.0141 46.435 31.5338 53.7914 24.2223C60.7441 17.2247 62.5384 15.6548 66.2614 13.098C73.4384 8.1638 77.5651 6.36956 82.5442 5.96585C84.9664 5.78643 85.1458 5.83129 86.7158 7.40125C87.7026 8.38808 88.3306 9.41977 88.3306 10.0926C88.3306 11.528 86.8503 13.0083 85.4149 13.0083C84.159 13.0083 81.333 14.6679 80.2116 16.0136C78.866 17.6733 78.0137 19.8712 78.0137 21.8C78.0137 23.5046 78.1931 23.8186 79.5388 24.6708L81.1088 25.6128L82.8581 24.7157C88.2857 21.9346 92.5471 13.1428 91.0668 7.80495C90.394 5.24816 87.7923 2.33251 85.8635 1.97367C84.9215 1.79424 84.2038 1.39054 84.0693 0.852265C83.8001 0.134568 83.3067 0 80.4359 0C77.8343 0 77.1166 0.134568 77.1166 0.627985ZM268.203 2.06338C267.351 2.19795 266.005 2.55679 265.198 2.91564C264.435 3.27449 263.493 3.58848 263.09 3.58848C262.686 3.58848 262.013 3.76791 261.565 4.03704C261.161 4.26132 259.815 4.88931 258.559 5.38273C252.279 8.02923 242.007 14.2194 236.311 18.8395C230.479 23.5943 228.506 25.3437 223.796 30.0536C216.843 37.0062 213.524 40.8639 208.41 47.7717C206.033 50.9565 203.925 53.7824 203.7 54.0515C203.521 54.2758 202.848 55.3075 202.265 56.2943C201.682 57.2812 201.054 58.1783 200.919 58.3129C200.246 58.8511 195.088 67.9569 192.935 72.4425C191.634 75.1339 190.333 77.7355 190.109 78.1392C189.885 78.5878 189.705 79.1709 189.705 79.4401C189.705 79.7092 189.436 80.5615 189.077 81.324C186.341 87.5142 185.04 95.1397 185.354 102.945C185.623 108.283 185.848 109.359 188.001 113.845C189.077 116.132 191.993 119.317 193.967 120.349C198.048 122.502 198.766 122.681 204.194 122.636C207.065 122.592 209.711 122.367 210.025 122.098C210.294 121.874 211.281 121.515 212.133 121.336C213.479 121.022 217.561 119.227 221.104 117.254C224.065 115.639 230.704 109.852 234.113 105.86C235.458 104.245 236.804 102.72 237.118 102.362C239.226 100.119 244.205 91.5961 246.224 86.7965C246.762 85.5405 247.345 84.1499 247.57 83.6565C247.794 83.1631 248.108 82.0417 248.287 81.1895C248.422 80.3372 248.781 79.3503 249.05 79.0364C249.319 78.7224 249.498 75.9861 249.543 72.7565C249.588 66.7458 249.364 65.9833 247.031 63.6059C245.686 62.2153 242.591 61.7219 239.181 62.3499C237.522 62.619 235.952 63.0227 235.683 63.2022C235.458 63.4265 234.741 63.7404 234.158 63.9199C232.274 64.503 227.25 68.1812 224.424 71.052C221.374 74.147 219.938 76.2553 217.651 80.9652C216.798 82.6697 215.901 84.4639 215.677 84.8676C215.453 85.3162 215.273 85.9891 215.273 86.3928C215.273 86.7516 215.004 87.5142 214.735 88.0524C213.838 89.5775 211.954 97.2928 212.313 97.6965C212.447 97.7862 214.197 96.4405 216.26 94.6911C218.323 92.9417 220.207 91.5063 220.521 91.5063C220.791 91.5063 221.104 91.3269 221.194 91.1475C221.374 90.6989 225.59 88.1421 226.756 87.7384C227.339 87.559 227.878 86.5722 228.461 84.6882C231.332 75.0442 237.567 67.2841 242.411 67.2841C246.762 67.2841 247.973 70.6483 246.269 78.2738C246 79.4849 245.551 80.696 245.327 80.9203C245.058 81.1894 244.878 81.7726 244.878 82.2211C244.878 82.6697 244.609 83.6117 244.25 84.2397C243.891 84.9125 243.129 86.4376 242.546 87.6936C241.514 89.9812 239.092 94.2426 238.598 94.6463C238.464 94.7808 237.342 96.1714 236.131 97.7862C231.197 104.29 223.93 110.884 219.221 112.992C216.439 114.248 212.896 114.607 209.666 113.934C207.468 113.486 206.706 113.037 205.001 111.288C202.22 108.462 201.233 105.187 201.502 99.9841C201.682 95.8574 202.579 90.6541 203.207 89.9812C203.431 89.7121 203.611 89.0393 203.611 88.4113C203.611 87.7384 203.925 86.6619 204.283 85.9442C204.642 85.2714 204.956 84.3294 204.956 83.9257C204.956 83.522 205.27 82.6248 205.629 81.9072C205.988 81.2343 206.302 80.4269 206.302 80.2026C206.302 78.4084 213.748 64.2339 218.503 57.012C218.951 56.3841 219.535 55.3972 219.804 54.8141C220.118 54.2758 220.477 53.8273 220.656 53.8273C220.835 53.8273 221.104 53.4684 221.239 53.0199C221.508 52.2573 224.334 48.31 228.551 42.8824C237.746 31.0852 250.575 18.8844 261.026 12.0214C264.301 9.86833 270.401 6.72841 271.343 6.72841C271.747 6.72841 272.24 6.54898 272.51 6.27985C272.734 6.05557 274.169 5.74157 275.605 5.60701C280.314 5.15845 280.628 6.54898 276.457 9.33006C275.246 10.1375 273.855 11.1692 273.362 11.5729C272.868 11.9766 271.164 13.3671 269.549 14.6679C263.628 19.333 258.111 25.9268 254.971 32.0272C252.235 37.3651 251.562 39.563 251.472 42.9721C251.337 48.1305 252.952 49.8799 257.797 49.8799C260.174 49.8799 261.206 49.6556 263.673 48.3997C267.531 46.426 274.349 39.7425 277.713 34.5392C281.167 29.291 284.082 23.4149 284.621 20.6338C284.755 19.7815 285.069 18.8395 285.293 18.5704C285.518 18.3461 285.787 16.0585 285.921 13.5017C286.011 10.9897 286.235 8.74693 286.37 8.52265C286.505 8.29837 287.716 7.89466 289.017 7.58067C291.035 7.13211 292.022 7.17697 295.072 7.80495C297.091 8.20866 299.064 8.70207 299.513 8.92635C299.917 9.10578 300.993 9.5992 301.845 9.95804C302.698 10.3617 303.909 10.8552 304.537 11.1243C305.793 11.7074 309.336 13.6362 310.368 14.3539C310.727 14.5782 312.656 15.8342 314.629 17.135C316.603 18.391 319.833 20.4992 321.806 21.7552C326.068 24.4914 329.522 26.4651 330.15 26.4651C330.553 26.4651 338.717 18.2116 338.941 17.5836C339.031 17.4041 338.089 16.821 336.923 16.2379C335.757 15.6996 334.501 15.0716 334.142 14.8474C326.516 10.1375 318.352 5.74157 314.181 4.03704C309.247 2.06338 308.977 2.01852 300.186 2.01852C293.906 2.01852 291.439 2.15309 290.99 2.55679C290.721 2.87079 290.093 3.13992 289.645 3.13992C289.196 3.13992 287.716 3.49877 286.415 3.99219L284.038 4.84445L281.84 3.45392C279.776 2.15309 279.372 2.06338 274.707 1.97367C272.016 1.92881 269.056 1.97367 268.203 2.06338ZM282.826 10.9897C283.185 12.3803 282.243 19.333 281.66 19.9161C281.391 20.1852 281.212 20.7235 281.212 21.1721C281.212 23.2354 276.233 32.2964 273.048 36.0194C269.325 40.4153 263.987 45.3046 262.865 45.3046C262.596 45.3046 262.372 45.484 262.372 45.7083C262.372 46.0672 258.47 47.5474 257.483 47.5474C257.214 47.5474 256.316 46.8297 255.419 45.9775C253.177 43.6898 253.311 41.9404 256.406 35.6606C258.29 31.7132 258.47 31.4889 261.52 27.3622C265.377 22.2037 271.388 16.3276 276.143 13.098C281.256 9.5992 282.378 9.24035 282.826 10.9897Z"/>
</mask>
<path d="M77.1166 0.627985C77.1166 1.39054 76.4437 1.61482 73.0795 2.01852C71.7338 2.19795 70.433 2.51194 70.1639 2.69136C69.9396 2.87079 69.1322 3.13992 68.3696 3.31935C66.9791 3.63334 66.396 3.85762 61.1927 6.36956C54.6437 9.46463 44.3268 16.4622 38.5852 21.7103C32.8436 26.9136 23.9622 36.154 21.8988 39.1145C21.3156 39.9219 20.5082 40.9984 20.0597 41.447C19.6111 41.9404 18.714 43.1515 18.0412 44.1384C17.3683 45.17 16.6955 46.0672 16.5609 46.2017C16.3815 46.3363 15.7983 47.2334 15.2152 48.2203C14.6321 49.2071 14.0041 50.1042 13.8695 50.2388C13.3313 50.6425 11.3576 54.2758 8.71109 59.6585C7.32055 62.4845 6.01973 65.1758 5.75059 65.5795C5.52631 66.0281 5.34689 66.6112 5.34689 66.9252C5.34689 67.2392 5.07775 68.0466 4.7189 68.7195C4.36006 69.3923 3.95635 70.5586 3.77693 71.366C3.5975 72.2182 3.28351 73.1602 3.05923 73.5639C1.39956 76.659 -0.843246 96.4405 0.323011 97.9208C0.547291 98.2347 0.90614 99.6253 1.08556 101.061C1.22013 102.496 1.66869 104.201 2.02754 104.873C2.34153 105.546 2.65553 106.354 2.65553 106.713C2.65553 107.879 6.78228 113.486 9.29422 115.729C12.0304 118.151 17.1889 120.932 19.7008 121.38C20.5531 121.56 21.4951 121.829 21.7193 122.053C22.5268 122.636 32.7539 122.95 36.9704 122.502C41.9943 121.919 48.0947 120.932 48.7227 120.528C48.947 120.394 50.2478 120.035 51.5935 119.811C52.9392 119.541 55.3165 119.003 56.9313 118.599C58.5462 118.241 60.9684 117.613 62.4038 117.299C63.7943 116.985 65.0951 116.626 65.3643 116.491C65.5886 116.312 66.8445 115.998 68.1902 115.773C69.5359 115.504 72.1376 114.966 73.9766 114.607C75.8157 114.204 78.552 113.665 80.0322 113.441C81.5125 113.217 83.6207 112.813 84.7421 112.544C87.6577 111.826 102.864 111.467 105.6 112.05C106.856 112.32 108.785 112.768 109.951 112.992C111.117 113.262 112.418 113.62 112.867 113.89C113.315 114.114 114.751 114.787 116.052 115.325C117.308 115.908 118.384 116.536 118.384 116.715C118.384 116.94 118.608 117.074 118.878 117.074C119.775 117.074 123.318 120.214 124.978 122.502L126.593 124.655L129.329 122.188C134.577 117.433 139.511 116.177 149.694 117.074C152.744 117.299 155.615 117.747 156.063 117.971C156.512 118.241 157.364 118.42 157.947 118.42C158.53 118.42 159.562 118.734 160.28 119.093C160.953 119.452 161.895 119.766 162.298 119.766C162.702 119.766 164.451 120.483 166.111 121.336C167.816 122.188 169.385 122.906 169.565 122.906C170.731 122.906 169.475 121.694 165.169 118.42C162.478 116.446 160.145 114.697 159.876 114.473C159.652 114.293 158.62 113.62 157.633 113.037C156.646 112.454 155.749 111.826 155.615 111.647C155.346 111.288 147.496 107.206 147.047 107.206C146.868 107.206 146.15 106.982 145.432 106.668C143.369 105.815 140.364 104.963 136.775 104.201C132.469 103.303 117.352 102.9 113.899 103.617C112.553 103.887 109.817 104.29 107.843 104.515C102.819 105.098 94.7001 106.668 87.882 108.372C86.2672 108.731 83.845 109.314 82.4993 109.583C81.1536 109.897 79.8528 110.256 79.5836 110.391C79.3594 110.57 78.238 110.839 77.1166 110.974C75.9952 111.153 74.6943 111.467 74.2009 111.692C73.7075 111.916 72.317 112.32 71.061 112.544C67.6071 113.217 64.4672 113.934 62.9869 114.383C60.9235 115.011 53.612 116.177 46.3902 117.029C43.2054 117.388 41.2766 117.388 37.2395 116.85C34.4136 116.446 31.9017 115.998 31.6325 115.773C31.3634 115.594 30.556 115.28 29.8383 115.101C27.1021 114.428 21.9436 110.391 20.4634 107.744C19.4765 106.04 18.0412 102.945 17.458 101.375C16.6955 99.2216 16.3815 90.0261 16.9197 87.245C18.1309 81.5932 18.4 80.4718 18.8037 79.2158C19.028 78.4532 19.656 76.4347 20.1942 74.775C20.7325 73.1154 21.3605 71.6351 21.5399 71.5005C21.7642 71.366 21.9436 70.9623 21.9436 70.5586C21.9436 70.1549 22.6613 68.3606 23.5136 66.5664C24.3659 64.7721 25.0836 63.1125 25.0836 62.8882C25.0836 62.619 25.2181 62.3499 25.4424 62.2602C25.6218 62.1705 26.2498 61.0939 26.8329 59.8828C28.1786 57.1018 31.9017 51.0013 34.5482 47.0989C37.2844 43.1067 38.7198 41.0881 38.9889 40.819C39.1235 40.6844 40.3346 39.1593 41.6803 37.4548C45.1342 33.0141 46.435 31.5338 53.7914 24.2223C60.7441 17.2247 62.5384 15.6548 66.2614 13.098C73.4384 8.1638 77.5651 6.36956 82.5442 5.96585C84.9664 5.78643 85.1458 5.83129 86.7158 7.40125C87.7026 8.38808 88.3306 9.41977 88.3306 10.0926C88.3306 11.528 86.8503 13.0083 85.4149 13.0083C84.159 13.0083 81.333 14.6679 80.2116 16.0136C78.866 17.6733 78.0137 19.8712 78.0137 21.8C78.0137 23.5046 78.1931 23.8186 79.5388 24.6708L81.1088 25.6128L82.8581 24.7157C88.2857 21.9346 92.5471 13.1428 91.0668 7.80495C90.394 5.24816 87.7923 2.33251 85.8635 1.97367C84.9215 1.79424 84.2038 1.39054 84.0693 0.852265C83.8001 0.134568 83.3067 0 80.4359 0C77.8343 0 77.1166 0.134568 77.1166 0.627985ZM268.203 2.06338C267.351 2.19795 266.005 2.55679 265.198 2.91564C264.435 3.27449 263.493 3.58848 263.09 3.58848C262.686 3.58848 262.013 3.76791 261.565 4.03704C261.161 4.26132 259.815 4.88931 258.559 5.38273C252.279 8.02923 242.007 14.2194 236.311 18.8395C230.479 23.5943 228.506 25.3437 223.796 30.0536C216.843 37.0062 213.524 40.8639 208.41 47.7717C206.033 50.9565 203.925 53.7824 203.7 54.0515C203.521 54.2758 202.848 55.3075 202.265 56.2943C201.682 57.2812 201.054 58.1783 200.919 58.3129C200.246 58.8511 195.088 67.9569 192.935 72.4425C191.634 75.1339 190.333 77.7355 190.109 78.1392C189.885 78.5878 189.705 79.1709 189.705 79.4401C189.705 79.7092 189.436 80.5615 189.077 81.324C186.341 87.5142 185.04 95.1397 185.354 102.945C185.623 108.283 185.848 109.359 188.001 113.845C189.077 116.132 191.993 119.317 193.967 120.349C198.048 122.502 198.766 122.681 204.194 122.636C207.065 122.592 209.711 122.367 210.025 122.098C210.294 121.874 211.281 121.515 212.133 121.336C213.479 121.022 217.561 119.227 221.104 117.254C224.065 115.639 230.704 109.852 234.113 105.86C235.458 104.245 236.804 102.72 237.118 102.362C239.226 100.119 244.205 91.5961 246.224 86.7965C246.762 85.5405 247.345 84.1499 247.57 83.6565C247.794 83.1631 248.108 82.0417 248.287 81.1895C248.422 80.3372 248.781 79.3503 249.05 79.0364C249.319 78.7224 249.498 75.9861 249.543 72.7565C249.588 66.7458 249.364 65.9833 247.031 63.6059C245.686 62.2153 242.591 61.7219 239.181 62.3499C237.522 62.619 235.952 63.0227 235.683 63.2022C235.458 63.4265 234.741 63.7404 234.158 63.9199C232.274 64.503 227.25 68.1812 224.424 71.052C221.374 74.147 219.938 76.2553 217.651 80.9652C216.798 82.6697 215.901 84.4639 215.677 84.8676C215.453 85.3162 215.273 85.9891 215.273 86.3928C215.273 86.7516 215.004 87.5142 214.735 88.0524C213.838 89.5775 211.954 97.2928 212.313 97.6965C212.447 97.7862 214.197 96.4405 216.26 94.6911C218.323 92.9417 220.207 91.5063 220.521 91.5063C220.791 91.5063 221.104 91.3269 221.194 91.1475C221.374 90.6989 225.59 88.1421 226.756 87.7384C227.339 87.559 227.878 86.5722 228.461 84.6882C231.332 75.0442 237.567 67.2841 242.411 67.2841C246.762 67.2841 247.973 70.6483 246.269 78.2738C246 79.4849 245.551 80.696 245.327 80.9203C245.058 81.1894 244.878 81.7726 244.878 82.2211C244.878 82.6697 244.609 83.6117 244.25 84.2397C243.891 84.9125 243.129 86.4376 242.546 87.6936C241.514 89.9812 239.092 94.2426 238.598 94.6463C238.464 94.7808 237.342 96.1714 236.131 97.7862C231.197 104.29 223.93 110.884 219.221 112.992C216.439 114.248 212.896 114.607 209.666 113.934C207.468 113.486 206.706 113.037 205.001 111.288C202.22 108.462 201.233 105.187 201.502 99.9841C201.682 95.8574 202.579 90.6541 203.207 89.9812C203.431 89.7121 203.611 89.0393 203.611 88.4113C203.611 87.7384 203.925 86.6619 204.283 85.9442C204.642 85.2714 204.956 84.3294 204.956 83.9257C204.956 83.522 205.27 82.6248 205.629 81.9072C205.988 81.2343 206.302 80.4269 206.302 80.2026C206.302 78.4084 213.748 64.2339 218.503 57.012C218.951 56.3841 219.535 55.3972 219.804 54.8141C220.118 54.2758 220.477 53.8273 220.656 53.8273C220.835 53.8273 221.104 53.4684 221.239 53.0199C221.508 52.2573 224.334 48.31 228.551 42.8824C237.746 31.0852 250.575 18.8844 261.026 12.0214C264.301 9.86833 270.401 6.72841 271.343 6.72841C271.747 6.72841 272.24 6.54898 272.51 6.27985C272.734 6.05557 274.169 5.74157 275.605 5.60701C280.314 5.15845 280.628 6.54898 276.457 9.33006C275.246 10.1375 273.855 11.1692 273.362 11.5729C272.868 11.9766 271.164 13.3671 269.549 14.6679C263.628 19.333 258.111 25.9268 254.971 32.0272C252.235 37.3651 251.562 39.563 251.472 42.9721C251.337 48.1305 252.952 49.8799 257.797 49.8799C260.174 49.8799 261.206 49.6556 263.673 48.3997C267.531 46.426 274.349 39.7425 277.713 34.5392C281.167 29.291 284.082 23.4149 284.621 20.6338C284.755 19.7815 285.069 18.8395 285.293 18.5704C285.518 18.3461 285.787 16.0585 285.921 13.5017C286.011 10.9897 286.235 8.74693 286.37 8.52265C286.505 8.29837 287.716 7.89466 289.017 7.58067C291.035 7.13211 292.022 7.17697 295.072 7.80495C297.091 8.20866 299.064 8.70207 299.513 8.92635C299.917 9.10578 300.993 9.5992 301.845 9.95804C302.698 10.3617 303.909 10.8552 304.537 11.1243C305.793 11.7074 309.336 13.6362 310.368 14.3539C310.727 14.5782 312.656 15.8342 314.629 17.135C316.603 18.391 319.833 20.4992 321.806 21.7552C326.068 24.4914 329.522 26.4651 330.15 26.4651C330.553 26.4651 338.717 18.2116 338.941 17.5836C339.031 17.4041 338.089 16.821 336.923 16.2379C335.757 15.6996 334.501 15.0716 334.142 14.8474C326.516 10.1375 318.352 5.74157 314.181 4.03704C309.247 2.06338 308.977 2.01852 300.186 2.01852C293.906 2.01852 291.439 2.15309 290.99 2.55679C290.721 2.87079 290.093 3.13992 289.645 3.13992C289.196 3.13992 287.716 3.49877 286.415 3.99219L284.038 4.84445L281.84 3.45392C279.776 2.15309 279.372 2.06338 274.707 1.97367C272.016 1.92881 269.056 1.97367 268.203 2.06338ZM282.826 10.9897C283.185 12.3803 282.243 19.333 281.66 19.9161C281.391 20.1852 281.212 20.7235 281.212 21.1721C281.212 23.2354 276.233 32.2964 273.048 36.0194C269.325 40.4153 263.987 45.3046 262.865 45.3046C262.596 45.3046 262.372 45.484 262.372 45.7083C262.372 46.0672 258.47 47.5474 257.483 47.5474C257.214 47.5474 256.316 46.8297 255.419 45.9775C253.177 43.6898 253.311 41.9404 256.406 35.6606C258.29 31.7132 258.47 31.4889 261.52 27.3622C265.377 22.2037 271.388 16.3276 276.143 13.098C281.256 9.5992 282.378 9.24035 282.826 10.9897Z" fill="white" stroke="white" stroke-opacity="0.2" stroke-width="1.13509" mask="url(#path-1-inside-1_49_8085)"/>
<mask id="path-2-inside-2_49_8085" fill="white">
<path d="M366.435 3.09594C364.057 3.81364 359.886 5.74245 358.719 6.68442C358.405 6.95356 356.028 8.70295 353.426 10.6318C347.55 14.9828 332.344 30.0096 326.737 36.9623C325.795 38.1734 324.494 39.6985 323.911 40.3265C321.534 42.8833 313.056 54.6355 310.589 58.852C310.364 59.3006 309.064 61.3639 307.808 63.4722C306.507 65.6253 305.43 67.5092 305.43 67.7335C305.43 67.9578 305.161 68.4063 304.892 68.7203C304.578 69.0792 303.95 70.0212 303.457 70.8734C303.008 71.7257 301.932 73.7442 301.034 75.359C300.182 76.9739 298.522 80.0689 297.401 82.2669C296.19 84.5994 294.979 86.3936 294.441 86.573C292.018 87.4702 290.224 87.9187 289.103 87.9187C287.892 87.9187 287.847 87.8739 288.161 86.2142C288.34 85.3171 288.744 84.0611 289.058 83.4331C290.134 81.5043 290.987 79.2167 291.301 77.6018C291.48 76.7496 291.839 75.8076 292.063 75.4936C292.288 75.1796 292.512 72.9368 292.557 70.4697C292.601 66.2981 292.512 65.9393 291.39 64.4142C290.493 63.2928 289.506 62.6199 287.757 62.0816C285.469 61.3639 285.155 61.3639 282.688 62.0816C276.453 63.9207 271.474 67.1952 264.656 73.9685C258.825 79.7998 257.031 81.8183 254.743 85.2274C254.384 85.7656 253.801 86.4833 253.532 86.8422C253.218 87.1562 252.949 87.515 252.949 87.6496C252.949 87.7842 252.366 88.7261 251.648 89.8027C249.809 92.494 246.31 99.4019 245.996 100.972C245.817 101.69 245.503 102.362 245.278 102.497C245.054 102.676 244.875 103.17 244.875 103.618C244.875 104.112 244.561 105.413 244.157 106.579C243.708 107.88 243.439 110.302 243.439 112.993C243.394 117.838 244.202 120.125 246.534 121.785C248.239 122.996 254.429 123.041 256.089 121.875C256.672 121.471 257.524 121.112 257.973 121.112C258.421 121.112 258.78 120.978 258.78 120.753C258.78 120.574 259.722 119.901 260.933 119.228C263.086 117.972 263.535 117.613 268.917 112.904C271.743 110.436 272.999 109.046 276.947 104.291C277.53 103.529 278.248 102.721 278.517 102.407C278.741 102.093 278.965 101.734 278.965 101.6C278.965 101.241 280.939 98.5048 281.343 98.3253C281.522 98.2356 281.657 97.8768 281.657 97.5628C281.657 97.2039 281.926 96.6657 282.24 96.3517C282.554 96.0377 283.316 94.8266 283.899 93.6603C285.155 91.1035 286.86 90.1615 290.314 90.1615C293.14 90.1615 293.723 90.7895 292.646 92.8529C292.288 93.5706 291.974 94.3331 291.974 94.6023C291.974 94.8266 291.749 95.5891 291.435 96.3068C290 99.7159 288.43 106.085 287.892 110.347C287.219 116.178 288.071 119.453 290.807 121.606C293.229 123.49 299.285 122.862 302.111 120.439C302.425 120.17 303.322 119.497 304.174 118.869C304.982 118.241 307.18 116.268 309.019 114.518C310.858 112.724 312.518 111.244 312.697 111.244C313.101 111.244 313.101 111.244 313.235 115.326C313.37 118.69 314.491 120.978 316.465 122.054C318.394 123.041 322.79 122.862 325.302 121.606C327.32 120.619 333.376 116.223 334.362 115.012C334.632 114.743 335.304 114.339 335.888 114.16C336.874 113.846 336.919 113.935 336.65 115.326C336.336 117.12 337.368 120.798 338.444 121.92C339.072 122.503 340.014 122.682 342.616 122.637C345.801 122.637 346.204 122.503 349.165 120.709C353.695 117.927 357.284 114.743 362.622 108.956C366.165 105.099 367.421 103.618 368.274 102.273C368.677 101.645 369.485 100.658 370.023 100.03C370.561 99.4019 371.683 97.8768 372.535 96.6657C373.342 95.4097 374.374 93.9743 374.778 93.3912C375.495 92.4043 375.495 92.4043 373.881 92.4043C372.356 92.4043 372.086 92.6735 369.171 96.5311C365.358 101.69 363.698 103.663 360.828 106.534C355.624 111.737 352.664 113.262 351.139 111.423C350.242 110.347 351.094 108.508 358.046 96.9348C361.5 91.1484 364.685 85.8105 365.044 85.0928C365.448 84.3751 365.986 83.478 366.21 83.0743C367.78 80.4726 368.991 78.5887 369.485 77.8261C369.754 77.3327 370.247 76.4356 370.516 75.8076C370.741 75.2245 371.1 74.5965 371.279 74.4619C371.458 74.3273 372.086 73.2957 372.714 72.0845C373.298 70.9183 373.97 69.9763 374.15 69.9763C374.374 69.9763 374.509 69.752 374.509 69.4829C374.509 69.1689 375.137 67.9578 375.854 66.7467C376.617 65.5804 377.2 64.3244 377.2 64.0105C377.2 63.6067 375.854 63.517 371.772 63.5619C366.614 63.6965 366.255 63.7413 365.268 64.8179C364.685 65.4458 364.057 65.9393 363.878 65.9393C363.698 65.9393 362.846 65.2216 361.994 64.3693C359.975 62.2611 357.777 61.7228 354.189 62.3508C352.664 62.6648 351.228 63.0236 350.959 63.2479C350.735 63.4273 350.017 63.7413 349.434 63.9207C348.806 64.1002 348.133 64.4142 347.864 64.6384C347.595 64.8627 346.07 65.9841 344.545 67.1055C342.975 68.2269 340.777 69.9763 339.611 71.008C337.368 73.1162 329.608 81.9529 328.397 83.792C327.993 84.4648 327.455 85.2274 327.186 85.4965C326.961 85.7656 326.468 86.3936 326.154 86.8422C325.84 87.3356 324.898 88.6813 324.001 89.9372C323.104 91.1484 321.444 93.5706 320.323 95.32C319.156 97.0245 318.125 98.5496 317.99 98.6842C317.811 98.8187 317.227 99.7159 316.644 100.703C316.061 101.69 315.433 102.587 315.299 102.721C315.164 102.856 314.088 104.157 312.966 105.637C307.853 112.32 303.995 114.249 301.842 111.244C301.079 110.167 300.9 109.405 301.079 107.969C301.393 104.964 302.335 100.748 302.784 100.299C303.008 100.03 303.188 99.4467 303.188 98.9982C303.188 98.5496 303.457 97.5179 303.816 96.7554C304.13 95.948 304.757 94.4229 305.206 93.3015C306.731 89.4438 309.467 83.8817 309.826 83.8817C310.32 83.8817 321.04 76.0767 323.148 74.1479C323.642 73.6994 325.257 72.3537 326.737 71.0977C330.191 68.2269 346.788 51.7648 349.3 48.7594C351.228 46.382 352.709 44.6326 354.458 42.6141C354.996 41.9861 356.432 40.2367 357.598 38.6668L359.751 35.8857H358.181C356.835 35.8857 356.387 36.1997 354.234 38.8911C352.933 40.5956 351.677 42.1656 351.408 42.4347C351.183 42.7038 349.569 44.5429 347.864 46.4717C343.917 50.9573 331.402 63.4722 326.961 67.3747C325.122 69.0343 322.879 70.9631 322.027 71.7257C321.175 72.4882 320.323 73.1162 320.143 73.1162C319.964 73.1162 319.56 73.3854 319.201 73.7442C317.945 75.0002 315.164 76.7047 314.402 76.7047C313.774 76.7047 313.639 76.4356 313.818 75.673C313.953 75.1348 314.312 74.3722 314.581 74.0134C314.895 73.6545 315.568 72.4434 316.106 71.322C316.689 70.2006 317.317 68.9895 317.541 68.6306C317.766 68.2718 319.605 65.1319 321.623 61.6779C323.687 58.224 325.481 55.3084 325.705 55.2635C325.885 55.1738 326.064 54.9495 326.064 54.7253C326.064 54.4113 327.455 52.1685 329.742 48.7145C330.415 47.7277 333.69 43.1524 336.471 39.2499C344.365 28.1705 358.002 13.682 365.223 8.61323C367.915 6.72928 370.247 6.01158 371.189 6.77414C372.176 7.58154 371.548 10.7663 369.709 14.7137C368.857 16.5528 368.274 18.1227 368.408 18.2573C368.722 18.5713 371.817 17.4947 371.817 17.0462C371.817 16.8219 372.042 16.1042 372.356 15.3865C373.97 11.4392 374.464 9.37579 374.509 6.81899V3.99306L372.445 3.1408C370.068 2.10911 369.754 2.10911 366.435 3.09594ZM287.802 67.2401C289.372 68.5409 290.359 72.0397 289.776 74.0582C289.506 74.9553 289.282 76.0319 289.282 76.4356C289.282 78.0055 285.335 86.0796 284.213 86.7525C282.643 87.7393 277.306 83.792 275.825 80.4726C274.121 76.8393 275.063 73.5199 278.831 69.8866C282.24 66.5672 285.783 65.5356 287.802 67.2401ZM360.469 67.5541C362.532 68.0924 362.173 69.7072 358.674 75.4936C356.88 78.499 355.265 81.28 355.086 81.6389C354.907 81.9977 354.413 82.85 353.965 83.5228C353.561 84.1957 351.722 87.201 349.883 90.2512C348.044 93.3015 346.429 95.8582 346.249 95.9928C346.115 96.1274 345.487 97.0245 344.904 98.0113C344.321 98.9982 343.603 100.03 343.334 100.344C342.526 101.331 341.988 102.004 340.777 103.843C337.816 108.239 333.286 112.141 331.088 112.141C329.249 112.141 327.679 110.257 327.993 108.328C328.621 104.471 330.191 100.837 334.138 93.9743C341.719 80.8315 354.144 67.2401 358.585 67.2849C359.078 67.2849 359.93 67.4195 360.469 67.5541ZM274.255 84.2405C275.96 86.0796 277.978 87.6945 279.369 88.3673C281.612 89.4438 282.823 91.2381 281.791 91.9109C281.522 92.0455 280.849 93.0323 280.266 94.064C274.883 103.349 265.867 112.141 261.696 112.141C261.113 112.141 259.901 111.423 258.959 110.571L257.3 109.001L257.524 105.816C257.659 104.067 258.017 102.407 258.287 102.138C258.556 101.869 258.78 101.331 258.78 100.927C258.78 99.8953 262.817 92.0455 265.06 88.7261C266.136 87.1562 267.706 84.8237 268.559 83.5228C269.411 82.2669 270.398 81.1903 270.801 81.1903C271.16 81.1903 272.685 82.5809 274.255 84.2405Z"/>
</mask>
<path d="M366.435 3.09594C364.057 3.81364 359.886 5.74245 358.719 6.68442C358.405 6.95356 356.028 8.70295 353.426 10.6318C347.55 14.9828 332.344 30.0096 326.737 36.9623C325.795 38.1734 324.494 39.6985 323.911 40.3265C321.534 42.8833 313.056 54.6355 310.589 58.852C310.364 59.3006 309.064 61.3639 307.808 63.4722C306.507 65.6253 305.43 67.5092 305.43 67.7335C305.43 67.9578 305.161 68.4063 304.892 68.7203C304.578 69.0792 303.95 70.0212 303.457 70.8734C303.008 71.7257 301.932 73.7442 301.034 75.359C300.182 76.9739 298.522 80.0689 297.401 82.2669C296.19 84.5994 294.979 86.3936 294.441 86.573C292.018 87.4702 290.224 87.9187 289.103 87.9187C287.892 87.9187 287.847 87.8739 288.161 86.2142C288.34 85.3171 288.744 84.0611 289.058 83.4331C290.134 81.5043 290.987 79.2167 291.301 77.6018C291.48 76.7496 291.839 75.8076 292.063 75.4936C292.288 75.1796 292.512 72.9368 292.557 70.4697C292.601 66.2981 292.512 65.9393 291.39 64.4142C290.493 63.2928 289.506 62.6199 287.757 62.0816C285.469 61.3639 285.155 61.3639 282.688 62.0816C276.453 63.9207 271.474 67.1952 264.656 73.9685C258.825 79.7998 257.031 81.8183 254.743 85.2274C254.384 85.7656 253.801 86.4833 253.532 86.8422C253.218 87.1562 252.949 87.515 252.949 87.6496C252.949 87.7842 252.366 88.7261 251.648 89.8027C249.809 92.494 246.31 99.4019 245.996 100.972C245.817 101.69 245.503 102.362 245.278 102.497C245.054 102.676 244.875 103.17 244.875 103.618C244.875 104.112 244.561 105.413 244.157 106.579C243.708 107.88 243.439 110.302 243.439 112.993C243.394 117.838 244.202 120.125 246.534 121.785C248.239 122.996 254.429 123.041 256.089 121.875C256.672 121.471 257.524 121.112 257.973 121.112C258.421 121.112 258.78 120.978 258.78 120.753C258.78 120.574 259.722 119.901 260.933 119.228C263.086 117.972 263.535 117.613 268.917 112.904C271.743 110.436 272.999 109.046 276.947 104.291C277.53 103.529 278.248 102.721 278.517 102.407C278.741 102.093 278.965 101.734 278.965 101.6C278.965 101.241 280.939 98.5048 281.343 98.3253C281.522 98.2356 281.657 97.8768 281.657 97.5628C281.657 97.2039 281.926 96.6657 282.24 96.3517C282.554 96.0377 283.316 94.8266 283.899 93.6603C285.155 91.1035 286.86 90.1615 290.314 90.1615C293.14 90.1615 293.723 90.7895 292.646 92.8529C292.288 93.5706 291.974 94.3331 291.974 94.6023C291.974 94.8266 291.749 95.5891 291.435 96.3068C290 99.7159 288.43 106.085 287.892 110.347C287.219 116.178 288.071 119.453 290.807 121.606C293.229 123.49 299.285 122.862 302.111 120.439C302.425 120.17 303.322 119.497 304.174 118.869C304.982 118.241 307.18 116.268 309.019 114.518C310.858 112.724 312.518 111.244 312.697 111.244C313.101 111.244 313.101 111.244 313.235 115.326C313.37 118.69 314.491 120.978 316.465 122.054C318.394 123.041 322.79 122.862 325.302 121.606C327.32 120.619 333.376 116.223 334.362 115.012C334.632 114.743 335.304 114.339 335.888 114.16C336.874 113.846 336.919 113.935 336.65 115.326C336.336 117.12 337.368 120.798 338.444 121.92C339.072 122.503 340.014 122.682 342.616 122.637C345.801 122.637 346.204 122.503 349.165 120.709C353.695 117.927 357.284 114.743 362.622 108.956C366.165 105.099 367.421 103.618 368.274 102.273C368.677 101.645 369.485 100.658 370.023 100.03C370.561 99.4019 371.683 97.8768 372.535 96.6657C373.342 95.4097 374.374 93.9743 374.778 93.3912C375.495 92.4043 375.495 92.4043 373.881 92.4043C372.356 92.4043 372.086 92.6735 369.171 96.5311C365.358 101.69 363.698 103.663 360.828 106.534C355.624 111.737 352.664 113.262 351.139 111.423C350.242 110.347 351.094 108.508 358.046 96.9348C361.5 91.1484 364.685 85.8105 365.044 85.0928C365.448 84.3751 365.986 83.478 366.21 83.0743C367.78 80.4726 368.991 78.5887 369.485 77.8261C369.754 77.3327 370.247 76.4356 370.516 75.8076C370.741 75.2245 371.1 74.5965 371.279 74.4619C371.458 74.3273 372.086 73.2957 372.714 72.0845C373.298 70.9183 373.97 69.9763 374.15 69.9763C374.374 69.9763 374.509 69.752 374.509 69.4829C374.509 69.1689 375.137 67.9578 375.854 66.7467C376.617 65.5804 377.2 64.3244 377.2 64.0105C377.2 63.6067 375.854 63.517 371.772 63.5619C366.614 63.6965 366.255 63.7413 365.268 64.8179C364.685 65.4458 364.057 65.9393 363.878 65.9393C363.698 65.9393 362.846 65.2216 361.994 64.3693C359.975 62.2611 357.777 61.7228 354.189 62.3508C352.664 62.6648 351.228 63.0236 350.959 63.2479C350.735 63.4273 350.017 63.7413 349.434 63.9207C348.806 64.1002 348.133 64.4142 347.864 64.6384C347.595 64.8627 346.07 65.9841 344.545 67.1055C342.975 68.2269 340.777 69.9763 339.611 71.008C337.368 73.1162 329.608 81.9529 328.397 83.792C327.993 84.4648 327.455 85.2274 327.186 85.4965C326.961 85.7656 326.468 86.3936 326.154 86.8422C325.84 87.3356 324.898 88.6813 324.001 89.9372C323.104 91.1484 321.444 93.5706 320.323 95.32C319.156 97.0245 318.125 98.5496 317.99 98.6842C317.811 98.8187 317.227 99.7159 316.644 100.703C316.061 101.69 315.433 102.587 315.299 102.721C315.164 102.856 314.088 104.157 312.966 105.637C307.853 112.32 303.995 114.249 301.842 111.244C301.079 110.167 300.9 109.405 301.079 107.969C301.393 104.964 302.335 100.748 302.784 100.299C303.008 100.03 303.188 99.4467 303.188 98.9982C303.188 98.5496 303.457 97.5179 303.816 96.7554C304.13 95.948 304.757 94.4229 305.206 93.3015C306.731 89.4438 309.467 83.8817 309.826 83.8817C310.32 83.8817 321.04 76.0767 323.148 74.1479C323.642 73.6994 325.257 72.3537 326.737 71.0977C330.191 68.2269 346.788 51.7648 349.3 48.7594C351.228 46.382 352.709 44.6326 354.458 42.6141C354.996 41.9861 356.432 40.2367 357.598 38.6668L359.751 35.8857H358.181C356.835 35.8857 356.387 36.1997 354.234 38.8911C352.933 40.5956 351.677 42.1656 351.408 42.4347C351.183 42.7038 349.569 44.5429 347.864 46.4717C343.917 50.9573 331.402 63.4722 326.961 67.3747C325.122 69.0343 322.879 70.9631 322.027 71.7257C321.175 72.4882 320.323 73.1162 320.143 73.1162C319.964 73.1162 319.56 73.3854 319.201 73.7442C317.945 75.0002 315.164 76.7047 314.402 76.7047C313.774 76.7047 313.639 76.4356 313.818 75.673C313.953 75.1348 314.312 74.3722 314.581 74.0134C314.895 73.6545 315.568 72.4434 316.106 71.322C316.689 70.2006 317.317 68.9895 317.541 68.6306C317.766 68.2718 319.605 65.1319 321.623 61.6779C323.687 58.224 325.481 55.3084 325.705 55.2635C325.885 55.1738 326.064 54.9495 326.064 54.7253C326.064 54.4113 327.455 52.1685 329.742 48.7145C330.415 47.7277 333.69 43.1524 336.471 39.2499C344.365 28.1705 358.002 13.682 365.223 8.61323C367.915 6.72928 370.247 6.01158 371.189 6.77414C372.176 7.58154 371.548 10.7663 369.709 14.7137C368.857 16.5528 368.274 18.1227 368.408 18.2573C368.722 18.5713 371.817 17.4947 371.817 17.0462C371.817 16.8219 372.042 16.1042 372.356 15.3865C373.97 11.4392 374.464 9.37579 374.509 6.81899V3.99306L372.445 3.1408C370.068 2.10911 369.754 2.10911 366.435 3.09594ZM287.802 67.2401C289.372 68.5409 290.359 72.0397 289.776 74.0582C289.506 74.9553 289.282 76.0319 289.282 76.4356C289.282 78.0055 285.335 86.0796 284.213 86.7525C282.643 87.7393 277.306 83.792 275.825 80.4726C274.121 76.8393 275.063 73.5199 278.831 69.8866C282.24 66.5672 285.783 65.5356 287.802 67.2401ZM360.469 67.5541C362.532 68.0924 362.173 69.7072 358.674 75.4936C356.88 78.499 355.265 81.28 355.086 81.6389C354.907 81.9977 354.413 82.85 353.965 83.5228C353.561 84.1957 351.722 87.201 349.883 90.2512C348.044 93.3015 346.429 95.8582 346.249 95.9928C346.115 96.1274 345.487 97.0245 344.904 98.0113C344.321 98.9982 343.603 100.03 343.334 100.344C342.526 101.331 341.988 102.004 340.777 103.843C337.816 108.239 333.286 112.141 331.088 112.141C329.249 112.141 327.679 110.257 327.993 108.328C328.621 104.471 330.191 100.837 334.138 93.9743C341.719 80.8315 354.144 67.2401 358.585 67.2849C359.078 67.2849 359.93 67.4195 360.469 67.5541ZM274.255 84.2405C275.96 86.0796 277.978 87.6945 279.369 88.3673C281.612 89.4438 282.823 91.2381 281.791 91.9109C281.522 92.0455 280.849 93.0323 280.266 94.064C274.883 103.349 265.867 112.141 261.696 112.141C261.113 112.141 259.901 111.423 258.959 110.571L257.3 109.001L257.524 105.816C257.659 104.067 258.017 102.407 258.287 102.138C258.556 101.869 258.78 101.331 258.78 100.927C258.78 99.8953 262.817 92.0455 265.06 88.7261C266.136 87.1562 267.706 84.8237 268.559 83.5228C269.411 82.2669 270.398 81.1903 270.801 81.1903C271.16 81.1903 272.685 82.5809 274.255 84.2405Z" fill="white" stroke="white" stroke-opacity="0.2" stroke-width="1.13509" mask="url(#path-2-inside-2_49_8085)"/>
<mask id="path-3-inside-3_49_8085" fill="white">
<path d="M396.711 7.08767C392.809 10.2725 388.368 13.4124 386.619 14.2198C386.26 14.3544 385.856 14.6235 385.721 14.8029C385.273 15.3412 375.808 19.7371 375.046 19.7371C374.821 19.7371 374.014 20.0511 373.341 20.4099C372.623 20.7688 371.547 21.0828 370.874 21.0828C370.246 21.0828 369.528 21.307 369.304 21.5313C368.766 22.0696 362.172 22.877 358.09 22.877C355.354 22.877 355.354 22.877 353.156 25.2544C349.074 29.6503 347.145 31.9379 347.145 32.2968C347.145 33.463 360.198 32.9696 365.088 31.5791C370.156 30.1437 378.544 26.1964 381.909 23.6844C386.933 19.9614 392.674 14.5786 396.038 10.4967C397.788 8.3885 400.165 4.88973 399.986 4.7103C399.896 4.62059 398.416 5.69714 396.711 7.08767ZM81.3731 31.7136C80.6554 31.8034 79.6686 32.2071 79.1751 32.5659C78.6817 32.9248 78.0089 33.1939 77.6949 33.1939C77.1566 33.1939 72.7159 35.7058 72.1776 36.3338C72.043 36.4684 71.101 37.1412 70.0694 37.8141C68.1854 39.1149 61.8158 45.2153 58.4965 48.8935C53.966 53.9174 49.1664 61.1392 46.4751 66.8808C43.2903 73.7438 42.7969 75.7174 42.7969 81.8627C42.7969 87.4249 43.1557 88.7705 45.264 90.5199C46.6096 91.6413 49.5253 92.8524 50.8261 92.8524C54.0557 92.8076 60.3356 89.7574 64.7763 86.124C68.006 83.4775 77.022 73.968 78.6817 71.5458C79.6686 70.0656 80.6105 68.7647 80.8348 68.7199C81.0142 68.6302 81.1488 68.4059 81.1488 68.1816C81.1488 67.8228 83.885 63.4717 84.7373 62.4849C84.9616 62.1709 85.1858 61.812 85.1858 61.6775C85.1858 61.4981 85.7241 60.6906 86.3521 59.8832C87.2492 58.6721 87.9221 58.3133 89.5817 58.0441C90.748 57.8647 92.0488 57.5507 92.4974 57.3265C93.0805 57.0573 93.3497 57.1022 93.5291 57.6404C93.7982 58.3581 93.1254 60.0178 91.1966 63.2474C90.7031 64.0997 89.8509 65.9388 89.2677 67.2845C88.7295 68.6302 88.1015 70.1553 87.8772 70.6487C86.9352 72.6224 86.397 75.8071 86.2175 79.9788C86.0381 83.7018 86.1727 84.6886 86.8904 86.2586C88.1463 88.95 90.5237 91.2376 92.5422 91.7759C93.2151 91.9105 93.8431 92.2244 93.9776 92.4487C94.3813 93.1664 99.6744 92.8524 102.276 92.0002C104.653 91.1928 109.004 89.1294 110.036 88.322C110.305 88.1425 112.279 86.6174 114.477 85.0026C116.63 83.3878 119.276 81.2347 120.353 80.1582C122.73 77.8705 124.076 77.0182 124.435 77.6014C124.569 77.8257 124.435 78.4985 124.166 79.0368C123.807 79.6648 123.583 81.9973 123.583 84.8232C123.538 90.4302 123.852 91.0133 127.44 92.2244C129.324 92.8524 129.952 92.8524 131.746 92.4039C136.187 91.1928 139.507 89.2639 143.364 85.6306C144.396 84.6886 145.428 83.8812 145.652 83.8812C146.19 83.8812 146.639 85.4512 146.639 87.6043C146.639 89.8919 147.67 91.3273 149.958 92.1796C151.752 92.8524 152.066 92.8524 154.085 92.1796C156.462 91.417 159.109 90.2508 159.826 89.6676C160.095 89.4434 161.531 88.3668 163.011 87.2006C166.958 84.1952 174.36 76.3903 179.428 69.9758C181.895 66.8808 184.093 64.1446 184.318 63.8306C185.035 62.9783 184.856 62.7989 183.286 62.7989C181.895 62.7989 181.402 63.2474 178.128 67.1499C173.687 72.5775 166.689 79.4405 164.626 80.4273C160.768 82.3113 159.243 80.0236 161.665 76.0314C162.293 75.0446 163.011 73.7438 163.28 73.1158C163.505 72.5326 163.908 71.9047 164.088 71.7701C164.267 71.6355 164.94 70.6935 165.523 69.6619C166.106 68.675 167.631 66.1182 168.842 64.0997C170.098 62.0363 171.309 60.0178 171.534 59.5692C171.803 59.1207 175.436 53.0203 179.698 46.0227C183.914 38.9803 187.278 33.149 187.099 33.0145C186.964 32.8799 184.497 32.7453 181.626 32.7453C177.544 32.7453 176.244 32.8799 175.795 33.4182C174.763 34.6741 173.732 34.6293 172.251 33.2387C170.098 31.2202 166.106 30.9062 162.563 32.5211C161.845 32.8799 160.903 33.2388 160.544 33.3733C157.225 34.6293 147.715 42.8828 143.185 48.445C142.512 49.2972 141.48 50.5083 140.897 51.1363C140.314 51.7643 137.981 54.6799 135.739 57.6404C129.369 66.0734 126.184 69.8413 121.16 74.9549C111.471 84.7783 105.326 86.9763 101.199 82.1318C100.168 80.9207 99.9883 80.2479 99.9883 78.0948C99.9883 75.7623 101.065 71.3215 102.186 68.8544C102.455 68.361 103.128 66.8359 103.756 65.4902C105.012 62.7989 106.806 59.4347 107.704 58.1787C108.018 57.7301 108.69 56.6985 109.184 55.8462C110.619 53.424 112.638 50.598 114.342 48.7141C119.276 43.1968 125.422 37.6795 126.678 37.6795C126.992 37.6795 127.351 37.4104 127.485 37.0964C127.575 36.7824 128.517 36.5581 129.907 36.5581C131.791 36.5581 132.33 36.7375 133.137 37.6795C134.931 39.8774 133.989 41.8063 130.804 42.3445C126.678 43.1071 122.999 49.8355 125.377 52.2129C127.216 54.052 130.894 52.4371 133.316 48.7589C135.783 44.9462 136.367 43.4659 136.636 40.0569C136.95 36.4235 136.232 34.719 133.541 32.7453C132.24 31.7585 131.612 31.6688 128.023 31.6688C125.153 31.7136 123.583 31.9379 122.641 32.4313C121.923 32.835 121.16 33.1939 120.981 33.1939C120.622 33.1939 116.047 35.8853 115.688 36.3338C115.553 36.4684 114.342 37.4552 112.997 38.5318C111.651 39.5635 108.735 42.0754 106.537 44.0939C100.885 49.2972 99.8089 50.2392 99.4501 50.2392C99.2706 50.2392 98.8669 50.5532 98.5081 50.8672C97.4315 51.9437 92.0488 54.7248 91.0171 54.7248C89.9406 54.7248 89.3126 53.5585 90.0752 52.796C90.3443 52.5268 90.5686 52.0334 90.5686 51.6746C90.5686 51.3157 90.8377 50.4186 91.1966 49.6561C93.3048 44.7219 93.8431 38.3523 92.3628 35.4367C91.0171 32.7902 89.2229 31.7585 85.6793 31.6239C84.0644 31.5342 82.1356 31.5791 81.3731 31.7136ZM87.6529 36.6927C89.0883 37.7244 89.8509 39.7877 89.806 42.524C89.806 44.0939 89.5369 45.619 89.2677 45.8882C88.9986 46.1573 88.7743 46.7404 88.7743 47.2338C88.7743 48.0412 87.4735 51.2709 86.3073 53.3791C84.6027 56.4293 78.1434 53.8277 75.4521 49.0281C74.7792 47.817 74.6895 45.0359 75.3175 44.6322C75.5867 44.4976 75.7661 43.9593 75.7661 43.5108C75.7661 42.4342 80.7451 37.3655 82.4945 36.6478C83.4813 36.289 87.1147 36.289 87.6529 36.6927ZM171.309 37.2309C172.61 38.5318 172.655 38.4421 169.201 44.1836C168.887 44.677 168.439 45.619 168.125 46.2919C167.856 47.0095 167.497 47.5478 167.272 47.5478C167.093 47.5478 166.824 47.9067 166.644 48.3104C166.51 48.7589 165.972 49.7009 165.478 50.4635C164.985 51.1812 164.357 52.3474 164.088 53.0203C163.819 53.738 163.415 54.2762 163.191 54.2762C162.966 54.2762 162.787 54.5454 162.787 54.8594C162.787 55.2182 162.204 56.3396 161.441 57.3265C160.723 58.3581 160.095 59.3898 160.095 59.6141C160.095 59.8384 159.826 60.3318 159.512 60.6458C159.198 60.9598 157.987 62.8437 156.776 64.7725C155.61 66.7462 153.95 69.2581 153.098 70.3795C152.246 71.5009 151.124 73.0261 150.586 73.7886C150.048 74.5063 148.119 76.6145 146.325 78.3639C143.409 81.2796 142.826 81.6384 141.346 81.6384C140.449 81.6384 139.462 81.459 139.193 81.2796C138.161 80.6067 137.578 78.8573 137.892 77.2874C138.206 75.6726 138.295 75.3586 139.596 72.7569C140 71.9047 140.359 71.0524 140.359 70.7833C140.359 70.5141 141.256 68.8096 142.377 66.9705C143.499 65.1763 144.396 63.5614 144.396 63.4717C144.396 63.1129 147.267 58.9861 150.631 54.5005C161.89 39.384 168.214 34.1359 171.309 37.2309ZM72.985 51.9886C73.9718 53.5585 77.7846 56.519 78.8611 56.519C79.5788 56.519 82.943 58.3581 82.943 58.717C82.943 59.1655 81.5077 62.0812 81.1488 62.3503C81.0142 62.4849 80.3862 63.382 79.8031 64.3688C79.22 65.3557 78.5472 66.3425 78.3677 66.6116C78.1883 66.8359 77.1118 68.2713 76.0352 69.7516C73.2541 73.5195 67.0191 79.3956 64.4175 80.6516C61.8158 81.9524 60.3805 81.7281 58.6311 79.7096C56.3883 77.2425 56.9714 73.2952 60.6944 65.4902C62.6681 61.3186 68.948 51.4503 70.1591 50.598C71.101 49.8803 71.9982 50.3289 72.985 51.9886ZM197.371 33.8667C196.922 34.3601 196.429 35.0778 196.249 35.4367C196.115 35.7955 195.083 37.5001 194.007 39.2495C192.885 40.954 192.168 42.5688 192.347 42.7482C192.526 42.9277 194.904 43.0174 197.55 42.9725L202.44 42.8379L204.368 40.012C205.445 38.4421 206.297 37.0964 206.297 37.0067C206.297 36.9169 206.791 36.0647 207.419 35.1676C208.047 34.2704 208.405 33.3733 208.316 33.1939C208.181 32.9696 205.849 32.835 203.112 32.8799C198.806 32.9248 198.089 33.0593 197.371 33.8667Z"/>
</mask>
<path d="M396.711 7.08767C392.809 10.2725 388.368 13.4124 386.619 14.2198C386.26 14.3544 385.856 14.6235 385.721 14.8029C385.273 15.3412 375.808 19.7371 375.046 19.7371C374.821 19.7371 374.014 20.0511 373.341 20.4099C372.623 20.7688 371.547 21.0828 370.874 21.0828C370.246 21.0828 369.528 21.307 369.304 21.5313C368.766 22.0696 362.172 22.877 358.09 22.877C355.354 22.877 355.354 22.877 353.156 25.2544C349.074 29.6503 347.145 31.9379 347.145 32.2968C347.145 33.463 360.198 32.9696 365.088 31.5791C370.156 30.1437 378.544 26.1964 381.909 23.6844C386.933 19.9614 392.674 14.5786 396.038 10.4967C397.788 8.3885 400.165 4.88973 399.986 4.7103C399.896 4.62059 398.416 5.69714 396.711 7.08767ZM81.3731 31.7136C80.6554 31.8034 79.6686 32.2071 79.1751 32.5659C78.6817 32.9248 78.0089 33.1939 77.6949 33.1939C77.1566 33.1939 72.7159 35.7058 72.1776 36.3338C72.043 36.4684 71.101 37.1412 70.0694 37.8141C68.1854 39.1149 61.8158 45.2153 58.4965 48.8935C53.966 53.9174 49.1664 61.1392 46.4751 66.8808C43.2903 73.7438 42.7969 75.7174 42.7969 81.8627C42.7969 87.4249 43.1557 88.7705 45.264 90.5199C46.6096 91.6413 49.5253 92.8524 50.8261 92.8524C54.0557 92.8076 60.3356 89.7574 64.7763 86.124C68.006 83.4775 77.022 73.968 78.6817 71.5458C79.6686 70.0656 80.6105 68.7647 80.8348 68.7199C81.0142 68.6302 81.1488 68.4059 81.1488 68.1816C81.1488 67.8228 83.885 63.4717 84.7373 62.4849C84.9616 62.1709 85.1858 61.812 85.1858 61.6775C85.1858 61.4981 85.7241 60.6906 86.3521 59.8832C87.2492 58.6721 87.9221 58.3133 89.5817 58.0441C90.748 57.8647 92.0488 57.5507 92.4974 57.3265C93.0805 57.0573 93.3497 57.1022 93.5291 57.6404C93.7982 58.3581 93.1254 60.0178 91.1966 63.2474C90.7031 64.0997 89.8509 65.9388 89.2677 67.2845C88.7295 68.6302 88.1015 70.1553 87.8772 70.6487C86.9352 72.6224 86.397 75.8071 86.2175 79.9788C86.0381 83.7018 86.1727 84.6886 86.8904 86.2586C88.1463 88.95 90.5237 91.2376 92.5422 91.7759C93.2151 91.9105 93.8431 92.2244 93.9776 92.4487C94.3813 93.1664 99.6744 92.8524 102.276 92.0002C104.653 91.1928 109.004 89.1294 110.036 88.322C110.305 88.1425 112.279 86.6174 114.477 85.0026C116.63 83.3878 119.276 81.2347 120.353 80.1582C122.73 77.8705 124.076 77.0182 124.435 77.6014C124.569 77.8257 124.435 78.4985 124.166 79.0368C123.807 79.6648 123.583 81.9973 123.583 84.8232C123.538 90.4302 123.852 91.0133 127.44 92.2244C129.324 92.8524 129.952 92.8524 131.746 92.4039C136.187 91.1928 139.507 89.2639 143.364 85.6306C144.396 84.6886 145.428 83.8812 145.652 83.8812C146.19 83.8812 146.639 85.4512 146.639 87.6043C146.639 89.8919 147.67 91.3273 149.958 92.1796C151.752 92.8524 152.066 92.8524 154.085 92.1796C156.462 91.417 159.109 90.2508 159.826 89.6676C160.095 89.4434 161.531 88.3668 163.011 87.2006C166.958 84.1952 174.36 76.3903 179.428 69.9758C181.895 66.8808 184.093 64.1446 184.318 63.8306C185.035 62.9783 184.856 62.7989 183.286 62.7989C181.895 62.7989 181.402 63.2474 178.128 67.1499C173.687 72.5775 166.689 79.4405 164.626 80.4273C160.768 82.3113 159.243 80.0236 161.665 76.0314C162.293 75.0446 163.011 73.7438 163.28 73.1158C163.505 72.5326 163.908 71.9047 164.088 71.7701C164.267 71.6355 164.94 70.6935 165.523 69.6619C166.106 68.675 167.631 66.1182 168.842 64.0997C170.098 62.0363 171.309 60.0178 171.534 59.5692C171.803 59.1207 175.436 53.0203 179.698 46.0227C183.914 38.9803 187.278 33.149 187.099 33.0145C186.964 32.8799 184.497 32.7453 181.626 32.7453C177.544 32.7453 176.244 32.8799 175.795 33.4182C174.763 34.6741 173.732 34.6293 172.251 33.2387C170.098 31.2202 166.106 30.9062 162.563 32.5211C161.845 32.8799 160.903 33.2388 160.544 33.3733C157.225 34.6293 147.715 42.8828 143.185 48.445C142.512 49.2972 141.48 50.5083 140.897 51.1363C140.314 51.7643 137.981 54.6799 135.739 57.6404C129.369 66.0734 126.184 69.8413 121.16 74.9549C111.471 84.7783 105.326 86.9763 101.199 82.1318C100.168 80.9207 99.9883 80.2479 99.9883 78.0948C99.9883 75.7623 101.065 71.3215 102.186 68.8544C102.455 68.361 103.128 66.8359 103.756 65.4902C105.012 62.7989 106.806 59.4347 107.704 58.1787C108.018 57.7301 108.69 56.6985 109.184 55.8462C110.619 53.424 112.638 50.598 114.342 48.7141C119.276 43.1968 125.422 37.6795 126.678 37.6795C126.992 37.6795 127.351 37.4104 127.485 37.0964C127.575 36.7824 128.517 36.5581 129.907 36.5581C131.791 36.5581 132.33 36.7375 133.137 37.6795C134.931 39.8774 133.989 41.8063 130.804 42.3445C126.678 43.1071 122.999 49.8355 125.377 52.2129C127.216 54.052 130.894 52.4371 133.316 48.7589C135.783 44.9462 136.367 43.4659 136.636 40.0569C136.95 36.4235 136.232 34.719 133.541 32.7453C132.24 31.7585 131.612 31.6688 128.023 31.6688C125.153 31.7136 123.583 31.9379 122.641 32.4313C121.923 32.835 121.16 33.1939 120.981 33.1939C120.622 33.1939 116.047 35.8853 115.688 36.3338C115.553 36.4684 114.342 37.4552 112.997 38.5318C111.651 39.5635 108.735 42.0754 106.537 44.0939C100.885 49.2972 99.8089 50.2392 99.4501 50.2392C99.2706 50.2392 98.8669 50.5532 98.5081 50.8672C97.4315 51.9437 92.0488 54.7248 91.0171 54.7248C89.9406 54.7248 89.3126 53.5585 90.0752 52.796C90.3443 52.5268 90.5686 52.0334 90.5686 51.6746C90.5686 51.3157 90.8377 50.4186 91.1966 49.6561C93.3048 44.7219 93.8431 38.3523 92.3628 35.4367C91.0171 32.7902 89.2229 31.7585 85.6793 31.6239C84.0644 31.5342 82.1356 31.5791 81.3731 31.7136ZM87.6529 36.6927C89.0883 37.7244 89.8509 39.7877 89.806 42.524C89.806 44.0939 89.5369 45.619 89.2677 45.8882C88.9986 46.1573 88.7743 46.7404 88.7743 47.2338C88.7743 48.0412 87.4735 51.2709 86.3073 53.3791C84.6027 56.4293 78.1434 53.8277 75.4521 49.0281C74.7792 47.817 74.6895 45.0359 75.3175 44.6322C75.5867 44.4976 75.7661 43.9593 75.7661 43.5108C75.7661 42.4342 80.7451 37.3655 82.4945 36.6478C83.4813 36.289 87.1147 36.289 87.6529 36.6927ZM171.309 37.2309C172.61 38.5318 172.655 38.4421 169.201 44.1836C168.887 44.677 168.439 45.619 168.125 46.2919C167.856 47.0095 167.497 47.5478 167.272 47.5478C167.093 47.5478 166.824 47.9067 166.644 48.3104C166.51 48.7589 165.972 49.7009 165.478 50.4635C164.985 51.1812 164.357 52.3474 164.088 53.0203C163.819 53.738 163.415 54.2762 163.191 54.2762C162.966 54.2762 162.787 54.5454 162.787 54.8594C162.787 55.2182 162.204 56.3396 161.441 57.3265C160.723 58.3581 160.095 59.3898 160.095 59.6141C160.095 59.8384 159.826 60.3318 159.512 60.6458C159.198 60.9598 157.987 62.8437 156.776 64.7725C155.61 66.7462 153.95 69.2581 153.098 70.3795C152.246 71.5009 151.124 73.0261 150.586 73.7886C150.048 74.5063 148.119 76.6145 146.325 78.3639C143.409 81.2796 142.826 81.6384 141.346 81.6384C140.449 81.6384 139.462 81.459 139.193 81.2796C138.161 80.6067 137.578 78.8573 137.892 77.2874C138.206 75.6726 138.295 75.3586 139.596 72.7569C140 71.9047 140.359 71.0524 140.359 70.7833C140.359 70.5141 141.256 68.8096 142.377 66.9705C143.499 65.1763 144.396 63.5614 144.396 63.4717C144.396 63.1129 147.267 58.9861 150.631 54.5005C161.89 39.384 168.214 34.1359 171.309 37.2309ZM72.985 51.9886C73.9718 53.5585 77.7846 56.519 78.8611 56.519C79.5788 56.519 82.943 58.3581 82.943 58.717C82.943 59.1655 81.5077 62.0812 81.1488 62.3503C81.0142 62.4849 80.3862 63.382 79.8031 64.3688C79.22 65.3557 78.5472 66.3425 78.3677 66.6116C78.1883 66.8359 77.1118 68.2713 76.0352 69.7516C73.2541 73.5195 67.0191 79.3956 64.4175 80.6516C61.8158 81.9524 60.3805 81.7281 58.6311 79.7096C56.3883 77.2425 56.9714 73.2952 60.6944 65.4902C62.6681 61.3186 68.948 51.4503 70.1591 50.598C71.101 49.8803 71.9982 50.3289 72.985 51.9886ZM197.371 33.8667C196.922 34.3601 196.429 35.0778 196.249 35.4367C196.115 35.7955 195.083 37.5001 194.007 39.2495C192.885 40.954 192.168 42.5688 192.347 42.7482C192.526 42.9277 194.904 43.0174 197.55 42.9725L202.44 42.8379L204.368 40.012C205.445 38.4421 206.297 37.0964 206.297 37.0067C206.297 36.9169 206.791 36.0647 207.419 35.1676C208.047 34.2704 208.405 33.3733 208.316 33.1939C208.181 32.9696 205.849 32.835 203.112 32.8799C198.806 32.9248 198.089 33.0593 197.371 33.8667Z" fill="white" stroke="white" stroke-opacity="0.2" stroke-width="1.13509" mask="url(#path-3-inside-3_49_8085)"/>
</svg>
