<svg width="200" height="41" viewBox="0 0 200 41" fill="none" xmlns="http://www.w3.org/2000/svg">
<path class="clients-icon"  fill-rule="evenodd" clip-rule="evenodd" d="M173.465 40.3954L180.67 16.9559H171.623L173.627 11.0859H200L198.503 16.9559H189.214L182.007 40.3954H173.465ZM109.22 40.3954L117.681 11.0859H140.411L138.651 16.9559H124.745L122.762 22.5629H135.96L134.178 28.6767H121.002L119.241 34.5457H133.652L131.689 40.3965H109.22V40.3954ZM95.2738 22.3994H100.82C105.253 22.3994 107.055 17.1986 101.71 17.1986H96.7715L95.2738 22.3994ZM81.8137 40.3954L90.2751 11.0859H103.228C108.836 11.0859 111.123 14.062 111.548 17.8667C112.095 22.6656 109.281 25.2965 107.055 26.5515C108.047 27.5639 108.189 28.4137 108.411 30.539C108.674 32.9881 107.945 34.2431 106.326 40.3965H98.6552L100.882 33.2917C101.793 30.3765 101.732 28.3934 98.2094 28.3934H94.0605L90.3574 40.3975H81.8137V40.3954ZM55.9454 40.3954L64.4271 11.0859H87.1375L85.3971 16.9559H71.4698L69.4868 22.5629H82.6839L80.9232 28.6767H67.7261L65.9857 34.5457H80.3962L78.4131 40.3965H55.9454V40.3954ZM36.6152 40.3954L31.0285 11.0848H40.3194L43.8408 30.8009L62.2612 0.0332031H71.0657L46.6352 40.3943L36.6152 40.3954ZM0 40.3954L8.48059 11.0859H31.191L29.4506 16.9559H15.5244L13.5606 22.5629H26.7374L24.9767 28.6767H11.7796L10.0382 34.5457H24.4497L22.4667 40.3965H0V40.3954ZM136.404 34.5243L134.278 40.3537H154.641C160.511 40.3537 163.244 36.3256 163.608 31.7331C163.893 28.1294 159.702 23.3316 155.491 23.3316H151.444C150.168 23.3316 148.165 21.7345 148.286 20.3372C148.407 18.8791 150.129 17.0575 152.253 17.0575H168.932L170.835 11.0859H150.007C146.12 11.0859 141.688 15.5181 141.425 19.405C141.142 23.6566 145.129 28.4939 150.432 28.4939H153.327C154.703 28.4939 156.849 29.8494 156.667 31.3878C156.525 32.661 155.007 34.5243 153.793 34.5243H136.404Z" fill="white"/>
<path class="clients-icon"  fill-rule="evenodd" clip-rule="evenodd" d="M44.9599 24.884L43.1992 13.5288L51.1945 0.0483398H59.999L44.9599 24.884Z" fill="white"/>
</svg>
