<svg width="602" height="748" viewBox="0 0 602 748" fill="none" xmlns="http://www.w3.org/2000/svg">
<path d="M441.877 1.00139C441.788 0.989621 441.667 1.05191 441.505 1.21357C440.212 2.50688 436.547 3.58548 436.547 3.58548L432.667 8.97343H431.159L425.986 10.9134L422.967 13.932L420.812 16.948L420.38 20.8279L418.009 20.6132V22.5532L421.459 23.4146L417.362 26.2184L416.069 30.0983L419.949 31.1744L425.986 31.6064L431.159 30.5278V33.1144L425.986 35.9182L423.076 38.8282L418.655 35.4863L413.699 36.9968L410.249 33.5463L407.233 35.2716L402.489 37.4263L398.609 41.5234L391.281 43.6781L387.401 49.2808L382.013 51.438L377.593 55.8559L373.281 60.1678L368.648 62.8605L362.181 65.6644L358.84 69.0063L351.512 76.3342L344.937 82.6946L343.214 88.9439L339.549 94.3344L338.255 98.2143L339.549 101.877H336.533L333.082 103.817L332.653 108.344L328.773 110.284L327.694 114.381V116.75H332.006L333.299 119.769L338.687 118.905L346.015 122.138L348.387 122.57L349.68 126.018L348.602 129.468L344.292 130.545L339.549 132.702L336.101 133.995H331.142L327.909 130.762L331.036 127.635L326.939 123.54L324.676 125.803L322.306 130.113L325.322 134.425L324.461 137.011L326.615 139.166L325.322 144.339L319.934 148.219V152.531L317.13 155.332H313.897L311.957 158.997V166.111L307.862 170.205V173.224L309.911 175.272H305.708L301.828 178.397L296.437 180.769L290.403 174.732L287.493 171.822L281.564 172.145L274.451 173.224L270.356 178.182L265.83 182.709L260.442 190.683V196.935L256.13 202.323L252.035 206.42L247.509 206.635L243.412 204.478L237.592 207.711C237.592 207.711 238.885 213.316 238.238 212.67C237.592 212.023 234.144 208.358 234.144 208.358L231.125 211.808H226.384C226.384 211.808 223.475 210.837 224.876 209.436C226.277 208.036 228.109 205.557 228.109 205.557L224.229 202.755L217.763 205.557L213.236 207.714L211.296 213.102L210.432 216.12L211.726 223.016V227.113L208.063 230.561L209.139 222.155L205.044 220.862L201.811 224.095L198.146 225.82L199.656 220C199.656 220 203.751 218.49 203.751 217.196C203.751 215.903 202.89 215.042 202.89 215.042L196.638 217.843L188.663 220.862L186.938 225.818L180.903 228.836H176.806L174.005 231.637L178.531 234.441L179.178 237.457L174.437 241.769V246.296L177.023 248.019L179.178 242.416L180.686 243.709V248.45L184.351 250.39L187.585 253.624L189.093 254.488L185.859 257.721L181.765 257.504L179.393 260.09L177.561 261.924L182.626 264.187V267.421L177.885 266.127L173.79 266.342L168.185 267.635L165.166 273.241L166.245 278.843H160.857L156.113 280.137L153.097 277.121L147.707 276.474V280.354L150.511 283.155V286.174L151.804 289.407L153.959 296.52L153.527 300.615L148.571 298.028L146.631 299.968L142.104 299.107L138.871 296.95L134.668 292.746L130.247 292.855V289.407C130.247 289.407 128.307 286.39 128.307 287.467C128.307 288.544 125.938 289.622 125.938 289.622L122.919 286.603L124.644 284.88L127.446 284.017V279.275L125.291 277.118L121.194 279.705V275.61L118.716 273.129H116.238L117.961 267.85L112.787 266.125L111.279 267.635L106.538 263.97C106.538 263.97 106.106 266.019 104.489 266.019C102.873 266.019 103.088 270.005 103.088 270.005L101.365 271.298L99.6396 269.358L97.9143 269.79L97.0529 272.377L93.605 270.005L91.3417 267.742L88.6464 269.79L86.0598 267.203L85.4132 269.79L84.5518 274.746L87.7851 279.705L88.4317 284.014C88.4317 284.014 89.509 287.894 88.4317 287.894C87.3544 287.894 82.6118 288.758 82.6118 288.758L78.0852 292.638L73.5587 294.36L70.972 290.266L70.3254 292.635L70.1081 294.36H63.4269L59.8703 290.804L61.3808 289.293L59.7617 286.815L53.2951 288.755L45.1058 290.263L39.7154 293.067L35.7293 297.053L33.6808 299.107L36.6993 301.908H33.6808L31.0941 298.245V293.934L28.8308 291.67L26.1356 295.444L25.2742 298.031L20.9624 296.305L17.2997 295.444L17.8579 299.231L19.5756 300.595L19.1462 302.663L17.6634 304.224L18.6384 306.723L20.5531 309.61L22.387 311.444L21.6444 315.778L23.1751 318.991L27.5401 320.608V322.871L33.3599 327.075L36.1082 329.823V335.158L39.1798 340.978H42.5748L42.8981 345.343H41.1198L40.2307 348.336L36.1082 352.458L32.5516 354.883L32.7133 362.643L29.48 363.775L28.3484 367.978L30.7733 370.403V373.96L29.48 376.87L25.1151 375.576L21.8818 376.546L17.1936 383.174L12.667 384.953V386.731L13.8289 389.631L15.4456 393.402L19.2144 395.961L19.6185 403.097L23.3898 409.963V412.789L24.332 418.175L25.5445 426.523L22.3138 427.465L20.1591 430.966L18.1383 432.987L19.3508 436.622L20.5633 435.41L24.6023 437.026V440.527L26.0851 442.01L24.6023 443.356V447.125L28.3711 449.146L29.5836 455.069L34.0268 459.513L32.5466 463.686L29.9877 467.725L31.0638 470.958V473.784L29.7175 475.131V479.44L32.0085 480.516H35.5096L37.2601 478.766H39.2784L41.1628 481.054L45.0679 479.574L48.0309 480.92L50.3852 478.564L53.5477 478.766L53.6866 481.325L56.7153 484.353V487.114L53.8205 487.922V492.095L57.3215 491.828L60.9565 490.749L64.1872 493.038L66.8799 497.885L68.0924 502.596L69.5752 504.079L68.2288 505.425V508.522L71.5934 510.139H74.6928L77.0471 512.493L76.5772 516.466L74.8924 518.149V521.043L77.3502 523.499L78.5955 526.429L78.9996 528.985L81.6924 529.93L85.4637 531.544V536.795L84.6554 542.181V548.238L83.9809 554.7L84.519 565.471L89.7023 570.651L94.3476 570.315L96.5023 567.085L97.8486 563.046H101.213L108.349 560.353L109.024 556.854L111.716 555.642L114.545 558.469V562.24L116.968 565.607V561.161L122.621 557.259V549.718L126.66 545.679L128.277 540.832L127.064 536.656L130.093 533.628L131.371 529.389L133.93 526.292L138.507 526.967L143.087 526.426L147.932 528.715L152.107 529.255V533.161L154.128 534.911V538.008L158.839 538.68L161.867 535.651V532.352H165.3L167.657 534.709L170.552 537.872V540.971L173.245 541.239L174.995 546.086L177.822 548.913L181.123 552.212L180.383 554.568L180.388 554.573L177.829 556.508H175.162L173.141 554.488L169.665 554.245L165.947 557.963L167.483 559.499L165.866 563.217L167.806 565.157L166.109 569.603L172.333 575.827L175.809 574.372V577.04L177.344 578.576L176.536 582.779L173.141 584.88L171.201 588.599L166.351 587.305L163.118 589.084L159.238 588.76L163.926 584.395L161.986 582.455L157.945 581.485L155.52 586.497L151.64 588.437V596.924H148.326L144.042 601.208L141.132 599.592L138.383 602.34L131.674 600.966L129.654 598.945L126.42 601.208H120.924L119.145 599.268L115.75 601.693V605.897L110.901 607.675L106.212 606.058L102.979 607.513V611.878H99.5841L92.7942 616.89L94.0875 622.71L97.6441 623.841L101.362 626.428L99.0991 628.691L97.4824 631.763L99.5841 641.301L102.009 652.941L106.697 654.396L103.626 664.581L102.332 679.939L93.6833 690.366L86.0043 698.045L83.0944 705.482L77.2745 712.433L72.2629 717.445V723.75H68.7063L63.8564 726.498L62.7247 722.618H60.1381H56.5815L54.1566 718.738V715.666H50.7616L47.5283 712.918L44.9417 710.17L37.9902 711.625L34.9186 708.553L32.1703 707.098L29.7453 704.673L24.4104 703.057L21.9855 700.793L17.9439 698.853L18.5905 695.943L15.5997 694.084L13.6598 696.024L12.124 697.56L6.46575 703.218L3.95996 705.724V709.523L1.65625 711.827L2.42415 715.505L4.52578 717.606L4.79354 721.648L7.27407 719.17L12.2326 722.835H20.6391L24.8424 727.036L30.9856 725.422H36.3735L41.9787 727.577L45.9673 731.563L49.0919 738.138L52.4338 741.48L57.7132 743.743L65.473 744.39L70.8635 742.879L76.4662 741.586L81.5309 736.521H87.6765L97.5885 735.119L100.61 737.059L108.152 738.138H116.342L119.36 741.156L121.085 744.39L126.905 746.33L133.372 745.466H142.208L148.462 743.526H155.358L158.051 740.833L163.335 735.551L170.231 732.318L175.187 728.87L178.961 725.096L180.795 718.738L188.555 710.978L193.94 708.606L198.037 710.117L202.564 712.486L208.601 709.038L212.91 706.452L218.73 707.53L226.705 708.177L233.818 705.59L238.021 701.387L240.931 694.597L245.458 693.304V687.267L243.518 685.327L240.285 679.077L242.656 673.04V667.22L243.95 657.952L245.673 654.287L243.95 647.391L240.931 644.373L238.236 641.677L234.897 644.373L232.525 641.354L234.25 637.045L236.619 629.932L239.961 626.59L246.751 622.601L246.728 622.563L250.093 619.199L257.423 613.811H262.811L267.77 612.085L274.237 613.164L279.41 610.36H283.936L292.558 611.224L295.144 613.811L299.456 615.751L301.181 620.277L305.923 621.57L309.371 625.018L314.329 628.898L316.486 634.072L321.66 634.933C321.66 634.933 325.754 638.164 325.754 639.028C325.754 639.892 329.419 642.046 329.419 642.046L332.544 645.173L335.239 650.453L341.706 651.746L348.172 649.377L350.542 647.005H356.362L362.614 646.143L366.708 647.219L371.667 648.513L374.145 646.035L378.782 647.222L381.581 650.023L385.032 653.039V657.998L388.048 659.077L392.145 661.446H396.24L397.318 657.566L401.198 656.273L405.725 653.686L410.251 650.023L408.526 644.633L412.406 639.677L415.854 634.072L417.147 629.76L422.32 626.958H425.986L426.847 629.76L429.972 632.889L432.664 635.582V640.326L429.431 643.559L433.743 648.086L434.822 652.827L437.194 656.922L436.332 660.37L439.348 664.465L439.78 669.423L441.935 674.164L440.212 678.691L443.66 684.081L441.72 687.961L438.595 691.086L435.039 689.901L431.588 691.624L428.572 694.643V698.954L426.2 701.324L423.505 704.019L423.614 708.222L427.494 709.516L431.588 713.61L433.528 718.569L435.9 720.941L440.535 725.573L442.799 730.641V734.95L440.212 740.123L438.702 745.082L440.427 746.807L444.521 747.022V743.574V741.416L446.355 739.585L447.54 735.382L446.679 731.717L447.54 726.329V724.174L450.341 726.975L452.173 728.807V724.821L453.792 721.155L455.409 722.772V725.682L458.533 726.975L463.06 724.389L468.448 722.234H471.252L474.485 716.197L477.286 710.162L481.598 703.049V698.091L482.027 687.744L480.734 679.77L482.027 672.01V661.663V653.257L483.321 648.945V640.753L482.027 632.346L480.734 626.097L479.011 619.199L476.64 612.947L476.857 604.975L474.485 597.215L475.778 589.455V580.402L472.436 577.062L468.45 570.919L467.372 567.901L464.353 562.727L460.041 558.416L458.965 554.753L456.808 552.596L451.311 547.099L446.893 540.741L444.092 532.117L443.445 523.928L441.291 519.831L439.242 517.785L435.254 518.323L432.02 515.09L431.159 512.288H427.279H423.614L424.907 509.916L426.415 508.408L428.464 506.36L425.768 503.665C425.768 503.665 422.751 504.958 421.674 504.958C420.597 504.958 415.639 505.822 415.639 505.822L413.591 503.773L408.958 503.235H403.353L398.612 504.311L396.24 506.683L392.36 508.838L394.732 513.15L396.672 516.815L398.718 518.861L398.18 522.418L395.808 520.695L394.3 521.988L391.928 525.221V527.376L387.618 529.101V526.297V522.418L386.325 521.124L385.032 521.556L382.445 519.616V517.462L380.073 520.048V523.281L383.092 524.575V528.023L380.828 530.286L378.242 527.699L376.193 523.928V521.124L373.607 519.831L371.449 517.676L368.325 520.801L365.521 523.605H361.967L359.433 526.136H356.147L354.207 521.771L355.932 517.03V511.642L359.166 506.251V500.217L361.105 492.889V487.069V481.896L358.948 479.524V472.196L360.242 466.805V459.045V453.225L362.828 448.916L359.81 445.898L357.872 440.939L358.948 434.043L362.182 430.81L358.734 423.911L359.38 416.798L363.043 409.47L366.708 405.805L370.156 399.985L373.283 396.858L378.133 392.011H383.089L386.754 389.639L385.461 388.345L383.736 385.544L386.323 383.172H388.909L391.928 380.371L395.27 377.029L393.868 372.394L398.394 374.119L401.196 371.1L398.824 368.731L397.748 364.634L398.826 361.401L401.628 358.599L405.076 357.738L408.094 354.073L414.129 351.271V349.331L418.226 348.685L422.106 347.174L423.722 348.791L420.166 349.978L419.302 352.779V355.581C419.302 355.581 422.212 356.551 421.242 357.521C420.272 358.491 425.339 357.306 425.339 357.306L426.847 353.211V348.685L430.942 346.962L431.588 343.729L430.08 336.183L436.547 335.107V329.288L439.995 328.209L440.212 324.114H436.979L435.145 325.946L432.667 328.209L429.866 328.641L426.847 325.622V321.742L423.29 318.186L422.106 309.671V303.204L418.226 297.169L418.873 291.132L414.993 288.546L414.775 279.063L417.147 276.259L419.087 269.146V265.698H424.907L426.632 260.525L424.907 255.781L430.942 261.386L432.667 265.049L434.824 267.206L438.057 270.439L438.055 265.049L441.935 266.989L443.66 271.301L445.168 266.342L444.739 258.15L442.582 252.977V246.081L439.886 243.391L441.932 240.486L443.872 240.701L444.304 237.9H439.992L436.436 234.343L432.664 230.569L430.078 228.2L431.371 224.749V220.223L436.112 217.636L439.454 214.297L440.856 215.699L436.759 219.576V224.534L441.286 227.336L444.304 231.216L446.782 233.696L449.477 234.666H452.279L455.083 240.054L457.669 242.641V246.306V249.322L456.159 254.495L456.376 258.807L458.963 260.962L461.549 268.939L463.704 274.327L465.644 281.011L467.369 288.124L471.464 293.512L474.05 301.489L475.129 308.385L477.284 314.851L475.667 316.468L473.727 318.408L475.776 321.965L474.265 325.198L472.434 327.032V328.863L476.422 329.725L480.085 334.898L480.732 339.856L483.75 342.875V347.401L488.062 351.928L494.314 358.167C494.314 358.167 496.148 362.37 497.118 363.34L502.938 367.22L508.972 370.454L518.24 373.258L522.552 374.119L526.432 376.706L528.804 379.939L536.993 384.251L544.106 387.267L551.651 390.717L555.531 394.597H559.843L562.968 397.722L566.956 399.77H573.206L575.578 403.004V398.692L574.499 392.872L572.344 383.819L571.483 376.92L567.386 373.04L561.781 367.438L558.118 365.927L555.963 358.167L557.686 354.287V350.407L562.43 349.761V347.174L556.178 345.666L554.347 343.832L550.573 342.433L546.263 335.752L544.753 327.128L546.91 322.387L550.573 320.015L553.159 318.292L551.651 314.412L547.34 310.961L540.012 311.825L536.887 308.698L532.898 307.728L528.372 300.186L527.079 295.012L531.39 293.719L533.113 289.622L528.91 285.419H525.353L523.146 287.629L517.593 286.389L511.991 282.509L510.912 277.55L505.309 271.947L503.799 275.181L501.75 277.227V279.061L503.367 282.723H497.332L493.776 279.167L487.847 276.042L487.201 271.301L486.339 265.264L482.245 261.169L479.226 258.15L476.64 255.564L473.406 250.176L475.778 247.804V242.201H478.365L482.351 238.213L478.365 236.381V232.284L475.993 226.035L478.579 225.818L481.598 228.836L485.693 230.776V227.326L482.03 221.723V218.49L483.753 212.455L481.383 210.083L485.91 203.617L488.711 197.15L494.099 195.427L497.979 197.367L501.644 194.134L499.272 191.762L495.61 187.665L493.453 179.044V172.792L489.358 169.129L487.203 162.445L486.125 155.55L483.967 150.376L482.674 144.339V136.579L481.166 129.683L477.501 124.078L479.118 122.462L474.053 119.122L475.346 117.182H479.873L482.674 111.145L486.986 109.422V104.896L483.861 101.769L482.245 97.9972L478.794 100.584L476.425 98.6439L473.621 99.0733L471.358 101.337H467.586L466.508 103.385H462.628V100.367L457.887 100.584L455.3 101.013L452.067 100.799L450.773 102.953L448.078 105.648L443.445 105.755L440.859 107.695V111.792L438.055 112.868L435.9 110.716L439.348 106.618H436.979L433.314 108.126L434.822 104.678L439.348 102.739H442.582L446.032 97.1333L445.168 92.1773L443.445 85.9255L439.889 82.3689L436.547 79.027L434.607 80.967L434.392 76.8723H431.159L426.415 78.1656L423.505 75.2557V72.3457L419.734 71.6991L421.027 70.4058L422.967 69.5419L421.351 67.9253L421.674 65.8792L423.829 67.1725L426.2 69.1125H430.295L433.099 66.9553L435.9 69.1125L439.457 65.5559V60.0593L437.84 56.826L441.505 51.4356H445.6L448.833 52.7289L453.36 51.2208L455.732 46.0476L460.258 41.0891L465.214 40.6597L467.154 35.0545L463.492 33.9784V32.2531H468.018L466.508 28.8052V26.0013L464.138 29.0199L461.766 29.6665L458.965 25.3546L454.977 21.3686V23.6319L449.912 21.692L447.54 24.0613L443.66 23.4147L448.619 20.1814V15.6548C448.619 15.6548 449.912 11.7749 448.619 13.0682C447.325 14.3615 444.092 14.3615 444.092 14.3615L446.461 9.40551L444.307 7.24831L441.505 4.87892C441.505 4.87892 442.496 1.08382 441.877 1.00139ZM329.717 35.4888L328.219 37.0549L324.941 38.7676L322.268 41.4426L322.516 46.0399L321.374 47.1816L321.945 50.8898L324.084 54.0271L326.295 59.1624L329.717 59.8748L332.034 57.5559L333.782 54.3833L331.857 52.317L334.709 48.1794L334.211 43.6882V38.3407L331.43 36.1304L329.717 35.4888ZM149.818 143.862L148.644 146.014L149.917 147.284L151.385 146.014L149.818 143.862ZM180.929 160.293L176.627 162.251L174.376 164.891L171.931 167.336H170.953L169.097 165.085L166.063 168.116L164.01 170.172L162.542 171.64L159.607 170.268L160.001 171.834L160.978 173.204L163.13 176.333L167.336 177.801L169.976 175.161H173.497L177.018 173.792L180.244 172.322L182.3 170.268V167.533L184.058 162.642L180.929 160.293ZM155.305 175.161L152.761 175.944H146.502L144.448 177.998L141.22 180.246L138.873 177.899L133.2 179.66L133.591 183.181L135.059 184.649L137.211 186.798L138.679 188.266L136.527 190.027L133.591 187.486L132.028 189.049L129.876 186.897L124.985 187.875L122.833 186.702L121.856 189.244L123.419 190.81L120.484 192.376V196.092L122.833 198.438L122.245 201.176H124.397L127.138 203.917L126.352 207.047L129.876 208.805L134.569 209.002L136.527 210.957H140.045L144.155 209.785V206.655L141.612 204.306L142.981 202.937L145.034 204.991L148.654 198.438L152.077 195.016L153.544 196.483L156.674 193.353L157.652 190.418L154.13 189.244L151.784 191.593L148.851 189.441L145.327 187.289L141.806 184.745L142.981 182.204L144.84 180.345L146.307 185.331L148.555 187.582L152.37 188.266L154.719 187.289H156.674L158.629 185.333L157.652 181.224H154.522L155.305 177.702V175.161ZM115.202 203.523L117.258 205.579L118.529 210.174H121.07V207.633L120.093 205.481L118.332 203.72L115.202 203.523ZM168.801 209.391L166.356 211.642L164.108 213.892L161.857 216.143L163.13 219.174L165.283 221.326L163.911 224.456L165.086 225.631L166.846 221.912L171.345 220.935L175.258 219.369L180.54 216.239L177.801 211.154H174.083L168.801 209.391ZM158.435 210.177L156.088 210.371L154.325 211.937L155.696 215.847L157.947 218.098L159.804 214.478V211.546L158.435 210.177ZM135.147 228.563L133.973 229.541L136.125 230.518L138.863 232.671L140.035 231.104L138.863 229.346L135.147 228.563ZM492.081 249.271L489.843 250.58V254.682L489.471 258.41L491.707 259.903L493.2 261.768L493.387 265.125L496.373 266.244L495.625 262.887L494.319 260.277L495.625 255.986V250.764L492.081 249.271ZM580.673 259.901L578.248 260.459L575.823 262.139L577.129 263.442L578.899 261.672L580.673 259.901ZM569.293 269.974L565.746 271.467L562.392 270.161L559.78 271.094L561.086 273.89H565.562H570.038L572.837 271.094L569.293 269.974ZM24.4381 281.182L22.2835 281.574L18.6662 285.194V287.636H21.6974L22.675 289.985L25.2187 288.811L28.1539 285.878V281.182H24.4381ZM575.262 407.611L574.143 410.968L572.372 412.739L574.423 414.79L575.636 417.308L575.262 420.665L575.075 424.954L577.033 426.912L579.177 425.7V421.224L581.137 419.266L579.551 415.444L576.942 412.832L577.126 409.475L575.262 407.611ZM583.282 436.703V439.502L585.146 440.434L586.452 438.756L583.282 436.703ZM422.704 478.857V481.655L423.821 484.826L425.314 484.452L428.906 485.712L431.379 488.185V489.585L433.895 492.1L433.149 495.831L428.86 494.525V497.324L427.554 501.053L432.776 502.732L435.387 507.58L440.235 512.43V515.226L444.711 521.382L448.068 521.756L453.663 524.178L460.751 527.351L463.36 531.637L467.465 537.232L472.128 541.895L477.723 547.49L484.622 557.001L487.794 563.715L491.525 564.834L495.44 567.072L499.171 570.616L502.155 576.398L504.579 579.568L508.123 583.112L511.852 586.84V590.382L517.447 595.603L520.617 598.776L523.042 601.762L526.025 599.337L523.787 594.487L520.804 591.501L519.872 587.773L521.362 583.948H526.119L528.263 581.804C528.263 581.804 533.298 584.229 534.232 584.229C535.166 584.229 534.232 581.993 534.232 581.993L531.62 578.633L527.235 576.118L524.719 578.633L520.617 578.447L518.937 574.903H515.767L512.971 572.106H508.121L504.951 570.055L501.222 566.324L498.797 563.899C498.797 563.899 498.047 558.677 498.608 558.117C499.169 557.557 496.183 554.202 496.183 554.202L493.013 549.352V547.117L493.761 544.318L493.013 540.403H495.812L499.356 539.284L501.22 537.419L501.965 534.994L496.744 532.943L493.758 530.518L489.098 527.722L483.687 524.923L479.585 521.379L473.245 517.838L468.582 513.733L463.732 511.869L460.188 510.937L454.686 505.248L451.796 502.359L449.932 497.322L447.694 494.152H444.898L439.677 490.795L438.558 487.809L433.895 486.877L431.283 484.265L429.977 481.282L427.554 480.163L422.704 478.857ZM600.254 491.161L598.387 491.348V495.452V498.807H600.999L600.254 495.637V493.586V491.161ZM377.012 502.914L373.468 503.662L371.603 505.713V508.322V511.121L374.774 509.815L376.453 511.495L378.318 509.631L379.063 505.897L377.012 502.914ZM598.852 519.417L596.334 521.935L595.589 525.105L596.892 528.088L595.962 532.936L598.385 533.496L599.691 530.513L598.943 526.411L599.504 522.867L598.852 519.417ZM593.722 544.315L592.79 545.247L593.537 548.42L595.03 546.18L593.722 544.315ZM588.501 553.641L587.569 558.491L588.781 559.699L587.755 563.339L588.129 568.931L590.367 569.866L591.113 566.88L589.994 560.916L592.045 558.865L591.671 554.571L588.501 553.641ZM586.636 581.243L582.906 581.801L583.653 585.716L584.025 589.447L585.517 590.006V587.022L586.636 584.597V581.243ZM595.776 584.042V585.716L598.201 587.022V584.224L595.776 584.042Z" fill="#F3F4F6" stroke="#E3E4E7" stroke-width="1.29331"/>
</svg>
