<svg width="240" height="392" viewBox="0 0 240 392" fill="none" xmlns="http://www.w3.org/2000/svg">
<mask id="path-1-outside-1_265_10060" maskUnits="userSpaceOnUse" x="-2" y="-2" width="244" height="396" fill="black">
<rect fill="white" x="-2" y="-2" width="244" height="396"/>
<path d="M239.127 260.408V301.229H0.113281V271.956L145.401 0.984375H183.536L145.401 79.4023L53.0186 260.408H239.127ZM195.621 0.984375V392H148.087V0.984375H195.621Z"/>
</mask>
<path d="M239.127 260.408H241.127V258.408H239.127V260.408ZM239.127 301.229V303.229H241.127V301.229H239.127ZM0.113281 301.229H-1.88672V303.229H0.113281V301.229ZM0.113281 271.956L-1.64934 271.011L-1.88672 271.454V271.956H0.113281ZM145.401 0.984375V-1.01562H144.204L143.639 0.039299L145.401 0.984375ZM183.536 0.984375L185.335 1.85904L186.733 -1.01562H183.536V0.984375ZM145.401 79.4023L147.183 80.3115L147.192 80.2944L147.2 80.277L145.401 79.4023ZM53.0186 260.408L51.2372 259.499L49.7523 262.408H53.0186V260.408ZM195.621 0.984375H197.621V-1.01562H195.621V0.984375ZM195.621 392V394H197.621V392H195.621ZM148.087 392H146.087V394H148.087V392ZM148.087 0.984375V-1.01562H146.087V0.984375H148.087ZM237.127 260.408V301.229H241.127V260.408H237.127ZM239.127 299.229H0.113281V303.229H239.127V299.229ZM2.11328 301.229V271.956H-1.88672V301.229H2.11328ZM1.8759 272.901L147.164 1.92945L143.639 0.039299L-1.64934 271.011L1.8759 272.901ZM145.401 2.98438H183.536V-1.01562H145.401V2.98438ZM181.738 0.109711L143.603 78.5277L147.2 80.277L185.335 1.85904L181.738 0.109711ZM143.62 78.4931L51.2372 259.499L54.7999 261.317L147.183 80.3115L143.62 78.4931ZM53.0186 262.408H239.127V258.408H53.0186V262.408ZM193.621 0.984375V392H197.621V0.984375H193.621ZM195.621 390H148.087V394H195.621V390ZM150.087 392V0.984375H146.087V392H150.087ZM148.087 2.98438H195.621V-1.01562H148.087V2.98438Z" fill="white" mask="url(#path-1-outside-1_265_10060)"/>
</svg>
