<svg width="196" height="124" viewBox="0 0 196 124" fill="none" xmlns="http://www.w3.org/2000/svg">
<path fill-rule="evenodd" clip-rule="evenodd" d="M50.3442 70.2193V70.2605C57.6366 59.3625 61.3281 48.2961 61.3704 35.1944C61.3704 22.1774 57.4259 10.8556 50.3442 0H50.3018C43.8993 10.2188 39.8298 20.9061 39.4484 32.8201C39.0209 46.1267 42.8368 59.2244 50.3442 70.2193ZM50.3442 67.6743V67.6319C48.31 63.6472 47.2483 59.3213 47.2483 54.9116C47.2483 50.5868 48.3111 46.0512 50.3442 42.2326V42.1913C52.2958 46.2195 53.44 50.4162 53.44 54.9116C53.44 59.5331 52.2958 63.519 50.3442 67.6743ZM42.1606 32.5223C42.8811 22.8544 45.8074 14.1623 50.3018 5.42782L50.3442 5.4702C55.5166 14.7991 58.2311 23.9585 58.7407 34.5587C58.995 39.2237 58.5288 43.7605 57.5541 48.3396C57.7649 43.6333 57.5095 39.2237 56.6631 34.6446C55.5177 28.2844 53.3129 22.6012 50.3442 16.8344L50.3018 16.792C47.6732 22.0079 45.6803 27.138 44.4513 32.7777C43.3071 38.0349 43.0506 42.9118 43.0506 48.3396C42.2878 43.0389 41.7781 37.8643 42.1606 32.5223Z" fill="#337BEF"/>
<path fill-rule="evenodd" clip-rule="evenodd" d="M39.1505 83.1503C41.2705 81.0738 43.2646 80.0143 46.2757 80.3109C51.108 80.7782 54.2027 83.66 54.4581 88.4521C54.9254 97.6115 42.7973 103.166 35.2081 102.74C24.2254 102.191 16.9329 95.11 15.1931 85.0161C14.1337 78.8678 16.4221 72.1252 20.7492 67.4624C25.0317 62.8833 30.8409 61.0599 36.8609 60.9327V33.4133C16.295 33.4133 1.11559 47.9994 0.0572384 67.9721C-1.08699 90.2331 15.0671 105.329 35.6754 106.05C46.6158 106.474 54.7983 102.36 62.3037 95.2796V71.5754H39.1505V83.1503ZM67.7873 105.256H74.6627V76.9954H77.83V71.6189H67.7873V105.256ZM81.3742 71.6189L78.121 105.256H84.2503L84.9574 99.0892H87.625L88.3756 105.256H94.5038L91.2105 71.6189H81.3742ZM85.2094 92.9186L86.125 80.7883H86.4607L87.4198 92.9186H85.2094ZM110.636 87.9157V87.541C112.137 87.2912 112.095 84.3325 112.095 82.9975V77.6221C112.095 73.4936 111.803 71.6189 107.011 71.6189H101.298C96.4632 71.6189 96.1721 74.0356 96.1721 77.6221V82.0384H103.05V78.2478C103.05 77.3723 103.76 77.1203 104.135 77.1203C104.802 77.1203 105.218 77.6634 105.218 78.2478V82.2492C105.218 84.3336 104.551 84.7484 102.593 84.7484H101.299V90.6268H102.466C105.052 90.6268 105.218 91.7956 105.218 92.8361V98.9643C105.218 99.5453 104.802 100.09 104.135 100.09C103.76 100.09 103.05 99.8375 103.05 98.9643V93.0435H96.1721V99.213C96.1721 104.005 96.4632 105.256 101.298 105.256H107.011C111.426 105.256 112.095 104.422 112.095 99.213V92.4603C112.095 91.2513 112.302 87.9157 110.636 87.9157ZM115.179 105.256H122.055V77.079H124.223V105.256H131.103V71.6189H115.179V105.256ZM145.484 71.6189H134.689V105.256H141.565V93.7952H145.484C150.318 93.7952 150.608 91.6272 150.608 87.7908V77.6221C150.608 74.6623 150.318 71.6189 145.484 71.6189ZM143.731 86.8741C143.731 87.9592 143.189 88.5848 142.44 88.5848H141.566V76.9954H142.44C143.189 76.9954 143.731 77.6221 143.731 78.6626V86.8741ZM164.324 71.6189H158.615C153.821 71.6189 153.527 74.369 153.527 77.5385V99.2141C153.527 103.131 153.822 105.257 158.615 105.257H164.324C169.159 105.257 169.452 103.381 169.452 99.2141V77.6232C169.451 74.369 169.159 71.6189 164.324 71.6189ZM162.574 98.797C162.575 98.94 162.547 99.0817 162.492 99.2138C162.438 99.346 162.357 99.4659 162.256 99.5668C162.154 99.6676 162.034 99.7474 161.902 99.8013C161.769 99.8552 161.627 99.8823 161.484 99.881C161.071 99.881 160.402 99.6713 160.402 98.797V78.163C160.402 77.2876 161.071 77.0779 161.484 77.0779C162.113 77.0779 162.574 77.5786 162.574 78.163V98.797ZM186.871 71.6189L184.121 86.999L181.62 71.6189H172.661V105.256H179.579V90.0012H179.83L182.122 105.256H186.332L188.708 90.0012H188.957V105.256H195.833V71.6189H186.871Z" fill="#337BEF"/>
<path fill-rule="evenodd" clip-rule="evenodd" d="M4.00427 114.757C4.3656 114.757 4.74143 114.998 4.74143 115.498V119.955C4.74143 120.476 4.3656 120.728 4.00427 120.734C3.63959 120.734 3.27268 120.476 3.27268 119.955V115.498C3.27268 114.997 3.63959 114.757 4.00427 114.757ZM1.1582 115.636V119.583C1.1582 121.336 2.05485 122.319 4.00427 122.319C5.98268 122.319 6.85368 121.336 6.85368 119.583V115.651C6.85368 114.282 6.00945 113.168 4.021 113.168C2.0292 113.168 1.1582 114.255 1.1582 115.636ZM9.54361 115.13H7.88638V113.365H13.0376V115.13H11.4841V122.141H9.54361V115.13ZM14.174 113.365H16.1915V116.858L17.6658 113.365H19.9688L18.0238 117.239L19.9688 122.141H17.7428L16.7703 119.089L16.1915 120.101V122.141H14.174V113.365ZM23.184 117.144V114.94H23.5264C24.1375 114.94 24.5613 115.149 24.5613 116.016C24.5747 116.884 24.084 117.144 23.5643 117.144H23.184ZM21.0706 122.141H23.1851V118.715H24.1375C25.3776 118.715 26.6903 118.209 26.6903 116.043C26.6903 113.807 25.3564 113.367 24.1375 113.367H21.0706V122.141ZM27.9594 113.365H30.0772V116.784H31.0274C32.2742 116.784 33.5813 117.303 33.5813 119.468C33.5813 121.697 32.2474 122.14 31.0274 122.14H27.9594V113.365ZM30.0783 118.366V120.564H30.4162C31.0285 120.564 31.4623 120.355 31.4623 119.495C31.4701 118.619 30.9839 118.366 30.4542 118.366H30.0783ZM34.44 122.141H36.5522V113.365H34.44V122.141ZM39.3146 115.13H37.6541V113.365H42.8109V115.13H41.2585V122.141H39.3146V115.13ZM46.664 114.757C47.012 114.757 47.3889 114.998 47.3889 115.498V119.955C47.3889 120.476 47.012 120.728 46.664 120.734C46.2971 120.734 45.9257 120.476 45.9257 119.955V115.498C45.9268 114.997 46.2982 114.757 46.664 114.757ZM43.8146 115.636V119.583C43.8146 121.336 44.7001 122.319 46.664 122.319C48.6324 122.319 49.5067 121.336 49.5067 119.583V115.651C49.5067 114.282 48.6647 113.168 46.6696 113.168C44.6778 113.168 43.8146 114.255 43.8146 115.636ZM50.9487 113.365H55.868V115.023H53.0654V116.726H55.6561V118.385H53.0654V120.476H55.868V122.141H50.9487V113.365ZM62.6363 118.803L63.1939 114.941L63.7582 118.803H62.6363ZM60.0557 122.141H62.1545L62.4278 120.381H64.0426L64.356 122.141H66.4292L64.4887 113.365H61.965L60.0557 122.141ZM67.4363 113.365H69.4459V116.858L70.9314 113.365H73.2276L71.286 117.239L73.2276 122.141H71.0128L70.0303 119.089L69.4459 120.101V122.141H67.4363V113.365ZM77.8213 120.381V113.365H79.9324V120.381H80.3952V123.951H78.3254V122.141H74.3261V113.365H76.444V120.381H77.8213ZM87.0855 122.141H85.0758V120.101C85.0758 119.158 85.3535 117.727 85.4472 116.803L83.6327 122.141H81.574V113.365H83.6104V115.556C83.6104 116.518 83.3461 117.899 83.2859 118.875L85.0747 113.367H87.0844L87.0855 122.141ZM91.3445 114.757C91.6992 114.757 92.0717 114.998 92.0717 115.498V119.955C92.0717 120.476 91.6992 120.728 91.3445 120.734C90.9732 120.734 90.6063 120.476 90.6063 119.955V115.498C90.6063 114.997 90.9732 114.757 91.3445 114.757ZM88.4884 115.636V119.583C88.4884 121.336 89.3862 122.319 91.3445 122.319C93.3196 122.319 94.1895 121.336 94.1895 119.583V115.651C94.1895 114.282 93.3386 113.168 91.3546 113.168C89.3583 113.168 88.4884 114.255 88.4884 115.636ZM97.7448 122.141H95.627V113.365H97.7448V116.682H99.1288V113.365H101.237V122.141H99.1288V118.435H97.7448V122.141ZM102.82 113.365H107.728V115.023H104.931V116.726H107.521V118.385H104.931V120.476H107.728V122.141H102.82V113.365ZM111.137 117.144V114.94H111.481C112.093 114.94 112.523 115.149 112.523 116.016C112.536 116.884 112.041 117.144 111.515 117.144H111.137ZM109.024 122.141H111.138V118.715H112.093C113.339 118.715 114.646 118.209 114.646 116.043C114.646 113.807 113.321 113.367 112.093 113.367H109.024V122.141ZM118.031 122.141H115.92V113.365H118.031V116.682H119.409V113.365H121.529V122.141H119.409V118.435H118.031V122.141ZM125.815 114.757C126.168 114.757 126.549 114.998 126.549 115.498V119.955C126.549 120.476 126.168 120.728 125.815 120.734C125.449 120.734 125.088 120.476 125.088 119.955V115.498C125.088 114.997 125.449 114.757 125.815 114.757ZM122.975 115.636V119.583C122.975 121.336 123.855 122.319 125.815 122.319C127.797 122.319 128.665 121.336 128.665 119.583V115.651C128.665 114.282 127.824 113.168 125.829 113.168C123.833 113.168 122.975 114.255 122.975 115.636ZM130.107 113.365H135.016V115.023H132.223V116.726H134.807V118.385H132.223V120.476H135.016V122.141H130.107V113.365ZM142.535 114.757C142.889 114.757 143.264 114.998 143.264 115.498V119.955C143.264 120.476 142.889 120.728 142.535 120.734C142.169 120.734 141.801 120.476 141.801 119.955V115.498C141.801 114.997 142.169 114.757 142.535 114.757ZM139.689 115.636V119.583C139.689 121.336 140.586 122.319 142.536 122.319C144.511 122.319 145.381 121.336 145.381 119.583V115.651C145.381 114.282 144.54 113.168 142.549 113.168C140.558 113.168 139.689 114.255 139.689 115.636ZM146.828 113.365H151.6V114.941H148.938V116.784H149.891C151.141 116.784 152.448 117.303 152.448 119.468C152.448 121.697 151.117 122.14 149.891 122.14H146.828V113.365ZM148.939 118.366V120.564H149.28C149.892 120.564 150.321 120.355 150.321 119.495C150.332 118.619 149.842 118.366 149.323 118.366H148.939ZM153.816 113.365H155.931V120.381H157.323V113.365H159.361V120.381H160.76V113.365H162.873V120.381H163.31V123.951H161.248V122.141H153.816V113.365ZM164.546 113.365H169.457V115.023H166.658V116.726H169.247V118.385H166.658V120.476H169.457V122.141H164.546V113.365ZM176.229 118.67V119.494C176.229 121.481 175.329 122.336 173.367 122.336C171.427 122.336 170.508 121.493 170.508 119.474V115.649C170.508 114.276 171.364 113.167 173.367 113.167C175.347 113.167 176.229 114.293 176.229 115.662V116.452H174.115V115.464C174.115 114.996 173.679 114.782 173.347 114.782C172.986 114.782 172.632 114.979 172.632 115.426V119.827C172.632 120.486 172.907 120.745 173.347 120.745C173.8 120.745 174.115 120.486 174.115 119.827V118.668L176.229 118.67ZM178.902 115.13H177.243V113.365H182.404V115.13H180.852V122.141H178.902V115.13ZM185.589 114.941H186.213C186.814 114.941 187.047 115.244 187.047 115.764C187.047 116.454 186.814 116.765 186.213 116.765H185.589V114.941ZM185.589 118.335H186.121C186.864 118.335 187.097 118.734 187.097 119.469C187.097 120.261 186.864 120.564 186.071 120.564H185.589V118.335ZM186.495 122.141C188.289 122.141 189.169 121.191 189.169 119.552C189.169 118.328 188.71 117.765 187.891 117.424C188.348 117.329 189.082 116.766 189.082 115.561C189.082 113.992 187.947 113.365 186.923 113.365H183.549V122.141H186.495ZM193.154 114.757C193.515 114.757 193.892 114.998 193.892 115.498V119.955C193.892 120.476 193.515 120.728 193.154 120.734C192.786 120.734 192.418 120.476 192.418 119.955V115.498C192.418 114.997 192.786 114.757 193.154 114.757ZM190.309 115.636V119.583C190.309 121.336 191.202 122.319 193.154 122.319C195.138 122.319 195.999 121.336 195.999 119.583V115.651C195.999 114.282 195.162 113.168 193.165 113.168C191.174 113.168 190.309 114.255 190.309 115.636Z" fill="#337BEF"/>
</svg>
