<svg width="200" height="127" viewBox="0 0 200 127" fill="none" xmlns="http://www.w3.org/2000/svg">
<path class="clients-icon"  fill-rule="evenodd" clip-rule="evenodd" d="M51.3866 71.7093V71.7513C58.826 60.6338 62.5918 49.3444 62.635 35.9787C62.635 22.6995 58.611 11.1496 51.3866 0.0751953H51.3434C44.8119 10.4999 40.6604 21.4025 40.2713 33.5565C39.8353 47.1312 43.728 60.4928 51.3866 71.7093ZM51.3866 69.113V69.0698C49.3114 65.0048 48.2284 60.5917 48.2284 56.0932C48.2284 51.6812 49.3126 47.0542 51.3866 43.1587V43.1166C53.3776 47.226 54.5449 51.5071 54.5449 56.0932C54.5449 60.8078 53.3776 64.874 51.3866 69.113ZM43.0382 33.2528C43.7731 23.3901 46.7585 14.5228 51.3434 5.61237L51.3866 5.65561C56.6633 15.1725 59.4324 24.5164 59.9523 35.3302C60.2117 40.0892 59.7362 44.7174 58.7418 49.3887C58.9569 44.5877 58.6963 40.0892 57.8328 35.4178C56.6644 28.9295 54.4152 23.1318 51.3866 17.2488L51.3434 17.2055C48.6618 22.5265 46.6288 27.76 45.375 33.5133C44.2077 38.8764 43.9461 43.8516 43.9461 49.3887C43.1679 43.9813 42.648 38.7023 43.0382 33.2528Z" fill="white"/>
<path class="clients-icon"  fill-rule="evenodd" clip-rule="evenodd" d="M39.9666 84.9007C42.1294 82.7823 44.1636 81.7015 47.2354 82.0041C52.165 82.4808 55.3221 85.4206 55.5827 90.3093C56.0594 99.6533 43.6869 105.32 35.9449 104.886C24.7408 104.325 17.3014 97.1014 15.5266 86.8041C14.4458 80.5319 16.7803 73.6534 21.1946 68.8967C25.5634 64.2253 31.4896 62.3652 37.6309 62.2355V34.1616C16.6506 34.1616 1.16541 49.0416 0.0857354 69.4166C-1.08154 92.1262 15.398 107.526 36.4216 108.262C47.5824 108.695 55.9297 104.498 63.5864 97.2743V73.0925H39.9666V84.9007ZM69.1805 107.452H76.1944V78.6217H79.4254V73.1369H69.1805V107.452ZM83.041 73.1369L79.7224 107.452H85.9752L86.6965 101.161H89.4178L90.1835 107.452H96.4352L93.0755 73.1369H83.041ZM86.9536 94.8658L87.8876 82.4911H88.2301L89.2085 94.8658H86.9536ZM112.892 89.7621V89.3798C114.423 89.125 114.381 86.1067 114.381 84.7448V79.2611C114.381 75.0494 114.083 73.1369 109.194 73.1369H103.366C98.4341 73.1369 98.1372 75.6023 98.1372 79.2611V83.7664H105.153V79.8994C105.153 79.0063 105.878 78.7492 106.26 78.7492C106.941 78.7492 107.365 79.3032 107.365 79.8994V83.9814C107.365 86.1078 106.685 86.531 104.687 86.531H103.367V92.5278H104.558C107.196 92.5278 107.365 93.7201 107.365 94.7816V101.033C107.365 101.626 106.941 102.181 106.26 102.181C105.878 102.181 105.153 101.924 105.153 101.033V94.9932H98.1372V101.287C98.1372 106.176 98.4341 107.452 103.366 107.452H109.194C113.699 107.452 114.381 106.601 114.381 101.287V94.3982C114.381 93.165 114.592 89.7621 112.892 89.7621ZM117.527 107.452H124.542V78.7071H126.754V107.452H133.772V73.1369H117.527V107.452ZM148.443 73.1369H137.43V107.452H144.445V95.76H148.443C153.374 95.76 153.669 93.5484 153.669 89.6347V79.2611C153.669 76.2417 153.374 73.1369 148.443 73.1369ZM146.654 88.6995C146.654 89.8065 146.101 90.4447 145.337 90.4447H144.446V78.6217H145.337C146.101 78.6217 146.654 79.2611 146.654 80.3226V88.6995ZM167.662 73.1369H161.838C156.947 73.1369 156.648 75.9425 156.648 79.1758V101.288C156.648 105.284 156.948 107.453 161.838 107.453H167.662C172.595 107.453 172.893 105.539 172.893 101.288V79.2623C172.892 75.9425 172.595 73.1369 167.662 73.1369ZM165.877 100.863C165.877 101.008 165.849 101.153 165.793 101.288C165.738 101.423 165.656 101.545 165.552 101.648C165.449 101.751 165.326 101.832 165.191 101.887C165.056 101.942 164.911 101.97 164.765 101.968C164.343 101.968 163.661 101.755 163.661 100.863V79.8129C163.661 78.9198 164.343 78.7059 164.765 78.7059C165.407 78.7059 165.877 79.2168 165.877 79.8129V100.863ZM190.664 73.1369L187.858 88.8269L185.306 73.1369H176.167V107.452H183.225V91.8896H183.48L185.818 107.452H190.113L192.538 91.8896H192.791V107.452H199.806V73.1369H190.664Z" fill="white"/>
<path class="clients-icon"  fill-rule="evenodd" clip-rule="evenodd" d="M4.11044 117.144C4.47905 117.144 4.86246 117.39 4.86246 117.9V122.447C4.86246 122.978 4.47905 123.236 4.11044 123.241C3.73841 123.241 3.36411 122.978 3.36411 122.447V117.9C3.36411 117.389 3.73841 117.144 4.11044 117.144ZM1.20703 118.041V122.067C1.20703 123.856 2.12174 124.858 4.11044 124.858C6.12872 124.858 7.01726 123.856 7.01726 122.067V118.056C7.01726 116.66 6.15602 115.523 4.1275 115.523C2.09557 115.523 1.20703 116.632 1.20703 118.041ZM9.76139 117.524H8.07077V115.724H13.3258V117.524H11.741V124.677H9.76139V117.524ZM14.4851 115.724H16.5432V119.288L18.0472 115.724H20.3966L18.4124 119.676L20.3966 124.677H18.1257L17.1337 121.563L16.5432 122.596V124.677H14.4851V115.724ZM23.6766 119.579V117.331H24.0259C24.6493 117.331 25.0816 117.544 25.0816 118.429C25.0953 119.314 24.5947 119.579 24.0645 119.579H23.6766ZM21.5206 124.677H23.6777V121.182H24.6493C25.9144 121.182 27.2535 120.666 27.2535 118.456C27.2535 116.175 25.8928 115.726 24.6493 115.726H21.5206V124.677ZM28.5482 115.724H30.7087V119.212H31.678C32.95 119.212 34.2833 119.742 34.2833 121.95C34.2833 124.224 32.9227 124.676 31.678 124.676H28.5482V115.724ZM30.7098 120.826V123.068H31.0546C31.6791 123.068 32.1217 122.854 32.1217 121.977C32.1297 121.084 31.6336 120.826 31.0932 120.826H30.7098ZM35.1594 124.677H37.3142V115.724H35.1594V124.677ZM40.1322 117.524H38.4382V115.724H43.6989V117.524H42.1153V124.677H40.1322V117.524ZM47.6297 117.144C47.9846 117.144 48.3692 117.39 48.3692 117.9V122.447C48.3692 122.978 47.9846 123.236 47.6297 123.241C47.2554 123.241 46.8765 122.978 46.8765 122.447V117.9C46.8777 117.389 47.2565 117.144 47.6297 117.144ZM44.7229 118.041V122.067C44.7229 123.856 45.6262 124.858 47.6297 124.858C49.6377 124.858 50.5297 123.856 50.5297 122.067V118.056C50.5297 116.66 49.6707 115.523 47.6354 115.523C45.6034 115.523 44.7229 116.632 44.7229 118.041ZM52.0007 115.724H57.0191V117.415H54.1601V119.152H56.8029V120.845H54.1601V122.978H57.0191V124.677H52.0007V115.724ZM63.9238 121.272L64.4926 117.332L65.0683 121.272H63.9238ZM61.2912 124.677H63.4323L63.7111 122.882H65.3584L65.6781 124.677H67.7931L65.8135 115.724H63.2389L61.2912 124.677ZM68.8205 115.724H70.8706V119.288L72.386 115.724H74.7285L72.7478 119.676L74.7285 124.677H72.4691L71.4667 121.563L70.8706 122.596V124.677H68.8205V115.724ZM79.4147 122.882V115.724H81.5684V122.882H82.0405V126.524H79.9289V124.677H75.8492V115.724H78.0097V122.882H79.4147ZM88.8656 124.677H86.8154V122.596C86.8154 121.634 87.0987 120.174 87.1943 119.231L85.3433 124.677H83.2431V115.724H85.3205V117.959C85.3205 118.941 85.0509 120.349 84.9894 121.345L86.8143 115.726H88.8644L88.8656 124.677ZM93.2104 117.144C93.5722 117.144 93.9522 117.39 93.9522 117.9V122.447C93.9522 122.978 93.5722 123.236 93.2104 123.241C92.8316 123.241 92.4573 122.978 92.4573 122.447V117.9C92.4573 117.389 92.8316 117.144 93.2104 117.144ZM90.2968 118.041V122.067C90.2968 123.856 91.2126 124.858 93.2104 124.858C95.2253 124.858 96.1127 123.856 96.1127 122.067V118.056C96.1127 116.66 95.2446 115.523 93.2207 115.523C91.1842 115.523 90.2968 116.632 90.2968 118.041ZM99.7397 124.677H97.5792V115.724H99.7397V119.108H101.152V115.724H103.302V124.677H101.152V120.896H99.7397V124.677ZM104.917 115.724H109.924V117.415H107.071V119.152H109.713V120.845H107.071V122.978H109.924V124.677H104.917V115.724ZM113.401 119.579V117.331H113.753C114.377 117.331 114.815 117.544 114.815 118.429C114.829 119.314 114.324 119.579 113.787 119.579H113.401ZM111.246 124.677H113.402V121.182H114.377C115.648 121.182 116.982 120.666 116.982 118.456C116.982 116.175 115.63 115.726 114.377 115.726H111.246V124.677ZM120.434 124.677H118.281V115.724H120.434V119.108H121.841V115.724H124.003V124.677H121.841V120.896H120.434V124.677ZM128.376 117.144C128.735 117.144 129.124 117.39 129.124 117.9V122.447C129.124 122.978 128.735 123.236 128.376 123.241C128.002 123.241 127.634 122.978 127.634 122.447V117.9C127.634 117.389 128.002 117.144 128.376 117.144ZM125.478 118.041V122.067C125.478 123.856 126.375 124.858 128.376 124.858C130.397 124.858 131.282 123.856 131.282 122.067V118.056C131.282 116.66 130.425 115.523 128.389 115.523C126.354 115.523 125.478 116.632 125.478 118.041ZM132.753 115.724H137.762V117.415H134.913V119.152H137.549V120.845H134.913V122.978H137.762V124.677H132.753V115.724ZM145.432 117.144C145.794 117.144 146.176 117.39 146.176 117.9V122.447C146.176 122.978 145.794 123.236 145.432 123.241C145.059 123.241 144.683 122.978 144.683 122.447V117.9C144.683 117.389 145.059 117.144 145.432 117.144ZM142.529 118.041V122.067C142.529 123.856 143.444 124.858 145.433 124.858C147.448 124.858 148.335 123.856 148.335 122.067V118.056C148.335 116.66 147.478 115.523 145.447 115.523C143.416 115.523 142.529 116.632 142.529 118.041ZM149.812 115.724H154.68V117.332H151.965V119.212H152.936C154.212 119.212 155.545 119.742 155.545 121.95C155.545 124.224 154.188 124.676 152.936 124.676H149.812V115.724ZM151.966 120.826V123.068H152.313C152.937 123.068 153.375 122.854 153.375 121.977C153.387 121.084 152.886 120.826 152.357 120.826H151.966ZM156.941 115.724H159.098V122.882H160.518V115.724H162.598V122.882H164.024V115.724H166.18V122.882H166.626V126.524H164.523V124.677H156.941V115.724ZM167.887 115.724H172.897V117.415H170.041V119.152H172.682V120.845H170.041V122.978H172.897V124.677H167.887V115.724ZM179.805 121.135V121.976C179.805 124.004 178.887 124.876 176.886 124.876C174.906 124.876 173.969 124.016 173.969 121.956V118.054C173.969 116.653 174.843 115.522 176.886 115.522C178.905 115.522 179.805 116.671 179.805 118.067V118.874H177.648V117.866C177.648 117.388 177.203 117.169 176.865 117.169C176.497 117.169 176.136 117.371 176.136 117.827V122.316C176.136 122.989 176.416 123.253 176.865 123.253C177.327 123.253 177.648 122.989 177.648 122.316V121.134L179.805 121.135ZM182.532 117.524H180.839V115.724H186.105V117.524H184.521V124.677H182.532V117.524ZM189.354 117.332H189.99C190.603 117.332 190.841 117.64 190.841 118.172C190.841 118.875 190.603 119.192 189.99 119.192H189.354V117.332ZM189.354 120.794H189.897C190.654 120.794 190.892 121.201 190.892 121.951C190.892 122.759 190.654 123.068 189.845 123.068H189.354V120.794ZM190.278 124.677C192.108 124.677 193.006 123.708 193.006 122.035C193.006 120.787 192.537 120.213 191.702 119.865C192.169 119.768 192.917 119.193 192.917 117.965C192.917 116.364 191.759 115.724 190.715 115.724H187.273V124.677H190.278ZM197.071 117.144C197.44 117.144 197.824 117.39 197.824 117.9V122.447C197.824 122.978 197.44 123.236 197.071 123.241C196.695 123.241 196.32 122.978 196.32 122.447V117.9C196.32 117.389 196.695 117.144 197.071 117.144ZM194.169 118.041V122.067C194.169 123.856 195.08 124.858 197.071 124.858C199.095 124.858 199.973 123.856 199.973 122.067V118.056C199.973 116.66 199.12 115.523 197.082 115.523C195.052 115.523 194.169 116.632 194.169 118.041Z" fill="white"/>
</svg>
