<svg width="315" height="74" viewBox="0 0 315 74" fill="none" xmlns="http://www.w3.org/2000/svg">
<path fill-rule="evenodd" clip-rule="evenodd" d="M0.90625 71.4713H16.4017V40.6032H46.9011V71.4713H62.4239V0.0556641H46.9011V28.9919H16.4017V0.0556641H0.90625V71.4713ZM129.805 71.4713H143.594V43.5499C143.594 33.0535 151.194 31.4448 155.253 31.4448C162.557 31.4448 164.86 36.2709 164.86 39.9366V71.4713H178.153V35.925C178.153 25.7768 168.523 21.7402 159.288 21.7402C153.62 21.7402 146.265 25.8496 143.617 31.4448L143.592 23.3739H129.803L129.805 71.4713ZM190.108 0.103456V71.5214L204.024 71.4713L203.899 44.3395L224.99 71.7967H242.021L220.111 43.5499L238.776 23.3739H223.035L204.045 44.3395L204.024 0.0556641L190.108 0.103456ZM300.296 0.0556641V71.4713H314.775V0.0556641H300.296ZM119.359 50.012C120.993 34.6622 112.899 20.4045 94.2339 20.7754C86.1153 20.9484 69.084 23.3762 70.0487 50.6036C70.2968 57.291 73.7872 73.4554 95.0281 73.9742C113.099 74.3974 118.544 63.7258 118.77 56.4946L106.391 56.4719C106.391 58.8724 102.653 65.3346 95.9951 65.5075C83.171 65.8056 83.642 52.8335 83.94 50.0097L119.359 50.012ZM83.9355 41.816C83.8377 36.8147 86.5841 29.4379 95.0258 29.8338C103.295 30.2047 105.101 37.7795 105.101 41.816H83.9355ZM293.982 50.012C295.618 34.6622 287.52 20.4045 268.855 20.7754C260.736 20.9484 243.705 23.3762 244.697 50.6036C244.92 57.291 249.177 74.518 269.674 73.9742C288.908 73.4532 293.192 63.7258 293.388 56.4946L281.012 56.4719C281.012 58.8724 277.274 65.3346 270.618 65.5075C257.792 65.8056 258.263 52.8335 258.561 50.0097L293.982 50.012ZM258.556 41.816C258.458 36.8147 261.205 29.4379 269.672 29.8338C277.943 30.2047 279.724 37.7795 279.724 41.816H258.556Z" fill="white"/>
</svg>
