<svg width="158" height="38" viewBox="0 0 158 38" fill="none" xmlns="http://www.w3.org/2000/svg">
<path class="clients-icon" fill-rule="evenodd" clip-rule="evenodd" d="M0.453125 36.2679H8.20085V20.8338H23.4506V36.2679H31.2119V0.560059H23.4506V15.0282H8.20085V0.560059H0.453125V36.2679ZM64.9026 36.2679H71.7971V22.3072C71.7971 17.059 75.597 16.2546 77.6266 16.2546C81.2786 16.2546 82.43 18.6677 82.43 20.5005V36.2679H89.0764V18.4947C89.0764 13.4206 84.2617 11.4023 79.6438 11.4023C76.8098 11.4023 73.1327 13.457 71.8084 16.2546L71.7959 12.2192H64.9015L64.9026 36.2679ZM95.0539 0.583955V36.2929L102.012 36.2679L101.95 22.702L112.495 36.4306H121.01L110.056 22.3072L119.388 12.2192H111.518L102.022 22.702L102.012 0.560059L95.0539 0.583955ZM150.148 0.560059V36.2679H157.387V0.560059H150.148ZM59.6794 25.5382C60.4963 17.8633 56.4495 10.7345 47.117 10.9199C43.0577 11.0064 34.542 12.2203 35.0244 25.834C35.1484 29.1777 36.8936 37.2599 47.514 37.5193C56.5496 37.7309 59.2721 32.3951 59.3848 28.7795L53.1957 28.7682C53.1957 29.9684 51.3265 33.1995 47.9976 33.286C41.5855 33.435 41.821 26.949 41.97 25.5371L59.6794 25.5382ZM41.9677 21.4402C41.9188 18.9396 43.292 15.2512 47.5129 15.4491C51.6473 15.6346 52.5506 19.422 52.5506 21.4402H41.9677ZM146.991 25.5382C147.809 17.8633 143.76 10.7345 134.427 10.9199C130.368 11.0064 121.852 12.2203 122.348 25.834C122.46 29.1777 124.589 37.7912 134.837 37.5193C144.454 37.2588 146.596 32.3951 146.694 28.7795L140.506 28.7682C140.506 29.9684 138.637 33.1995 135.309 33.286C128.896 33.435 129.131 26.949 129.28 25.5371L146.991 25.5382ZM129.278 21.4402C129.229 18.9396 130.602 15.2512 134.836 15.4491C138.971 15.6346 139.862 19.422 139.862 21.4402H129.278Z" fill="white"/>
</svg>
