<svg width="95" height="68" viewBox="0 0 95 68" fill="none" xmlns="http://www.w3.org/2000/svg">
<path fill-rule="evenodd" clip-rule="evenodd" d="M140.455 4.78593L140.412 7.31151C140.369 10.0892 140.16 16.1916 139.991 18.5463C139.696 22.418 139.192 25.3218 137.466 26.5012C136.961 26.8367 136.119 27.1743 135.363 27.1743C135.152 27.1743 134.983 27.1743 134.773 27.1315V33.6527C135.487 33.9134 136.288 34.0822 137.382 34.0822C139.78 34.0822 141.675 33.2767 143.19 31.719C145.589 29.2362 146.472 25.3645 146.933 20.9458C147.271 17.916 147.312 15.4331 147.438 11.5187H152.151V33.6506H160.989V4.7838L140.455 4.78593ZM167.106 4.78593V33.6506H188.819V26.7512H175.943V22.0377H186.293V15.8113H175.943V11.5187H188.819V4.78593H167.106ZM217.951 15.7686C217.867 12.0251 216.226 9.3307 214.671 7.77305C211.891 4.95474 208.274 4.36501 205.581 4.36501C202.802 4.36501 199.731 4.91201 196.827 7.43759C193.334 10.5102 192.114 14.76 192.114 19.4736C192.114 21.9992 192.494 24.7748 193.798 27.3003C195.27 30.1614 198.554 34.0822 205.581 34.0822C209.622 34.0822 212.481 32.7276 214.457 30.7917C216.06 29.2341 217.701 26.6251 217.951 23.0483L209.872 22.544C209.872 23.638 209.579 24.606 209.075 25.5739C208.44 26.7533 207.517 27.5931 205.831 27.5931C204.15 27.5931 203.056 26.7106 202.338 25.0675C201.624 23.4692 201.541 21.6167 201.541 19.2599C201.541 17.2408 201.624 15.4737 202.212 13.79C202.926 11.7708 204.024 10.7602 205.829 10.7602C207.848 10.7602 208.776 12.149 209.156 12.9887C209.577 13.9567 209.703 15.431 209.703 16.1874L217.951 15.7686ZM230.801 18.7557H220.113V25.4051H230.801V18.7557ZM234.769 4.78593V33.6527H243.604V31.4669L249.538 20.4843C249.747 20.0633 250.382 18.7172 250.672 17.4117C250.546 18.1681 250.422 19.3903 250.422 21.6189V33.6527H259.257V4.78593H250.422V6.89058L244.489 17.9587C244.279 18.3796 243.645 19.7257 243.354 21.0313C243.48 20.2749 243.604 19.0527 243.604 16.8241V4.78807L234.769 4.78593ZM289.866 4.78593H281.03V15.5592H274.21V4.78593H265.377V33.6506H274.21V22.2898H281.03V33.6506H289.866V4.78593ZM295.979 4.78593V33.6527H311.549C313.739 33.6527 316.686 33.36 318.79 31.3387C319.884 30.2874 321.059 28.3943 321.059 25.4906C321.059 23.3026 320.472 21.6189 318.831 20.2727C317.855 19.4825 316.698 18.9472 315.463 18.7151V18.6318C317.525 18.0848 318.66 16.8647 319.164 16.1062C319.965 14.9289 320.346 13.4545 320.346 12.0657C320.346 9.45677 319.252 7.77304 318.156 6.80511C316.053 4.912 313.318 4.78593 310.669 4.78593H295.979ZM304.818 11.0977H308.395C309.28 11.0977 310.248 11.1405 310.961 11.7708C311.549 12.2751 311.679 12.8648 311.679 13.4951C311.679 13.9994 311.592 14.7152 311.045 15.2622C310.374 15.9352 309.363 15.978 308.562 15.978H304.818V11.0977ZM304.818 22.1231H309.113C309.784 22.1231 310.795 22.2086 311.551 22.965C311.848 23.2598 312.226 23.8068 312.226 24.732C312.226 25.5312 311.929 26.1187 311.508 26.5418C310.711 27.3409 309.827 27.3409 309.113 27.3409H304.818V22.1231ZM325.871 4.78593V33.6506H347.584V26.7512H334.706V22.0377H345.061V15.8113H334.706V11.5187H347.584V4.78593H325.871ZM376.718 15.7686C376.635 12.0251 374.99 9.3307 373.434 7.77305C370.659 4.95474 367.041 4.36501 364.345 4.36501C361.569 4.36501 358.499 4.91201 355.593 7.43759C352.099 10.5102 350.877 14.76 350.877 19.4736C350.877 21.9992 351.257 24.7748 352.563 27.3003C354.035 30.1614 357.317 34.0822 364.345 34.0822C368.385 34.0822 371.246 32.7276 373.225 30.7917C374.823 29.2341 376.464 26.6251 376.718 23.0483L368.639 22.544C368.639 23.638 368.342 24.606 367.838 25.5739C367.208 26.7533 366.28 27.5931 364.599 27.5931C362.913 27.5931 361.819 26.7106 361.105 25.0675C360.387 23.4692 360.304 21.6167 360.304 19.2599C360.304 17.2408 360.387 15.4737 360.979 13.79C361.693 11.7708 362.787 10.7602 364.597 10.7602C366.616 10.7602 367.543 12.149 367.919 12.9887C368.34 13.9567 368.466 15.431 368.466 16.1874L376.718 15.7686ZM378.453 4.78593V11.5187H384.43V33.6506H393.269V11.5187H399.245V4.78593H378.453ZM31.0452 0.12793C13.7764 1.55311 0.125 16.0912 0.125 33.7168C0.125 41.253 2.62066 48.2272 6.8321 53.8488L27.3423 32.6207H11.6226L29.4491 14.1703H17.475L31.0452 0.12793ZM9.09486 56.5667C15.2592 63.2311 24.071 67.4211 33.8293 67.4211C43.5876 67.4211 52.4015 63.2353 58.5637 56.5667H9.09486ZM61.038 53.5625C65.2626 47.8092 67.5384 40.8567 67.5336 33.719C67.5336 16.275 54.1643 1.85439 37.1497 0.177079L50.6729 14.1725H38.6988L56.5253 32.6228H40.8078L61.038 53.5625ZM81.2491 50.4686H399.876V52.9813H81.2491V50.4686ZM81.2491 42.9859H399.876V48.4622H81.2491V42.9859Z" fill="white"/>
</svg>
