<svg width="200" height="34" viewBox="0 0 200 34" fill="none" xmlns="http://www.w3.org/2000/svg">
<g clip-path="url(#clip0_414_17077)">
<path class="clients-icon" fill-rule="evenodd" clip-rule="evenodd" d="M70.2274 2.42519L70.2061 3.68798C70.1847 5.07684 70.08 8.12805 69.9956 9.30537C69.8482 11.2412 69.596 12.6931 68.7328 13.2828C68.4807 13.4506 68.0597 13.6194 67.6815 13.6194C67.5758 13.6194 67.4914 13.6194 67.3867 13.598V16.8586C67.7435 16.9889 68.1441 17.0733 68.6911 17.0733C69.8898 17.0733 70.8375 16.6706 71.5949 15.8917C72.7947 14.6503 73.2359 12.7145 73.4667 10.5051C73.6355 8.9902 73.6558 7.74878 73.7188 5.79156H76.0756V16.8575H80.4943V2.42413L70.2274 2.42519ZM83.553 2.42519V16.8575H94.4095V13.4078H87.9716V11.0511H93.1467V7.93788H87.9716V5.79156H94.4095V2.42519H83.553ZM108.975 7.91651C108.934 6.04476 108.113 4.69758 107.335 3.91875C105.946 2.5096 104.137 2.21473 102.791 2.21473C101.401 2.21473 99.8656 2.48823 98.4137 3.75102C96.6669 5.28731 96.0569 7.41225 96.0569 9.76903C96.0569 11.0318 96.2471 12.4196 96.8988 13.6824C97.6349 15.1129 99.2769 17.0733 102.791 17.0733C104.811 17.0733 106.24 16.396 107.229 15.4281C108.03 14.6493 108.85 13.3448 108.975 11.5564L104.936 11.3043C104.936 11.8512 104.79 12.3352 104.537 12.8192C104.22 13.4089 103.759 13.8288 102.916 13.8288C102.075 13.8288 101.528 13.3875 101.169 12.566C100.812 11.7668 100.77 10.8406 100.77 9.6622C100.77 8.65261 100.812 7.76908 101.106 6.92722C101.463 5.91763 102.012 5.4123 102.915 5.4123C103.924 5.4123 104.388 6.10673 104.578 6.52659C104.789 7.01055 104.852 7.74772 104.852 8.12591L108.975 7.91651ZM115.4 9.41006H110.057V12.7348H115.4V9.41006ZM117.384 2.42519V16.8586H121.802V15.7657L124.769 10.2744C124.874 10.0639 125.191 9.39084 125.336 8.73808C125.273 9.11627 125.211 9.72737 125.211 10.8417V16.8586H129.629V2.42519H125.211V3.47752L122.244 9.01157C122.14 9.22203 121.822 9.8951 121.677 10.5479C121.74 10.1697 121.802 9.55857 121.802 8.44428V2.42626L117.384 2.42519ZM144.933 2.42519H140.515V7.81181H137.105V2.42519H132.688V16.8575H137.105V11.1771H140.515V16.8575H144.933V2.42519ZM147.989 2.42519V16.8586H155.774C156.87 16.8586 158.343 16.7122 159.395 15.7016C159.942 15.1759 160.53 14.2294 160.53 12.7775C160.53 11.6835 160.236 10.8417 159.415 10.1686C158.927 9.77345 158.349 9.50583 157.732 9.38977V9.3481C158.763 9.0746 159.33 8.46458 159.582 8.08531C159.983 7.49665 160.173 6.75949 160.173 6.06507C160.173 4.76061 159.626 3.91875 159.078 3.43478C158.027 2.48823 156.659 2.42519 155.334 2.42519H147.989ZM152.409 5.5811H154.198C154.64 5.5811 155.124 5.60247 155.481 5.91763C155.774 6.16976 155.84 6.46463 155.84 6.77979C155.84 7.03192 155.796 7.38981 155.522 7.66331C155.187 7.99984 154.682 8.02122 154.281 8.02122H152.409V5.5811ZM152.409 11.0938H154.557C154.892 11.0938 155.397 11.1365 155.776 11.5147C155.924 11.6621 156.113 11.9356 156.113 12.3982C156.113 12.7978 155.965 13.0916 155.754 13.3031C155.356 13.7027 154.913 13.7027 154.557 13.7027H152.409V11.0938ZM162.936 2.42519V16.8575H173.792V13.4078H167.353V11.0511H172.53V7.93788H167.353V5.79156H173.792V2.42519H162.936ZM188.359 7.91651C188.317 6.04476 187.495 4.69758 186.717 3.91875C185.329 2.5096 183.521 2.21473 182.172 2.21473C180.785 2.21473 179.249 2.48823 177.796 3.75102C176.05 5.28731 175.439 7.41225 175.439 9.76903C175.439 11.0318 175.629 12.4196 176.281 13.6824C177.018 15.1129 178.659 17.0733 182.172 17.0733C184.193 17.0733 185.623 16.396 186.612 15.4281C187.411 14.6493 188.232 13.3448 188.359 11.5564L184.32 11.3043C184.32 11.8512 184.171 12.3352 183.919 12.8192C183.604 13.4089 183.14 13.8288 182.299 13.8288C181.457 13.8288 180.91 13.3875 180.553 12.566C180.194 11.7668 180.152 10.8406 180.152 9.6622C180.152 8.65261 180.194 7.76908 180.49 6.92722C180.846 5.91763 181.393 5.4123 182.298 5.4123C183.308 5.4123 183.772 6.10673 183.96 6.52659C184.17 7.01055 184.233 7.74772 184.233 8.12591L188.359 7.91651ZM189.227 2.42519V5.79156H192.215V16.8575H196.635V5.79156H199.623V2.42519H189.227ZM15.5226 0.0961914C6.88819 0.80878 0.0625 8.07783 0.0625 16.8906C0.0625 20.6587 1.31033 24.1458 3.41605 26.9566L13.6711 16.3426H5.81129L14.7245 7.11739H8.7375L15.5226 0.0961914ZM4.54743 28.3156C7.62962 31.6478 12.0355 33.7428 16.9146 33.7428C21.7938 33.7428 26.2007 31.6499 29.2819 28.3156H4.54743ZM30.519 26.8135C32.6313 23.9369 33.7692 20.4606 33.7668 16.8917C33.7668 8.16971 27.0821 0.959421 18.5749 0.120766L25.3364 7.11846H19.3494L28.2627 16.3437H20.4039L30.519 26.8135ZM40.6245 25.2665H199.938V26.5229H40.6245V25.2665ZM40.6245 21.5252H199.938V24.2633H40.6245V21.5252Z" fill="white"/>
</g>
<defs>
<clipPath id="clip0_414_17077">
<rect width="200" height="33.7727" fill="white" transform="translate(0 0.0332031)"/>
</clipPath>
</defs>
</svg>
