<svg width="113" height="36" viewBox="0 0 113 36" fill="none" xmlns="http://www.w3.org/2000/svg">
<path d="M16.0066 4.12701V10.9797L10.3675 16.6241V4.12701H16.0066Z" fill="white"/>
<path d="M16.0066 18.9605V32.5049L13.1902 35.3267L10.3675 32.5049V24.605L16.0066 18.9605Z" fill="white"/>
<path d="M5.73578 4.12705V27.8673L0.0913086 22.2282V0L5.73578 4.12705Z" fill="white"/>
<path d="M26.2851 0V22.2282L20.6406 27.8673V4.12705L26.2851 0Z" fill="white"/>
<path d="M41.04 10.1635V26.0964H37.9791V18.0733L35.3488 23.2728V26.0964H32.2852V10.1635H35.3488V17.7839L37.9791 12.5844V10.1635H41.04Z" fill="white"/>
<path d="M48.7472 21.8777V22.1708C48.7472 22.676 48.687 23.0257 48.562 23.219C48.3966 23.4518 48.0541 23.5687 47.5345 23.5687C47.0698 23.5687 46.7471 23.4716 46.5691 23.2783C46.3911 23.0886 46.3012 22.7578 46.3012 22.2931V13.9679C46.3012 13.5032 46.3911 13.1778 46.5691 12.9926C46.7471 12.8074 47.0689 12.7148 47.5345 12.7148C48.0272 12.7148 48.3652 12.8245 48.5423 13.042C48.6798 13.2344 48.7472 13.5769 48.7472 14.0695V14.1468H51.8612C51.7785 12.9467 51.5987 12.0936 51.3182 11.583C50.7402 10.5277 49.4798 10 47.5345 10C45.849 10 44.684 10.3973 44.0412 11.1902C43.4659 11.8905 43.1783 13.1032 43.1783 14.8291V21.4292C43.1783 23.1426 43.4659 24.3552 44.0412 25.0681C44.6993 25.8762 45.8643 26.2808 47.5345 26.2808C49.2201 26.2808 50.3851 25.8834 51.0278 25.0879C51.5654 24.4379 51.8585 23.3673 51.9052 21.8768H48.7472V21.8777Z" fill="white"/>
<path d="M81.4173 12.7957H79.2383V26.0956H76.1343V12.7957H73.9759V10.1645H81.4173V12.7957Z" fill="white"/>
<path d="M89.8451 26.0956H82.9997V10.1645H89.6599V12.8775H86.0219V17.2392H89.8451V19.829H86.0219V23.3808H89.8451V26.0956Z" fill="white"/>
<path d="M100.228 26.0954H97.1649V12.7551C96.7109 13.1524 96.3253 13.5911 96.0098 14.0703C95.349 15.0708 94.9364 16.777 94.7719 19.1888C94.7171 19.9835 94.6892 23.2862 94.6892 26.0954H91.5941V23.7105C91.5941 21.4776 91.7038 18.1883 91.9232 16.8453C92.2657 14.7346 92.9165 13.0976 93.8757 11.9326C94.4375 11.2611 95.136 10.6723 95.972 10.1653H100.228V26.0954Z" fill="white"/>
<path d="M68.5093 10.1635C67.6741 10.6714 66.9766 11.2612 66.4138 11.9318C65.4556 13.0968 64.8029 14.7356 64.4604 16.8463C64.2402 18.1893 64.1332 21.4776 64.1332 23.7115V26.0973H67.2265C67.2265 23.7843 67.2436 21.1378 67.284 19.8299H69.7022V26.0973H72.7658V10.1635H68.5093ZM67.524 17.2229C67.7416 15.8251 68.0841 14.7724 68.547 14.0695C68.8643 13.5894 69.25 13.1516 69.7022 12.7543V17.2229H67.524Z" fill="white"/>
<path d="M60.9536 16.7869C61.4947 16.7869 61.937 16.946 62.2813 17.2652C62.6094 17.569 62.773 17.9555 62.773 18.4257V26.0955H59.7733V19.8137C59.7733 19.526 59.6168 19.3813 59.3058 19.3813H56.8975V26.0946H53.8978V10.1644H56.8975V16.7869H57.9044L59.6995 10.1644H62.7982L60.7082 16.7869H60.9536Z" fill="white"/>
<path d="M105.276 10.1644V16.7644H111.033C111.54 16.7644 111.955 16.9236 112.278 17.2418C112.585 17.5609 112.739 17.9475 112.739 18.4023V24.4558C112.739 24.926 112.585 25.3134 112.278 25.6163C111.955 25.9346 111.54 26.0946 111.033 26.0946H102.362V10.1644H105.276ZM109.926 19.7912C109.926 19.5026 109.78 19.3588 109.488 19.3588H105.277V23.5236H109.488C109.78 23.5236 109.926 23.3726 109.926 23.0687V19.7912Z" fill="white"/>
</svg>
