<svg width="312" height="175" viewBox="0 0 312 175" fill="none" xmlns="http://www.w3.org/2000/svg">
<path d="M161.677 14.5476V31.8751L147.418 46.1477V14.5476H161.677Z" fill="url(#paint0_linear_493_12484)"/>
<path d="M161.677 52.0553V86.3035L154.555 93.4386L147.418 86.3035V66.3278L161.677 52.0553Z" fill="url(#paint1_linear_493_12484)"/>
<path d="M135.706 14.5476V74.5768L121.434 60.3179V4.11194L135.706 14.5476Z" fill="url(#paint2_linear_493_12484)"/>
<path d="M187.667 4.11194V60.3179L173.395 74.5768V14.5476L187.667 4.11194Z" fill="url(#paint3_linear_493_12484)"/>
<path d="M76.485 106.041V146.328H68.7452V126.041L62.0942 139.189V146.328H54.3477V106.041H62.0942V125.309L68.7452 112.162V106.041H76.485Z" fill="white"/>
<path d="M95.9761 135.661V136.402C95.9761 137.679 95.8238 138.563 95.5079 139.052C95.0896 139.641 94.2236 139.936 92.9098 139.936C91.7346 139.936 90.9186 139.691 90.4685 139.202C90.0184 138.723 89.7911 137.886 89.7911 136.711V115.66C89.7911 114.485 90.0184 113.662 90.4685 113.194C90.9186 112.726 91.7323 112.491 92.9098 112.491C94.1554 112.491 95.0101 112.769 95.4579 113.319C95.8057 113.805 95.9761 114.671 95.9761 115.917V116.112H103.85C103.641 113.078 103.186 110.921 102.477 109.63C101.016 106.961 97.8287 105.627 92.9098 105.627C88.6478 105.627 85.7019 106.632 84.0767 108.636C82.6219 110.407 81.8945 113.473 81.8945 117.838V134.527C81.8945 138.859 82.6219 141.925 84.0767 143.728C85.7405 145.771 88.6864 146.794 92.9098 146.794C97.1718 146.794 100.118 145.79 101.743 143.778C103.102 142.134 103.843 139.427 103.961 135.659H95.9761V135.661Z" fill="white"/>
<path d="M178.582 112.696H173.072V146.326H165.223V112.696H159.766V106.043H178.582V112.696Z" fill="white"/>
<path d="M199.895 146.326H182.586V106.043H199.427V112.903H190.228V123.932H199.895V130.481H190.228V139.461H199.895V146.326Z" fill="white"/>
<path d="M226.143 146.326H218.399V112.594C217.251 113.598 216.276 114.708 215.478 115.919C213.807 118.449 212.764 122.763 212.348 128.862C212.209 130.871 212.139 139.223 212.139 146.326H204.312V140.296C204.312 134.649 204.59 126.332 205.144 122.936C206.01 117.599 207.656 113.46 210.082 110.514C211.502 108.816 213.268 107.327 215.382 106.045H226.143V146.326Z" fill="white"/>
<path d="M145.94 106.041C143.829 107.325 142.065 108.816 140.642 110.512C138.219 113.458 136.568 117.601 135.702 122.938C135.145 126.334 134.875 134.649 134.875 140.298V146.331H142.697C142.697 140.482 142.74 133.79 142.842 130.483H148.957V146.331H156.703V106.041H145.94ZM143.449 123.891C143.999 120.356 144.865 117.695 146.036 115.917C146.838 114.703 147.813 113.596 148.957 112.591V123.891H143.449Z" fill="white"/>
<path d="M90.4235 168.566H88.3027V166.643H86.5661V168.566H84.4453V166.643C84.4453 162.976 85.1136 160.287 86.4524 158.573H88.4027C89.7506 160.362 90.4235 163.054 90.4235 166.643V168.566ZM88.3027 164.981C88.3027 163.31 88.014 161.687 87.4344 160.112C86.8548 161.687 86.5661 163.31 86.5661 164.981H88.3027Z" fill="white"/>
<path d="M97.7536 158.86C97.7536 160.378 97.1876 161.717 96.0601 162.874C96.7625 163.594 97.2376 164.483 97.4831 165.536C97.6626 166.268 97.7536 167.277 97.7536 168.568H95.6328C95.6328 167.504 95.5942 166.709 95.5192 166.177C95.385 165.295 95.1168 164.554 94.7077 163.956C94.3849 164.165 94.1099 164.322 93.8825 164.426V168.568H91.7891V158.576H93.8825V162.817C95.0486 161.917 95.6328 160.501 95.6328 158.576H97.7536C97.7536 158.605 97.7536 158.653 97.7536 158.719C97.7536 158.785 97.7536 158.83 97.7536 158.86Z" fill="white"/>
<path d="M106.052 170.275H104.172V168.566H99.2188V158.573H101.34V166.715H103.033V158.573H105.154V166.715H106.049V170.275H106.052Z" fill="white"/>
<path d="M112.928 168.566H110.807V165.206C110.321 166.429 109.673 167.55 108.864 168.566H106.863V158.573H108.984V165.874C109.764 164.87 110.284 163.706 110.546 162.385C110.718 161.494 110.807 160.221 110.807 158.571H112.928V168.566Z" fill="white"/>
<path d="M120.457 165.336C120.457 166.531 120.253 167.377 119.846 167.87C119.4 168.42 118.593 168.695 117.425 168.695C116.268 168.695 115.461 168.416 115.004 167.854C114.606 167.361 114.406 166.522 114.406 165.336V161.806C114.406 160.619 114.606 159.776 115.004 159.271C115.459 158.721 116.266 158.446 117.425 158.446C118.591 158.446 119.398 158.721 119.846 159.271C120.253 159.767 120.457 160.61 120.457 161.806V165.336ZM118.266 165.847V161.278C118.266 160.937 118.218 160.701 118.123 160.567C118 160.405 117.766 160.324 117.425 160.324C117.102 160.324 116.879 160.39 116.757 160.521C116.634 160.655 116.57 160.883 116.57 161.206V165.934C116.57 166.256 116.632 166.484 116.757 166.618C116.879 166.75 117.102 166.815 117.425 166.815C117.786 166.815 118.023 166.736 118.136 166.572C118.223 166.44 118.266 166.199 118.266 165.847Z" fill="white"/>
<path d="M127.872 168.566H125.752V163.997H124.058V168.566H121.938V158.573H124.058V162.203H125.752V158.573H127.872V168.566Z" fill="white"/>
<path d="M134.235 168.566H129.496V158.573H134.108V160.451H131.587V162.201H134.235V163.995H131.587V166.686H134.235V168.566Z" fill="white"/>
<path d="M141.623 162.176C141.623 164.636 140.673 165.863 138.777 165.863C138.398 165.863 138.023 165.836 137.652 165.779V168.568H135.559V158.576H138.348C139.561 158.576 140.421 158.88 140.923 159.487C141.389 160.035 141.623 160.933 141.623 162.176ZM139.502 162.203C139.502 161.615 139.434 161.199 139.302 160.951C139.111 160.619 138.748 160.453 138.211 160.453H137.652V163.997C137.938 164.045 138.225 164.067 138.514 164.067C138.964 164.067 139.255 163.849 139.389 163.413C139.464 163.188 139.502 162.783 139.502 162.203Z" fill="white"/>
<path d="M148.841 168.566H146.72V163.997H145.027V168.566H142.906V158.573H145.027V162.203H146.72V158.573H148.841V168.566Z" fill="white"/>
<path d="M156.371 165.336C156.371 166.531 156.167 167.377 155.76 167.87C155.314 168.42 154.507 168.695 153.339 168.695C152.182 168.695 151.375 168.416 150.918 167.854C150.52 167.361 150.32 166.522 150.32 165.336V161.806C150.32 160.619 150.52 159.776 150.918 159.271C151.373 158.721 152.18 158.446 153.339 158.446C154.505 158.446 155.312 158.721 155.76 159.271C156.167 159.767 156.371 160.61 156.371 161.806V165.336ZM154.18 165.847V161.278C154.18 160.937 154.132 160.701 154.037 160.567C153.914 160.405 153.68 160.324 153.339 160.324C153.016 160.324 152.793 160.39 152.671 160.521C152.548 160.655 152.484 160.883 152.484 161.206V165.934C152.484 166.256 152.546 166.484 152.671 166.618C152.793 166.75 153.016 166.815 153.339 166.815C153.7 166.815 153.937 166.736 154.05 166.572C154.137 166.44 154.18 166.199 154.18 165.847Z" fill="white"/>
<path d="M162.591 168.566H157.852V158.573H162.464V160.451H159.945V162.201H162.593V163.995H159.945V166.686H162.593V168.566H162.591Z" fill="white"/>
<path d="M172.981 165.336C172.981 166.531 172.776 167.377 172.369 167.87C171.924 168.42 171.117 168.695 169.948 168.695C168.791 168.695 167.984 168.416 167.528 167.854C167.13 167.361 166.93 166.522 166.93 165.336V161.806C166.93 160.619 167.13 159.776 167.528 159.271C167.982 158.721 168.789 158.446 169.948 158.446C171.114 158.446 171.921 158.721 172.369 159.271C172.776 159.767 172.981 160.61 172.981 161.806V165.336ZM170.789 165.847V161.278C170.789 160.937 170.742 160.701 170.646 160.567C170.523 160.405 170.289 160.324 169.948 160.324C169.626 160.324 169.403 160.39 169.28 160.521C169.157 160.655 169.094 160.883 169.094 161.206V165.934C169.094 166.256 169.155 166.484 169.28 166.618C169.403 166.75 169.626 166.815 169.948 166.815C170.31 166.815 170.546 166.736 170.66 166.572C170.746 166.44 170.789 166.199 170.789 165.847Z" fill="white"/>
<path d="M180.525 165.365C180.525 166.561 180.346 167.377 179.984 167.813C179.575 168.316 178.789 168.568 177.62 168.568H174.461V158.576H180.012V160.453H176.552V162.162C176.923 162.106 177.298 162.078 177.677 162.078C178.721 162.078 179.471 162.372 179.928 162.96C180.325 163.481 180.525 164.281 180.525 165.365ZM178.405 165.365C178.405 164.881 178.357 164.538 178.261 164.34C178.118 164.026 177.836 163.87 177.416 163.87C177.13 163.87 176.843 163.892 176.554 163.94V166.688H177.114C177.602 166.688 177.939 166.588 178.125 166.388C178.312 166.19 178.405 165.847 178.405 165.365Z" fill="white"/>
<path d="M191.965 170.275H190.085V168.566H181.93V158.573H184.064V166.715H185.473V158.573H187.524V166.715H188.933V158.573H191.067V166.715H191.963V170.275H191.965Z" fill="white"/>
<path d="M197.519 168.566H192.777V158.573H197.389V160.451H194.871V162.201H197.519V163.995H194.871V166.686H197.519V168.566Z" fill="white"/>
<path d="M204.75 165.336C204.75 166.531 204.546 167.377 204.139 167.87C203.693 168.42 202.886 168.695 201.718 168.695C200.561 168.695 199.754 168.416 199.297 167.854C198.899 167.361 198.699 166.522 198.699 165.336V161.806C198.699 160.61 198.899 159.769 199.297 159.287C199.743 158.737 200.549 158.462 201.718 158.462C203.066 158.462 203.939 158.826 204.336 159.558C204.611 160.06 204.75 161.046 204.75 162.519H202.559V161.281C202.559 160.94 202.511 160.703 202.416 160.569C202.293 160.417 202.059 160.339 201.718 160.339C201.395 160.339 201.172 160.403 201.05 160.533C200.927 160.662 200.863 160.885 200.863 161.208V165.933C200.863 166.256 200.925 166.484 201.05 166.618C201.172 166.749 201.395 166.815 201.718 166.815C202.079 166.815 202.316 166.736 202.429 166.572C202.516 166.44 202.557 166.197 202.557 165.847V164.138H204.748V165.336H204.75Z" fill="white"/>
<path d="M210.261 160.396H208.751V168.566H206.601V160.396H205.105V158.573H210.258V160.396H210.261Z" fill="white"/>
<path d="M217.404 165.663C217.404 166.763 217.197 167.522 216.786 167.941C216.372 168.359 215.615 168.566 214.515 168.566H211.355V158.573H214.415C215.479 158.573 216.204 158.717 216.593 159.001C217.047 159.351 217.277 160.035 217.277 161.051C217.277 161.894 216.936 162.551 216.252 163.015C216.715 163.338 217.034 163.722 217.204 164.167C217.336 164.529 217.404 165.027 217.404 165.663ZM215.111 161.251C215.111 160.68 214.845 160.396 214.313 160.396H213.444V162.303H213.929C214.717 162.303 215.111 161.953 215.111 161.251ZM215.24 165.493C215.24 164.477 214.879 163.97 214.158 163.97H213.447V166.688H214.001C214.485 166.688 214.813 166.609 214.983 166.452C215.154 166.297 215.24 165.977 215.24 165.493Z" fill="white"/>
<path d="M224.762 165.336C224.762 166.531 224.557 167.377 224.15 167.87C223.705 168.42 222.898 168.695 221.73 168.695C220.573 168.695 219.766 168.416 219.309 167.854C218.911 167.361 218.711 166.522 218.711 165.336V161.806C218.711 160.619 218.911 159.776 219.309 159.271C219.763 158.721 220.57 158.446 221.73 158.446C222.896 158.446 223.703 158.721 224.15 159.271C224.557 159.767 224.762 160.61 224.762 161.806V165.336ZM222.571 165.847V161.278C222.571 160.937 222.523 160.701 222.427 160.567C222.305 160.405 222.071 160.324 221.73 160.324C221.407 160.324 221.184 160.39 221.061 160.521C220.939 160.655 220.875 160.883 220.875 161.206V165.934C220.875 166.256 220.936 166.484 221.061 166.618C221.184 166.75 221.407 166.815 221.73 166.815C222.091 166.815 222.327 166.736 222.441 166.572C222.527 166.44 222.571 166.199 222.571 165.847Z" fill="white"/>
<path d="M126.833 122.788C128.202 122.788 129.32 123.191 130.191 123.998C131.02 124.766 131.434 125.743 131.434 126.932V146.326H123.849V130.442C123.849 129.714 123.453 129.349 122.667 129.349H116.577V146.324H108.992V106.043H116.577V122.788H119.123L123.663 106.043H131.498L126.213 122.788H126.833Z" fill="white"/>
<path d="M238.906 106.043V122.732H253.463C254.745 122.732 255.795 123.134 256.611 123.939C257.388 124.746 257.777 125.723 257.777 126.873V142.18C257.777 143.369 257.388 144.348 256.611 145.114C255.795 145.919 254.745 146.324 253.463 146.324H231.539V106.043H238.906ZM250.665 130.385C250.665 129.655 250.294 129.292 249.558 129.292H238.908V139.823H249.558C250.296 139.823 250.665 139.441 250.665 138.673V130.385Z" fill="white"/>
<defs>
<linearGradient id="paint0_linear_493_12484" x1="154.548" y1="-0.804437" x2="154.548" y2="74.3589" gradientUnits="userSpaceOnUse">
<stop stop-color="#0047FF"/>
<stop offset="1" stop-color="#2E3192"/>
</linearGradient>
<linearGradient id="paint1_linear_493_12484" x1="154.548" y1="-0.804516" x2="154.548" y2="74.3588" gradientUnits="userSpaceOnUse">
<stop stop-color="#0047FF"/>
<stop offset="1" stop-color="#2E3192"/>
</linearGradient>
<linearGradient id="paint2_linear_493_12484" x1="128.57" y1="3.08779" x2="128.57" y2="74.37" gradientUnits="userSpaceOnUse">
<stop stop-color="#0047FF"/>
<stop offset="1" stop-color="#2E3192"/>
</linearGradient>
<linearGradient id="paint3_linear_493_12484" x1="180.53" y1="3.08779" x2="180.53" y2="74.37" gradientUnits="userSpaceOnUse">
<stop stop-color="#0047FF"/>
<stop offset="1" stop-color="#2E3192"/>
</linearGradient>
</defs>
</svg>
