<svg width="561" height="369" viewBox="0 0 561 369" fill="none" xmlns="http://www.w3.org/2000/svg">
<path d="M236.819 148.145L237.358 144.157L243.932 137.583H254.925L258.373 131.547V119.908L265.272 116.458L274.325 111.932L280.575 114.304H284.241L287.258 117.321L290.959 114.741L290.059 119.261L293.723 118.829L298.896 119.045V122.494L299.975 126.374L297.603 124.865L295.125 122.386L292.862 124.649L293.939 128.745V132.841L297.604 134.781L300.406 137.582V142.109L303.532 143.618V148.684L307.088 152.24L308.812 158.275V164.527L307.735 169.915L309.028 172.933L309.136 179.507L312.908 183.28L312.692 188.021L311.83 195.781L308.058 202.356L302.346 208.067H296.31L289.629 209.361L283.809 207.206L277.449 203.649L273.462 199.661V193.841L269.366 189.746L267.426 185.22L265.917 180.908L263.116 176.167L261.606 168.191L258.589 166.898L259.559 162.048L262.037 159.57L259.02 156.551L257.619 160.324L255.571 162.371L256.433 167.113L256.541 172.61L254.17 174.981L257.296 178.107L256.433 182.849L253.416 189.53L248.135 191.147L243.932 195.35L242.314 203.003L238.327 206.99L241.56 217.122L238.435 222.618L242.853 227.038L247.596 231.779L252.985 227.899L254.063 222.511L251.26 219.708L251.692 214.966V211.302L255.356 207.422H259.02L260.313 217.122L261.499 223.481L265.272 227.252L267.642 232.211L273.786 234.042L275.618 232.211L274.109 228.546L277.773 225.528L277.989 217.985L284.671 219.062L290.922 216.691L296.095 219.493L301.915 217.661H305.902L308.382 220.139L312.046 225.744L309.028 228.762V233.504L311.722 230.162L315.495 226.392L320.668 225.314L324.979 219.062V213.674L326.703 210.009L332.307 207.207V203.759L337.696 200.526V195.137L336.833 189.964H340.497L341.683 192.658L346.533 197.508L350.197 203.113V210.655L348.904 214.537L346.964 216.475L343.73 213.242L339.204 212.166L332.307 214.535V220.14L334.03 225.314V229.626L338.988 230.919L343.73 233.074L349.12 230.487V226.607L354.723 225.314L360.113 227.9L359.25 224.452L367.657 225.96L372.183 225.099L380.374 226.175H385.116L387.487 230.487H389.643V226.607L396.54 224.452H400.207L401.716 230.055H397.62L396.327 233.935L393.093 235.014L398.051 239.54H401.5L407.966 236.739L414.11 237.923L420.792 244.606L423.056 242.343H427.582L433.295 240.51L435.558 242.773L434.911 245.792L431.462 248.163V251.827L435.558 255.276L435.881 251.289L437.714 249.456L442.024 250.533V247.085L446.12 246.439L446.983 241.265L446.336 235.014L450.216 233.074L453.557 232.104L457.544 236.092L459.268 234.367L463.687 239.863L468.753 244.929L472.849 249.025L473.852 251.071L472.094 253.658L469.992 255.76L468.699 257.053L470.801 259.047L471.231 260.664L472.848 261.203V264.544V268.531H470.8L469.829 270.902L468.105 271.764L467.459 275.751L471.769 277.906V280.709L467.782 282.325L471.123 285.666L465.949 288.253L462.069 292.133H457.975L456.466 296.875H449.136L442.239 298.384L435.342 302.264V307.007L429.737 306.791L425.588 307.438L423.324 310.024L419.283 312.126L415.241 316.167L411.523 316.652V313.258L408.775 312.288L405.461 315.601L401.015 320.047L399.075 323.766L399.883 328.454L394.71 331.687L394.225 335.567L389.86 338.315L386.95 343.812L387.758 347.53L385.98 350.925V353.835L380.645 359.17L379.918 362.968L377.897 364.99L376.765 368.061L369.329 366.93L363.832 364.828L358.982 362.242L353.971 358.847H351.707L350.414 361.595L348.232 362.322L346.696 360.787L344.514 360.059L342.331 362.242L338.451 360.787L335.056 362.565L331.984 359.493L327.296 357.392L324.548 358.362L322.285 355.613L322.77 352.865L321.638 351.087L318.89 350.117L316.788 352.218L315.253 350.682L313.716 352.218L309.352 349.793L307.331 353.754L309.513 355.937V358.523L306.22 359.823H302.723L300.738 361.81L297.524 362.187L296.484 359.823L294.688 358.028L291.285 361.242L288.828 358.785L284.858 356.894L281.076 357.839L279.564 362.187L277.105 365.212L275.594 363.7L276.917 360.675L275.971 357.271V354.058L273.704 351.789V348.575L276.539 345.739V342.903L280.698 341.959V337.611L283.346 334.963L282.946 331.687L281.006 330.717L281.761 328.347L279.66 326.245L278.851 325.437L277.665 323.497L276.049 322.957L273.731 324.95L268.994 329.689L266.063 332.618L261.98 330.804L259.712 332.884L264.437 337.799L261.414 339.311V343.282L259.995 344.699L254.985 340.257L252.339 344.416L247.612 343.282L245.628 345.267L242.697 341.013L238.349 338.555L234.756 336.854L233.244 332.695L228.989 328.441L223.412 327.401L220.577 321.351L216.229 323.431L211.502 321.351L206.209 322.674L201.483 324.754L196.377 319.649V315.112V311.142L192.313 307.078L190.234 309.158L184.846 305.47L182.577 303.202L178.607 303.58L175.951 304.063V299.741L177.065 296.117L173.999 295.141L170.513 295.838L166.053 293.748L162.428 292.354L159.501 290.958L157.689 289.148L157.132 290.96H154.343L152.252 288.449H149.185L148.419 285.313L146.676 283.571L144.306 282.386H141.449L139.148 284.687H135.524L133.711 286.499L130.713 286.15L128.274 283.711H123.675L121.165 282.177L117.889 282.386L116.007 280.504H112.243L110.29 278.553L108.996 275.751L105.655 278.554L105.332 281.248L103.392 283.188L102.961 287.715L101.775 290.301L100.482 292.565H97.4647L96.1713 296.228L93.2614 292.672L89.5962 292.997V285.666L85.9322 282.218L81.8363 281.139L83.1296 277.906L84.2082 274.458L81.1896 271.44L79.2497 267.13L79.8963 264.112L83.9922 260.017L86.3629 255.705L85.2856 251.825L88.7348 250.964L93.9081 247.731V243.204L96.0627 240.617L101.452 240.401L103.823 237.599L104.039 234.366L108.565 232.642L112.229 227.684L117.188 227.899L121.498 225.312L127.318 226.606L128.181 223.372L130.121 221.432L133.785 223.156L136.802 226.39L141.545 227.899L143.269 231.779L144.994 236.091L147.58 233.504L147.148 227.252L143.269 223.803V216.475L146.718 215.613L147.795 214.535L143.054 212.595L140.251 209.362H159.985L188.534 209.146L197.588 205.913V200.309L199.097 186.082H205.133L210.306 181.987V176.383L214.186 174.873V167.544L217.634 167.329L225.179 161.294L228.843 163.018L236.819 148.145ZM249.938 201.459L249.156 202.632L250.525 204.393L252.286 202.632L249.938 201.459ZM432.25 204.197H430.098L427.75 200.676L426.382 201.459L422.274 197.546L419.143 194.221L420.318 190.7L423.447 189.722L424.62 187.766L422.468 186.006L422.665 181.31L421.295 180.92L419.926 177.398L416.992 177.203L414.645 173.878L415.428 169.573L418.556 165.271L422.274 165.661L423.447 167.031L424.816 167.618L425.403 165.074L429.902 163.706L433.424 159.989L431.077 157.446L434.206 155.489L437.727 156.859L438.706 153.924V150.99H443.204L445.356 153.142L447.605 150.893L448.094 148.839L452.985 147.86L451.322 146.198L447.116 144.73V143.167L452.008 141.796L457.093 140.427L459.635 137.885H462.961V135.537L467.657 135.341L465.114 132.798L469.221 132.603L470.786 134.168L470.59 130.255L472.547 128.299L470.395 125.756L471.764 123.604L474.112 125.951H477.046V123.017L481.349 124.582L483.501 122.234L485.653 119.692H488.392L493.086 117.541L496.412 118.714H501.302L504.53 115.486L508.344 115.779L510.104 118.323H514.212L516.169 120.279L519.69 119.3H524.58L527.808 116.073L531.622 114.019L536.708 112.062H541.402L544.142 116.367V121.061L540.034 124.778L536.317 128.299L531.427 128.691L525.558 131.428L520.276 129.473L517.734 132.016L511.669 131.82H503.845L500.91 134.95H494.847L490.348 137.493L491.717 140.623L488.586 141.796L484.871 141.405H481.545L481.154 143.557L477.633 142.578V146.1L474.112 148.642L471.177 150.794V147.469L468.83 149.621L469.417 153.534H467.069L465.406 151.871V153.729V156.664L463.695 154.951L461.495 157.151L459.635 159.011H457.092L455.136 161.554L452.593 165.856H448.486L445.159 168.596V172.313L441.834 173.682L440.66 177.594L437.922 180.332V185.224L436.552 188.744L438.313 193.829L436.748 198.916L438.9 202.242L439.878 205.763L438.705 206.937L435.379 208.502V205.958L432.25 204.197ZM556.859 11.9163L555.242 12.4013L556.535 14.1796V15.7962H558.799V12.7246L556.859 11.9163ZM556.374 25.6577L555.242 27.436L551.039 28.2443L548.291 29.6993L550.392 30.6693L549.422 32.9325L551.201 33.4175H554.757L557.587 30.5878L559.689 28.4861L558.96 25.3344L556.374 25.6577ZM542.956 22.7477L542.067 23.6362L543.764 25.3344L546.836 24.2027V21.6161H545.057L542.956 22.7477ZM540.612 27.8395L538.267 25.1727L536.489 26.951L535.196 29.5376V32.7709L537.944 33.2559L538.591 35.1958L541.986 34.3875L544.169 32.2044L545.785 30.5878L546.674 27.921H544.249L540.612 27.8395ZM530.993 39.0758L529.942 40.1259V42.1474H532.124L532.932 39.5608L530.993 39.0758ZM526.466 30.8309L525.334 29.6993H521.778V32.1242L519.838 34.0642L520.969 35.1958L524.849 34.3875L526.304 35.8425L529.699 35.0342L530.669 32.7709L533.094 33.5792L531.801 30.6693L529.619 28.4861L526.466 30.8309ZM544.411 3.83306L543.441 5.77303L545.139 7.46985L546.755 5.85321L544.411 3.83306ZM540.854 8.35965H538.267V11.2696L541.016 14.0179V16.2812L543.441 15.1495L541.986 12.0779L540.854 8.35965ZM524.688 16.7662H522.424L521.939 17.2512L523.799 19.1096L524.688 16.7662ZM526.628 20.4844L525.093 22.0196L526.628 23.7177L528.406 23.5561L526.628 20.4844ZM528.083 13.3712V15.4729H530.346L529.861 13.0479L528.083 13.3712ZM531.236 18.6247V20.4844H533.094L531.639 19.0295L531.236 18.6247ZM533.094 22.9094L533.903 23.7177L535.357 22.2627L533.094 22.9094ZM535.357 14.3412V16.6045L537.297 16.7662V14.3412H535.357ZM532.448 9.81463L533.579 11.9163L534.631 10.8648L533.579 9.81463H532.448ZM511.593 23.3944L510.381 24.6062L512.483 26.7078L514.826 26.7893V22.9094L513.21 20.8078L511.593 23.3944ZM516.928 20.8078L517.736 23.0711H519.353V21.1311L516.928 20.8078ZM507.875 7.87466L506.258 9.4913V11.2696L504.4 13.1281L501.085 10.7846L498.336 12.2396V14.1796L494.942 11.7546L492.355 12.7246L493.163 16.6045L495.588 15.7962V18.3828L498.175 19.0295L500.52 16.6847L503.833 15.3112L506.581 16.1195H510.623L513.533 13.2096L510.785 10.4613L512.644 8.60149L509.491 6.74301L507.875 7.87466ZM498.66 3.83306H495.103L493.002 1.73145L491.547 4.64138L493.406 6.49986L494.133 8.68298L498.336 7.228L499.791 8.68298L502.54 7.55133L503.671 8.68298V6.25802L501.813 4.39824H500.115L498.66 3.83306ZM501.813 20.8879H500.438L500.923 22.9094L503.833 23.0711L501.813 20.8879ZM502.378 25.1727L500.923 26.6277L502.055 27.7593L504.803 28.406L503.025 26.6277L502.378 25.1727ZM514.18 4.31806V6.41968H515.796L517.413 4.80305L514.18 4.31806ZM1.27344 211.108L4.62828 211.861L7.50331 211.039L8.59874 208.917L11.1996 209.327L13.631 211.759L13.7332 215.08L15.7184 215.695L16.1297 218.298L19.2104 218.845L19.8945 216.38L18.2184 214.703L19.6553 213.265L20.58 214.19L23.5235 216.652V220.351L23.1123 223.569L24.8233 226.376L26.5357 227.538L27.1513 231.716L25.6459 234.864L18.4576 238.493L7.57186 225.553L1.27344 211.108ZM445.945 215.738L442.815 217.303L440.467 218.085L441.055 223.172L441.445 225.911L443.597 226.497L444.38 230.605L448.488 230.997L449.857 227.671L447.9 224.346L448.097 220.629L445.945 215.738ZM376.697 198.721L372.394 199.894L369.85 203.22L367.895 205.763L369.263 209.478L372.394 210.654L375.327 211.826L378.066 209.87L381.392 210.456L383.152 206.35L380.414 202.828L380.217 199.894L376.697 198.721Z" fill="#F3F4F6" stroke="#E3E4E7" stroke-width="1.29331"/>
</svg>
