<svg width="200" height="42" viewBox="0 0 200 42" fill="none" xmlns="http://www.w3.org/2000/svg">
<g clip-path="url(#clip0_414_17103)">
<path class="clients-icon"  fill-rule="evenodd" clip-rule="evenodd" d="M153.914 25.3753C151.059 28.4385 146.26 29.3093 140.797 29.5155V20.782C143.858 20.5758 146.26 20.1206 147.583 17.5125C148.867 15.319 147.17 11.9256 145.597 11.1809C143.569 10.2695 141.004 10.3122 138.189 13.1254V38.9094H128.754V11.5943L138.604 1.99321C149.322 1.33076 153.915 4.39403 155.653 9.19459C157.639 14.243 157.183 21.6528 153.914 25.3753ZM199.895 2.03488C190.914 2.03488 177.545 0.296501 172.746 9.48521C170.552 14.0785 169.891 24.1765 172.084 29.226C174.69 35.8055 181.271 39.7374 191.369 38.4147V29.226C186.775 29.4322 183.092 29.3488 181.063 27.2397C178.292 24.3431 177.339 12.7547 183.008 11.4715C186.071 10.7674 190.706 11.2653 190.706 11.2653L199.895 2.03488ZM73.9157 38.7438H64.728V12.2995L74.3708 2.03594V17.1012L88.9798 2.03594H101.436L73.9157 27.8199V38.7438ZM62.949 29.9707V38.7854H42.6281V10.809L52.023 2.07655V29.9707H62.949ZM158.922 38.8271V11.8016L168.565 2.4067V38.826L158.922 38.8271ZM126.351 29.3905L117.204 38.5792V24.3837L102.307 39.0333V24.1754L88.359 38.5782H75.2405L111.949 2.07548V17.3052L126.351 2.24109V29.3905ZM37.3724 11.9266C38.2421 15.7335 34.7654 14.1202 30.3377 13.0432C28.3514 13.0848 26.9443 13.6223 25.1226 14.368C22.7634 14.8649 21.1084 12.9609 19.1221 13.2504C17.7566 13.4577 16.639 14.2858 15.0663 14.5743C13.2456 14.9471 12.128 13.0848 10.1001 13.0848C8.40339 13.0848 7.24412 14.4097 5.67135 14.5743C4.51208 14.6982 2.48416 14.5743 1.53216 13.7056C3.22887 5.38662 10.5542 0.338171 18.7482 0.047551C26.363 -0.242 33.3988 3.85553 37.3724 11.9266ZM27.0255 7.82911C26.2808 8.57382 25.5767 9.77369 24.2112 9.77369C23.4248 9.77369 21.3563 8.36654 19.1617 8.36654C17.5483 8.36654 14.9402 9.69142 13.7403 9.69142C11.9197 9.69142 11.6707 8.90504 10.3469 7.91138C12.4988 5.92512 15.686 5.26268 18.7888 5.30435C22.1426 5.34495 24.3362 5.88345 27.0255 7.82911ZM9.43659 28.6458C10.8437 28.6458 14.0299 26.7429 15.9755 26.8262C18.3763 26.6595 18.7482 28.1906 20.7355 27.9011C22.101 27.6949 23.2602 26.7845 24.833 26.7429C26.6953 26.7012 27.7713 28.275 29.7981 28.275C31.4948 28.275 32.6124 27.0752 34.1852 26.9085C35.3851 26.7856 37.9504 26.4117 38.3233 27.4053C36.5433 36.0139 28.8461 41.105 20.3615 41.105C13.0779 41.1467 6.33166 37.0481 2.48309 29.1854C1.40822 24.7972 7.65654 28.3969 9.43659 28.6458ZM12.83 33.2797C13.4508 32.7433 14.2788 31.3768 15.6443 31.3768C16.4307 31.3768 18.5409 32.7433 20.6938 32.7433C22.3083 32.7433 24.9153 31.4184 26.1568 31.4184C27.9369 31.4184 28.2264 32.2048 29.5096 33.1985C27.2328 35.3087 23.881 35.9305 20.6115 35.8044C17.4244 35.7232 15.5204 35.267 12.83 33.2797ZM0 21.734C2.35915 21.9007 3.51842 23.5974 5.17345 23.639C6.78789 23.514 8.31898 22.2308 9.89175 22.1485C11.5062 22.2297 12.8717 23.5546 14.734 23.5546C16.389 23.638 18.0035 21.8579 19.7835 21.7329C21.5219 21.7329 22.8874 23.4296 24.4601 23.3901C26.2808 23.4296 27.6046 21.5267 29.1773 21.485C30.6678 21.485 32.0333 23.5974 33.4822 23.3901C35.2622 23.638 37.2474 21.7746 39.0274 21.5684V17.2646C37.2474 17.5542 35.4684 19.3748 33.73 19.1686C32.2395 19.3342 30.9157 17.224 29.4252 17.224C27.8525 17.2657 26.487 19.2103 24.708 19.1686C23.0936 19.2103 21.7698 17.5136 19.9897 17.4719C18.2097 17.6375 16.5963 19.3759 14.9402 19.2936C13.1195 19.2936 11.7124 17.9698 10.098 17.8865C8.5252 17.9698 7.0347 19.2936 5.42134 19.3759C3.7663 19.3353 2.48309 17.6386 0.0406011 17.6792L0 21.734Z" fill="white"/>
</g>
<defs>
<clipPath id="clip0_414_17103">
<rect width="200" height="41.5771" fill="white" transform="translate(0 0.0332031)"/>
</clipPath>
</defs>
</svg>
