<svg width="169" height="75" viewBox="0 0 169 75" fill="none" xmlns="http://www.w3.org/2000/svg">
<path d="M119.611 6.66444V9.39581H143.057C144.616 9.39581 146.966 9.39581 148.531 10.9549C150.096 12.5199 150.096 14.8645 150.096 16.4295V39.8753C150.096 41.4404 150.096 43.7849 148.531 45.344C146.966 46.909 144.616 46.909 143.057 46.909H131.75C129.798 46.909 127.251 46.909 126.276 44.7608C125.306 42.6067 126.665 40.6549 127.847 39.0958L143.08 18.8039H119.635L110.232 31.3004C108.661 33.395 107.305 35.21 107.305 37.5486C107.305 39.8932 108.566 41.5832 110.232 43.7968L112.577 46.921C114.922 50.0451 117.266 53.1692 120.372 54.7164C123.502 56.2695 127.216 56.2695 132.274 56.2695H142.45C148.317 56.2695 157.088 56.2695 162.979 50.414C168.835 44.5526 168.835 35.9538 168.835 32.8594V23.4573C168.835 20.3273 168.835 11.7344 162.979 5.90275C157.112 0.0353552 148.341 0.0532068 142.45 0.0472561L126.264 0.0383301C124.71 0.0383301 122.747 0.0383299 121.182 1.60337C119.629 3.1684 119.629 5.12023 119.629 6.68527" fill="white"/>
<path d="M91.6415 18.7444H114.849L86.8809 56.2338H63.0781L91.6415 18.7444Z" fill="white"/>
<path d="M0.00118728 25.4093C0.00118728 23.8502 0.00118735 21.8924 1.56622 20.3274C3.12531 18.7683 5.08904 18.7683 6.64812 18.7683H45.9228C50.9987 18.7683 54.7298 18.7683 57.8242 20.3274C60.9423 21.8984 63.2869 25.0225 65.6196 28.1228L67.9701 31.2469C69.6423 33.4665 70.9098 35.1565 70.9098 37.4952C70.9098 39.8398 69.5411 41.6547 67.9701 43.7434L58.568 56.2399H35.1222L50.356 35.948C51.5283 34.383 52.9029 32.4371 51.9211 30.2829C50.9511 28.1407 48.4102 28.1407 46.4583 28.1407H28.0707V75.0322H9.32594V28.1407H-0.0761719V25.4033" fill="white"/>
</svg>
