<svg width="16" height="24394" viewBox="0 0 16 24394" fill="none" xmlns="http://www.w3.org/2000/svg">
<g clip-path="url(#clip0_2_238)">
<path d="M8 1.03223C8.00001 125.609 8.00001 195.455 8.00001 320.032" stroke="#050C1A" stroke-opacity="0.2"/>
<path d="M8 0.0322266C8.00001 125.391 8.00001 195.674 8.00001 321.032" stroke="#050C1A" stroke-opacity="0.2" stroke-width="4" stroke-miterlimit="1.41421" stroke-dasharray="1 4"/>
<path d="M8 0.0322266C8.00001 125.391 8.00001 195.674 8.00001 321.032" stroke="#050C1A" stroke-opacity="0.2" stroke-width="8" stroke-miterlimit="1.41421" stroke-dasharray="1 19"/>
<path d="M8 322.032C8.00001 446.609 8.00001 516.455 8.00001 641.032" stroke="#050C1A" stroke-opacity="0.2"/>
<path d="M8 321.032C8.00001 446.391 8.00001 516.674 8.00001 642.032" stroke="#050C1A" stroke-opacity="0.2" stroke-width="4" stroke-miterlimit="1.41421" stroke-dasharray="1 4"/>
<path d="M8 321.032C8.00001 446.391 8.00001 516.674 8.00001 642.032" stroke="#050C1A" stroke-opacity="0.2" stroke-width="8" stroke-miterlimit="1.41421" stroke-dasharray="1 19"/>
<path d="M8 643.032C8.00001 767.609 8.00001 837.455 8.00001 962.032" stroke="#050C1A" stroke-opacity="0.2"/>
<path d="M8 642.032C8.00001 767.391 8.00001 837.674 8.00001 963.032" stroke="#050C1A" stroke-opacity="0.2" stroke-width="4" stroke-miterlimit="1.41421" stroke-dasharray="1 4"/>
<path d="M8 642.032C8.00001 767.391 8.00001 837.674 8.00001 963.032" stroke="#050C1A" stroke-opacity="0.2" stroke-width="8" stroke-miterlimit="1.41421" stroke-dasharray="1 19"/>
<path d="M8 964.032C8.00001 1088.61 8.00001 1158.45 8.00001 1283.03" stroke="#050C1A" stroke-opacity="0.2"/>
<path d="M8 963.032C8.00001 1088.39 8.00001 1158.67 8.00001 1284.03" stroke="#050C1A" stroke-opacity="0.2" stroke-width="4" stroke-miterlimit="1.41421" stroke-dasharray="1 4"/>
<path d="M8 963.032C8.00001 1088.39 8.00001 1158.67 8.00001 1284.03" stroke="#050C1A" stroke-opacity="0.2" stroke-width="8" stroke-miterlimit="1.41421" stroke-dasharray="1 19"/>
<path d="M8 1285.03C8.00001 1409.61 8.00001 1479.45 8.00001 1604.03" stroke="#050C1A" stroke-opacity="0.2"/>
<path d="M8 1284.03C8.00001 1409.39 8.00001 1479.67 8.00001 1605.03" stroke="#050C1A" stroke-opacity="0.2" stroke-width="4" stroke-miterlimit="1.41421" stroke-dasharray="1 4"/>
<path d="M8 1284.03C8.00001 1409.39 8.00001 1479.67 8.00001 1605.03" stroke="#050C1A" stroke-opacity="0.2" stroke-width="8" stroke-miterlimit="1.41421" stroke-dasharray="1 19"/>
<path d="M8 1606.03C8.00001 1730.61 8.00001 1800.45 8.00001 1925.03" stroke="#050C1A" stroke-opacity="0.2"/>
<path d="M8 1605.03C8.00001 1730.39 8.00001 1800.67 8.00001 1926.03" stroke="#050C1A" stroke-opacity="0.2" stroke-width="4" stroke-miterlimit="1.41421" stroke-dasharray="1 4"/>
<path d="M8 1605.03C8.00001 1730.39 8.00001 1800.67 8.00001 1926.03" stroke="#050C1A" stroke-opacity="0.2" stroke-width="8" stroke-miterlimit="1.41421" stroke-dasharray="1 19"/>
<path d="M8 1927.03C8.00001 2051.61 8.00001 2121.45 8.00001 2246.03" stroke="#050C1A" stroke-opacity="0.2"/>
<path d="M8 1926.03C8.00001 2051.39 8.00001 2121.67 8.00001 2247.03" stroke="#050C1A" stroke-opacity="0.2" stroke-width="4" stroke-miterlimit="1.41421" stroke-dasharray="1 4"/>
<path d="M8 1926.03C8.00001 2051.39 8.00001 2121.67 8.00001 2247.03" stroke="#050C1A" stroke-opacity="0.2" stroke-width="8" stroke-miterlimit="1.41421" stroke-dasharray="1 19"/>
<path d="M8 2248.03C8.00001 2372.61 8.00001 2442.45 8.00001 2567.03" stroke="#050C1A" stroke-opacity="0.2"/>
<path d="M8 2247.03C8.00001 2372.39 8.00001 2442.67 8.00001 2568.03" stroke="#050C1A" stroke-opacity="0.2" stroke-width="4" stroke-miterlimit="1.41421" stroke-dasharray="1 4"/>
<path d="M8 2247.03C8.00001 2372.39 8.00001 2442.67 8.00001 2568.03" stroke="#050C1A" stroke-opacity="0.2" stroke-width="8" stroke-miterlimit="1.41421" stroke-dasharray="1 19"/>
<path d="M8 2569.03C8.00001 2693.61 8.00001 2763.45 8.00001 2888.03" stroke="#050C1A" stroke-opacity="0.2"/>
<path d="M8 2568.03C8.00001 2693.39 8.00001 2763.67 8.00001 2889.03" stroke="#050C1A" stroke-opacity="0.2" stroke-width="4" stroke-miterlimit="1.41421" stroke-dasharray="1 4"/>
<path d="M8 2568.03C8.00001 2693.39 8.00001 2763.67 8.00001 2889.03" stroke="#050C1A" stroke-opacity="0.2" stroke-width="8" stroke-miterlimit="1.41421" stroke-dasharray="1 19"/>
<path d="M8 2890.03C8.00001 3014.61 8.00001 3084.45 8.00001 3209.03" stroke="#050C1A" stroke-opacity="0.2"/>
<path d="M8 2889.03C8.00001 3014.39 8.00001 3084.67 8.00001 3210.03" stroke="#050C1A" stroke-opacity="0.2" stroke-width="4" stroke-miterlimit="1.41421" stroke-dasharray="1 4"/>
<path d="M8 2889.03C8.00001 3014.39 8.00001 3084.67 8.00001 3210.03" stroke="#050C1A" stroke-opacity="0.2" stroke-width="8" stroke-miterlimit="1.41421" stroke-dasharray="1 19"/>
<path d="M8 3211.03C8.00001 3335.61 8.00001 3405.45 8.00001 3530.03" stroke="#050C1A" stroke-opacity="0.2"/>
<path d="M8 3210.03C8.00001 3335.39 8.00001 3405.67 8.00001 3531.03" stroke="#050C1A" stroke-opacity="0.2" stroke-width="4" stroke-miterlimit="1.41421" stroke-dasharray="1 4"/>
<path d="M8 3210.03C8.00001 3335.39 8.00001 3405.67 8.00001 3531.03" stroke="#050C1A" stroke-opacity="0.2" stroke-width="8" stroke-miterlimit="1.41421" stroke-dasharray="1 19"/>
<path d="M8 3532.03C8.00001 3656.61 8.00001 3726.45 8.00001 3851.03" stroke="#050C1A" stroke-opacity="0.2"/>
<path d="M8 3531.03C8.00001 3656.39 8.00001 3726.67 8.00001 3852.03" stroke="#050C1A" stroke-opacity="0.2" stroke-width="4" stroke-miterlimit="1.41421" stroke-dasharray="1 4"/>
<path d="M8 3531.03C8.00001 3656.39 8.00001 3726.67 8.00001 3852.03" stroke="#050C1A" stroke-opacity="0.2" stroke-width="8" stroke-miterlimit="1.41421" stroke-dasharray="1 19"/>
<path d="M8 3853.03C8.00001 3977.61 8.00001 4047.45 8.00001 4172.03" stroke="#050C1A" stroke-opacity="0.2"/>
<path d="M8 3852.03C8.00001 3977.39 8.00001 4047.67 8.00001 4173.03" stroke="#050C1A" stroke-opacity="0.2" stroke-width="4" stroke-miterlimit="1.41421" stroke-dasharray="1 4"/>
<path d="M8 3852.03C8.00001 3977.39 8.00001 4047.67 8.00001 4173.03" stroke="#050C1A" stroke-opacity="0.2" stroke-width="8" stroke-miterlimit="1.41421" stroke-dasharray="1 19"/>
<path d="M8 4174.03C8.00001 4298.61 8.00001 4368.45 8.00001 4493.03" stroke="#050C1A" stroke-opacity="0.2"/>
<path d="M8 4173.03C8.00001 4298.39 8.00001 4368.67 8.00001 4494.03" stroke="#050C1A" stroke-opacity="0.2" stroke-width="4" stroke-miterlimit="1.41421" stroke-dasharray="1 4"/>
<path d="M8 4173.03C8.00001 4298.39 8.00001 4368.67 8.00001 4494.03" stroke="#050C1A" stroke-opacity="0.2" stroke-width="8" stroke-miterlimit="1.41421" stroke-dasharray="1 19"/>
<path d="M8 4495.03C8.00001 4619.61 8.00001 4689.45 8.00001 4814.03" stroke="#050C1A" stroke-opacity="0.2"/>
<path d="M8 4494.03C8.00001 4619.39 8.00001 4689.67 8.00001 4815.03" stroke="#050C1A" stroke-opacity="0.2" stroke-width="4" stroke-miterlimit="1.41421" stroke-dasharray="1 4"/>
<path d="M8 4494.03C8.00001 4619.39 8.00001 4689.67 8.00001 4815.03" stroke="#050C1A" stroke-opacity="0.2" stroke-width="8" stroke-miterlimit="1.41421" stroke-dasharray="1 19"/>
<path d="M8 4816.03C8.00001 4940.61 8.00001 5010.45 8.00001 5135.03" stroke="#050C1A" stroke-opacity="0.2"/>
<path d="M8 4815.03C8.00001 4940.39 8.00001 5010.67 8.00001 5136.03" stroke="#050C1A" stroke-opacity="0.2" stroke-width="4" stroke-miterlimit="1.41421" stroke-dasharray="1 4"/>
<path d="M8 4815.03C8.00001 4940.39 8.00001 5010.67 8.00001 5136.03" stroke="#050C1A" stroke-opacity="0.2" stroke-width="8" stroke-miterlimit="1.41421" stroke-dasharray="1 19"/>
<path d="M8 5137.03C8.00001 5261.61 8.00001 5331.45 8.00001 5456.03" stroke="#050C1A" stroke-opacity="0.2"/>
<path d="M8 5136.03C8.00001 5261.39 8.00001 5331.67 8.00001 5457.03" stroke="#050C1A" stroke-opacity="0.2" stroke-width="4" stroke-miterlimit="1.41421" stroke-dasharray="1 4"/>
<path d="M8 5136.03C8.00001 5261.39 8.00001 5331.67 8.00001 5457.03" stroke="#050C1A" stroke-opacity="0.2" stroke-width="8" stroke-miterlimit="1.41421" stroke-dasharray="1 19"/>
<path d="M8 5458.03C8.00001 5582.61 8.00001 5652.45 8.00001 5777.03" stroke="#050C1A" stroke-opacity="0.2"/>
<path d="M8 5457.03C8.00001 5582.39 8.00001 5652.67 8.00001 5778.03" stroke="#050C1A" stroke-opacity="0.2" stroke-width="4" stroke-miterlimit="1.41421" stroke-dasharray="1 4"/>
<path d="M8 5457.03C8.00001 5582.39 8.00001 5652.67 8.00001 5778.03" stroke="#050C1A" stroke-opacity="0.2" stroke-width="8" stroke-miterlimit="1.41421" stroke-dasharray="1 19"/>
<path d="M8 5779.03C8.00001 5903.61 8.00001 5973.45 8.00001 6098.03" stroke="#050C1A" stroke-opacity="0.2"/>
<path d="M8 5778.03C8.00001 5903.39 8.00001 5973.67 8.00001 6099.03" stroke="#050C1A" stroke-opacity="0.2" stroke-width="4" stroke-miterlimit="1.41421" stroke-dasharray="1 4"/>
<path d="M8 5778.03C8.00001 5903.39 8.00001 5973.67 8.00001 6099.03" stroke="#050C1A" stroke-opacity="0.2" stroke-width="8" stroke-miterlimit="1.41421" stroke-dasharray="1 19"/>
</g>
<path d="M8 6099.03C7.99999 6223.61 7.99999 6293.46 7.99999 6418.03" stroke="#050C1A" stroke-opacity="0.2"/>
<path d="M8 6098.03C7.99999 6223.39 7.99999 6293.67 7.99999 6419.03" stroke="#050C1A" stroke-opacity="0.2" stroke-width="4" stroke-miterlimit="1.41421" stroke-dasharray="1 4"/>
<path d="M8 6098.03C7.99999 6223.39 7.99999 6293.67 7.99999 6419.03" stroke="#050C1A" stroke-opacity="0.2" stroke-width="8" stroke-miterlimit="1.41421" stroke-dasharray="1 19"/>
<path d="M8 6420.03C7.99999 6544.61 7.99999 6614.45 7.99999 6739.03" stroke="#050C1A" stroke-opacity="0.2"/>
<path d="M8 6419.03C7.99999 6544.39 7.99999 6614.67 7.99999 6740.03" stroke="#050C1A" stroke-opacity="0.2" stroke-width="4" stroke-miterlimit="1.41421" stroke-dasharray="1 4"/>
<path d="M8 6419.03C7.99999 6544.39 7.99999 6614.67 7.99999 6740.03" stroke="#050C1A" stroke-opacity="0.2" stroke-width="8" stroke-miterlimit="1.41421" stroke-dasharray="1 19"/>
<path d="M8 6741.03C7.99999 6865.61 7.99999 6935.46 7.99999 7060.03" stroke="#050C1A" stroke-opacity="0.2"/>
<path d="M8 6740.03C7.99999 6865.39 7.99999 6935.67 7.99999 7061.03" stroke="#050C1A" stroke-opacity="0.2" stroke-width="4" stroke-miterlimit="1.41421" stroke-dasharray="1 4"/>
<path d="M8 6740.03C7.99999 6865.39 7.99999 6935.67 7.99999 7061.03" stroke="#050C1A" stroke-opacity="0.2" stroke-width="8" stroke-miterlimit="1.41421" stroke-dasharray="1 19"/>
<path d="M8 7062.03C7.99999 7186.61 7.99999 7256.45 7.99999 7381.03" stroke="#050C1A" stroke-opacity="0.2"/>
<path d="M8 7061.03C7.99999 7186.39 7.99999 7256.67 7.99999 7382.03" stroke="#050C1A" stroke-opacity="0.2" stroke-width="4" stroke-miterlimit="1.41421" stroke-dasharray="1 4"/>
<path d="M8 7061.03C7.99999 7186.39 7.99999 7256.67 7.99999 7382.03" stroke="#050C1A" stroke-opacity="0.2" stroke-width="8" stroke-miterlimit="1.41421" stroke-dasharray="1 19"/>
<path d="M8 7383.03C7.99999 7507.61 7.99999 7577.45 7.99999 7702.03" stroke="#050C1A" stroke-opacity="0.2"/>
<path d="M8 7382.03C7.99999 7507.39 7.99999 7577.67 7.99999 7703.03" stroke="#050C1A" stroke-opacity="0.2" stroke-width="4" stroke-miterlimit="1.41421" stroke-dasharray="1 4"/>
<path d="M8 7382.03C7.99999 7507.39 7.99999 7577.67 7.99999 7703.03" stroke="#050C1A" stroke-opacity="0.2" stroke-width="8" stroke-miterlimit="1.41421" stroke-dasharray="1 19"/>
<path d="M8 7704.03C7.99999 7828.61 7.99999 7898.45 7.99999 8023.03" stroke="#050C1A" stroke-opacity="0.2"/>
<path d="M8 7703.03C7.99999 7828.39 7.99999 7898.67 7.99999 8024.03" stroke="#050C1A" stroke-opacity="0.2" stroke-width="4" stroke-miterlimit="1.41421" stroke-dasharray="1 4"/>
<path d="M8 7703.03C7.99999 7828.39 7.99999 7898.67 7.99999 8024.03" stroke="#050C1A" stroke-opacity="0.2" stroke-width="8" stroke-miterlimit="1.41421" stroke-dasharray="1 19"/>
<path d="M8 8025.03C7.99999 8149.61 7.99999 8219.45 7.99999 8344.03" stroke="#050C1A" stroke-opacity="0.2"/>
<path d="M8 8024.03C7.99999 8149.39 7.99999 8219.67 7.99999 8345.03" stroke="#050C1A" stroke-opacity="0.2" stroke-width="4" stroke-miterlimit="1.41421" stroke-dasharray="1 4"/>
<path d="M8 8024.03C7.99999 8149.39 7.99999 8219.67 7.99999 8345.03" stroke="#050C1A" stroke-opacity="0.2" stroke-width="8" stroke-miterlimit="1.41421" stroke-dasharray="1 19"/>
<path d="M8 8346.03C7.99999 8470.61 7.99999 8540.45 7.99999 8665.03" stroke="#050C1A" stroke-opacity="0.2"/>
<path d="M8 8345.03C7.99999 8470.39 7.99999 8540.67 7.99999 8666.03" stroke="#050C1A" stroke-opacity="0.2" stroke-width="4" stroke-miterlimit="1.41421" stroke-dasharray="1 4"/>
<path d="M8 8345.03C7.99999 8470.39 7.99999 8540.67 7.99999 8666.03" stroke="#050C1A" stroke-opacity="0.2" stroke-width="8" stroke-miterlimit="1.41421" stroke-dasharray="1 19"/>
<path d="M8 8667.03C7.99999 8791.61 7.99999 8861.45 7.99999 8986.03" stroke="#050C1A" stroke-opacity="0.2"/>
<path d="M8 8666.03C7.99999 8791.39 7.99999 8861.67 7.99999 8987.03" stroke="#050C1A" stroke-opacity="0.2" stroke-width="4" stroke-miterlimit="1.41421" stroke-dasharray="1 4"/>
<path d="M8 8666.03C7.99999 8791.39 7.99999 8861.67 7.99999 8987.03" stroke="#050C1A" stroke-opacity="0.2" stroke-width="8" stroke-miterlimit="1.41421" stroke-dasharray="1 19"/>
<path d="M8 8988.03C7.99999 9112.61 7.99999 9182.45 7.99999 9307.03" stroke="#050C1A" stroke-opacity="0.2"/>
<path d="M8 8987.03C7.99999 9112.39 7.99999 9182.67 7.99999 9308.03" stroke="#050C1A" stroke-opacity="0.2" stroke-width="4" stroke-miterlimit="1.41421" stroke-dasharray="1 4"/>
<path d="M8 8987.03C7.99999 9112.39 7.99999 9182.67 7.99999 9308.03" stroke="#050C1A" stroke-opacity="0.2" stroke-width="8" stroke-miterlimit="1.41421" stroke-dasharray="1 19"/>
<path d="M8 9309.03C7.99999 9433.61 7.99999 9503.45 7.99999 9628.03" stroke="#050C1A" stroke-opacity="0.2"/>
<path d="M8 9308.03C7.99999 9433.39 7.99999 9503.67 7.99999 9629.03" stroke="#050C1A" stroke-opacity="0.2" stroke-width="4" stroke-miterlimit="1.41421" stroke-dasharray="1 4"/>
<path d="M8 9308.03C7.99999 9433.39 7.99999 9503.67 7.99999 9629.03" stroke="#050C1A" stroke-opacity="0.2" stroke-width="8" stroke-miterlimit="1.41421" stroke-dasharray="1 19"/>
<path d="M8 9630.03C7.99999 9754.61 7.99999 9824.45 7.99999 9949.03" stroke="#050C1A" stroke-opacity="0.2"/>
<path d="M8 9629.03C7.99999 9754.39 7.99999 9824.67 7.99999 9950.03" stroke="#050C1A" stroke-opacity="0.2" stroke-width="4" stroke-miterlimit="1.41421" stroke-dasharray="1 4"/>
<path d="M8 9629.03C7.99999 9754.39 7.99999 9824.67 7.99999 9950.03" stroke="#050C1A" stroke-opacity="0.2" stroke-width="8" stroke-miterlimit="1.41421" stroke-dasharray="1 19"/>
<path d="M8 9951.03C7.99999 10075.6 7.99999 10145.5 7.99999 10270" stroke="#050C1A" stroke-opacity="0.2"/>
<path d="M8 9950.03C7.99999 10075.4 7.99999 10145.7 7.99999 10271" stroke="#050C1A" stroke-opacity="0.2" stroke-width="4" stroke-miterlimit="1.41421" stroke-dasharray="1 4"/>
<path d="M8 9950.03C7.99999 10075.4 7.99999 10145.7 7.99999 10271" stroke="#050C1A" stroke-opacity="0.2" stroke-width="8" stroke-miterlimit="1.41421" stroke-dasharray="1 19"/>
<path d="M8 10272C7.99999 10396.6 7.99999 10466.4 7.99999 10591" stroke="#050C1A" stroke-opacity="0.2"/>
<path d="M8 10271C7.99999 10396.4 7.99999 10466.7 7.99999 10592" stroke="#050C1A" stroke-opacity="0.2" stroke-width="4" stroke-miterlimit="1.41421" stroke-dasharray="1 4"/>
<path d="M8 10271C7.99999 10396.4 7.99999 10466.7 7.99999 10592" stroke="#050C1A" stroke-opacity="0.2" stroke-width="8" stroke-miterlimit="1.41421" stroke-dasharray="1 19"/>
<path d="M8 10593C7.99999 10717.6 7.99999 10787.4 7.99999 10912" stroke="#050C1A" stroke-opacity="0.2"/>
<path d="M8 10592C7.99999 10717.4 7.99999 10787.7 7.99999 10913" stroke="#050C1A" stroke-opacity="0.2" stroke-width="4" stroke-miterlimit="1.41421" stroke-dasharray="1 4"/>
<path d="M8 10592C7.99999 10717.4 7.99999 10787.7 7.99999 10913" stroke="#050C1A" stroke-opacity="0.2" stroke-width="8" stroke-miterlimit="1.41421" stroke-dasharray="1 19"/>
<path d="M8 10914C7.99999 11038.6 7.99999 11108.4 7.99999 11233" stroke="#050C1A" stroke-opacity="0.2"/>
<path d="M8 10913C7.99999 11038.4 7.99999 11108.7 7.99999 11234" stroke="#050C1A" stroke-opacity="0.2" stroke-width="4" stroke-miterlimit="1.41421" stroke-dasharray="1 4"/>
<path d="M8 10913C7.99999 11038.4 7.99999 11108.7 7.99999 11234" stroke="#050C1A" stroke-opacity="0.2" stroke-width="8" stroke-miterlimit="1.41421" stroke-dasharray="1 19"/>
<path d="M8 11235C7.99999 11359.6 7.99999 11429.4 7.99999 11554" stroke="#050C1A" stroke-opacity="0.2"/>
<path d="M8 11234C7.99999 11359.4 7.99999 11429.7 7.99999 11555" stroke="#050C1A" stroke-opacity="0.2" stroke-width="4" stroke-miterlimit="1.41421" stroke-dasharray="1 4"/>
<path d="M8 11234C7.99999 11359.4 7.99999 11429.7 7.99999 11555" stroke="#050C1A" stroke-opacity="0.2" stroke-width="8" stroke-miterlimit="1.41421" stroke-dasharray="1 19"/>
<path d="M8 11556C7.99999 11680.6 7.99999 11750.4 7.99999 11875" stroke="#050C1A" stroke-opacity="0.2"/>
<path d="M8 11555C7.99999 11680.4 7.99999 11750.7 7.99999 11876" stroke="#050C1A" stroke-opacity="0.2" stroke-width="4" stroke-miterlimit="1.41421" stroke-dasharray="1 4"/>
<path d="M8 11555C7.99999 11680.4 7.99999 11750.7 7.99999 11876" stroke="#050C1A" stroke-opacity="0.2" stroke-width="8" stroke-miterlimit="1.41421" stroke-dasharray="1 19"/>
<path d="M8 11877C7.99999 12001.6 7.99999 12071.4 7.99999 12196" stroke="#050C1A" stroke-opacity="0.2"/>
<path d="M8 11876C7.99999 12001.4 7.99999 12071.7 7.99999 12197" stroke="#050C1A" stroke-opacity="0.2" stroke-width="4" stroke-miterlimit="1.41421" stroke-dasharray="1 4"/>
<path d="M8 11876C7.99999 12001.4 7.99999 12071.7 7.99999 12197" stroke="#050C1A" stroke-opacity="0.2" stroke-width="8" stroke-miterlimit="1.41421" stroke-dasharray="1 19"/>
<path d="M8 12197C7.99999 12321.6 7.99999 12391.5 7.99999 12516" stroke="#050C1A" stroke-opacity="0.2"/>
<path d="M8 12196C7.99999 12321.4 7.99999 12391.7 7.99999 12517" stroke="#050C1A" stroke-opacity="0.2" stroke-width="4" stroke-miterlimit="1.41421" stroke-dasharray="1 4"/>
<path d="M8 12196C7.99999 12321.4 7.99999 12391.7 7.99999 12517" stroke="#050C1A" stroke-opacity="0.2" stroke-width="8" stroke-miterlimit="1.41421" stroke-dasharray="1 19"/>
<path d="M8 12518C7.99999 12642.6 7.99999 12712.5 7.99999 12837" stroke="#050C1A" stroke-opacity="0.2"/>
<path d="M8 12517C7.99999 12642.4 7.99999 12712.7 7.99999 12838" stroke="#050C1A" stroke-opacity="0.2" stroke-width="4" stroke-miterlimit="1.41421" stroke-dasharray="1 4"/>
<path d="M8 12517C7.99999 12642.4 7.99999 12712.7 7.99999 12838" stroke="#050C1A" stroke-opacity="0.2" stroke-width="8" stroke-miterlimit="1.41421" stroke-dasharray="1 19"/>
<path d="M8 12839C7.99999 12963.6 7.99999 13033.5 7.99999 13158" stroke="#050C1A" stroke-opacity="0.2"/>
<path d="M8 12838C7.99999 12963.4 7.99999 13033.7 7.99999 13159" stroke="#050C1A" stroke-opacity="0.2" stroke-width="4" stroke-miterlimit="1.41421" stroke-dasharray="1 4"/>
<path d="M8 12838C7.99999 12963.4 7.99999 13033.7 7.99999 13159" stroke="#050C1A" stroke-opacity="0.2" stroke-width="8" stroke-miterlimit="1.41421" stroke-dasharray="1 19"/>
<path d="M8 13160C7.99999 13284.6 7.99999 13354.5 7.99999 13479" stroke="#050C1A" stroke-opacity="0.2"/>
<path d="M8 13159C7.99999 13284.4 7.99999 13354.7 7.99999 13480" stroke="#050C1A" stroke-opacity="0.2" stroke-width="4" stroke-miterlimit="1.41421" stroke-dasharray="1 4"/>
<path d="M8 13159C7.99999 13284.4 7.99999 13354.7 7.99999 13480" stroke="#050C1A" stroke-opacity="0.2" stroke-width="8" stroke-miterlimit="1.41421" stroke-dasharray="1 19"/>
<path d="M8 13481C7.99999 13605.6 7.99999 13675.5 7.99999 13800" stroke="#050C1A" stroke-opacity="0.2"/>
<path d="M8 13480C7.99999 13605.4 7.99999 13675.7 7.99999 13801" stroke="#050C1A" stroke-opacity="0.2" stroke-width="4" stroke-miterlimit="1.41421" stroke-dasharray="1 4"/>
<path d="M8 13480C7.99999 13605.4 7.99999 13675.7 7.99999 13801" stroke="#050C1A" stroke-opacity="0.2" stroke-width="8" stroke-miterlimit="1.41421" stroke-dasharray="1 19"/>
<path d="M8 13802C7.99999 13926.6 7.99999 13996.5 7.99999 14121" stroke="#050C1A" stroke-opacity="0.2"/>
<path d="M8 13801C7.99999 13926.4 7.99999 13996.7 7.99999 14122" stroke="#050C1A" stroke-opacity="0.2" stroke-width="4" stroke-miterlimit="1.41421" stroke-dasharray="1 4"/>
<path d="M8 13801C7.99999 13926.4 7.99999 13996.7 7.99999 14122" stroke="#050C1A" stroke-opacity="0.2" stroke-width="8" stroke-miterlimit="1.41421" stroke-dasharray="1 19"/>
<path d="M8 14123C7.99999 14247.6 7.99999 14317.5 7.99999 14442" stroke="#050C1A" stroke-opacity="0.2"/>
<path d="M8 14122C7.99999 14247.4 7.99999 14317.7 7.99999 14443" stroke="#050C1A" stroke-opacity="0.2" stroke-width="4" stroke-miterlimit="1.41421" stroke-dasharray="1 4"/>
<path d="M8 14122C7.99999 14247.4 7.99999 14317.7 7.99999 14443" stroke="#050C1A" stroke-opacity="0.2" stroke-width="8" stroke-miterlimit="1.41421" stroke-dasharray="1 19"/>
<path d="M8 14444C7.99999 14568.6 7.99999 14638.5 7.99999 14763" stroke="#050C1A" stroke-opacity="0.2"/>
<path d="M8 14443C7.99999 14568.4 7.99999 14638.7 7.99999 14764" stroke="#050C1A" stroke-opacity="0.2" stroke-width="4" stroke-miterlimit="1.41421" stroke-dasharray="1 4"/>
<path d="M8 14443C7.99999 14568.4 7.99999 14638.7 7.99999 14764" stroke="#050C1A" stroke-opacity="0.2" stroke-width="8" stroke-miterlimit="1.41421" stroke-dasharray="1 19"/>
<path d="M8 14765C7.99999 14889.6 7.99999 14959.5 7.99999 15084" stroke="#050C1A" stroke-opacity="0.2"/>
<path d="M8 14764C7.99999 14889.4 7.99999 14959.7 7.99999 15085" stroke="#050C1A" stroke-opacity="0.2" stroke-width="4" stroke-miterlimit="1.41421" stroke-dasharray="1 4"/>
<path d="M8 14764C7.99999 14889.4 7.99999 14959.7 7.99999 15085" stroke="#050C1A" stroke-opacity="0.2" stroke-width="8" stroke-miterlimit="1.41421" stroke-dasharray="1 19"/>
<path d="M8 15086C7.99999 15210.6 7.99999 15280.5 7.99999 15405" stroke="#050C1A" stroke-opacity="0.2"/>
<path d="M8 15085C7.99999 15210.4 7.99999 15280.7 7.99999 15406" stroke="#050C1A" stroke-opacity="0.2" stroke-width="4" stroke-miterlimit="1.41421" stroke-dasharray="1 4"/>
<path d="M8 15085C7.99999 15210.4 7.99999 15280.7 7.99999 15406" stroke="#050C1A" stroke-opacity="0.2" stroke-width="8" stroke-miterlimit="1.41421" stroke-dasharray="1 19"/>
<path d="M8 15407C7.99999 15531.6 7.99999 15601.5 7.99999 15726" stroke="#050C1A" stroke-opacity="0.2"/>
<path d="M8 15406C7.99999 15531.4 7.99999 15601.7 7.99999 15727" stroke="#050C1A" stroke-opacity="0.2" stroke-width="4" stroke-miterlimit="1.41421" stroke-dasharray="1 4"/>
<path d="M8 15406C7.99999 15531.4 7.99999 15601.7 7.99999 15727" stroke="#050C1A" stroke-opacity="0.2" stroke-width="8" stroke-miterlimit="1.41421" stroke-dasharray="1 19"/>
<path d="M8 15728C7.99999 15852.6 7.99999 15922.5 7.99999 16047" stroke="#050C1A" stroke-opacity="0.2"/>
<path d="M8 15727C7.99999 15852.4 7.99999 15922.7 7.99999 16048" stroke="#050C1A" stroke-opacity="0.2" stroke-width="4" stroke-miterlimit="1.41421" stroke-dasharray="1 4"/>
<path d="M8 15727C7.99999 15852.4 7.99999 15922.7 7.99999 16048" stroke="#050C1A" stroke-opacity="0.2" stroke-width="8" stroke-miterlimit="1.41421" stroke-dasharray="1 19"/>
<path d="M8 16049C7.99999 16173.6 7.99999 16243.5 7.99999 16368" stroke="#050C1A" stroke-opacity="0.2"/>
<path d="M8 16048C7.99999 16173.4 7.99999 16243.7 7.99999 16369" stroke="#050C1A" stroke-opacity="0.2" stroke-width="4" stroke-miterlimit="1.41421" stroke-dasharray="1 4"/>
<path d="M8 16048C7.99999 16173.4 7.99999 16243.7 7.99999 16369" stroke="#050C1A" stroke-opacity="0.2" stroke-width="8" stroke-miterlimit="1.41421" stroke-dasharray="1 19"/>
<path d="M8 16370C7.99999 16494.6 7.99999 16564.4 7.99999 16689" stroke="#050C1A" stroke-opacity="0.2"/>
<path d="M8 16369C7.99999 16494.4 7.99999 16564.7 7.99999 16690" stroke="#050C1A" stroke-opacity="0.2" stroke-width="4" stroke-miterlimit="1.41421" stroke-dasharray="1 4"/>
<path d="M8 16369C7.99999 16494.4 7.99999 16564.7 7.99999 16690" stroke="#050C1A" stroke-opacity="0.2" stroke-width="8" stroke-miterlimit="1.41421" stroke-dasharray="1 19"/>
<path d="M8 16691C7.99999 16815.6 7.99999 16885.4 7.99999 17010" stroke="#050C1A" stroke-opacity="0.2"/>
<path d="M8 16690C7.99999 16815.4 7.99999 16885.7 7.99999 17011" stroke="#050C1A" stroke-opacity="0.2" stroke-width="4" stroke-miterlimit="1.41421" stroke-dasharray="1 4"/>
<path d="M8 16690C7.99999 16815.4 7.99999 16885.7 7.99999 17011" stroke="#050C1A" stroke-opacity="0.2" stroke-width="8" stroke-miterlimit="1.41421" stroke-dasharray="1 19"/>
<path d="M8 17012C7.99999 17136.6 7.99999 17206.4 7.99999 17331" stroke="#050C1A" stroke-opacity="0.2"/>
<path d="M8 17011C7.99999 17136.4 7.99999 17206.7 7.99999 17332" stroke="#050C1A" stroke-opacity="0.2" stroke-width="4" stroke-miterlimit="1.41421" stroke-dasharray="1 4"/>
<path d="M8 17011C7.99999 17136.4 7.99999 17206.7 7.99999 17332" stroke="#050C1A" stroke-opacity="0.2" stroke-width="8" stroke-miterlimit="1.41421" stroke-dasharray="1 19"/>
<path d="M8 17333C7.99999 17457.6 7.99999 17527.4 7.99999 17652" stroke="#050C1A" stroke-opacity="0.2"/>
<path d="M8 17332C7.99999 17457.4 7.99999 17527.7 7.99999 17653" stroke="#050C1A" stroke-opacity="0.2" stroke-width="4" stroke-miterlimit="1.41421" stroke-dasharray="1 4"/>
<path d="M8 17332C7.99999 17457.4 7.99999 17527.7 7.99999 17653" stroke="#050C1A" stroke-opacity="0.2" stroke-width="8" stroke-miterlimit="1.41421" stroke-dasharray="1 19"/>
<path d="M8 17654C7.99999 17778.6 7.99999 17848.4 7.99999 17973" stroke="#050C1A" stroke-opacity="0.2"/>
<path d="M8 17653C7.99999 17778.4 7.99999 17848.7 7.99999 17974" stroke="#050C1A" stroke-opacity="0.2" stroke-width="4" stroke-miterlimit="1.41421" stroke-dasharray="1 4"/>
<path d="M8 17653C7.99999 17778.4 7.99999 17848.7 7.99999 17974" stroke="#050C1A" stroke-opacity="0.2" stroke-width="8" stroke-miterlimit="1.41421" stroke-dasharray="1 19"/>
<path d="M8 17975C7.99999 18099.6 7.99999 18169.4 7.99999 18294" stroke="#050C1A" stroke-opacity="0.2"/>
<path d="M8 17974C7.99999 18099.4 7.99999 18169.7 7.99999 18295" stroke="#050C1A" stroke-opacity="0.2" stroke-width="4" stroke-miterlimit="1.41421" stroke-dasharray="1 4"/>
<path d="M8 17974C7.99999 18099.4 7.99999 18169.7 7.99999 18295" stroke="#050C1A" stroke-opacity="0.2" stroke-width="8" stroke-miterlimit="1.41421" stroke-dasharray="1 19"/>
<path d="M8 18295C7.99999 18419.6 7.99999 18489.5 7.99999 18614" stroke="#050C1A" stroke-opacity="0.2"/>
<path d="M8 18294C7.99999 18419.4 7.99999 18489.7 7.99999 18615" stroke="#050C1A" stroke-opacity="0.2" stroke-width="4" stroke-miterlimit="1.41421" stroke-dasharray="1 4"/>
<path d="M8 18294C7.99999 18419.4 7.99999 18489.7 7.99999 18615" stroke="#050C1A" stroke-opacity="0.2" stroke-width="8" stroke-miterlimit="1.41421" stroke-dasharray="1 19"/>
<path d="M8 18616C7.99999 18740.6 7.99999 18810.5 7.99999 18935" stroke="#050C1A" stroke-opacity="0.2"/>
<path d="M8 18615C7.99999 18740.4 7.99999 18810.7 7.99999 18936" stroke="#050C1A" stroke-opacity="0.2" stroke-width="4" stroke-miterlimit="1.41421" stroke-dasharray="1 4"/>
<path d="M8 18615C7.99999 18740.4 7.99999 18810.7 7.99999 18936" stroke="#050C1A" stroke-opacity="0.2" stroke-width="8" stroke-miterlimit="1.41421" stroke-dasharray="1 19"/>
<path d="M8 18937C7.99999 19061.6 7.99999 19131.5 7.99999 19256" stroke="#050C1A" stroke-opacity="0.2"/>
<path d="M8 18936C7.99999 19061.4 7.99999 19131.7 7.99999 19257" stroke="#050C1A" stroke-opacity="0.2" stroke-width="4" stroke-miterlimit="1.41421" stroke-dasharray="1 4"/>
<path d="M8 18936C7.99999 19061.4 7.99999 19131.7 7.99999 19257" stroke="#050C1A" stroke-opacity="0.2" stroke-width="8" stroke-miterlimit="1.41421" stroke-dasharray="1 19"/>
<path d="M8 19258C7.99999 19382.6 7.99999 19452.4 7.99999 19577" stroke="#050C1A" stroke-opacity="0.2"/>
<path d="M8 19257C7.99999 19382.4 7.99999 19452.7 7.99999 19578" stroke="#050C1A" stroke-opacity="0.2" stroke-width="4" stroke-miterlimit="1.41421" stroke-dasharray="1 4"/>
<path d="M8 19257C7.99999 19382.4 7.99999 19452.7 7.99999 19578" stroke="#050C1A" stroke-opacity="0.2" stroke-width="8" stroke-miterlimit="1.41421" stroke-dasharray="1 19"/>
<path d="M8 19579C7.99999 19703.6 7.99999 19773.4 7.99999 19898" stroke="#050C1A" stroke-opacity="0.2"/>
<path d="M8 19578C7.99999 19703.4 7.99999 19773.7 7.99999 19899" stroke="#050C1A" stroke-opacity="0.2" stroke-width="4" stroke-miterlimit="1.41421" stroke-dasharray="1 4"/>
<path d="M8 19578C7.99999 19703.4 7.99999 19773.7 7.99999 19899" stroke="#050C1A" stroke-opacity="0.2" stroke-width="8" stroke-miterlimit="1.41421" stroke-dasharray="1 19"/>
<path d="M8 19900C7.99999 20024.6 7.99999 20094.4 7.99999 20219" stroke="#050C1A" stroke-opacity="0.2"/>
<path d="M8 19899C7.99999 20024.4 7.99999 20094.7 7.99999 20220" stroke="#050C1A" stroke-opacity="0.2" stroke-width="4" stroke-miterlimit="1.41421" stroke-dasharray="1 4"/>
<path d="M8 19899C7.99999 20024.4 7.99999 20094.7 7.99999 20220" stroke="#050C1A" stroke-opacity="0.2" stroke-width="8" stroke-miterlimit="1.41421" stroke-dasharray="1 19"/>
<path d="M8 20221C7.99999 20345.6 7.99999 20415.4 7.99999 20540" stroke="#050C1A" stroke-opacity="0.2"/>
<path d="M8 20220C7.99999 20345.4 7.99999 20415.7 7.99999 20541" stroke="#050C1A" stroke-opacity="0.2" stroke-width="4" stroke-miterlimit="1.41421" stroke-dasharray="1 4"/>
<path d="M8 20220C7.99999 20345.4 7.99999 20415.7 7.99999 20541" stroke="#050C1A" stroke-opacity="0.2" stroke-width="8" stroke-miterlimit="1.41421" stroke-dasharray="1 19"/>
<path d="M8 20542C7.99999 20666.6 7.99999 20736.4 7.99999 20861" stroke="#050C1A" stroke-opacity="0.2"/>
<path d="M8 20541C7.99999 20666.4 7.99999 20736.7 7.99999 20862" stroke="#050C1A" stroke-opacity="0.2" stroke-width="4" stroke-miterlimit="1.41421" stroke-dasharray="1 4"/>
<path d="M8 20541C7.99999 20666.4 7.99999 20736.7 7.99999 20862" stroke="#050C1A" stroke-opacity="0.2" stroke-width="8" stroke-miterlimit="1.41421" stroke-dasharray="1 19"/>
<path d="M8 20863C7.99999 20987.6 7.99999 21057.4 7.99999 21182" stroke="#050C1A" stroke-opacity="0.2"/>
<path d="M8 20862C7.99999 20987.4 7.99999 21057.7 7.99999 21183" stroke="#050C1A" stroke-opacity="0.2" stroke-width="4" stroke-miterlimit="1.41421" stroke-dasharray="1 4"/>
<path d="M8 20862C7.99999 20987.4 7.99999 21057.7 7.99999 21183" stroke="#050C1A" stroke-opacity="0.2" stroke-width="8" stroke-miterlimit="1.41421" stroke-dasharray="1 19"/>
<path d="M8 21184C7.99999 21308.6 7.99999 21378.4 7.99999 21503" stroke="#050C1A" stroke-opacity="0.2"/>
<path d="M8 21183C7.99999 21308.4 7.99999 21378.7 7.99999 21504" stroke="#050C1A" stroke-opacity="0.2" stroke-width="4" stroke-miterlimit="1.41421" stroke-dasharray="1 4"/>
<path d="M8 21183C7.99999 21308.4 7.99999 21378.7 7.99999 21504" stroke="#050C1A" stroke-opacity="0.2" stroke-width="8" stroke-miterlimit="1.41421" stroke-dasharray="1 19"/>
<path d="M8 21505C7.99999 21629.6 7.99999 21699.4 7.99999 21824" stroke="#050C1A" stroke-opacity="0.2"/>
<path d="M8 21504C7.99999 21629.4 7.99999 21699.7 7.99999 21825" stroke="#050C1A" stroke-opacity="0.2" stroke-width="4" stroke-miterlimit="1.41421" stroke-dasharray="1 4"/>
<path d="M8 21504C7.99999 21629.4 7.99999 21699.7 7.99999 21825" stroke="#050C1A" stroke-opacity="0.2" stroke-width="8" stroke-miterlimit="1.41421" stroke-dasharray="1 19"/>
<path d="M8 21826C7.99999 21950.6 7.99999 22020.4 7.99999 22145" stroke="#050C1A" stroke-opacity="0.2"/>
<path d="M8 21825C7.99999 21950.4 7.99999 22020.7 7.99999 22146" stroke="#050C1A" stroke-opacity="0.2" stroke-width="4" stroke-miterlimit="1.41421" stroke-dasharray="1 4"/>
<path d="M8 21825C7.99999 21950.4 7.99999 22020.7 7.99999 22146" stroke="#050C1A" stroke-opacity="0.2" stroke-width="8" stroke-miterlimit="1.41421" stroke-dasharray="1 19"/>
<path d="M8 22147C7.99999 22271.6 7.99999 22341.4 7.99999 22466" stroke="#050C1A" stroke-opacity="0.2"/>
<path d="M8 22146C7.99999 22271.4 7.99999 22341.7 7.99999 22467" stroke="#050C1A" stroke-opacity="0.2" stroke-width="4" stroke-miterlimit="1.41421" stroke-dasharray="1 4"/>
<path d="M8 22146C7.99999 22271.4 7.99999 22341.7 7.99999 22467" stroke="#050C1A" stroke-opacity="0.2" stroke-width="8" stroke-miterlimit="1.41421" stroke-dasharray="1 19"/>
<path d="M8 22468C7.99999 22592.6 7.99999 22662.4 7.99999 22787" stroke="#050C1A" stroke-opacity="0.2"/>
<path d="M8 22467C7.99999 22592.4 7.99999 22662.7 7.99999 22788" stroke="#050C1A" stroke-opacity="0.2" stroke-width="4" stroke-miterlimit="1.41421" stroke-dasharray="1 4"/>
<path d="M8 22467C7.99999 22592.4 7.99999 22662.7 7.99999 22788" stroke="#050C1A" stroke-opacity="0.2" stroke-width="8" stroke-miterlimit="1.41421" stroke-dasharray="1 19"/>
<path d="M8 22789C7.99999 22913.6 7.99999 22983.4 7.99999 23108" stroke="#050C1A" stroke-opacity="0.2"/>
<path d="M8 22788C7.99999 22913.4 7.99999 22983.7 7.99999 23109" stroke="#050C1A" stroke-opacity="0.2" stroke-width="4" stroke-miterlimit="1.41421" stroke-dasharray="1 4"/>
<path d="M8 22788C7.99999 22913.4 7.99999 22983.7 7.99999 23109" stroke="#050C1A" stroke-opacity="0.2" stroke-width="8" stroke-miterlimit="1.41421" stroke-dasharray="1 19"/>
<path d="M8 23110C7.99999 23234.6 7.99999 23304.4 7.99999 23429" stroke="#050C1A" stroke-opacity="0.2"/>
<path d="M8 23109C7.99999 23234.4 7.99999 23304.7 7.99999 23430" stroke="#050C1A" stroke-opacity="0.2" stroke-width="4" stroke-miterlimit="1.41421" stroke-dasharray="1 4"/>
<path d="M8 23109C7.99999 23234.4 7.99999 23304.7 7.99999 23430" stroke="#050C1A" stroke-opacity="0.2" stroke-width="8" stroke-miterlimit="1.41421" stroke-dasharray="1 19"/>
<path d="M8 23431C7.99999 23555.6 7.99999 23625.4 7.99999 23750" stroke="#050C1A" stroke-opacity="0.2"/>
<path d="M8 23430C7.99999 23555.4 7.99999 23625.7 7.99999 23751" stroke="#050C1A" stroke-opacity="0.2" stroke-width="4" stroke-miterlimit="1.41421" stroke-dasharray="1 4"/>
<path d="M8 23430C7.99999 23555.4 7.99999 23625.7 7.99999 23751" stroke="#050C1A" stroke-opacity="0.2" stroke-width="8" stroke-miterlimit="1.41421" stroke-dasharray="1 19"/>
<path d="M8 23752C7.99999 23876.6 7.99999 23946.4 7.99999 24071" stroke="#050C1A" stroke-opacity="0.2"/>
<path d="M8 23751C7.99999 23876.4 7.99999 23946.7 7.99999 24072" stroke="#050C1A" stroke-opacity="0.2" stroke-width="4" stroke-miterlimit="1.41421" stroke-dasharray="1 4"/>
<path d="M8 23751C7.99999 23876.4 7.99999 23946.7 7.99999 24072" stroke="#050C1A" stroke-opacity="0.2" stroke-width="8" stroke-miterlimit="1.41421" stroke-dasharray="1 19"/>
<path d="M8 24073C7.99999 24197.6 7.99999 24267.4 7.99999 24392" stroke="#050C1A" stroke-opacity="0.2"/>
<path d="M8 24072C7.99999 24197.4 7.99999 24267.7 7.99999 24393" stroke="#050C1A" stroke-opacity="0.2" stroke-width="4" stroke-miterlimit="1.41421" stroke-dasharray="1 4"/>
<path d="M8 24072C7.99999 24197.4 7.99999 24267.7 7.99999 24393" stroke="#050C1A" stroke-opacity="0.2" stroke-width="8" stroke-miterlimit="1.41421" stroke-dasharray="1 19"/>
<defs>
<clipPath id="clip0_2_238">
<rect width="8" height="6100" fill="white" transform="translate(4)"/>
</clipPath>
</defs>
</svg>
