<svg width="484" height="624" viewBox="0 0 484 624" fill="none" xmlns="http://www.w3.org/2000/svg">
<path d="M221.709 1.78223L221.224 5.0155L218.314 6.30881L213.949 9.21876V13.2604L215.728 15.0387L213.384 17.3828L211.848 20.3736L213.949 23.2835L214.758 26.1935L218.476 29.4267L221.871 26.1935H224.134L227.529 24.2535L231.571 22.9602L230.439 19.0802V14.2303L232.864 12.1287L230.843 10.1079L226.721 5.98548L225.266 2.75221L221.709 1.78223ZM209.584 3.72219L206.19 3.88386L204.735 5.33883L205.866 6.47048L207.079 7.68295L209.584 5.33883V3.72219ZM169.169 7.11713L167.552 7.44046L166.501 8.49127L168.118 10.1079L170.3 9.38042L171.594 8.08711L169.169 7.11713ZM234.294 24.6147L229.989 25.9838C229.989 25.9838 227.447 26.5716 226.86 26.7669C226.273 26.9621 223.339 27.9414 223.339 27.9414L221.969 30.8766L221.186 33.4178L219.426 35.57L220.014 38.1136L216.688 40.6573L218.254 42.0264L220.6 41.2433L222.555 43.9815L222.753 46.5227L224.513 48.6748L229.012 49.0663L229.598 51.61L232.728 49.6549L234.294 52.1961L238.596 53.7622L242.705 51.8045L244.663 49.0663L243.097 45.9366L240.553 42.4129L242.511 41.0438L243.291 37.7196L242.314 34.0013L242.705 30.2856L238.01 27.7444L236.249 29.8966L234.685 32.8318L233.316 32.2432L234.294 28.5275V24.6147ZM209.423 28.2951L209.908 31.8517V34.115L213.464 35.085L214.919 36.5399L217.102 34.3575L218.314 31.205L216.213 29.5884L212.171 28.6184L209.423 28.2951ZM152.722 32.4402L151.55 33.6148L152.919 34.3954L155.071 35.9615L155.657 34.0038L152.722 32.4402ZM254.444 38.3081L252.486 38.5052L249.748 41.8294L249.945 44.7646L248.77 46.7197L249.551 52.0016L247.204 54.3507L247.399 59.6301L246.227 64.1289L245.247 68.6302L247.01 69.6077L250.725 66.6725L252.878 65.3034L257.768 62.7623L261.681 62.3708L266.571 58.6525L268.918 54.1537L267.354 50.2409L265.593 47.3057L263.244 48.2858L260.898 44.176L259.137 42.4154L256.985 44.9591L255.616 48.6748V45.9392L255.81 41.0463L254.444 38.3081ZM274.788 58.261L272.83 59.4356L275.569 60.8046L277.524 62.1737L279.676 61.5877L279.09 59.044L276.938 59.6301L274.788 58.261ZM267.998 71.189L264.55 74.8517L260.67 77.6556L257.437 85.6301L256.358 89.0807V94.2539L258.084 95.5472L258.516 99.2099H257.005L252.049 100.72H247.305L248.599 103.09L251.185 105.03L253.125 107.616L248.816 106.755L244.504 107.616L243.857 111.067L237.173 110.852L234.481 113.545V110.42L236.527 106.54L232.647 107.187L231.571 109.556L226.827 110.203L221.224 111.496L219.067 113.654L222.947 114.947L221.654 116.455L215.834 118.18L213.788 120.226L205.705 121.413L203.441 123.677L197.513 125.94L195.143 130.896L189.106 130.681L189.323 133.915L192.34 134.129L189.323 136.501L187.166 139.517L189 141.351L187.813 144.044L189.538 145.984L186.952 146.63C186.952 146.63 186.952 143.397 185.335 145.014L182.854 147.494L185.012 149.649L187.598 150.513L189.753 153.746L187.598 155.901H183.504L177.898 158.273H169.492V159.566L164.319 157.626H154.189L149.878 161.506L150.956 166.894L152.679 168.619L150.739 172.931L149.446 178.104L151.171 179.827L154.187 184.786L158.284 186.294L158.067 189.312L160.439 192.545L159.575 195.993H153.755L149.984 192.222L148.582 190.82L150.092 186.511L144.487 183.492L141.577 180.582L138.02 181.12L133.711 180.259L133.926 182.846H135.974L136.838 185.215L138.67 187.049L141.365 187.587L144.381 189.204L145.136 192.007L143.088 194.053L143.52 196.317L139.422 196.963L136.459 199.929L137.806 202.783L138.67 201.599L140.069 204.294L144.704 206.88L144.272 212.054V219.49H139.963L138.346 222.077L135.166 225.255L131.233 228.22L131.448 232.206L133.335 234.093L133.926 236.409L136.621 239.105L140.718 239.751L141.256 242.555L142.658 243.955L145.245 241.691C145.245 241.691 146.188 243.335 146.538 242.985C146.889 242.634 149.125 240.507 149.125 240.507L149.016 244.71L152.358 245.356V248.696L154.404 253.654L153.219 256.779H151.603L153.325 260.012L151.926 264.109L149.607 266.426L148.799 269.065L145.783 268.419L145.674 271.869L147.776 273.971L148.476 277.904L146.644 281.137L148.584 283.077V286.096L153.325 288.897L155.159 292.668L152.247 295.364V297.518L153.757 300.105V303.985L151.817 305.495L154.187 309.805H156.773L159.36 312.391L161.3 316.271L161.732 321.23L159.577 323.384L160.653 327.911L165.612 328.99L168.09 331.468L170.57 328.99L171.432 334.163L170.57 338.689L172.079 342.137L169.169 345.047L166.044 349.036L163.887 353.131L167.12 357.657V363.045L163.995 366.172L163.672 371.022L161.838 372.854L156.773 377.918L156.842 384.536L162.285 388.121L168.39 390.776L165.205 396.085L157.506 399.404L152.595 404.315L144.631 398.477L136.136 402.059L134.542 407.371L128.833 404.451L124.719 405.51L119.74 400.533L114.364 402.59L107.461 401.794L105.604 399.008H98.1703L92.9945 396.752L86.091 397.81L81.0466 409.097L81.4457 415.864L74.2769 417.854L68.4343 422.103L67.7725 426.617L61.6621 430.189L59.7221 432.937L56.2463 436.415L51.9623 438.433H46.789L43.5557 437.463L39.8375 435.524L38.3825 437.625H34.0176L31.2693 435.847L28.8443 434.715L25.1261 433.584L22.2161 432.614V430.027L24.3178 427.925L20.9228 424.53L17.6895 426.794L16.1916 429.292L13.163 432.614L12.8396 436.009L14.2946 440.373L10.8997 441.99V444.415L13.8096 445.87L15.8304 447.893L16.8812 450.397L20.1145 452.175V455.085L18.5787 456.623L14.4563 457.348L9.04053 462.766V466.563L8.15138 468.826L5.88808 471.09L4.10978 471.413V474.323L1.92732 476.508L0.714844 479.011V481.598L3.94812 483.108L5.67337 488.496L4.59477 491.515V495.609L1.89954 498.305L3.08675 502.076L7.82805 503.369L12.1399 500.783L15.2646 503.907L13.8652 508.974L18.1745 510.268L20.5464 507.896L24.4264 510.268H28.7382V513.284L23.565 515.656L22.2717 521.476H25.9344L30.461 519.321L32.8329 522.769L38.0061 519.968L44.0407 518.242L47.5973 514.686L50.9392 514.577L55.4658 514.362L58.6991 511.129H62.579L63.6576 514.148L61.071 517.596H58.0524V521.476L61.7177 522.984L64.4104 525.679L66.8909 530.961L69.2603 533.33L72.9255 536.995L75.5121 545.617V552.73L78.9601 555.963V561.136L82.6253 567.603L83.7039 573.208L85.2119 578.167L88.0133 583.769L92.7571 582.908L95.1265 577.949L98.577 576.873L100.946 579.674V582.908L103.318 585.277L105.905 587.864L110.646 587.002L112.803 589.16L118.191 588.296L120.887 585.603H126.383L129.023 588.243L133.064 590.021L136.083 592.822L136.944 597.996L140.61 600.367L142.332 604.247L146.859 607.049V612.222L152.679 613.73L157.852 615.455L163.457 613.301L166.799 609.959L167.984 614.377L170.356 618.689L172.296 621.922L178.545 623L181.349 620.197L186.737 617.181L193.203 617.395L196.76 613.839L201.825 612.654L202.688 608.127H206.998L211.31 603.815L218.423 599.289H224.028L225.536 594.762H230.277L234.051 590.991L238.684 593.037L242.349 596.702L248.169 594.333L253.128 595.841L257.222 599.936L260.67 603.384L266.922 605.541L271.234 606.834L277.268 605.755L283.088 607.266H289.34H293.435L298.285 602.416L303.349 599.074V593.901L299.578 590.127V585.28L296.883 582.046L297.747 576.441L300.657 573.531L303.349 568.035L306.691 564.693L306.792 564.592L306.527 560.606L304.425 558.504L303.658 554.826L305.961 552.523V548.724L308.467 546.218L314.125 540.56L315.661 539.024L317.601 537.084L320.592 538.943L319.945 541.853L323.987 543.793L326.412 546.056L331.747 547.673L334.172 550.098L336.92 551.553L339.991 554.624L346.943 553.169L349.53 555.918L352.763 558.666H356.158V561.737L358.583 565.617H362.139H364.726L365.858 569.497L370.708 566.749H374.264V560.444L379.276 555.433L385.096 548.481L388.006 541.044L395.685 533.365L404.334 522.938L405.627 507.58L408.699 497.395L404.01 495.94L401.585 484.301L399.484 474.762L401.1 471.691L403.364 469.427L399.645 466.841L396.089 465.709L394.795 459.889L401.585 454.878H404.98V450.513L408.214 449.058L412.902 450.674L417.752 448.896V444.693L421.147 442.268L422.925 444.208H428.421L431.655 441.945L433.676 443.965L440.385 445.34L443.133 442.591L446.043 444.208L450.327 439.924H453.641V431.436L457.521 429.496L459.946 424.485L463.988 425.455L465.927 427.395L461.239 431.76L465.119 432.083L468.352 430.305L473.202 431.598L475.142 427.88L478.537 425.778L479.346 421.575L477.81 420.039V417.372L474.334 418.827L468.11 412.603L469.807 408.157L467.867 406.217L469.484 402.499L467.948 400.963L471.667 397.245L475.142 397.487L477.163 399.508H479.831L482.389 397.573L482.372 397.555L483.112 395.198L476.986 389.07L475.236 384.226L472.543 383.955V380.858L469.648 377.696L467.292 375.339H463.856V378.638L460.83 381.667L456.119 380.992V377.898L454.098 376.147V372.242L449.925 371.704L445.078 369.413L440.501 369.954L435.924 369.282L433.365 372.376L432.087 376.617L429.056 379.646L430.268 383.821L428.654 388.669L424.615 392.708V400.248L418.959 404.148V408.591L416.537 405.227V401.455L413.71 398.631L411.017 399.841L410.343 403.34L403.207 406.032H399.842L398.496 410.072L396.341 413.305L391.696 413.638L386.515 408.457L385.975 397.687L386.647 391.225V385.168L387.455 379.782V374.531L383.686 372.914L380.993 371.972L380.589 369.413L379.344 366.488L376.886 364.028V361.135L378.568 359.453L379.041 355.48L376.684 353.125H373.59L370.223 351.509V348.412L371.569 347.066L370.089 345.585L368.876 340.874L366.183 336.027L362.953 333.738L359.318 334.815L355.817 335.085V330.912L358.712 330.104V327.343L355.685 324.316L355.549 321.76L352.386 321.558L350.03 323.915L347.069 322.569L343.164 324.049L341.277 321.76H339.259L337.508 323.511H334.007L331.719 322.435V318.125L333.065 316.779V313.952L331.987 310.722L334.548 306.683L336.028 302.51L331.585 298.064L330.372 292.14L326.601 290.12V286.351L328.084 285.004L326.601 283.524V280.023L322.565 278.407L321.352 279.619L320.14 275.984L322.16 273.963L324.313 270.462L327.546 269.52L326.331 261.174L325.389 255.789V252.96L321.62 246.094L321.216 238.956L317.447 236.399L315.83 232.628L314.666 229.728L314.668 227.95L319.195 226.171L323.883 219.543L327.116 218.573L331.481 219.867L332.775 216.957V213.4L330.35 210.975L331.481 206.772L334.715 205.64V202.245L334.553 197.88L338.11 195.455L342.232 191.333L343.121 188.34H344.9L344.576 183.975H341.181L338.11 178.155V172.82L335.361 170.072L329.541 165.868V163.605L325.177 161.988L323.646 158.775L324.388 154.441L322.555 152.607L320.64 149.72L319.665 147.221L321.148 145.66L321.577 143.592L319.859 142.225L319.301 138.441H316.714L313.481 138.656L313.696 142.106L313.481 143.832L316.068 144.046L317.684 145.663L315.636 149.651L312.188 150.945L308.523 153.961C308.523 153.961 307.876 157.841 305.936 157.841C303.996 157.841 300.548 158.919 300.548 158.919L296.668 161.289L297.53 165.601L293.65 167.326L294.728 163.446L295.59 157.841L299.146 154.284L300.763 149.434L305.936 148.141L307.229 141.46L310.463 138.226L311.756 132.189V130.035L316.068 124.861L318.546 122.381L320.594 118.178L322.749 115.162V110.85L325.227 108.372L322.534 103.739L318.222 101.367L316.497 99.6443L320.809 100.506L321.241 95.9791L318.331 93.0692L316.068 90.8059L314.557 92.5311L311.971 90.3739L309.816 86.0646L307.338 83.5841L303.996 85.2007L301.518 82.7227L297.098 85.8474H292.788L288.044 88.434L289.984 90.3739L288.908 94.0391C288.908 94.0391 285.458 92.5286 284.164 92.5286C282.871 92.5286 283.088 89.7273 283.088 89.7273L285.89 86.9234L282.765 83.7988H278.562L277.213 85.1451L270.37 84.7688L273.171 81.1035L276.513 77.7642L275.543 73.3437L272.31 73.7756L267.998 71.189ZM283.2 75.6701L282.414 76.8447L284.177 78.0193L284.958 76.6502L283.2 75.6701ZM201.822 86.8224L200.845 88.386L202.214 89.5606L203.974 87.0169L201.822 86.8224ZM234.491 87.6055L232.533 89.9496L229.989 90.5381L232.339 92.2988L234.685 89.9496L234.491 87.6055ZM169.007 111.39L167.956 112.441L169.33 113.654L171.594 113.007L169.007 111.39ZM164.852 122.815L162.699 124.573L163.872 126.923L165.829 126.531L164.852 122.815ZM181.675 140.419L179.326 141.594C179.326 141.594 180.303 144.529 180.303 144.137C180.303 143.745 182.064 143.354 182.064 143.354L181.675 140.419ZM164.069 148.442L163.677 150.591H167.001L168.764 152.352L168.959 149.417L167.001 149.028L164.069 148.442ZM142.552 168.195L140.792 168.783L139.422 170.544L140.203 172.891L141.572 174.651L143.53 172.502L144.31 169.958L142.552 168.195Z" fill="#337BEF"/>
<path d="M309.275 562.169L309.205 562.24M221.709 1.78223L221.224 5.0155L218.314 6.30881L213.949 9.21876V13.2604L215.728 15.0387L213.384 17.3828L211.848 20.3736L213.949 23.2835L214.758 26.1935L218.476 29.4267L221.871 26.1935H224.134L227.529 24.2535L231.571 22.9602L230.439 19.0802V14.2303L232.864 12.1287L230.843 10.1079L226.721 5.98548L225.266 2.75221L221.709 1.78223ZM209.584 3.72219L206.19 3.88386L204.735 5.33883L205.866 6.47048L207.079 7.68295L209.584 5.33883V3.72219ZM169.169 7.11713L167.552 7.44046L166.501 8.49127L168.118 10.1079L170.3 9.38042L171.594 8.08711L169.169 7.11713ZM234.294 24.6147L229.989 25.9838C229.989 25.9838 227.447 26.5716 226.86 26.7669C226.273 26.9621 223.339 27.9414 223.339 27.9414L221.969 30.8766L221.186 33.4178L219.426 35.5699L220.014 38.1136L216.688 40.6573L218.254 42.0264L220.6 41.2433L222.555 43.9815L222.753 46.5227L224.513 48.6748L229.012 49.0663L229.598 51.61L232.728 49.6549L234.294 52.1961L238.596 53.7622L242.705 51.8045L244.663 49.0663L243.097 45.9366L240.553 42.4129L242.511 41.0438L243.291 37.7196L242.314 34.0013L242.705 30.2856L238.01 27.7444L236.249 29.8966L234.685 32.8318L233.316 32.2432L234.294 28.5275V24.6147ZM209.423 28.2951L209.908 31.8517V34.115L213.464 35.085L214.919 36.5399L217.102 34.3575L218.314 31.205L216.213 29.5884L212.171 28.6184L209.423 28.2951ZM152.722 32.4402L151.55 33.6148L152.919 34.3954L155.071 35.9615L155.657 34.0038L152.722 32.4402ZM254.444 38.3081L252.486 38.5052L249.748 41.8294L249.945 44.7646L248.77 46.7197L249.551 52.0016L247.204 54.3507L247.399 59.6301L246.227 64.1289L245.247 68.6302L247.01 69.6077L250.725 66.6725L252.878 65.3034L257.768 62.7623L261.681 62.3708L266.571 58.6525L268.918 54.1537L267.354 50.2409L265.593 47.3057L263.244 48.2858L260.898 44.176L259.137 42.4154L256.985 44.9591L255.616 48.6748V45.9392L255.81 41.0463L254.444 38.3081ZM274.788 58.261L272.83 59.4356L275.569 60.8046L277.524 62.1737L279.676 61.5877L279.09 59.044L276.938 59.6301L274.788 58.261ZM267.998 71.189L264.55 74.8517L260.67 77.6556L257.437 85.6301L256.358 89.0806V94.2539L258.084 95.5472L258.516 99.2099H257.005L252.049 100.72H247.305L248.599 103.09L251.185 105.03L253.125 107.616L248.816 106.755L244.504 107.616L243.857 111.067L237.173 110.852L234.481 113.545V110.42L236.527 106.54L232.647 107.187L231.571 109.556L226.827 110.203L221.224 111.496L219.067 113.654L222.947 114.947L221.654 116.455L215.834 118.18L213.788 120.226L205.705 121.413L203.441 123.677L197.513 125.94L195.143 130.896L189.106 130.681L189.323 133.915L192.34 134.129L189.323 136.501L187.166 139.517L189 141.351L187.813 144.044L189.538 145.984L186.952 146.63C186.952 146.63 186.952 143.397 185.335 145.014L182.854 147.494L185.012 149.649L187.598 150.513L189.753 153.746L187.598 155.901H183.504L177.898 158.273H169.492V159.566L164.319 157.626H154.189L149.878 161.506L150.956 166.894L152.679 168.619L150.739 172.931L149.446 178.104L151.171 179.827L154.187 184.786L158.284 186.294L158.067 189.312L160.439 192.545L159.575 195.993H153.755L149.984 192.222L148.582 190.82L150.092 186.511L144.487 183.492L141.577 180.582L138.02 181.12L133.711 180.259L133.926 182.846H135.974L136.838 185.215L138.67 187.049L141.365 187.587L144.381 189.204L145.136 192.007L143.088 194.053L143.52 196.317L139.422 196.963L136.459 199.929L137.806 202.783L138.67 201.599L140.069 204.294L144.704 206.88L144.272 212.054V219.49H139.963L138.346 222.077L135.166 225.255L131.233 228.22L131.448 232.206L133.335 234.093L133.926 236.409L136.621 239.105L140.718 239.751L141.256 242.555L142.658 243.955L145.245 241.691C145.245 241.691 146.188 243.335 146.538 242.985C146.889 242.634 149.125 240.507 149.125 240.507L149.016 244.71L152.358 245.356V248.696L154.404 253.654L153.219 256.779H151.603L153.325 260.012L151.926 264.109L149.607 266.426L148.799 269.065L145.783 268.419L145.674 271.869L147.776 273.971L148.476 277.904L146.644 281.137L148.584 283.077V286.096L153.325 288.897L155.159 292.668L152.247 295.364V297.518L153.757 300.105V303.985L151.817 305.495L154.187 309.805H156.773L159.36 312.391L161.3 316.271L161.732 321.23L159.577 323.384L160.653 327.911L165.612 328.99L168.09 331.468L170.57 328.99L171.432 334.163L170.57 338.689L172.079 342.137L169.169 345.047L166.044 349.036L163.887 353.131L167.12 357.657V363.045L163.995 366.172L163.672 371.022L161.838 372.854L156.773 377.918L156.842 384.536L162.285 388.121L168.39 390.775L165.205 396.085L157.506 399.404L152.595 404.315L144.631 398.477L136.136 402.059L134.542 407.371L128.833 404.451L124.719 405.51L119.74 400.533L114.364 402.59L107.461 401.794L105.604 399.008H98.1703L92.9945 396.752L86.091 397.81L81.0466 409.097L81.4457 415.864L74.2769 417.854L68.4343 422.103L67.7725 426.617L61.6621 430.189L59.7221 432.937L56.2463 436.415L51.9623 438.433H46.789L43.5557 437.463L39.8375 435.524L38.3825 437.625H34.0176L31.2693 435.847L28.8443 434.715L25.1261 433.584L22.2161 432.614V430.027L24.3178 427.925L20.9228 424.53L17.6895 426.794L16.1916 429.292L13.163 432.614L12.8396 436.009L14.2946 440.373L10.8997 441.99V444.415L13.8096 445.87L15.8304 447.893L16.8812 450.397L20.1145 452.175V455.085L18.5787 456.623L14.4563 457.348L9.04053 462.766V466.563L8.15138 468.826L5.88808 471.09L4.10978 471.413V474.323L1.92732 476.508L0.714844 479.011V481.598L3.94812 483.108L5.67337 488.496L4.59477 491.515V495.609L1.89954 498.305L3.08675 502.076L7.82805 503.369L12.1399 500.783L15.2646 503.907L13.8652 508.974L18.1745 510.268L20.5464 507.896L24.4264 510.268H28.7382V513.284L23.565 515.656L22.2717 521.476H25.9344L30.461 519.321L32.8329 522.769L38.0061 519.968L44.0407 518.242L47.5973 514.686L50.9392 514.577L55.4658 514.362L58.6991 511.129H62.579L63.6576 514.148L61.071 517.596H58.0524V521.476L61.7177 522.984L64.4104 525.679L66.8909 530.961L69.2603 533.33L72.9255 536.995L75.5121 545.617V552.73L78.9601 555.963V561.136L82.6253 567.603L83.7039 573.208L85.2119 578.167L88.0133 583.769L92.7571 582.908L95.1265 577.949L98.577 576.873L100.946 579.675V582.908L103.318 585.277L105.905 587.864L110.646 587.002L112.803 589.16L118.191 588.296L120.887 585.603H126.383L129.023 588.243L133.064 590.021L136.083 592.822L136.944 597.996L140.61 600.367L142.332 604.247L146.859 607.049V612.222L152.679 613.73L157.852 615.455L163.457 613.301L166.799 609.959L167.984 614.377L170.356 618.689L172.296 621.922L178.545 623L181.349 620.197L186.737 617.181L193.203 617.395L196.76 613.839L201.825 612.654L202.688 608.127H206.998L211.31 603.815L218.423 599.289H224.028L225.536 594.762H230.277L234.051 590.991L238.684 593.037L242.349 596.702L248.169 594.333L253.128 595.841L257.222 599.936L260.67 603.384L266.922 605.541L271.234 606.834L277.268 605.755L283.088 607.266H289.34H293.435L298.285 602.416L303.349 599.074V593.901L299.578 590.127V585.28L296.883 582.046L297.747 576.441L300.657 573.531L303.349 568.035L306.691 564.693L306.792 564.592L306.527 560.606L304.425 558.504L303.657 554.826L305.961 552.523V548.723L308.467 546.218L314.125 540.559L315.661 539.024L317.601 537.084L320.592 538.943L319.945 541.853L323.987 543.793L326.412 546.056L331.747 547.673L334.172 550.098L336.92 551.553L339.991 554.624L346.943 553.169L349.53 555.918L352.763 558.666H356.158V561.737L358.583 565.617H362.139H364.726L365.858 569.497L370.708 566.749H374.264V560.444L379.276 555.433L385.096 548.481L388.006 541.044L395.685 533.365L404.334 522.938L405.627 507.58L408.699 497.395L404.01 495.94L401.585 484.3L399.484 474.762L401.1 471.691L403.364 469.427L399.645 466.841L396.089 465.709L394.795 459.889L401.585 454.878H404.98V450.513L408.214 449.058L412.902 450.674L417.752 448.896V444.693L421.147 442.268L422.925 444.208H428.421L431.655 441.945L433.676 443.965L440.385 445.34L443.133 442.591L446.043 444.208L450.327 439.924H453.641V431.436L457.521 429.496L459.946 424.485L463.988 425.455L465.927 427.395L461.239 431.76L465.119 432.083L468.352 430.305L473.202 431.598L475.142 427.88L478.537 425.778L479.346 421.575L477.81 420.039V417.372L474.334 418.827L468.11 412.603L469.807 408.157L467.867 406.217L469.484 402.499L467.948 400.963L471.667 397.245L475.142 397.487L477.163 399.508H479.831L482.389 397.573L482.372 397.555L483.112 395.198L476.986 389.07L475.236 384.226L472.543 383.955V380.858L469.648 377.696L467.292 375.339H463.856V378.638L460.83 381.667L456.119 380.992V377.898L454.098 376.147V372.242L449.925 371.704L445.078 369.413L440.501 369.954L435.924 369.282L433.365 372.376L432.087 376.617L429.056 379.646L430.268 383.821L428.654 388.669L424.615 392.708V400.248L418.959 404.148V408.591L416.537 405.227V401.455L413.71 398.631L411.017 399.841L410.343 403.34L403.207 406.032H399.842L398.496 410.072L396.341 413.305L391.696 413.638L386.515 408.457L385.975 397.687L386.647 391.225V385.168L387.455 379.782V374.531L383.686 372.914L380.993 371.972L380.589 369.413L379.344 366.488L376.886 364.028V361.135L378.568 359.453L379.041 355.48L376.684 353.125H373.59L370.223 351.509V348.412L371.569 347.066L370.089 345.585L368.876 340.874L366.183 336.027L362.953 333.738L359.318 334.815L355.817 335.085V330.912L358.712 330.104V327.343L355.685 324.317L355.549 321.76L352.386 321.558L350.03 323.915L347.069 322.569L343.164 324.049L341.277 321.76H339.259L337.508 323.511H334.007L331.719 322.435V318.125L333.065 316.779V313.952L331.987 310.722L334.548 306.683L336.028 302.51L331.585 298.064L330.372 292.14L326.601 290.12V286.351L328.084 285.004L326.601 283.524V280.023L322.565 278.407L321.352 279.619L320.14 275.984L322.16 273.963L324.313 270.462L327.546 269.52L326.331 261.174L325.389 255.789V252.96L321.62 246.094L321.216 238.956L317.447 236.399L315.83 232.628L314.666 229.728L314.668 227.95L319.195 226.171L323.883 219.543L327.116 218.573L331.481 219.867L332.775 216.957V213.4L330.35 210.975L331.481 206.772L334.715 205.64V202.245L334.553 197.88L338.11 195.455L342.232 191.333L343.121 188.34H344.9L344.576 183.975H341.181L338.11 178.155V172.82L335.361 170.072L329.541 165.868V163.605L325.177 161.988L323.646 158.775L324.388 154.441L322.555 152.607L320.64 149.72L319.665 147.221L321.148 145.66L321.577 143.592L319.859 142.225L319.301 138.441H316.714L313.481 138.656L313.696 142.106L313.481 143.832L316.068 144.046L317.684 145.663L315.636 149.651L312.188 150.945L308.523 153.961C308.523 153.961 307.876 157.841 305.936 157.841C303.996 157.841 300.548 158.919 300.548 158.919L296.668 161.289L297.529 165.601L293.65 167.326L294.728 163.446L295.59 157.841L299.146 154.284L300.763 149.434L305.936 148.141L307.229 141.46L310.463 138.226L311.756 132.189V130.035L316.068 124.861L318.546 122.381L320.594 118.178L322.749 115.162V110.85L325.227 108.372L322.534 103.739L318.222 101.367L316.497 99.6443L320.809 100.506L321.241 95.9791L318.331 93.0692L316.068 90.8059L314.557 92.5311L311.971 90.3739L309.816 86.0646L307.338 83.5841L303.996 85.2007L301.518 82.7227L297.098 85.8474H292.788L288.044 88.434L289.984 90.3739L288.908 94.0391C288.908 94.0391 285.458 92.5286 284.164 92.5286C282.871 92.5286 283.088 89.7273 283.088 89.7273L285.89 86.9234L282.765 83.7988H278.562L277.213 85.1451L270.37 84.7688L273.171 81.1035L276.513 77.7642L275.543 73.3437L272.31 73.7756L267.998 71.189ZM283.2 75.6701L282.414 76.8447L284.177 78.0193L284.958 76.6502L283.2 75.6701ZM201.822 86.8224L200.845 88.386L202.214 89.5606L203.974 87.0169L201.822 86.8224ZM234.491 87.6055L232.533 89.9496L229.989 90.5381L232.339 92.2988L234.685 89.9496L234.491 87.6055ZM169.007 111.39L167.956 112.441L169.33 113.654L171.594 113.007L169.007 111.39ZM164.852 122.815L162.699 124.573L163.872 126.923L165.829 126.531L164.852 122.815ZM181.675 140.419L179.326 141.594C179.326 141.594 180.303 144.529 180.303 144.137C180.303 143.745 182.064 143.354 182.064 143.354L181.675 140.419ZM164.069 148.442L163.677 150.591H167.001L168.764 152.352L168.959 149.417L167.001 149.028L164.069 148.442ZM142.552 168.195L140.792 168.783L139.422 170.544L140.203 172.891L141.572 174.651L143.53 172.502L144.31 169.958L142.552 168.195Z" stroke="#E3E4E7" stroke-width="1.29331"/>
</svg>
