<svg width="166" height="136" viewBox="0 0 166 136" fill="none" xmlns="http://www.w3.org/2000/svg">
<path d="M20.2608 101.138L17.8902 100.706L16.1662 98.5515L14.0102 95.5329L11.2076 95.9648L9.48366 90.7916L10.1303 80.8771L9.26767 73.5466L7.54369 69.8839L5.38774 66.6507L5.81842 60.1841L3.2318 57.8122L1.50781 54.3642L2.80112 50.4843L1.7238 46.1724L4.09443 43.8005L6.68105 43.3711L10.1303 47.6804L13.3636 48.759L14.8729 45.5257L18.5368 44.0177L23.4941 43.8005H26.0807L29.314 44.8791L29.9606 39.4911L28.2367 36.2579L29.0993 33.454L31.6859 33.886L34.0566 35.6112L36.6432 37.9806L38.5831 36.0406L41.6004 37.3339L46.5577 37.9806L50.2216 39.4911L51.0843 35.6112L48.4977 33.6712L44.8337 32.8073L42.4618 30.438L39.8752 29.574L43.1084 26.1261L47.851 23.9714L51.9469 25.6941L55.6109 24.1861L59.0601 27.8514L64.2333 33.454L68.9746 28.7127L72.2079 26.7728L71.3465 22.0289L74.3638 19.0129L77.3811 19.4448L77.1664 15.9943L85.141 14.9183L86.6503 11.253L88.3743 9.09836L90.0323 10.7551V13.4788H93.7661L95.2702 15.5804H98.2733L100.226 13.6276H105.784L110.817 8.59525L112.394 3.41554H118.552L121.555 0.709961L124.71 1.31135L125.461 3.71562L128.766 5.51717H133.122L132.823 9.27297L134.174 14.3803L138.98 14.9816L141.835 16.4845V19.0387L146.19 18.8861L151.298 23.8434L151.899 29.8521L147.993 33.6079L150.848 36.3109L152.424 34.7343L155.504 35.8608L156.405 40.2167L158.432 42.2446H161.511L162.112 45.4727L164.74 48.102L164.896 52.4217L163.386 55.8722L160.585 57.9182H156.382L153.04 61.2601L150.238 64.0615V67.9414L146.573 69.452L142.695 69.2347L139.892 72.0386L136.44 74.4131L137.841 78.6164L140.967 81.7436L139.673 87.3462L136.871 90.1501L139.673 91.8728L143.769 95.7527L146.356 98.3394L145.279 103.945L146.465 111.272V117.201L144.201 119.464L142.045 117.092L138.812 116.663L139.243 120.543L141.075 124.314L143.769 127.009L141.613 129.164L137.949 129.596H134.932H132.562H130.622C130.622 129.596 128.035 129.919 125.988 129.919C123.94 129.919 124.371 128.303 124.371 128.303L121.138 127.439L119.63 125.931L115.75 125.282V128.298L112.732 129.591L109.067 133.9H104.973L100.446 135.193L97.8051 134.494L98.0943 130.748L97.039 128.021L94.7073 127.144L93.2716 124.916L90.3367 122.834L90.3035 117.83L88.4675 115.138L87.947 111.91L85.5482 109.512L85.5585 106.985L83.8063 104.677L81.6993 102.567L80.092 99.5157L81.6156 96.5924L80.207 92.7535L78.1803 90.7077L77.5428 88.1106L75.4373 85.5946L75.0335 82.469L72.5414 81.4798L68.7104 82.1704L67.0307 80.4603L66.0592 77.6043L64.2832 78.2129L62.0453 78.2194L61.1574 75.4198L58.7035 74.2033L57.0836 72.4529L54.6878 72.5631L52.8975 74.389L49.8117 74.8166L48.7335 73.088L46.9786 72.518L45.487 74.3409L45.4578 76.9604L43.6394 79.5317L45.2927 80.8754L46.5423 83.4911L44.8056 86.2974L46.86 88.4431L43.2388 91.1701L41.0434 91.8238L41.8864 94.8802L40.7968 97.1927L37.3903 101.298L33.3077 101.269L31.4783 98.5132L30.2183 95.9008L28.1263 95.8645L25.9251 98.0269L22.8741 98.4994L20.2608 101.138Z" fill="#F3F4F6" stroke="#E3E4E7" stroke-width="1.29331"/>
</svg>
