<svg width="81" height="127" viewBox="0 0 81 127" fill="none" xmlns="http://www.w3.org/2000/svg">
<path d="M78.792 63.4254L79.0864 59.7206L78.0314 56.9483L75.6761 56.1386L74.2531 53.9305L71.2844 51.8205L71.309 46.8646L69.4689 44.1903L68.88 40.8781L66.5493 38.5228V35.9712L64.8809 33.7877L62.6973 31.555L61.0781 28.5127L62.5992 25.6176L61.2007 21.7657L59.1153 19.7048L58.4774 17.006L56.441 14.6262L56.0239 11.4858L53.5705 10.4798L49.694 11.1423L48.0011 9.42486L47.0443 6.6034L45.2287 7.21674L43.0697 7.2167L42.1374 4.41975L39.6349 3.16852L38.1137 1.50017L35.7094 1.5492L33.8693 3.46287L30.827 3.85543L29.7229 2.06442L27.981 1.47559L26.4353 3.34021L26.4107 5.91633L24.6442 8.517L26.2635 9.91545L27.5393 12.4916L25.7728 15.3131L27.8583 17.423L24.2762 20.1709L22.019 20.7843L22.8532 23.9247L21.7737 26.1819L18.4861 30.2791L14.2661 30.2546L12.426 27.4821L11.1993 24.8815H9.08933L6.93029 27.0406L3.86348 27.5067L1.23828 30.1319L2.34234 34.4499L5.62996 39.455L7.05296 44.4355L11.8617 47.7232L15.0512 49.2198L16.9895 54.2984L20.6451 57.2916L19.7619 61.6097L22.8041 64.3821L23.6629 71.2763L26.6806 74.3186L31.4403 74.9565L34.1146 77.6798L34.8506 79.9124L38.5308 80.3295L39.6103 84.2305L42.8243 87.6899L41.5731 91.3947L39.5858 94.5841L42.6526 98.4606L44.3209 102.926L44.3455 105.796L47.8294 108.127L48.1729 113.329L50.5773 120.419L51.2152 124.516L55.9749 125.645L60.9799 123.903L64.3657 125.424L69.5915 123.044L69.1499 116.125L70.0086 110.556L68.7083 103.245L68.6837 97.1848L73.4434 89.4073L75.6025 87.4937V85.9725L78.0805 83.5191L80.1414 75.6189L78.841 71.4971L76.5839 69.2399L76.5593 65.7315L78.792 63.4254Z" fill="#F3F4F6" stroke="#E3E4E7" stroke-width="1.29331"/>
</svg>
