<svg width="248" height="239" viewBox="0 0 248 239" fill="none" xmlns="http://www.w3.org/2000/svg">
<path d="M164.16 202.018H167.659H171.814L174.328 201.032L177.827 202.564H180.014L181.544 205.296L180.451 208.029L176.405 209.998L176.734 212.73H179.029L179.676 216.12L181.077 219.245L184.095 222.263L186.143 224.309L187.005 227.975L190.022 230.993L187.005 235.088L184.203 237.889H179.46L174.61 238.212L172.132 235.735L170.407 232.231H168.198L165.88 234.55H162.109L157.906 230.347L157.097 227.922L153.917 224.741V219.245L151.223 216.55H146.266L142.17 218.06L140.661 214.827L136.566 211.594L132.901 209.654L127.944 212.026L123.417 212.672L119.753 211.594L117.166 206.635L113.501 203.402L110.915 207.714H108.113V204.266L110.7 201.679L108.975 198.014L106.82 192.409L105.957 186.589L102.724 182.709L97.5508 180.769L96.0428 177.106L93.2402 174.302L88.067 175.166H85.0484V171.069L83.5404 166.76L78.2585 165.787L75.5645 168.482L70.6073 170.208L66.2954 167.836H61.7688L59.6141 171.069H55.0876H50.129L49.0517 173.441L46.2491 176.242L45.8184 180.337L40.5378 179.369L37.4119 176.242V171.93L38.8138 167.727L36.5492 165.464H32.8853L32.7301 161.144L30.1021 158.515L29.5007 155.287H26.4213L24.3947 153.259L23.4933 148.903L20.4139 147.776L18.8374 149.353L15.983 146.65L19.8888 142.894L19.2874 136.886L14.1802 131.928L9.82429 132.081V129.527L6.96995 128.024L2.16401 127.422L0.8125 122.315L1.11126 118.559L2.6878 116.983L0.961238 112.552L3.99533 111.178L6.07239 111.067L8.20506 108.935L11.9764 106.914L16.2404 104.289L17.4432 102.102H21.0502L21.4886 95.325L19.7388 92.1538L20.5044 86.4697L19.7388 83.08L24.2214 78.2701L26.2985 79.253L28.7583 77.5588L30.6712 75.6447V73.9518H33.131L36.4665 70.6176L39.0893 69.9619L41.1664 67.8835L40.402 65.9151V63.8381L36.9023 60.9954V57.0598L39.3454 54.5986L42.9369 53.8434L45.583 51.196L49.9311 50.4394L54.6569 48.9262L60.2349 48.2653L62.9767 45.5235L64.111 40.9866L66.5683 38.528L69.5933 41.5531H73.9414L75.6434 37.2049H79.9915L85.0962 38.3392L91.7128 36.6371L94.1701 34.1799H97.9517L99.4636 37.7714L101.828 40.1343H105.891L107.357 41.5996L110.713 38.2434L115.912 36.4483L118.086 38.6224L120.638 35.8819H126.688L127.444 25.6725L129.996 22.7418L131.415 21.3244V17.3539L134.439 15.842L129.713 10.9262L131.981 8.84653L136.064 10.661L143.732 2.99301L146.05 1L147.667 1.5393L151.762 6.38921L151.007 8.75986L152.947 9.72984L153.347 13.0058L150.699 15.6532V20.0013L146.54 20.9454V23.7816L143.705 26.6179V29.8318L145.972 32.1002V35.3141L146.918 38.7181L145.595 41.7431L147.107 43.255L149.565 40.23L151.077 35.8819L154.859 34.9364L158.829 36.8273L161.286 39.2845L164.689 36.0707L166.486 37.8658L167.525 40.23L170.739 39.8523L172.724 37.8658H176.222L179.514 36.566V33.9794L177.333 31.7963L179.353 27.8362L183.718 30.2611L185.254 28.7247L186.789 30.2611L188.891 28.1595L191.639 29.1295L192.771 30.9078L192.286 33.6561L194.549 36.4044L197.297 35.4344L201.986 37.536L205.057 40.6076L208.452 38.8293L212.332 40.2843L214.515 38.1012L216.697 38.8293L218.233 40.3645L220.415 39.6376L221.709 36.8894H223.972L228.983 40.2843L233.833 42.8709L239.33 44.9725L246.766 46.1042V49.4991L242.402 51.7624V56.1273L239.977 62.1089L235.612 65.9888L232.378 70.8387L229.468 73.7487H225.75L222.194 76.8203V82.3169L224.942 86.6818L223.487 91.5317L221.305 93.7135V95.25L223.649 97.675L220.982 100.342L218.314 102.524L214.595 101.715L210.715 104.302L210.877 106.404L212.575 108.102L210.23 110.445L208.614 112.062L206.027 108.182H203.117L200.854 111.9L199.884 115.942L196.327 117.72H192.124L190.831 116.427L189.376 119.337V123.055L187.679 124.753L184.854 127.88L187.623 131.712L192.627 135.331H195.714L198.266 139.054L201.005 136.316L201.88 139.924L200.895 143.202L198.271 148.014V150.636L193.406 151.786L190.509 154.683L186.026 153.044V150.09L183.622 147.686L180.123 145.936L176.844 144.953L172.142 148.452L173.017 152.604L175.094 154.683L175.749 160.478L178.484 164.851L183.84 165.395L186.136 163.865L191.384 165.506L192.914 170.208V174.361H190.4L188.869 172.282L185.262 172.611V174.141L181.926 175.288L177.499 179.716V182.123L174.657 185.947V189.666H172.361L169.41 195.024L168.863 198.194L165.473 199.724L164.16 202.018Z" fill="#F3F4F6" stroke="#E3E4E7" stroke-width="1.29331"/>
</svg>
