<svg width="52" height="47" viewBox="0 0 52 47" fill="none" xmlns="http://www.w3.org/2000/svg">
<path d="M22.4169 7.29323L21.2427 6.26542L19.7621 5.08811L18.6716 4.29353L17.6634 3.61775L13.6637 3.51817L11.3361 3.78486L9.36907 2.65116L7.43483 2.05092L6.32018 1.35059L4.61541 2.88458L4.8449 5.01869L6.51688 5.8857L8.45112 6.48594L9.56577 9.58731L9.79525 11.9882L9.20515 13.9223L9.50021 16.59L8.68061 19.0912L5.92677 20.4583L4.48428 21.959L2.38612 22.1924L0.8125 24.7601L1.66488 27.8947L2.45169 30.229L5.56615 32.2965L8.97567 31.9296L10.9755 30.8959L13.9916 29.4954L16.1881 30.0956L19.0075 31.9296L19.8431 33.49L20.6179 34.4744L22.0569 35.7837L25.3654 36.9273L28.7796 36.9817L32.6295 36.9312L34.2018 40.1774L35.0976 42.5289L39.6192 45.4517L44.0203 46.2852L45.5799 43.7525L49.2651 44.3207L45.7511 40.7686L45.3558 39.3374L44.7129 38.25L44.0338 37.5249L40.1151 36.8999L35.8062 34.5368L32.7385 29.7861L34.6508 26.9518L35.5448 22.8171L35.0355 19.0594L34.4929 18.5431L33.2658 17.6264L33.0357 16.9407L33.9704 12.8537L31.7824 10.6658L31.7008 7.27744L29.1803 6.8597L28.7629 8.55133L26.6882 8.35967L23.9825 8.8078L22.4169 7.29323Z" fill="#F3F4F6" stroke="#E3E4E7" stroke-width="1.29331" stroke-linecap="round"/>
</svg>
