<svg width="317" height="358" viewBox="0 0 317 358" fill="none" xmlns="http://www.w3.org/2000/svg">
<path d="M62.5885 328.348L69.9177 328.133L74.875 329.641H78.5389L82.6348 331.798L86.9454 330.934L89.4247 328.456H91.688L97.2919 331.366H103.112L107.854 330.505L111.734 332.659L116.477 331.366H121.865L124.452 327.701L129.194 328.133L133.505 330.719H138.894L140.834 334.599H144.714V332.013L145.927 329.508L148.109 327.324V324.415L149.887 324.091L152.15 321.828L153.04 319.565V315.766L156.112 312.695L158.455 310.35L162.578 309.623L164.113 308.086V305.177L160.88 303.398L159.83 300.893L157.808 298.872L154.898 297.417V294.992L158.293 293.375L156.838 289.01L157.162 285.615L159.748 283.029L161.688 279.795L164.922 277.532L168.317 280.927L166.215 283.029V285.615L169.125 286.585L172.843 287.717L175.268 288.848L178.016 290.627H181.573L183.836 288.525L187.555 290.465L190.788 291.435H195.961L200.246 289.415L203.721 285.939L205.662 283.188L211.772 279.614L212.435 275.101L218.276 270.852L225.443 268.862L225.045 262.092L227.567 255.854L230.089 250.81L236.991 249.749L242.168 252.005H249.602L251.461 254.793L258.363 255.588L263.74 253.532L268.718 258.509L272.833 257.448L278.542 260.369L280.134 255.059L288.629 251.476L296.594 257.316L301.506 252.406L309.205 249.087L312.39 243.778L306.284 241.123L300.842 237.539L300.818 230.921L305.93 225.854L307.763 224.021L308.086 219.171L311.212 216.046V210.658L307.979 206.131L310.135 202.035L313.26 198.046L316.17 195.137L314.661 191.687L315.524 187.161L314.661 181.987L312.182 184.467L309.703 181.987L304.745 180.91L303.668 176.384L305.824 174.228L305.393 169.27L303.453 165.39L300.867 162.804H298.28L295.909 158.493L297.849 156.984V153.104L296.34 150.517V148.361L299.25 145.667L297.417 141.895L292.675 139.092V136.075L290.735 134.135L292.568 130.902L291.866 126.967L289.765 124.866L289.872 121.417L292.89 122.063L293.698 119.422L296.015 117.105L297.416 113.009L295.692 109.775H297.309L298.495 106.65L296.447 101.692V98.3517L293.107 97.705L293.214 93.5018L290.628 95.981L289.334 94.6877L286.748 96.951L285.347 95.5504L284.808 92.7478L280.712 92.1011L278.018 89.4071L277.425 87.0895L275.54 85.2039L275.324 81.2166L279.258 78.2523L282.437 75.0734L284.054 72.4868H288.364V65.0502L288.795 59.877L284.161 57.2904L282.922 54.7581L281.898 55.7824L280.55 52.9267L281.682 51.7951L283.514 49.9625L287.61 49.3158L287.18 47.0525L289.227 45.0052L288.473 42.2026L285.456 40.586L282.546 39.832L280.929 38.2153L280.066 35.8447H278.019L277.803 33.2581L275.324 35.7374L275.647 38.2166L276.51 41.0179L273.923 43.3899L270.474 39.9406L268.318 37.7847L263.791 40.8033L265.301 45.5445L268.534 48.7778V50.5031L272.414 52.4431L274.893 54.921L276.294 58.263V60.8496L272.63 57.399L269.289 54.0584L265.949 56.1057L263.362 53.951L258.835 50.5031V46.6232V41.2327L262.715 37.354L263.578 31.7501V25.4982L264.655 20.9716H261.206L259.697 24.2049L261.206 27.8702L259.482 32.3968L256.895 36.4914H252.369L246.98 41.8806L243.53 45.3299L246.656 48.4545L246.117 52.8724L247.41 56.9696L248.92 61.7109L244.609 66.0228L242.669 71.6254L239.652 76.3693L240.298 83.2652L237.712 85.8518L238.358 89.949H242.238L243.962 92.3184L247.196 90.8104L249.675 88.3324L252.692 91.3497L257.973 93.1823L259.697 94.9063L262.499 97.4916L264.655 101.804L263.146 105.251L264.439 109.349L263.146 112.15L259.697 113.229L260.127 117.109V119.695L261.96 121.526L266.81 122.928V125.944L261.853 124.868L257.542 120.557V117.323L257.326 112.15L260.775 108.701L258.189 102.018L256.141 99.9709L254.741 95.7689L249.783 96.4156H245.257L242.347 99.3255L239.437 102.235L239.868 106.33L240.945 110.857L239.652 116.03L236.958 118.725L233.617 122.066L231.677 124.006V128.532L227.367 130.903L221.977 132.412L220.684 133.706H217.881C217.881 133.706 214.755 135.106 215.618 135.969C216.481 136.832 214.864 139.741 214.864 139.741H210.984L208.398 136.076L204.734 136.292L200.423 133.275L197.19 131.766L193.956 126.808V122.712L197.19 123.79L199.453 126.053L203.01 128.316L206.243 126.162L211.632 127.239L214.649 125.515L217.883 120.773L223.487 115.169L228.229 113.875L229.092 105.899L233.834 102.235L234.481 98.7862L230.708 95.0136L229.092 89.3024L230.816 85.2065L233.186 77.0159L234.696 67.7468L239.006 61.2803L240.084 55.4604L241.377 48.1311L237.713 44.8979L239.437 39.294L245.58 33.1508L246.55 25.2836L248.706 23.1276L246.766 15.7984H242.24L239.653 13.2118H234.48L231.893 9.54784L227.797 11.7038L225.427 16.877L223.271 22.0503L220.468 28.3009L216.804 31.9648L215.187 33.5814L210.554 35.8447L206.243 37.354L203.872 40.3713L202.363 44.6832L205.166 45.5445V48.7778L203.226 51.3644L202.148 56.5377V59.9869L197.838 62.1429L195.79 64.1889L198.054 68.8241L202.15 71.6267L201.287 77.6626L203.658 83.2665L207.107 84.3438L202.15 88.8704V93.397L197.839 95.9836L194.822 91.2424V86.9304L191.158 81.9732L187.709 76.584L182.643 71.5181L180.952 68.0701L179.195 70.6568L175.8 74.0517L177.901 76.046L178.332 77.6626L179.949 78.2019V85.5311H177.901L176.931 87.9017L175.207 88.7644L174.884 91.135L174.556 92.7503L178.866 94.9063V97.7089L174.879 99.3255L178.219 102.666L173.046 105.253L169.166 109.133H165.07L163.561 113.875H156.232L149.335 115.385L142.437 119.264V124.007L136.786 123.791L132.593 124.436L130.33 127.023L126.288 129.125L122.246 133.166L118.528 133.651V130.256L115.78 129.286L112.465 132.601L108.019 137.048L106.079 140.766L106.887 145.454L101.714 148.687L101.229 152.567L96.8638 155.316L93.9539 160.812L94.7622 164.53L92.9839 167.925V170.835L87.649 176.17L86.9202 179.969L84.8981 181.99L83.7665 185.062V188.457L79.4015 190.72V195.085L76.9766 201.066L72.6117 204.946L69.3784 209.796L66.4684 212.706H62.7502L59.1936 215.778V221.274L61.9419 225.639L60.4869 230.489L58.3051 232.671V234.207L60.6485 236.632L57.9817 239.299L55.3136 241.481L51.5954 240.673L47.7154 243.259L47.8771 245.361L49.5752 247.059L47.2305 249.403L45.6138 251.019L43.0272 247.139H40.1172L37.854 250.858L36.884 254.899L33.3274 256.677H29.1241L27.8308 255.384L26.3758 258.294V262.012L24.679 263.71L21.8544 266.838L24.6234 270.67L29.6272 274.288H32.7143L35.266 278.012L38.0053 275.274L38.8796 278.881L37.8953 282.159L35.2712 286.972V289.593L30.4058 290.743L27.5087 293.64L23.0262 292.002V289.048L20.6219 286.643L17.1235 284.894L13.8437 283.911L9.14246 287.409L10.0167 291.562L12.0938 293.64L12.7495 299.436L15.4836 303.808L20.8405 304.353L23.1361 302.823L28.3843 304.464L29.9143 309.165V313.318H27.4001L25.8689 311.24L22.2618 311.568V313.098L18.9264 314.245L14.4993 318.674V321.08L11.6567 324.905V328.623H9.36104L6.40969 333.981L5.86261 337.151L2.47288 338.681L1.16016 340.975H8.81396L11.3282 339.99L14.8265 341.521H17.0135L18.5435 344.254L17.4507 346.987L13.4052 348.955L13.7337 351.688H16.0294L16.676 355.078L18.4 350.551L22.7119 351.627L26.3758 350.551L27.8851 346.671L26.3758 341.281L30.0397 339.773L35.645 339.558L39.3089 343.221H42.3262L45.0215 340.528L42.1115 337.618L39.7396 335.246L37.369 333.738L40.3862 330.719L38.8783 327.486L40.3862 322.745H44.9128L49.8714 325.331L53.3193 328.348L57.1993 327.271L62.5885 328.348ZM274.813 28.4341L272.661 30.5861L270.314 32.5429L272.466 34.1078L274.226 32.5429H276.965L279.508 30.1942L277.16 27.8482L274.813 28.4341ZM267.771 6.72196L266.011 8.28687L267.184 10.0471L269.531 8.48216L272.466 9.26461L271.683 7.50441L267.771 6.72196ZM258.772 14.5465L257.794 17.0891L259.359 18.4587L261.119 16.3067L258.772 14.5465ZM237.844 1.83197L235.692 3.39686L236.474 5.15835L234.909 7.30912L235.3 8.67874L238.821 9.65648L242.146 8.09158L244.103 8.28816V6.33138L240.973 5.54893L242.538 3.78873L240.777 1.24609L238.626 2.02854L237.844 1.83197Z" fill="#F3F4F6" stroke="#E3E4E7" stroke-width="1.29331"/>
</svg>
