<svg width="217" height="66" viewBox="0 0 217 66" fill="none" xmlns="http://www.w3.org/2000/svg">
<path d="M29.7385 7.70911V20.5131L19.2031 31.0572V7.70911H29.7385Z" fill="white"/>
<path d="M29.7385 35.4232V60.7271L24.4761 66L19.2031 60.7271V45.9691L29.7385 35.4232Z" fill="white"/>
<path d="M10.5459 7.70936V52.0636L0 41.5282V6.10352e-05L10.5459 7.70936Z" fill="white"/>
<path d="M48.9365 0V41.5282L38.3906 52.0636V7.7093L48.9365 0Z" fill="white"/>
<path d="M76.5666 47.3846H70.4012V37.6176C68.9897 41.1765 67.1062 44.4322 64.7521 47.3846H58.9375V18.3328H65.1029V39.5635C67.3734 36.6406 68.8865 33.2587 69.6438 29.4243C70.1487 26.8309 70.3996 23.1343 70.3996 18.3328H76.565V47.3846H76.5666Z" fill="white"/>
<path d="M98.4592 37.9897C98.4592 41.4651 97.8658 43.9224 96.6806 45.3552C95.3839 46.9551 93.0397 47.7551 89.6447 47.7551C86.2775 47.7551 83.9333 46.942 82.6088 45.3142C81.4498 43.8798 80.8711 41.4389 80.8711 37.9897V27.726C80.8711 24.2491 81.4498 21.8081 82.6088 20.4C83.9055 18.8 86.2513 18 89.6447 18C93.5626 18 96.1003 19.0623 97.2593 21.1868C98.0593 22.6507 98.4592 25.5195 98.4592 29.7948H92.0856V26.1966C92.0856 25.2031 91.9479 24.5146 91.6725 24.1277C91.3135 23.6868 90.6381 23.4655 89.6447 23.4655C88.707 23.4655 88.0578 23.6523 87.7005 24.0245C87.3415 24.3982 87.1628 25.0523 87.1628 25.9916V39.7307C87.1628 40.6684 87.3415 41.3307 87.7005 41.7175C88.0578 42.1044 88.707 42.2979 89.6447 42.2979C90.6922 42.2979 91.3823 42.0634 91.7135 41.5946C91.9627 41.2094 92.0856 40.5044 92.0856 39.4832V34.5177H98.4592V37.9897Z" fill="white"/>
<path d="M119.773 19.159C119.773 23.5736 118.13 27.4637 114.848 30.8292C116.889 32.9259 118.268 35.5062 118.986 38.5668C119.509 40.6913 119.773 43.6306 119.773 47.3813H113.607C113.607 44.2912 113.497 41.9749 113.276 40.429C112.889 37.8635 112.104 35.7111 110.917 33.9734C109.979 34.58 109.179 35.0357 108.517 35.339V47.3813H102.434V18.3328H108.517V30.6653C111.91 28.044 113.607 23.9343 113.607 18.3328H119.773C119.773 18.4147 119.773 18.5541 119.773 18.7459C119.773 18.9393 119.773 19.077 119.773 19.159Z" fill="white"/>
<path d="M140.544 47.3846H134.379V41.7978H129.33V47.3846H123.164V41.7978C123.164 31.1391 125.108 23.3163 128.998 18.3328H134.669C138.587 23.5376 140.546 31.3604 140.546 41.7978V47.3846H140.544ZM134.377 36.9553C134.377 32.0997 133.536 27.3818 131.852 22.8015C130.169 27.3818 129.328 32.0997 129.328 36.9553H134.377Z" fill="white"/>
<path d="M156.767 23.6294H152.38V47.383H146.131V23.6294H141.785V18.3328H156.765V23.6294H156.767Z" fill="white"/>
<path d="M173.733 47.3846H159.953V18.3328H173.361V23.7949H166.037V28.885H173.733V34.098H166.037V41.9192H173.733V47.3846Z" fill="white"/>
<path d="M194.63 47.3846H188.465V23.5474C187.55 24.3474 186.774 25.2293 186.138 26.1965C184.809 28.2112 183.978 31.6456 183.647 36.5012C183.535 38.1012 183.481 41.729 183.481 47.3846H177.25V42.5831C177.25 38.0865 177.47 34.4865 177.912 31.7833C178.602 27.5342 179.912 24.2376 181.843 21.8917C182.974 20.5409 184.381 19.3541 186.065 18.3328H194.632V47.3846H194.63Z" fill="white"/>
<path d="M216.938 38.0733C216.938 41.5487 216.413 43.9224 215.364 45.1912C214.179 46.6535 211.889 47.3846 208.495 47.3846H199.309V18.3328H205.392V28.7621C206.467 28.5965 207.558 28.5129 208.661 28.5129C211.695 28.5129 213.876 29.3686 215.2 31.0784C216.357 32.5964 216.938 34.9275 216.938 38.0733ZM210.771 38.0733C210.771 36.6668 210.631 35.6718 210.354 35.0931C209.938 34.1833 209.117 33.7275 207.894 33.7275C207.059 33.7275 206.225 33.7964 205.392 33.9341V41.9208H207.018C208.436 41.9208 209.417 41.6323 209.958 41.052C210.5 40.4733 210.771 39.4799 210.771 38.0733Z" fill="white"/>
</svg>
