<svg width="901" height="94" viewBox="0 0 901 94" fill="none" xmlns="http://www.w3.org/2000/svg">
<path d="M27.9121 40.5952H11.2495L11.1885 28.6934H24.6772C26.2642 28.6934 27.5256 28.4696 28.4614 28.022C29.3973 27.5744 30.0687 26.9233 30.4756 26.0688C30.9232 25.1737 31.147 24.075 31.147 22.7729C31.147 21.5522 31.0046 20.535 30.7197 19.7212C30.4349 18.8667 30.0076 18.175 29.438 17.646C28.8683 17.0763 28.1562 16.6694 27.3018 16.4253C26.4473 16.1812 25.4707 16.0591 24.3721 16.0591H17.5361V68H0.446289V1.95996H24.3721C28.0342 1.95996 31.3301 2.34652 34.2598 3.11963C37.1895 3.85205 39.7122 4.97103 41.8281 6.47656C43.944 7.9821 45.5513 9.89453 46.6499 12.2139C47.7485 14.5332 48.2979 17.2594 48.2979 20.3926C48.2979 22.4271 47.891 24.3395 47.0771 26.1299C46.2633 27.8796 45.063 29.4461 43.4761 30.8296C41.9299 32.2131 39.9971 33.3524 37.6777 34.2476C35.3584 35.1021 32.7135 35.631 29.7432 35.8345L27.9121 40.5952ZM27.9121 68H6.91602L13.0806 53.9009H27.9121C29.4176 53.9009 30.618 53.6567 31.5132 53.1685C32.4084 52.6802 33.0594 51.9478 33.4663 50.9712C33.8732 49.9946 34.0767 48.7943 34.0767 47.3701C34.0767 46.0273 33.8936 44.8473 33.5273 43.8301C33.2018 42.7721 32.5915 41.9787 31.6963 41.4497C30.8011 40.88 29.5397 40.5952 27.9121 40.5952H14.1182L14.2402 28.6934H29.499L33.4663 33.5151C37.6167 33.8 40.994 34.6748 43.5981 36.1396C46.2023 37.6045 48.1147 39.4762 49.3354 41.7549C50.5562 43.9928 51.1665 46.4546 51.1665 49.1401C51.1665 52.2733 50.6579 55.0199 49.6406 57.3799C48.6234 59.7399 47.1382 61.7134 45.1851 63.3003C43.2726 64.8465 40.8516 66.0265 37.9219 66.8403C35.0329 67.6134 31.6963 68 27.9121 68ZM58.6504 37.2383V32.7827C58.6504 27.6151 59.2607 23.0374 60.4814 19.0498C61.7428 15.0622 63.5332 11.7256 65.8525 9.04004C68.1719 6.3138 70.9591 4.25895 74.2144 2.87549C77.5103 1.45133 81.1927 0.739258 85.2617 0.739258C89.3714 0.739258 93.0539 1.45133 96.3091 2.87549C99.605 4.25895 102.413 6.3138 104.732 9.04004C107.092 11.7256 108.903 15.0622 110.164 19.0498C111.425 23.0374 112.056 27.6151 112.056 32.7827V37.2383C112.056 42.3652 111.425 46.9225 110.164 50.9102C108.903 54.8978 107.092 58.2547 104.732 60.981C102.413 63.7072 99.6253 65.762 96.3701 67.1455C93.1149 68.529 89.4528 69.2207 85.3838 69.2207C81.3148 69.2207 77.6323 68.529 74.3364 67.1455C71.0812 65.762 68.2736 63.7072 65.9136 60.981C63.5535 58.2547 61.7428 54.8978 60.4814 50.9102C59.2607 46.9225 58.6504 42.3652 58.6504 37.2383ZM75.7402 32.7827V37.2383C75.7402 40.29 75.9437 42.9349 76.3506 45.1729C76.7982 47.4108 77.4289 49.2622 78.2427 50.7271C79.0972 52.1919 80.1144 53.2702 81.2944 53.9619C82.4744 54.6536 83.8376 54.9995 85.3838 54.9995C86.93 54.9995 88.3135 54.6536 89.5342 53.9619C90.7549 53.2702 91.7518 52.1919 92.5249 50.7271C93.3387 49.2622 93.9287 47.4108 94.2949 45.1729C94.7018 42.9349 94.9053 40.29 94.9053 37.2383V32.7827C94.9053 29.8123 94.6815 27.2082 94.2339 24.9702C93.7863 22.6916 93.1556 20.8402 92.3418 19.416C91.528 17.9512 90.5107 16.8525 89.29 16.1201C88.11 15.347 86.7673 14.9604 85.2617 14.9604C83.7562 14.9604 82.4134 15.347 81.2334 16.1201C80.0941 16.8525 79.0972 17.9512 78.2427 19.416C77.4289 20.8402 76.7982 22.6916 76.3506 24.9702C75.9437 27.2082 75.7402 29.8123 75.7402 32.7827ZM148.471 69.2207C143.954 69.2207 139.946 68.529 136.447 67.1455C132.988 65.762 130.058 63.7682 127.658 61.1641C125.257 58.5192 123.426 55.325 122.165 51.5815C120.903 47.8381 120.272 43.5656 120.272 38.7642V33.332C120.272 27.9609 120.883 23.2612 122.104 19.2329C123.324 15.1639 125.054 11.7459 127.292 8.979C129.529 6.21208 132.276 4.15723 135.531 2.81445C138.827 1.43099 142.55 0.739258 146.701 0.739258C150.851 0.739258 154.493 1.43099 157.626 2.81445C160.8 4.15723 163.424 6.19173 165.5 8.91797C167.575 11.6035 169.141 14.9401 170.199 18.9277C171.257 22.9154 171.786 27.554 171.786 32.8438V40.6562H127.536V28.6323H155.001V27.1064C155.001 24.4209 154.717 22.1829 154.147 20.3926C153.577 18.5615 152.682 17.1984 151.461 16.3032C150.241 15.408 148.613 14.9604 146.579 14.9604C144.87 14.9604 143.425 15.3063 142.245 15.998C141.065 16.6898 140.129 17.7681 139.438 19.2329C138.746 20.6978 138.237 22.6102 137.912 24.9702C137.586 27.2896 137.423 30.0768 137.423 33.332V38.7642C137.423 41.8159 137.688 44.3794 138.217 46.4546C138.746 48.4891 139.519 50.1574 140.536 51.4595C141.594 52.7209 142.876 53.6364 144.381 54.2061C145.887 54.735 147.637 54.9995 149.63 54.9995C152.641 54.9995 155.347 54.4705 157.748 53.4126C160.189 52.314 162.265 50.8288 163.974 48.957L170.81 59.333C169.63 60.8792 168.002 62.4255 165.927 63.9717C163.852 65.5179 161.369 66.7793 158.48 67.7559C155.591 68.7324 152.255 69.2207 148.471 69.2207ZM218.638 28.4492V42.6094H192.271V28.4492H218.638ZM197.825 1.95996V68H180.674V1.95996H197.825ZM230.295 1.95996V68H213.206V1.95996H230.295ZM280.016 28.4492V42.6094H253.648V28.4492H280.016ZM259.203 1.95996V68H242.052V1.95996H259.203ZM291.673 1.95996V68H274.583V1.95996H291.673ZM301.477 37.2383V32.7827C301.477 27.6151 302.087 23.0374 303.308 19.0498C304.569 15.0622 306.359 11.7256 308.679 9.04004C310.998 6.3138 313.785 4.25895 317.041 2.87549C320.336 1.45133 324.019 0.739258 328.088 0.739258C332.198 0.739258 335.88 1.45133 339.135 2.87549C342.431 4.25895 345.239 6.3138 347.558 9.04004C349.918 11.7256 351.729 15.0622 352.99 19.0498C354.252 23.0374 354.882 27.6151 354.882 32.7827V37.2383C354.882 42.3652 354.252 46.9225 352.99 50.9102C351.729 54.8978 349.918 58.2547 347.558 60.981C345.239 63.7072 342.451 65.762 339.196 67.1455C335.941 68.529 332.279 69.2207 328.21 69.2207C324.141 69.2207 320.458 68.529 317.163 67.1455C313.907 65.762 311.1 63.7072 308.74 60.981C306.38 58.2547 304.569 54.8978 303.308 50.9102C302.087 46.9225 301.477 42.3652 301.477 37.2383ZM318.566 32.7827V37.2383C318.566 40.29 318.77 42.9349 319.177 45.1729C319.624 47.4108 320.255 49.2622 321.069 50.7271C321.923 52.1919 322.941 53.2702 324.121 53.9619C325.301 54.6536 326.664 54.9995 328.21 54.9995C329.756 54.9995 331.14 54.6536 332.36 53.9619C333.581 53.2702 334.578 52.1919 335.351 50.7271C336.165 49.2622 336.755 47.4108 337.121 45.1729C337.528 42.9349 337.731 40.29 337.731 37.2383V32.7827C337.731 29.8123 337.508 27.2082 337.06 24.9702C336.612 22.6916 335.982 20.8402 335.168 19.416C334.354 17.9512 333.337 16.8525 332.116 16.1201C330.936 15.347 329.593 14.9604 328.088 14.9604C326.582 14.9604 325.24 15.347 324.06 16.1201C322.92 16.8525 321.923 17.9512 321.069 19.416C320.255 20.8402 319.624 22.6916 319.177 24.9702C318.77 27.2082 318.566 29.8123 318.566 32.7827ZM403.321 1.95996V16.1812H381.775V68H364.686V1.95996H403.321ZM406.898 37.2383V32.7827C406.898 27.6151 407.509 23.0374 408.729 19.0498C409.991 15.0622 411.781 11.7256 414.101 9.04004C416.42 6.3138 419.207 4.25895 422.462 2.87549C425.758 1.45133 429.441 0.739258 433.51 0.739258C437.619 0.739258 441.302 1.45133 444.557 2.87549C447.853 4.25895 450.661 6.3138 452.98 9.04004C455.34 11.7256 457.151 15.0622 458.412 19.0498C459.674 23.0374 460.304 27.6151 460.304 32.7827V37.2383C460.304 42.3652 459.674 46.9225 458.412 50.9102C457.151 54.8978 455.34 58.2547 452.98 60.981C450.661 63.7072 447.873 65.762 444.618 67.1455C441.363 68.529 437.701 69.2207 433.632 69.2207C429.563 69.2207 425.88 68.529 422.584 67.1455C419.329 65.762 416.522 63.7072 414.162 60.981C411.802 58.2547 409.991 54.8978 408.729 50.9102C407.509 46.9225 406.898 42.3652 406.898 37.2383ZM423.988 32.7827V37.2383C423.988 40.29 424.192 42.9349 424.599 45.1729C425.046 47.4108 425.677 49.2622 426.491 50.7271C427.345 52.1919 428.362 53.2702 429.542 53.9619C430.722 54.6536 432.086 54.9995 433.632 54.9995C435.178 54.9995 436.562 54.6536 437.782 53.9619C439.003 53.2702 440 52.1919 440.773 50.7271C441.587 49.2622 442.177 47.4108 442.543 45.1729C442.95 42.9349 443.153 40.29 443.153 37.2383V32.7827C443.153 29.8123 442.93 27.2082 442.482 24.9702C442.034 22.6916 441.404 20.8402 440.59 19.416C439.776 17.9512 438.759 16.8525 437.538 16.1201C436.358 15.347 435.015 14.9604 433.51 14.9604C432.004 14.9604 430.661 15.347 429.481 16.1201C428.342 16.8525 427.345 17.9512 426.491 19.416C425.677 20.8402 425.046 22.6916 424.599 24.9702C424.192 27.2082 423.988 29.8123 423.988 32.7827ZM536.551 1.95996V16.1812H515.006V68H497.916V1.95996H536.551ZM540.129 37.2383V32.7827C540.129 27.6151 540.739 23.0374 541.96 19.0498C543.221 15.0622 545.012 11.7256 547.331 9.04004C549.65 6.3138 552.438 4.25895 555.693 2.87549C558.989 1.45133 562.671 0.739258 566.74 0.739258C570.85 0.739258 574.532 1.45133 577.788 2.87549C581.083 4.25895 583.891 6.3138 586.21 9.04004C588.57 11.7256 590.381 15.0622 591.643 19.0498C592.904 23.0374 593.535 27.6151 593.535 32.7827V37.2383C593.535 42.3652 592.904 46.9225 591.643 50.9102C590.381 54.8978 588.57 58.2547 586.21 60.981C583.891 63.7072 581.104 65.762 577.849 67.1455C574.593 68.529 570.931 69.2207 566.862 69.2207C562.793 69.2207 559.111 68.529 555.815 67.1455C552.56 65.762 549.752 63.7072 547.392 60.981C545.032 58.2547 543.221 54.8978 541.96 50.9102C540.739 46.9225 540.129 42.3652 540.129 37.2383ZM557.219 32.7827V37.2383C557.219 40.29 557.422 42.9349 557.829 45.1729C558.277 47.4108 558.907 49.2622 559.721 50.7271C560.576 52.1919 561.593 53.2702 562.773 53.9619C563.953 54.6536 565.316 54.9995 566.862 54.9995C568.409 54.9995 569.792 54.6536 571.013 53.9619C572.233 53.2702 573.23 52.1919 574.003 50.7271C574.817 49.2622 575.407 47.4108 575.773 45.1729C576.18 42.9349 576.384 40.29 576.384 37.2383V32.7827C576.384 29.8123 576.16 27.2082 575.712 24.9702C575.265 22.6916 574.634 20.8402 573.82 19.416C573.007 17.9512 571.989 16.8525 570.769 16.1201C569.589 15.347 568.246 14.9604 566.74 14.9604C565.235 14.9604 563.892 15.347 562.712 16.1201C561.573 16.8525 560.576 17.9512 559.721 19.416C558.907 20.8402 558.277 22.6916 557.829 24.9702C557.422 27.2082 557.219 29.8123 557.219 32.7827ZM620.428 14.6553V93.3906H603.399V1.95996H619.146L620.428 14.6553ZM654.729 32.7217V37.1162C654.729 42.2839 654.282 46.8615 653.387 50.8491C652.492 54.7961 651.149 58.153 649.358 60.9199C647.609 63.6462 645.411 65.7214 642.767 67.1455C640.122 68.529 637.029 69.2207 633.489 69.2207C630.193 69.2207 627.345 68.4476 624.944 66.9014C622.584 65.3145 620.59 63.1375 618.963 60.3706C617.335 57.6037 616.033 54.3688 615.057 50.666C614.08 46.9632 613.327 42.9959 612.798 38.7642V31.9282C613.287 27.4116 613.999 23.2612 614.935 19.4771C615.87 15.6522 617.152 12.3359 618.78 9.52832C620.448 6.7207 622.462 4.56413 624.822 3.05859C627.223 1.51237 630.071 0.739258 633.367 0.739258C636.948 0.739258 640.061 1.3903 642.706 2.69238C645.391 3.99447 647.609 5.96794 649.358 8.61279C651.149 11.217 652.492 14.5332 653.387 18.5615C654.282 22.5898 654.729 27.3099 654.729 32.7217ZM637.64 37.1162V32.7217C637.64 29.5479 637.457 26.842 637.09 24.604C636.765 22.366 636.236 20.535 635.503 19.1108C634.771 17.6867 633.815 16.6491 632.635 15.998C631.455 15.347 630.01 15.0215 628.301 15.0215C626.633 15.0215 625.168 15.347 623.907 15.998C622.686 16.6491 621.689 17.6053 620.916 18.8667C620.143 20.0874 619.553 21.5929 619.146 23.3833C618.739 25.133 618.515 27.1268 618.475 29.3647V41.3276C618.556 43.9725 618.902 46.3122 619.512 48.3467C620.163 50.3812 621.201 52.0088 622.625 53.2295C624.049 54.4095 625.982 54.9995 628.423 54.9995C630.173 54.9995 631.618 54.6333 632.757 53.9009C633.937 53.1685 634.893 52.0698 635.625 50.605C636.358 49.1401 636.867 47.2887 637.151 45.0508C637.477 42.8128 637.64 40.168 637.64 37.1162ZM662.274 37.2383V32.7827C662.274 27.6151 662.885 23.0374 664.105 19.0498C665.367 15.0622 667.157 11.7256 669.477 9.04004C671.796 6.3138 674.583 4.25895 677.838 2.87549C681.134 1.45133 684.817 0.739258 688.886 0.739258C692.995 0.739258 696.678 1.45133 699.933 2.87549C703.229 4.25895 706.037 6.3138 708.356 9.04004C710.716 11.7256 712.527 15.0622 713.788 19.0498C715.049 23.0374 715.68 27.6151 715.68 32.7827V37.2383C715.68 42.3652 715.049 46.9225 713.788 50.9102C712.527 54.8978 710.716 58.2547 708.356 60.981C706.037 63.7072 703.249 65.762 699.994 67.1455C696.739 68.529 693.077 69.2207 689.008 69.2207C684.939 69.2207 681.256 68.529 677.96 67.1455C674.705 65.762 671.898 63.7072 669.538 60.981C667.178 58.2547 665.367 54.8978 664.105 50.9102C662.885 46.9225 662.274 42.3652 662.274 37.2383ZM679.364 32.7827V37.2383C679.364 40.29 679.568 42.9349 679.975 45.1729C680.422 47.4108 681.053 49.2622 681.867 50.7271C682.721 52.1919 683.738 53.2702 684.918 53.9619C686.098 54.6536 687.462 54.9995 689.008 54.9995C690.554 54.9995 691.938 54.6536 693.158 53.9619C694.379 53.2702 695.376 52.1919 696.149 50.7271C696.963 49.2622 697.553 47.4108 697.919 45.1729C698.326 42.9349 698.529 40.29 698.529 37.2383V32.7827C698.529 29.8123 698.306 27.2082 697.858 24.9702C697.41 22.6916 696.78 20.8402 695.966 19.416C695.152 17.9512 694.135 16.8525 692.914 16.1201C691.734 15.347 690.391 14.9604 688.886 14.9604C687.38 14.9604 686.037 15.347 684.857 16.1201C683.718 16.8525 682.721 17.9512 681.867 19.416C681.053 20.8402 680.422 22.6916 679.975 24.9702C679.568 27.2082 679.364 29.8123 679.364 32.7827ZM731.16 1.95996H748.25L747.944 23.8716C747.822 31.033 747.11 37.1772 745.808 42.3042C744.506 47.4312 742.756 51.724 740.559 55.1826C738.403 58.6413 735.9 61.4082 733.052 63.4834C730.203 65.5179 727.172 67.0234 723.958 68H720.906L720.723 53.9619L722.371 53.7788C724.324 51.5815 725.85 49.4453 726.948 47.3701C728.088 45.2949 728.922 43.1383 729.451 40.9004C729.98 38.6217 730.326 36.1193 730.488 33.3931C730.692 30.6261 730.814 27.4523 730.854 23.8716L731.16 1.95996ZM735.615 1.95996H774.067V68H757.039V16.4863H735.615V1.95996ZM717.427 53.7788H782.734V87.8975H765.645V68H735.005V87.8975H717.427V53.7788ZM807.918 1.95996V68H790.768V1.95996H807.918ZM843.807 1.95996L819.881 43.647H804.806L802.608 26.7402H812.069L822.262 1.95996H843.807ZM822.506 68L811.031 40.3511L825.924 31.7451L845.211 68H822.506ZM880.649 52.8022V22.2847C880.649 20.2909 880.405 18.7039 879.917 17.5239C879.469 16.3439 878.777 15.4894 877.841 14.9604C876.946 14.3908 875.847 14.106 874.545 14.106C873.081 14.106 871.86 14.4111 870.883 15.0215C869.907 15.6318 869.174 16.5067 868.686 17.646C868.238 18.7853 868.015 20.1484 868.015 21.7354H850.864C850.864 18.887 851.413 16.2015 852.512 13.6787C853.61 11.1152 855.218 8.87728 857.333 6.96484C859.49 5.01172 862.054 3.48584 865.024 2.38721C867.994 1.28857 871.331 0.739258 875.034 0.739258C879.428 0.739258 883.334 1.49202 886.752 2.99756C890.17 4.4624 892.876 6.80208 894.87 10.0166C896.864 13.2311 897.861 17.4019 897.861 22.5288V51.9478C897.861 55.6506 898.044 58.6616 898.41 60.981C898.817 63.3003 899.407 65.2941 900.18 66.9624V68H882.968C882.195 66.1689 881.605 63.8903 881.198 61.1641C880.832 58.3971 880.649 55.6099 880.649 52.8022ZM882.724 27.6558L882.785 37.9097H876.499C874.871 37.9097 873.447 38.1742 872.226 38.7031C871.046 39.2321 870.049 39.9849 869.235 40.9614C868.422 41.8973 867.811 42.9959 867.404 44.2573C867.038 45.5187 866.855 46.8615 866.855 48.2856C866.855 49.8726 867.079 51.2153 867.526 52.314C867.974 53.4126 868.645 54.2467 869.541 54.8164C870.436 55.3861 871.494 55.6709 872.714 55.6709C874.586 55.6709 876.214 55.2843 877.597 54.5112C878.981 53.7381 879.998 52.8022 880.649 51.7036C881.341 50.605 881.564 49.5877 881.32 48.6519L885.227 55.3047C884.738 56.8102 884.067 58.3768 883.212 60.0044C882.399 61.632 881.361 63.1375 880.1 64.521C878.838 65.9045 877.272 67.0438 875.4 67.939C873.569 68.7935 871.392 69.2207 868.869 69.2207C865.329 69.2207 862.094 68.4069 859.165 66.7793C856.235 65.1517 853.916 62.873 852.207 59.9434C850.538 57.0137 849.704 53.5347 849.704 49.5063C849.704 46.1698 850.233 43.1587 851.291 40.4731C852.39 37.7469 854.017 35.4479 856.174 33.5762C858.33 31.6637 861.057 30.1989 864.353 29.1816C867.648 28.1644 871.514 27.6558 875.949 27.6558H882.724Z" fill="white"/>
</svg>
