<svg width="502" height="420" viewBox="0 0 502 420" fill="none" xmlns="http://www.w3.org/2000/svg">
<path d="M186.164 253.727C190.676 253.44 194.911 253.155 198.879 252.874M186.164 253.727C184.352 253.842 182.49 253.867 180.582 253.806M186.164 253.727C194.085 266.418 213.176 310.394 211.285 336.716M198.879 252.874C200.112 250.547 201.757 247.809 203.842 244.934M198.879 252.874C201.464 252.691 203.833 252.465 206.012 252.204M85.6822 215.191L90.9544 209.094M85.6822 215.191C100.735 224.676 117.266 233.945 133.442 241.026M85.6822 215.191C67.766 208.401 48.3345 209.621 32.8664 218.849M90.9544 209.094C90.3342 208.681 88.9076 207.545 88.1632 206.305M90.9544 209.094C92.0518 207.998 93.4279 206.671 94.9861 205.229M117.005 189.568L117.936 196.696M117.005 189.568L118.556 187.534M117.005 189.568C114.918 190.143 112.327 191.55 109.562 193.397M121.967 183.059L118.556 187.534M121.967 183.059C126.826 183.332 137.288 184.831 140.265 188.638C140.851 189.387 141.598 189.754 142.436 189.837M121.967 183.059C121.967 174.788 130.858 165.768 135.303 162.292M121.967 183.059C119.273 181.128 115.299 177.948 112.043 174.625M172.829 145.555C172.769 144.903 172.613 144.283 172.369 143.695M172.829 145.555C174.276 144.953 176.922 144.58 175.93 147.906M172.829 145.555C173.371 146.147 174.356 147.006 175.588 147.717M189.265 148.964C188.581 148.964 187.593 150.053 186.784 151.428M189.265 148.964C189.968 147.954 190.838 146.789 191.834 145.555M189.265 148.964C188.115 148.893 185.776 148.801 183.373 148.835M218.107 159.503C219.555 158.056 222.635 153.924 223.38 148.964C224.31 142.766 220.589 135.017 211.285 132.847C206.412 131.711 200.298 136.358 195.468 141.413M218.107 159.503C218.702 160.188 219.449 161.394 219.906 162.912M218.107 159.503C214.84 156.143 208.064 149.751 204.772 148.544M202.291 186.158C207.563 183.369 216.557 175.31 219.348 169.731C220.594 167.241 220.482 164.828 219.906 162.912M202.291 186.158V191.236C202.291 191.363 202.281 191.489 202.26 191.615C202.039 192.93 201.597 195.516 201.361 196.696C201.141 197.792 200.612 200.128 200.43 201.731M202.291 186.158V183.679M200.43 203.205C200.74 204.135 204.462 203.825 203.842 208.784C203.345 212.752 200.327 213.744 198.879 213.744M200.43 203.205C199.086 204.342 196.895 208.04 198.879 213.744M200.43 203.205C200.339 202.933 200.355 202.395 200.43 201.731M198.879 213.744L198.104 215.913M197.329 238.229C195.027 234.088 194.861 229.092 195.097 226.66C195.13 226.317 195.262 225.995 195.431 225.694C196.638 223.544 197.165 220.179 197.306 218.412C197.323 218.193 197.366 217.978 197.44 217.771L198.104 215.913M197.329 238.229C200.43 243.808 203.842 240.791 203.842 244.934M197.329 238.229C190.145 244.468 182.911 246.256 180.192 246.371M203.842 244.934C206.963 240.629 211.07 236.02 216.249 232.03M180.582 253.806C180.168 252.953 179.589 250.751 180.582 248.768M180.582 253.806C178.464 253.739 176.291 253.568 174.069 253.299M180.582 248.768L178.653 248.96C177.986 249.027 177.476 249.585 177.47 250.256V250.256C177.463 250.976 176.877 251.557 176.157 251.557H174.168M180.582 248.768C180.954 248.024 180.713 247.226 180.192 246.371M179.651 204.445C179.565 204.101 178.764 204.377 177.458 205.128M179.651 204.445C179.725 204.74 179.655 205.388 179.5 206.217M179.651 204.445C181.63 203.434 185.513 199.377 185.217 191.244M160.734 218.083C159.039 219.601 157.741 220.988 156.702 222.24M160.734 218.083C161.767 218.599 164.145 219.633 165.385 219.633C166.936 219.633 170.923 214.156 177.458 213.744M160.734 218.083C166.551 212.87 172.627 208.177 176.278 205.847M146.778 230.791C147.398 231.617 148.638 233.766 148.638 235.75C148.638 237.733 147.398 243.657 146.778 246.371M146.778 230.791C144.503 232.139 138.652 236.073 133.442 241.026M146.778 230.791C151.273 230.595 152.073 228.8 154.301 225.482M146.778 246.371C142.386 244.785 137.928 242.99 133.442 241.026M146.778 246.371C153.714 248.875 160.485 250.855 166.936 252.145M117.936 196.696L102.119 210.644M117.936 196.696L122.898 199.486M102.119 210.644C101.292 209.02 99.638 204.834 99.638 201.08M102.119 210.644L105.496 212.814M99.638 201.08C102.832 198.336 106.317 195.564 109.562 193.397M99.638 201.08C97.9847 202.5 96.4094 203.912 94.9861 205.229M118.556 187.534L122.898 199.486M122.898 199.486L118.149 203.515M106.461 213.434L116.129 205.229M106.461 213.434C105.37 215.179 108.999 219.291 111.647 221.802M106.461 213.434L105.496 212.814M107.988 169.731C106.877 168.006 106.263 166.398 106.461 165.082C106.811 162.752 109.569 158.19 113.453 153.304M107.988 169.731L99.15 176.24M107.988 169.731C109.004 171.308 110.436 172.984 112.043 174.625M85.6822 188.638V187.326C85.6822 186.592 86.0312 185.901 86.6223 185.466L99.15 176.24M85.6822 188.638C82.7877 189.568 77.4328 192.233 79.1695 195.457C80.3302 197.611 81.3135 197.55 81.9774 197.596M85.6822 188.638C85.5627 188.929 85.4861 189.33 85.4827 189.837M85.062 202.585C84.3383 202.792 82.891 202.461 82.891 199.486C82.891 197.755 82.5553 197.635 81.9774 197.596M85.062 202.585C84.3383 203.205 83.2012 204.693 84.4417 205.685C85.9923 206.925 87.2329 204.755 88.1632 206.305M85.062 202.585L89.1931 198.567M88.1632 206.305L91.9683 202.046M99.15 176.24C99.2093 179.206 101.375 186.789 109.562 193.397M94.9861 205.229C93.8587 204.119 92.8569 203.057 91.9683 202.046M195.778 154.543C195.468 148.035 200.43 148.344 203.842 148.344C204.106 148.344 204.419 148.414 204.772 148.544M195.778 154.543C195.931 157.756 196.916 160.29 198.358 162.292M195.778 154.543C196.709 152.064 199.748 148.097 204.462 152.064C210.354 157.023 216.867 161.052 217.177 162.912C217.425 164.4 216.631 166.762 216.203 167.757M219.906 162.912C219.319 164.022 218.718 164.964 218.107 165.759M198.358 162.292C199.838 164.347 201.8 165.843 203.842 166.941C204.298 167.187 204.82 167.468 205.392 167.757M198.358 162.292C201.323 160.536 207.191 157.643 206.943 160.123C206.695 162.602 205.806 166.245 205.392 167.757M205.392 167.757C206.767 168.453 208.232 169.082 209.734 169.371M204.772 148.544C204.048 147.444 202.019 146.175 200.43 146.175C199.02 146.175 194.5 147.611 193.323 151.754M209.734 169.371C209.132 169.392 208.394 169.353 207.563 169.23M209.734 169.371C211.864 169.78 214.07 169.503 216.203 167.757M193.323 151.754C192.77 153.697 192.953 156.237 194.538 159.503C197.807 166.242 203.685 168.655 207.563 169.23M193.323 151.754C191.162 154.773 188.112 161.51 191.425 166.321M192.677 167.757L193.564 166.917C194.322 166.2 195.471 166.073 196.31 166.693C198.213 168.101 200.547 170.281 200.74 172.21M192.677 167.757L192.168 168.491M192.677 167.757C192.185 167.304 191.77 166.823 191.425 166.321M200.74 172.21L201.361 178.1M200.74 172.21C202.291 171.98 205.826 171.061 207.563 169.23M201.361 178.1L202.291 183.679M201.361 178.1C200.654 177.716 199.166 177.189 198.497 177.911M198.358 178.1C197.973 178.764 195.556 181.319 193.256 183.679M198.358 178.1C198.403 178.042 198.45 177.979 198.497 177.911M198.358 178.1C198.399 178.029 198.445 177.966 198.497 177.911M202.291 183.679C206.964 181.03 216.669 173.739 218.107 165.759M218.107 165.759C217.482 166.572 216.846 167.231 216.203 167.757M192.168 168.491C192.899 171.281 196.398 171.901 198.358 173.76C199.817 175.145 199.126 176.995 198.497 177.911M192.168 168.491L186.144 177.17M186.144 177.17L184.406 179.675C184.137 180.062 183.974 180.526 184.062 180.988C184.494 183.26 186.893 185.087 188.821 186.128C189.634 186.567 190.62 186.355 191.27 185.699C191.882 185.081 192.563 184.389 193.256 183.679M186.144 177.17C187.157 178.926 189.997 182.687 193.256 183.679M191.425 166.321L190.372 165.759M186.784 163.842C186.681 161.982 186.288 157.891 185.544 156.403C185.024 155.365 185.762 153.167 186.784 151.428M186.784 163.842L184.303 162.292M186.784 163.842L190.372 165.759M186.784 151.428C185.647 152.053 183.373 153.924 183.373 156.403C183.373 159.503 184.614 160.432 184.303 162.292M184.303 162.292C183.58 162.189 182.194 162.354 182.443 163.842C182.654 165.107 185.718 167.357 187.902 168.765C188.554 169.185 189.422 169.222 189.835 168.565C190.213 167.964 190.502 167.048 190.372 165.759M152.67 181.509C152.686 181.522 152.701 181.535 152.714 181.55M152.67 181.509C152.685 181.523 152.699 181.536 152.714 181.55M152.67 181.509L152.714 181.55M152.67 181.509C151.546 180.61 145.044 176.334 141.434 172.204M135.303 162.292C136.44 162.499 138.776 163.881 139.024 167.757C139.044 168.059 139.108 168.371 139.21 168.692M135.303 162.292C142.849 161.879 159.431 159.503 165.385 153.304C167.721 150.872 169.688 149.397 171.278 148.55M135.303 162.292C141.195 154.181 155.461 137.944 165.385 137.883M166.936 198.246C167.809 198.591 169.512 199.161 171.278 199.517M171.278 199.517C172.23 199.709 173.2 199.84 174.069 199.84C176.376 199.84 173.708 196.276 170.658 194.149M171.278 199.517C172.002 201.895 172.518 207.014 168.797 208.474C164.145 210.3 165.075 213.678 161.974 213.331C158.873 212.985 155.771 206.925 153.601 203.515C152.869 202.367 151.927 200.577 150.809 198.661M142.436 189.837C145.727 190.632 148.608 194.889 150.809 198.661M142.436 189.837C146.863 190.271 153.805 182.74 152.714 181.55M150.809 198.661C151.843 196.015 155.275 190.268 160.734 188.441M160.734 188.441C161.358 188.93 161.975 189.4 162.574 189.837M160.734 188.441C157.768 186.118 154.652 183.358 152.714 181.55M175.93 147.906C176.509 148.215 177.135 148.485 177.791 148.677M175.93 147.906C175.837 147.835 175.723 147.771 175.588 147.717M175.93 147.906C175.814 147.844 175.7 147.781 175.588 147.717M165.385 137.883C164.14 137.358 162.784 136.898 161.354 136.5M165.385 137.883C168.772 139.311 171.343 141.222 172.369 143.695M112.663 222.732C112.87 224.798 114.338 229.303 118.556 230.791C123.828 232.65 133.752 224.282 131.581 221.802C129.899 219.88 128.345 217.214 126.309 216.4M112.663 222.732C116.188 221.498 122.795 218.68 124.4 216.223M112.663 222.732C112.353 222.459 112.009 222.145 111.647 221.802M116.129 205.229C121.146 203.844 124.759 211.884 124.759 215.191C124.759 215.524 124.631 215.87 124.4 216.223M116.129 205.229L118.149 203.515M124.4 216.223C125.087 216.084 125.718 216.164 126.309 216.4M116.304 149.894C122.504 142.837 130.399 136.016 136.233 135.017C136.938 134.896 137.701 134.792 138.512 134.707M116.304 149.894C115.304 151.032 114.349 152.177 113.453 153.304M116.304 149.894C117.416 149.83 119.316 149.99 120.831 150.779M112.043 174.625C117.44 168.208 120.43 163.847 121.967 160.677M113.453 153.304C115.257 153.88 119.486 156.161 121.967 160.677M121.967 160.677C123.787 156.925 123.57 154.842 122.898 152.994C122.524 151.965 121.748 151.257 120.831 150.779M138.512 134.707C139.82 132.124 142.684 126.958 143.676 126.958M138.512 134.707C139.129 134.642 139.774 134.587 140.443 134.543M143.676 126.958C144.917 126.958 148.018 127.268 147.088 129.128C146.344 130.615 144.09 133.283 143.056 134.431M143.676 126.958C144.14 127.664 144.143 130.17 140.443 134.543M143.056 134.431C142.154 134.451 141.28 134.488 140.443 134.543M143.056 134.431C145.325 134.382 147.77 134.447 150.249 134.642M156.702 222.24L158.386 223.472C159.068 223.971 159.967 224.059 160.732 223.698C165.477 221.463 173.717 217.583 176.617 216.223M156.702 222.24C155.702 223.446 154.942 224.527 154.301 225.482M176.617 216.223C175.413 219.898 174.069 224.572 174.069 226.761C174.069 227.439 174.141 228.169 174.259 228.931M176.617 216.223C176.913 215.319 177.201 214.475 177.458 213.744M177.458 213.744C177.576 213.408 177.688 213.097 177.791 212.814C178.142 211.659 178.651 209.883 179.051 208.25M148.328 221.802C148.987 222.899 151.961 222.945 153.854 222.797C154.297 222.763 154.715 222.583 155.051 222.292C160.118 217.895 158.303 216.003 156.702 215.603M148.328 221.802L156.702 215.603M148.328 221.802L147.124 220.33C146.269 219.287 146.487 217.735 147.597 216.968L152.099 213.853C152.979 213.244 154.162 213.319 154.958 214.035L156.702 215.603M200.43 201.731C198.673 201.809 195.158 203.143 195.158 207.855C195.158 212.566 197.122 215.19 198.104 215.913M157.942 135.69C159.112 135.925 160.255 136.194 161.354 136.5M157.942 135.69C156.126 135.325 154.245 135.044 152.36 134.839M157.942 135.69C157.285 134.83 156.532 133.783 155.771 132.638M161.974 122.619C160.113 120.656 155.523 117.288 152.05 119.519C149.246 121.321 152.585 127.844 155.771 132.638M161.974 122.619C162.904 122.515 165.199 122.495 166.936 123.239C168.673 123.983 170.141 125.202 170.658 125.718M161.974 122.619C161.142 122.661 160.387 123.669 160.113 124.169M170.658 125.718C171.175 124.892 172.518 123.425 173.759 124.169C174.848 124.821 176.652 126.954 177.707 128.304C177.968 128.638 178.309 128.901 178.702 129.058L181.202 130.058M170.658 125.718C170.885 126.002 170.822 127.17 168.75 129.568M181.202 130.058L181.669 129.591C182.159 129.102 182.842 128.858 183.531 128.927L185.544 129.128M181.202 130.058C180.272 130.131 177.791 131.392 175.31 135.845M185.544 129.128L188.025 127.578M185.544 129.128V129.128C184.577 130.094 185.067 131.694 186.207 132.449C186.556 132.679 186.784 132.921 186.784 133.157C186.784 133.378 186.967 133.534 187.252 133.641M188.025 127.578C188.438 128.508 189.7 130.429 191.436 130.677M188.025 127.578C189.162 127.681 191.436 128.446 191.436 130.677M191.436 130.677L189.886 133.81M195.468 141.413L190.287 136.86C189.502 136.17 189.278 135.038 189.742 134.1L189.886 133.81M195.468 141.413C195.137 141.759 194.812 142.107 194.494 142.455M189.886 133.81C189.389 133.854 188.655 133.877 188.025 133.806M194.494 142.455L188.483 137.848C188.212 137.64 187.836 137.638 187.563 137.843V137.843C187.167 138.139 187.154 138.729 187.537 139.042L193.323 143.774M194.494 142.455C194.092 142.896 193.701 143.337 193.323 143.774M193.323 143.774C192.801 144.377 192.303 144.974 191.834 145.555M191.834 145.555L186.22 141.274C185.478 140.708 184.293 140.735 183.373 140.574V140.574M183.373 148.835C182.32 148.85 181.255 148.889 180.272 148.964C179.424 149.03 178.586 148.911 177.791 148.677M183.373 148.835C181.202 147.465 181.202 144.625 180.272 144.058C180.072 143.936 179.93 143.623 179.851 143.217M180.057 140.748L178.721 140.286C177.067 139.855 174.069 139.5 175.31 141.526C175.685 142.139 175.975 142.563 176.24 142.851M180.057 140.748C179.767 141.488 179.71 142.498 179.851 143.217M180.057 140.748C180.124 140.577 180.203 140.421 180.295 140.286M179.851 143.217C177.652 143.325 177.068 143.752 176.24 142.851M161.354 136.5C160.502 135.29 159.485 133.798 158.459 132.227M160.113 124.169C158.976 123.342 156.082 121.627 153.601 121.379C151.703 121.189 155.126 127.124 158.459 132.227M160.113 124.169C159.907 124.892 160.051 126.896 162.284 129.128C163.181 130.024 164.269 131.016 165.385 131.939M180.295 140.286L175.31 135.845M180.295 140.286C180.428 140.09 180.588 139.938 180.776 139.851M152.36 134.839C152.877 134.139 154.283 132.719 155.771 132.638M152.36 134.839C151.656 134.763 150.951 134.698 150.249 134.642M158.459 132.227C160.251 132.035 164.145 131.709 165.385 131.939M165.385 131.939C167.411 133.616 169.528 135.066 170.751 135.309C171.084 135.375 171.379 135.163 171.556 134.874V134.874C171.913 134.291 171.72 133.528 171.128 133.185L168.017 131.384C167.917 131.326 167.821 131.262 167.732 131.189C166.168 129.919 163.698 127.578 165.385 127.578C166.098 127.578 167.356 128.412 168.75 129.568M172.369 143.695C173.142 143.339 175 142.672 176.24 142.851M174.259 228.931C173.576 229.551 172.208 231.473 172.208 234.2C172.208 237.61 169.107 238.229 169.417 242.569C169.661 245.978 167.246 240.955 166.936 252.145M174.259 228.931C174.383 229.729 174.556 230.563 174.75 231.411M166.936 252.145C169.362 252.63 171.742 253.018 174.069 253.299M174.75 231.411C175.387 234.197 176.24 237.138 176.24 239.469C176.24 242.074 178.977 244.374 180.192 246.371M174.75 231.411C174.523 231.927 174.069 233.456 174.069 235.44C174.069 237.919 172.829 240.399 173.449 243.808C173.975 246.702 174.278 248.533 174.168 251.557M174.069 253.299C174.116 252.672 174.149 252.096 174.168 251.557M206.012 252.204C206.1 250.324 206.534 247.694 207.529 245.358M206.012 252.204C207.908 251.976 209.659 251.721 211.285 251.445M222.759 248.574C223.173 246.159 222.263 241.081 215.316 240.089C211.303 239.516 208.891 242.163 207.529 245.358M222.759 248.574C223.523 248.307 224.244 248.035 224.93 247.762M222.759 248.574C243.538 243.808 284.015 246.371 292.228 294.33C292.848 297.49 293.566 303.089 293.588 309.178C293.592 310.093 293.58 311.019 293.549 311.95C293.404 316.335 292.851 320.817 291.608 324.705M222.759 248.574C221.425 249.042 219.963 249.498 218.335 249.932M207.529 245.358C208.057 242.465 210.416 236.866 215.626 237.61C215.838 237.64 216.045 237.674 216.249 237.712M224.93 247.762C233.442 244.372 230.207 238.388 251.911 238.849C281.064 239.469 316.065 283.404 302.818 324.705M224.93 247.762C224.799 245.882 224.279 243.942 223.23 242.259M223.23 242.259L228.061 239.124C228.632 238.753 229.017 238.15 229.065 237.47C229.25 234.861 229.046 231.101 227.101 231.101C224.868 231.101 222.036 229.579 220.899 228.818M223.23 242.259C222.766 241.516 222.2 240.823 221.519 240.208M220.899 228.818C226.472 225.388 230.534 222.575 237.973 220.417C243.476 218.82 250.908 217.972 259.223 218.736M220.899 228.818C219.262 229.825 217.712 230.903 216.249 232.03M216.249 232.03C216.043 233.339 215.754 236.307 216.249 237.712M216.249 237.712C216.795 237.815 217.311 237.946 217.797 238.102M217.797 238.102C217.591 235.665 217.859 231.039 220.589 232.03C224 233.27 225.861 236.297 221.519 240.208M217.797 238.102C219.304 238.587 220.532 239.316 221.519 240.208M233.924 235.44C232.684 234.613 230.203 232.402 230.203 230.171C230.203 228.958 230.789 227.745 231.605 226.761M233.924 235.44L239.628 235.192C240.504 235.154 241.282 234.624 241.638 233.823L243.012 230.733C243.339 229.999 243.26 229.147 242.805 228.485L240.127 224.592M233.924 235.44C234.338 235.13 235.351 233.828 236.095 231.101C236.839 228.373 233.412 227.071 231.605 226.761M235.165 224.592C236.653 224.592 239.093 224.592 240.127 224.592M235.165 224.592C234.113 224.592 232.665 225.483 231.605 226.761M235.165 224.592H240.127M262.766 233.58C261.732 233.167 259.727 231.844 259.975 229.861C260.223 227.877 262.353 227.381 263.386 227.381M262.766 233.58C262.964 233.58 263.158 233.57 263.348 233.548M262.766 233.58L263.348 233.548M263.386 227.381C264.317 227.485 266.177 228.187 266.177 230.171C266.177 232.387 264.939 233.365 263.348 233.548M263.386 227.381L266.134 226.383C266.567 226.225 267.039 226.192 267.471 226.352C268.767 226.83 270.519 227.884 270.519 229.551C270.519 231.178 269.545 232.36 268.796 232.961C268.516 233.185 268.162 233.281 267.804 233.3L263.348 233.548M264.317 226.761C264.627 225.728 265.557 223.662 266.798 223.662C267.807 223.662 270.937 224.893 273.183 225.852C274.019 226.21 274.551 227.036 274.551 227.945V231.56C274.551 232.25 274.242 232.905 273.709 233.343L270.713 235.81C269.875 236.499 268.671 236.513 267.818 235.843L264.937 233.58M278.893 241.329C277.756 240.916 275.543 239.593 275.791 237.61C276.102 235.13 277.652 234.2 278.893 234.2M278.893 241.329C281.684 241.329 281.994 240.089 281.994 237.61C281.994 235.13 280.133 234.2 278.893 234.2M278.893 241.329H283.235C284.062 241.226 285.778 240.337 286.026 237.61C286.243 235.224 284.261 233.929 282.861 233.434C282.502 233.307 282.112 233.323 281.744 233.423L278.893 234.2M278.893 241.329L281.066 243.742C281.463 244.183 282.014 244.454 282.605 244.499L284.556 244.649C285.285 244.705 285.998 244.412 286.478 243.859L289.468 240.412C289.653 240.198 289.801 239.955 289.876 239.683C290.235 238.384 290.46 235.977 289.127 234.2C287.824 232.464 284.209 231.867 281.941 231.746C281.376 231.715 280.83 231.928 280.407 232.303L278.272 234.2M292.228 253.107C291.091 252.694 288.879 251.371 289.127 249.388C289.437 246.908 290.988 245.978 292.228 245.978M292.228 253.107C295.019 253.107 295.33 251.867 295.33 249.388C295.33 246.908 293.469 245.978 292.228 245.978M292.228 253.107H297.19C298.017 253.004 299.733 252.115 299.982 249.388C300.201 246.975 298.172 245.678 296.771 245.196C296.439 245.082 296.082 245.089 295.741 245.168L292.228 245.978M292.228 253.107L294.979 255.606C295.404 255.992 295.958 256.206 296.532 256.206H299.915C300.726 256.206 301.477 255.781 301.895 255.085L303.899 251.748C303.975 251.621 304.04 251.488 304.082 251.346C304.438 250.137 304.485 247.847 303.083 245.978C301.755 244.209 298.026 243.623 295.769 243.517C295.281 243.494 294.807 243.653 294.412 243.94L291.608 245.978M303.083 267.984C301.946 267.571 299.733 266.249 299.982 264.265C300.292 261.785 301.842 260.856 303.083 260.856M303.083 267.984C305.874 267.984 306.184 266.745 306.184 264.265C306.184 261.785 304.323 260.856 303.083 260.856M303.083 267.984H307.425C308.252 267.881 309.968 266.993 310.216 264.265C310.433 261.879 308.451 260.584 307.051 260.09C306.692 259.963 306.302 259.978 305.934 260.079L303.083 260.856M303.083 267.984L305.292 269.947C305.67 270.283 306.146 270.485 306.65 270.524L308.729 270.683C309.468 270.74 310.189 270.439 310.668 269.873L313.05 267.06C313.227 266.851 313.369 266.615 313.442 266.352C313.803 265.056 314.035 262.639 312.697 260.856C311.399 259.127 308.279 258.528 306.131 258.403C305.566 258.37 305.02 258.583 304.597 258.959L302.463 260.856M311.766 286.891C310.629 286.478 308.417 285.156 308.665 283.172C308.975 280.692 310.526 279.762 311.766 279.762M311.766 286.891C314.558 286.891 314.868 285.651 314.868 283.172C314.868 280.692 313.007 279.762 311.766 279.762M311.766 286.891H316.108C316.935 286.788 318.651 285.899 318.899 283.172C319.116 280.786 317.134 279.491 315.735 278.997C315.375 278.87 314.985 278.885 314.617 278.985L311.766 279.762M311.766 286.891L313.824 288.719C314.293 289.136 314.911 289.344 315.536 289.296L317.605 289.137C318.234 289.088 318.815 288.785 319.215 288.297L321.132 285.956C321.296 285.754 321.429 285.528 321.5 285.277C321.864 283.986 322.105 281.554 320.76 279.762C319.469 278.041 316.838 277.44 314.814 277.311C314.25 277.275 313.704 277.49 313.281 277.866L311.146 279.762M313.121 302.389C312.919 302.612 312.772 302.821 312.697 303.009C312.232 304.169 313.181 306.145 313.813 307.156C313.894 307.285 313.99 307.404 314.116 307.49C314.465 307.725 315.21 308.076 316.418 308.278C316.769 308.336 317.196 308.339 317.66 308.278M313.121 302.389V299.752C313.121 298.896 313.596 298.109 314.353 297.709L319.422 295.036C320.235 294.607 321.224 294.701 321.942 295.275L326.095 298.596C326.644 299.034 326.963 299.698 326.963 300.4V305.563C326.963 306.115 326.765 306.648 326.406 307.067L324.361 309.452C323.696 310.227 322.602 310.473 321.67 310.059L317.66 308.278M313.121 302.389C313.468 302.006 313.977 301.582 314.558 301.155M317.66 308.278C318.15 308.213 318.682 308.075 319.21 307.853M314.558 301.155C315.674 300.336 317.06 299.508 318.085 298.942C318.415 298.76 318.787 298.659 319.16 298.709C320.67 298.914 322.839 299.952 322.621 303.009C322.431 305.67 320.84 307.166 319.21 307.853M314.558 301.155C316.832 301.387 320.946 303.049 319.21 307.853M312.077 323.021C311.77 323.538 311.635 324.123 311.61 324.705M312.077 323.021C312.113 322.96 312.152 322.899 312.193 322.84M312.077 323.021L312.193 322.84M323.241 324.705C323.668 320.655 319.541 318.91 316.535 318.369C315.704 318.22 314.894 318.638 314.437 319.349L312.193 322.84M323.241 324.705H319.826M323.241 324.705H325.15M311.61 324.705L310.61 322.038C310.361 321.373 310.431 320.632 310.8 320.026L313.812 315.08C314.269 314.331 315.111 313.905 315.985 313.981L320.571 314.379C321.278 314.441 321.917 314.824 322.305 315.418L325.697 320.616C326.102 321.237 326.185 322.016 325.918 322.708L325.15 324.705M311.61 324.705H302.818M311.61 324.705H319.826M302.818 324.705H291.608M319.826 324.705C318.715 322.635 316.211 320.848 313.937 321.605C313.114 321.88 312.556 322.318 312.193 322.84M325.15 324.705H327.95C329.06 324.705 330.016 323.916 330.204 322.822C333.632 302.838 331.123 284.305 323.979 267.984C308.483 232.586 279.962 220.644 259.223 218.736M171.278 148.55C174.366 156.823 176.948 176.662 162.574 189.837M171.278 148.55C173.376 147.432 174.818 147.406 175.588 147.717M162.574 189.837C164.623 191.333 166.45 192.45 167.556 192.667C168.51 192.854 169.607 193.416 170.658 194.149M177.791 148.677C180.065 158.336 181.822 180.953 170.658 194.149M291.608 324.705C276.503 328.94 234.178 343.28 152.515 339.257M259.223 218.736L271.619 219.573M273.654 219.711L271.619 219.573M273.654 219.711C273.953 219.772 274.262 219.84 274.58 219.913M273.654 219.711C274.246 219.563 274.62 219.279 274.732 219.156M333.045 324.705C334.995 317.212 336.488 309.581 336.516 301.155M295.019 228.189C305.594 234.181 316.873 243.457 323.979 256.865C333.441 274.721 336.557 288.794 336.516 301.155M295.019 228.189C297.133 228.931 302.179 230.099 307.882 229.904M295.019 228.189C287.143 223.725 279.658 221.084 274.58 219.913M311.766 229.551C322.066 229.571 343.075 234.622 351.39 250.791C359.755 267.056 363.17 281.512 359.474 294.33M311.766 229.551C310.456 229.749 309.153 229.861 307.882 229.904M311.766 229.551C314.941 229.07 350.016 221.735 389.489 213.744M336.516 301.155L353.238 296.294M359.474 294.33L353.238 296.294M359.474 294.33L384.951 284.932M307.882 229.904C317.688 230.361 339.409 235.332 347.846 251.557C356.283 267.782 360.629 291.987 353.238 296.294M308.665 233.58C314.633 237.837 327.383 249.065 330.64 259.926M341.555 294.912L351.39 291.987M345.153 227.231L367.787 222.207M343.036 258.376C345.067 260.658 348.873 267.544 347.846 276.829M85.4827 189.837C83.7592 190.46 80.4233 192.205 80.8673 194.201C81.3114 196.197 81.7924 197.296 81.9774 197.596M85.4827 189.837C85.4759 190.864 85.7703 192.329 86.6195 194.201M81.9774 197.596L86.6195 194.201M136.233 138.192C137.196 138.477 138.014 139.563 136.882 139.907C135.99 140.178 134.969 139.207 135.479 138.426V138.426M136.233 138.192C135.865 138.083 135.627 138.199 135.479 138.426M136.233 138.192C138.168 137.286 143.68 135.308 150.249 134.642M118.149 203.515C120.995 204.495 126.382 208.159 126.364 215.191M126.309 216.4C126.345 215.986 126.363 215.584 126.364 215.191M126.364 215.191C128.898 216.362 133.819 219.509 133.227 222.732C133.091 223.471 132.75 224.267 132.249 225.071M111.647 221.802C111.63 222.448 111.67 223.112 111.768 223.777M111.768 223.777C112.351 227.747 114.994 231.762 119.906 232.095C124.59 232.413 130.014 228.655 132.249 225.071M111.768 223.777C109.068 222.014 104.033 217.352 105.496 212.814M187.252 133.641L182.44 140.286M187.252 133.641C187.464 133.721 187.733 133.774 188.025 133.806M182.44 140.286C182.244 140.202 182.039 140.099 181.822 139.976C181.407 139.739 181.06 139.721 180.776 139.851M182.44 140.286C182.784 140.434 183.096 140.525 183.373 140.574M188.025 133.806L183.373 140.574M175.31 135.845L174.379 135.017C173.991 134.593 173.523 134.097 173.006 133.565M180.776 139.851L178.898 137.491C178.784 137.346 178.721 137.167 178.721 136.983V136.818C178.721 136.209 179.556 136.192 180.057 135.845V135.845C180.406 135.604 181.146 134.04 182.441 134.865C183.737 135.69 182.996 136.898 181.886 138.007C180.998 138.894 180.776 139.606 180.776 139.851ZM168.75 129.568C169.972 130.581 171.298 131.84 172.451 133.001M172.451 133.001L173.795 131.167C173.885 131.045 173.958 130.91 174.045 130.785C174.201 130.562 174.443 130.376 174.671 130.677C174.967 131.07 173.684 132.766 173.006 133.565M172.451 133.001C172.641 133.192 172.826 133.381 173.006 133.565M176.278 205.847C176.051 207.387 175.855 210.357 176.891 209.914C177.927 209.47 178.763 208.62 179.051 208.25M176.278 205.847C176.706 205.574 177.101 205.333 177.458 205.128M179.051 208.25C179.23 207.521 179.388 206.821 179.5 206.217M177.458 205.128C177.146 206.586 176.669 209.36 177.261 208.784C177.853 208.209 179.001 206.833 179.5 206.217M132.249 225.071C133.998 225.575 137.091 226.195 140.813 226.463M154.301 225.482C149.675 226.629 144.87 226.755 140.813 226.463M140.813 226.463C140.049 226.767 138.975 227.3 137.95 228.001M137.95 228.001C136.409 229.055 134.981 230.488 134.892 232.095C134.802 233.717 136.512 233.071 138.648 231.933C140.643 230.87 140.209 227.913 137.95 228.001V228.001ZM86.6195 194.201C87.1956 195.472 88.027 196.93 89.1931 198.567M89.1931 198.567C89.9642 199.649 90.8816 200.81 91.9683 202.046M204.462 267.984C209.156 274.597 218.085 290.859 216.249 303.009M268.348 276.829C271.656 280.497 278.272 290.499 278.272 301.155M211.285 256.865C214.283 256.361 221.643 254.593 227.101 251.557M102.119 229.861C110.913 236.202 131.908 249.682 145.537 252.874M150.809 276.829C152.342 280.152 155.227 288.76 154.504 296.608M178.876 297.286C182.18 303.852 189.04 320.607 190.041 335.099M195.933 312.783C197.348 317.696 199.917 329.036 198.879 335.099M176.085 311.55C177.688 316.381 180.805 327.853 180.45 335.099M264.317 329.556C264.877 323.034 264.937 303.081 257.149 292.83M247.73 302.354C249.281 304.007 252.382 308.801 252.382 314.752M230.673 311.343C231.608 313.35 233.197 318.331 232.075 322.191M246.642 254.647C250.156 255.683 258.3 259.058 262.766 264.265M143.676 155.568C146.606 152.265 153.353 145.34 156.909 144.058M124.716 167.757C125.597 166.474 128.272 163.584 131.932 162.292M120.831 150.779C123.812 147.304 130.916 139.967 135.479 138.426M108.99 175.347C110.109 177.172 113.138 181.269 116.304 183.059M89.9331 194.571C90.3357 195.929 91.7133 199.131 94.0035 201.08M93.4485 183.059C93.8925 182.656 96.347 181.031 97.5188 180.269M112.043 159.08C110.254 160.742 107.213 164.879 109.36 168.138M128.047 183.059C130.569 183.08 136.295 183.565 139.024 185.329M139.21 168.692C137.651 168.99 134.546 169.89 132.471 171.39C131.633 171.997 131.607 173.155 132.209 173.996L133.042 175.162M139.21 168.692C139.442 169.415 139.873 170.183 140.443 170.969M133.042 175.162C134.152 173.784 137.186 171.016 140.443 170.969M133.042 175.162V175.162C133.778 175.687 134.791 175.567 135.482 174.984C136.874 173.806 139.061 172.423 141.434 172.204M140.443 170.969C140.738 171.377 141.072 171.79 141.434 172.204M170.658 162.912C170.975 165.565 170.86 172.316 167.867 178.1M143.676 168.491C145.227 170.636 149.073 175.375 152.05 177.17M181.146 212.132C179.785 214.942 177.103 221.306 177.261 224.282M199.833 192.667L198.879 198.246M271.619 219.573L271.71 218.736M282.72 116.934C281.919 115.147 281.055 111.537 284.015 111.389M282.72 116.934C285.681 118.228 286.976 115.64 287.346 114.531C287.592 113.792 287.675 112.56 286.606 111.875M282.72 116.934L279.401 147.619M284.015 111.389C285.249 111.327 286.071 111.533 286.606 111.875M284.015 111.389C283.987 109.974 284.094 107.893 284.491 106.028M290.676 104.18C290.738 103.255 290.158 101.481 287.346 101.777C286.381 101.878 285.679 102.678 285.176 103.81M290.676 104.18C290.121 104.303 289.011 104.549 288.541 104.642M290.676 104.18C291.868 103.556 294.096 100.758 294.211 94.4316C294.229 93.4159 293.517 92.5493 292.557 92.2191C291.384 91.8162 290.053 91.2614 289.381 90.6858C288.086 89.5767 284.755 91.0555 284.57 91.9797C284.385 92.904 281.341 101.777 285.176 103.81M286.606 111.875C286.493 110.481 286.437 108.46 286.606 106.686M286.606 111.875C287.05 111.875 287.654 112.044 287.901 112.128M288.541 104.642C288.541 102.794 288.201 102.892 288.086 102.93C287.56 103.105 287.196 103.75 286.951 104.642M288.541 104.642C288.086 104.732 287.329 104.673 286.951 104.642M286.951 104.642C286.787 105.236 286.677 105.939 286.606 106.686M285.176 103.81C284.886 104.463 284.661 105.225 284.491 106.028M284.491 106.028C282.03 104.365 280.87 102.746 280.87 99.004C280.87 96.1924 282.091 92.4582 283.023 90.205C283.287 89.5665 283.847 89.1018 284.526 88.9721C284.541 88.9693 284.555 88.9665 284.57 88.9636M286.606 106.686C286.984 106.759 287.499 106.815 288.086 106.818M290.306 89.207C289.153 88.3615 286.446 88.6094 284.57 88.9636M290.306 89.207C291.608 90.1613 294.469 90.5605 296.041 90.6653M290.306 89.207L292.711 74.9736M288.086 106.818C287.962 108.033 287.753 110.797 287.901 112.128M288.086 106.818C288.869 106.822 289.782 106.732 290.676 106.464M287.901 112.128C288.436 112.434 289.155 112.979 289.751 113.702M274.58 219.913C274.625 219.691 274.677 219.435 274.732 219.156M284.57 88.9636L283.632 63.6978M283.46 59.0766L283.632 63.6978M283.46 59.0766C238.734 17.9619 165.45 -79.7433 230.125 -141.646C310.968 -219.025 392.886 -144.549 401.051 -122.937C408.904 -102.149 405.778 22.8125 306.402 59.0766M283.46 59.0766H288.086M283.46 59.0766C282.264 56.3838 280.672 52.4432 279.235 48.2204M306.402 59.0766L301.962 71.8311M306.402 59.0766H303.257M306.402 59.0766C309.426 56.8815 314.228 53.0521 318.59 48.8431M301.962 71.8311V71.8311C302.722 72.3733 303.011 73.3654 302.662 74.2312L296.041 90.6653M301.962 71.8311C300.482 71.5354 302.209 63.2049 303.257 59.0766M296.041 90.6653V90.6653C296.26 90.6799 296.445 90.8335 296.486 91.0482C297.432 95.9941 295.614 102.393 293.266 104.919C292.542 105.699 291.62 106.18 290.676 106.464M293.081 59.0766L292.711 74.9736M293.081 59.0766H297.337M293.081 59.0766H289.381M293.081 59.0766C293.731 55.9198 295.03 48.0818 295.03 41.9839M292.711 74.9736L297.337 59.0766M297.337 59.0766C298.323 57.691 299.803 55.1743 301.036 52.1264M297.337 59.0766C297.337 55.7658 297.337 48.59 297.337 46.3725M297.337 59.0766H300.297M290.676 106.464C290.676 107.922 290.491 111.413 289.751 113.702M289.751 113.702C290.222 114.274 290.617 114.956 290.784 115.718C291.029 116.829 291.993 118.522 291.046 119.153V119.153C290.346 119.619 289.983 120.423 289.83 120.983C289.762 121.236 289.69 121.489 289.583 121.729C289.165 122.668 288.472 124.546 288.086 126.731C287.531 129.874 287.851 134.865 286.951 136.344C286.518 137.055 285.822 140.879 285.216 145.031M273.124 205.662L272.904 207.695M273.124 205.662L273.424 202.889M273.124 205.662C273.749 205.442 274.884 204.97 275.662 204.449M276.368 203.813C276.278 204.411 276.2 205.034 276.132 205.662M276.368 203.813C274.69 203.074 273.853 201.534 273.644 200.856M276.368 203.813C276.227 204.025 275.973 204.241 275.662 204.449M276.368 203.813C276.49 202.992 276.633 202.218 276.8 201.546M272.904 207.695C273.449 207.449 274.857 206.697 276.132 205.662M272.904 207.695C272.862 207.819 273.402 208.102 275.899 208.25M272.904 207.695L272.804 208.62M276.132 205.662C276.036 206.533 275.96 207.414 275.899 208.25M275.899 208.25C275.871 208.631 275.847 209.002 275.825 209.359M272.804 208.62C273.116 208.804 274.157 209.211 275.825 209.359M272.804 208.62L272.644 210.098M275.825 209.359C275.476 209.667 274.352 210.246 272.644 210.098M275.825 209.359C275.802 209.748 275.782 210.12 275.765 210.468M272.644 210.098L272.564 210.838M272.564 210.838C272.854 210.961 273.901 211.06 275.765 210.468M272.564 210.838L272.424 212.132M275.765 210.468C275.536 210.899 274.548 211.836 272.424 212.132M275.765 210.468C275.745 210.874 275.73 211.247 275.719 211.577M272.424 212.132L272.344 212.871M272.344 212.871C272.8 212.933 274.114 212.76 275.719 211.577M272.344 212.871C272.577 213.056 273.568 213.426 275.662 213.426M272.344 212.871L272.244 213.795M275.719 211.577C275.698 212.166 275.69 212.617 275.69 212.871C275.69 213.024 275.68 213.211 275.662 213.426M275.662 213.426C275.639 213.696 275.604 214.008 275.559 214.35M272.244 213.795C272.442 213.98 273.383 214.35 275.559 214.35M272.244 213.795L272.084 215.274M275.559 214.35C275.604 214.596 274.972 215.126 272.084 215.274M275.559 214.35C275.507 214.75 275.441 215.189 275.368 215.644M272.084 215.274L271.964 216.383M271.964 216.383C272.437 216.445 273.779 216.383 275.368 215.644M271.964 216.383C272.246 216.691 273.265 217.308 275.083 217.308M271.964 216.383L271.864 217.308M275.368 215.644C275.281 216.188 275.182 216.756 275.083 217.308M275.083 217.308C275.037 217.559 274.991 217.806 274.946 218.047M271.864 217.308C272.15 217.616 273.167 218.195 274.946 218.047M271.864 217.308L271.71 218.736M274.946 218.047C274.576 218.322 273.41 218.844 271.71 218.736M274.946 218.047C274.872 218.441 274.8 218.816 274.732 219.156M211.285 251.445C211.044 248.421 211.452 242.61 215.004 243.556C218.557 244.502 218.705 248.201 218.335 249.932M211.285 251.445C213.95 250.992 216.275 250.48 218.335 249.932M273.644 200.856L273.424 202.889M273.644 200.856L274.243 195.31M273.644 200.856C274.123 200.363 275.323 198.97 276.283 197.344C276.869 196.35 277.694 195.168 278.402 194.201M273.424 202.889C273.544 203.19 274.16 203.923 275.662 204.449M289.381 59.0766C289.751 60.2473 290.084 62.6257 288.456 62.7736C286.828 62.9214 284.561 63.4513 283.632 63.6978M289.381 59.0766H288.086M289.381 59.0766C290.34 56.9977 292.212 51.9161 292.028 48.2204M289.381 59.0766C289.362 53.764 289.595 41.7529 290.676 36.2094M303.257 59.0766H300.297M303.257 59.0766C305.134 57.3827 309.12 53.7178 310.044 52.609M278.542 155.568C278.948 154.767 280.056 153.091 281.24 152.795C282.424 152.499 283.828 151.809 284.382 151.501M278.542 155.568L278.282 157.971M278.542 155.568L279.202 149.468M284.382 151.501C284.276 152.455 284.189 153.333 284.127 154.089M284.382 151.501C284.459 150.797 284.547 150.051 284.642 149.283M278.282 157.971C278.673 157.616 279.35 157.019 279.995 156.492M278.282 157.971C278.753 158.478 279.764 159.332 280.945 159.819M278.282 157.971L277.982 160.744M284.127 154.089C284.055 154.948 284.015 155.648 284.015 156.122C284.015 158.958 283.104 157.557 282.81 158.341M284.127 154.089C283.473 154.397 281.98 155.124 281.24 155.568C280.927 155.756 280.47 156.105 279.995 156.492M279.995 156.492C280.532 157.231 281.846 158.636 282.81 158.341M282.81 158.341C282.754 158.491 282.72 158.722 282.72 159.08C282.72 159.441 282.691 159.811 282.643 160.189M282.643 160.189C282.064 160.189 281.487 160.043 280.945 159.819M282.643 160.189C282.604 160.493 282.552 160.801 282.494 161.113M280.945 159.819C280.475 160.127 279.224 160.744 277.982 160.744M277.982 160.744L277.802 162.407M277.802 162.407L277.102 168.877M277.802 162.407C278.068 162.451 278.873 162.378 280.315 161.921M282.494 161.113C282.315 162.078 282.07 163.076 281.917 164.071M282.494 161.113C282.262 161.21 282.038 161.3 281.823 161.384M281.917 164.071C281.802 164.817 281.739 165.562 281.795 166.289C281.835 166.8 281.84 167.286 281.823 167.757M281.917 164.071C281.707 164.326 281.254 164.832 280.558 165.55M277.102 168.877L276.742 172.204M277.102 168.877C277.522 168.494 277.916 168.129 278.282 167.784M281.823 167.757C281.295 168.13 280.068 169.136 279.39 170.171M281.823 167.757C281.794 168.587 281.693 169.372 281.581 170.171M279.39 170.171C278.711 171.206 277.342 171.958 276.742 172.204M279.39 170.171C279.3 171.157 278.858 173.276 277.802 173.868C276.746 174.459 276.349 175.84 276.283 176.456M276.742 172.204L276.283 176.456M276.283 176.456L276.063 178.489M281.581 170.171C281.456 171.053 281.317 171.951 281.24 172.944C281.106 174.691 280.775 177.417 280.747 179.413M281.581 170.171C281.377 171.034 280.776 173.129 279.995 174.607C279.806 174.967 279.604 175.334 279.39 175.691M276.063 178.489C277.406 178.489 278.504 177.17 279.39 175.691M276.063 178.489L275.443 184.219M280.315 161.921C279.551 162.833 278.074 165.283 278.282 167.784M280.315 161.921C280.757 161.781 281.259 161.604 281.823 161.384M278.282 167.784C279.214 166.906 279.972 166.153 280.558 165.55M280.558 165.55C280.539 165.488 280.574 165.106 280.87 164.071C281.166 163.036 281.629 161.848 281.823 161.384M279.39 175.691C279.164 177.363 278.058 181.41 275.443 184.219M275.443 184.219L275.023 188.101M280.747 179.413C280.737 180.162 280.769 180.808 280.87 181.262C281.181 182.66 279.664 186.405 279.39 189.102M280.747 179.413C280.418 180.03 279.61 181.595 279.02 182.926M279.02 182.926C278.43 184.256 276.109 186.931 275.023 188.101M279.02 182.926C278.934 184.712 278.43 188.471 277.102 189.21C275.775 189.95 274.83 191.86 274.523 192.723M275.023 188.101L274.523 192.723M274.523 192.723L274.243 195.31M279.39 189.102C279.338 189.615 279.331 190.091 279.39 190.504C279.481 191.145 279.528 191.909 279.52 192.723M279.39 189.102C279.029 189.816 278.065 191.392 277.102 191.983C276.14 192.575 274.795 194.448 274.243 195.31M279.52 192.723C279.498 195.198 278.978 198.125 277.725 199.377C277.356 199.745 277.051 200.53 276.8 201.546M279.52 192.723C279.256 193.058 278.853 193.586 278.402 194.201M276.8 201.546C276.575 200.7 276.225 198.86 276.615 198.268C277.005 197.676 277.969 195.31 278.402 194.201M284.642 149.283C284.372 149.283 283.682 149.431 283.09 150.022C282.35 150.762 279.861 150.392 279.202 149.468M284.642 149.283C284.814 147.901 285.01 146.447 285.216 145.031M279.202 149.468L279.401 147.619M279.401 147.619C280.164 147.496 281.783 147.324 282.165 147.619C282.643 147.989 283.481 144.662 285.216 145.031M297.522 235.792C300.238 237.873 307.075 243.917 312.697 251.445M331.38 286.441C332.428 291.256 334.377 301.992 333.785 306.418M152.515 339.257C154.92 349.409 154.546 357.354 151.36 362.81M152.515 339.257C152.176 337.827 151.794 336.252 151.36 334.559M20.1188 375.983C38.7877 473.224 52.1083 508.029 178.488 506.953C178.719 506.951 178.959 506.914 179.179 506.843L261.263 480.637C263.196 480.02 263.493 477.373 261.756 476.323C227.41 455.544 169.226 401.447 146.778 367.752M20.1188 375.983C17.7465 375.136 11.7032 370.347 6.5073 357.967C6.00444 356.768 5.53492 355.535 5.09919 354.271M20.1188 375.983C18.6559 368.363 17.1602 360.36 15.5747 351.961M5.92381 303.081C-1.92478 261.854 10.1522 234.45 29.7247 220.872M5.92381 303.081C3.63801 308.033 2.16852 313.88 1.47289 320.086M5.92381 303.081C7.34254 300.007 8.87357 296.931 10.6922 293.974M146.778 367.752C145.59 365.968 144.575 364.244 143.718 362.586M146.778 367.752C148.677 366.441 150.204 364.789 151.36 362.81M17.4537 285.259C18.1256 273.111 20.5782 247.258 25.0131 241.026C29.4479 234.794 30.002 224.994 29.7247 220.872M17.4537 285.259C18.7702 283.899 20.1918 282.57 21.7098 281.281M17.4537 285.259C16.9555 285.773 16.4724 286.292 16.0048 286.816M29.7247 220.872C30.7519 220.16 31.7997 219.485 32.8664 218.849M32.8664 218.849C33.4321 225.919 32.4045 238.229 28.0158 242.569M28.0158 242.569C24.1594 246.382 23.0231 268.088 23.1359 280.104M28.0158 242.569C22.2875 244.306 21.425 269.101 21.7098 281.281M23.1359 280.104C22.6516 280.492 22.1761 280.885 21.7098 281.281M23.1359 280.104C27.1907 276.854 31.8665 273.886 37.0186 271.348M13.002 339.257C13.0143 339.06 13.0285 338.862 13.0447 338.661M8.1514 282.205C7.50538 275.864 6.89219 261.309 9.60767 253.806M58.2538 256.797C66.2868 254.267 85.81 251.537 99.638 260.856M154.531 313.857C155.564 315.215 157.162 320.256 155.287 329.556M42.9996 228.001C45.4227 223.923 53.8103 216.074 67.9756 217.308M139.95 351.402C127.312 302.542 103.069 290.52 88.1632 286.891C37.6615 275.352 14.7284 317.779 13.0447 338.661M139.95 351.402C140.184 353.132 140.628 355.019 141.323 357.043M139.95 351.402C139.891 350.962 139.845 350.533 139.812 350.113M25.937 360.276C38.4501 342.195 77.2308 315.107 132.249 351.402M31.4805 372.98C36.4081 368.592 49.3585 359.583 61.7391 358.659M36.1002 392.845C38.179 390.381 43.6764 385.453 49.0351 385.453M80.8673 314.752C90.4395 316.222 113.276 322.673 128.047 336.716M57.1195 451.052C76.2909 438.194 125.906 413.818 170.993 419.177M117.868 398.619C126.59 397.534 148.227 397.17 164.988 404.394M91.9683 375.983C100.241 373.75 122.368 370.624 144.698 375.983M36.7931 413.402L42.9996 438.078M20.1188 339.257L22.2413 349.651M141.323 357.043C142.307 356.273 144.775 355.195 146.778 357.043C148.78 358.89 145.572 361.508 143.718 362.586M141.323 357.043C141.924 358.791 142.713 360.643 143.718 362.586M2.95432 346.648L6.60624 344.588C7.15096 344.281 7.79699 344.208 8.39668 344.385L14.4817 346.186M2.95432 346.648C3.54079 349.273 4.25684 351.828 5.09919 354.271M2.95432 346.648C1.73856 341.207 1.07965 335.464 1.00679 329.787M14.4817 346.186C14.8511 348.132 15.2152 350.057 15.5747 351.961M14.4817 346.186C14.0117 343.711 13.5331 341.203 13.0447 338.661M5.09919 354.271L9.46388 354.86C9.96122 354.927 10.4669 354.831 10.9044 354.585L15.5747 351.961M1.47289 320.086L5.31388 318.735C5.80521 318.563 6.34049 318.561 6.83284 318.731L10.17 319.882M1.47289 320.086C1.11819 323.25 0.964693 326.507 1.00679 329.787M12.771 320.779L10.17 319.882M1.00679 329.787L5.30036 330.961C5.80057 331.098 6.33228 331.063 6.80988 330.861L11.1723 329.015M12.0781 328.632L11.1723 329.015M21.3232 302.3L15.5566 301.928C14.6966 301.873 13.9389 301.343 13.5914 300.554L10.6922 293.974M21.3232 302.3C22.5516 300.814 23.8581 299.341 25.244 297.895M21.3232 302.3C16.3548 308.309 12.6649 314.513 10.17 319.882M10.6922 293.974C11.4133 292.801 12.1796 291.647 13.002 290.52C13.9155 289.268 14.9183 288.031 16.0048 286.816M16.0048 286.816L21.0551 289.686C21.4805 289.928 21.8182 290.298 22.0193 290.744L25.244 297.895M25.244 297.895C30.2104 292.713 36.1965 287.885 43.2606 284.129M43.2606 284.129L38.4159 281.459C37.697 281.062 37.2425 280.314 37.222 279.494L37.0186 271.348M43.2606 284.129C45.324 283.032 47.4793 282.027 49.7281 281.13M37.0186 271.348C39.8841 269.937 42.897 268.66 46.0324 267.541M46.0324 267.541L49.3272 272.377C49.5884 272.76 49.7281 273.213 49.7281 273.677V281.13M46.0324 267.541C54.8693 264.387 64.6792 262.497 74.905 262.445M49.7281 281.13C56.6756 278.361 64.5147 276.635 73.2882 276.48M73.2882 276.48C76.0889 276.43 78.9849 276.541 81.9774 276.829C82.4723 276.877 82.9636 276.929 83.4514 276.987M73.2882 276.48L71.297 270.463C71.0939 269.85 71.1572 269.179 71.4715 268.614L74.905 262.445M74.905 262.445C77.7261 262.43 80.5787 262.555 83.4514 262.833M83.4514 262.833C88.7969 263.348 94.2116 264.39 99.6201 266.036C105.656 267.872 111.02 270.588 115.789 273.926M83.4514 262.833L86.0506 268.605C86.3084 269.177 86.322 269.83 86.0883 270.413L83.4514 276.987M83.4514 276.987C91.8697 277.989 99.2446 280.53 105.646 284.129M23.1359 284.745C25.4555 282.329 30.6028 277.393 32.6354 276.987M56.8885 276.987C59.7417 276.34 66.1845 275.044 69.1305 275.044M4.22472 342.953C3.68576 341.259 2.67714 337.548 2.95432 336.254M105.646 284.129L106.761 278.296C106.916 277.486 107.491 276.82 108.269 276.549L115.789 273.926M105.646 284.129C108.264 285.602 110.72 287.251 113.017 289.045M115.789 273.926C117.626 275.212 119.375 276.591 121.04 278.047M121.04 278.047L119.901 283.276C119.782 283.826 119.465 284.313 119.011 284.646L113.017 289.045M121.04 278.047C128.478 284.552 134.243 292.61 138.728 300.914M113.017 289.045C119.496 294.103 124.718 300.308 128.789 306.92M128.789 306.92L131.701 302.836C132.052 302.344 132.582 302.01 133.176 301.904L138.728 300.914M128.789 306.92C130.367 309.484 131.773 312.109 133.012 314.752M138.728 300.914C140.178 303.598 141.494 306.307 142.689 308.998M142.689 308.998L140.519 312.848C140.161 313.483 139.525 313.912 138.802 314.005L133.012 314.752M142.689 308.998C145.408 315.117 147.504 321.141 149.136 326.553M133.012 314.752C134.859 318.693 136.335 322.674 137.461 326.553M126.876 288.21C128.647 290.207 132.65 295.081 134.498 298.604M150.809 339.95C151.532 343.492 152.653 351.869 151.36 357.043M139.812 350.113V350.113C139.509 346.263 140.344 342.368 139.907 338.531C139.839 337.933 139.761 337.328 139.674 336.716M139.812 350.113L146.947 353.891C147.411 354.137 147.778 354.533 147.986 355.015L151.36 362.81M139.674 336.716L145.148 338.248C145.858 338.447 146.621 338.294 147.2 337.837L151.36 334.559M139.674 336.716C139.212 333.483 138.48 330.06 137.461 326.553M151.36 334.559C150.733 332.113 150 329.419 149.136 326.553M137.461 326.553L141.777 324.456C142.358 324.173 143.032 324.147 143.633 324.384L149.136 326.553M91.9683 266.96C96.6634 268.269 106.569 271.302 108.632 272.965M13.0447 338.661C12.4368 335.498 11.8135 332.283 11.1723 329.015M10.17 319.882V319.882C9.79632 320.686 9.70131 321.589 9.8749 322.459C10.3158 324.667 10.748 326.853 11.1723 329.015M275.859 29.2799C274.889 33.4305 276.85 41.214 279.235 48.2204M288.086 59.0766C287.116 55.7658 285.176 48.0356 285.176 43.6008M288.086 59.0766C286.089 57.2287 282.142 52.7014 282.326 49.3753M303.257 41.9839C303.257 45.4957 302.27 49.0769 301.036 52.1264M301.036 52.1264C300.805 48.6686 300.112 41.1986 299.188 38.9811M300.297 59.0766C302.074 57.5892 304.753 54.9855 306.855 52.1264M310.044 44.2937C310.221 46.6781 308.78 49.5092 306.855 52.1264M306.855 52.1264C307.753 49.1305 308.919 41.9377 306.402 37.1333M279.235 48.2204C278.925 47.2965 268.468 39.4431 267.775 31.8207M278.631 52.609C274.319 47.7584 265.511 37.1795 264.772 33.6686M327.83 37.1333C326.317 40.6933 322.644 44.9321 318.59 48.8431M318.59 48.8431C323.595 46.3257 334.39 40.0898 337.531 35.2854M316.05 45.6796C318.821 41.9839 324.596 33.0218 325.52 26.7391M283.632 35.2854C283.12 31.4357 282.511 22.6277 284.174 18.1928M313.74 37.1333C315.049 32.4367 317.759 22.0733 318.129 18.1928M254.609 15.421C244.214 0.0992601 223.149 -34.6096 222.04 -50.8706M350.697 24.4293C359.397 13.9581 377.722 -11.5114 381.417 -29.6204M387.192 -60.5719C386.807 -55.5673 385.76 -44.7265 384.651 -41.4004M264.772 -14.3756C260.922 -24.8467 254.147 -51.8408 257.842 -76.0476M337.531 -9.29399C344.999 -23.6918 359.567 -58.4006 358.088 -82.0531M283.46 -15.9924C284.015 -11.0648 285.68 0.453432 287.901 7.1057M318.129 8.72257C322.979 -6.13724 332.496 -39.8759 331.756 -55.9522M297.337 -34.009C295.671 -45.4041 292.711 -71.5204 294.191 -84.8249M40.2578 262.833C40.5363 258.099 42.4044 247.124 47.6492 241.09M413.524 270.425L439.625 260.856M462.03 204.557L476.813 200.899M354.855 238.087C360.243 246.156 370.372 265.602 367.787 278.833M389.489 213.744C392.419 217.315 398.048 226.908 397.124 236.701M389.489 213.744C404.718 210.66 420.603 207.479 435.562 204.557M384.951 284.932C390.426 278.509 391.696 270.25 389.489 262.109M384.951 284.932L444.876 262.827M411.214 237.856C412.6 242.553 414.817 253.979 412.6 262.109M444.876 262.827C445.435 256.197 445.168 239.519 439.625 225.845M444.876 262.827L463.878 255.817M419.298 215.451C423.148 220.533 430.663 232.451 429.924 239.473M467.458 254.497L524.671 233.392C530.227 231.343 534.973 226.585 532.677 221.127C528.416 210.999 514.927 199.453 508.035 194.764C505.943 193.341 503.464 192.772 500.947 193.032C491.899 193.966 471.037 197.71 446.323 202.469M467.458 254.497L463.878 255.817M467.458 254.497C467.566 253.294 467.647 251.973 467.693 250.56M435.562 204.557C441.382 209.42 453.114 222.242 453.484 234.622M435.562 204.557C437.471 204.184 439.366 203.815 441.242 203.451M429.924 209.488C431.296 211.91 434.344 217.385 435.562 219.913M405.901 216.144C407.672 218.155 411.214 223.379 411.214 228.189M377.029 230.234C379.959 233.309 386.186 240.895 387.654 246.633M455.101 241.329C455.563 244.113 456.348 250.737 455.793 254.957M450.019 257.721C450.327 253.948 450.758 245.34 450.019 241.09M446.323 202.469C444.646 202.792 442.952 203.119 441.242 203.451M446.323 202.469C447.981 203.117 449.519 203.919 450.943 204.853M441.242 203.451C442.604 203.894 444.183 204.658 445.861 205.789M463.878 255.817C463.939 254.336 463.971 252.892 463.974 251.484M445.861 205.789L450.943 204.853M445.861 205.789C453.823 211.153 464.028 224.765 463.974 251.484M450.943 204.853C465.198 214.203 468.138 236.795 467.693 250.56M463.974 251.484L467.693 250.56M118.556 224.282C117.16 225.057 117.146 226.034 117.559 226.834C117.988 227.666 119.09 227.699 119.898 227.227C125.325 224.056 126.885 222.597 126.309 220.872C125.689 219.013 121.347 222.732 118.556 224.282ZM247.26 227.381C246.902 228.632 247.919 229.744 248.941 230.46C249.594 230.919 250.456 230.834 251.106 230.372C251.768 229.902 252.551 229.323 253.152 228.818C254.393 227.775 254.082 226.141 251.911 224.592C249.741 223.042 247.88 225.212 247.26 227.381ZM138.593 193.092C138.261 193.219 138.056 193.581 137.937 194.034C137.603 195.301 139.006 195.929 139.24 194.64C139.404 193.733 139.18 192.867 138.593 193.092ZM144.513 192.168C143.428 192.562 143.543 193.798 143.958 194.926C144.303 195.861 145.396 196.316 146.226 195.764C146.429 195.63 146.607 195.478 146.733 195.31C147.288 194.571 146.548 191.429 144.513 192.168ZM134.892 205.477C135.45 205.291 135.161 204.693 134.686 204.117C134.182 203.505 133.321 203.377 132.578 203.654L131.484 204.061C130.92 204.271 130.645 204.906 130.876 205.461V205.461C131.062 205.906 131.525 206.17 132.001 206.092C132.956 205.936 134.224 205.7 134.892 205.477ZM158.019 200.486C157.089 201.303 158.446 203.169 159.746 204.526C160.331 205.137 161.229 205.299 162.016 204.989C163.075 204.572 164.411 204.014 165.385 203.515C167.201 202.585 165.975 198.661 164.125 199.517C162.275 200.374 159.493 199.192 158.019 200.486ZM216.854 140.286C217.416 140.588 217.91 140.905 218.342 141.228C220.079 142.528 217.966 143.817 216.091 142.726C215.848 142.584 215.609 142.448 215.378 142.319C214.502 141.829 213.223 141.772 212.283 141.421C212.138 141.367 211.996 141.308 211.861 141.248C211.477 141.077 211.153 140.78 211.004 140.386C210.303 138.526 212.138 137.746 216.854 140.286ZM284.57 113.237C283.335 113.237 283.474 114.268 283.805 115.038C283.927 115.322 284.132 115.591 284.432 115.661C285.65 115.945 286.239 113.237 284.57 113.237ZM284.015 134.68C283.83 133.632 283.571 131.316 284.015 130.428C284.57 129.319 284.57 126.362 284.94 127.471C285.31 128.58 284.385 132.831 284.015 134.68ZM284.94 125.622C284.879 123.835 284.866 120.151 285.31 119.707C285.866 119.153 286.791 119.522 286.051 121.556C285.458 123.182 285.064 124.944 284.94 125.622ZM8.84435 347.11C7.55243 347.11 7.69534 348.757 8.00886 349.892C8.09227 350.193 8.25953 350.472 8.49088 350.683C11.1155 353.077 10.6193 347.11 8.84435 347.11ZM5.92381 321.123C3.69235 320.503 4.22345 324.544 4.83161 326.922C4.88688 327.138 4.97482 327.348 5.10925 327.526C7.31415 330.446 8.76288 321.911 5.92381 321.123ZM18.7766 292.599C16.3296 292.599 15.3828 295.599 15.1415 297.627C15.0839 298.111 15.2037 298.622 15.5657 298.949C18.3246 301.438 22.045 292.599 18.7766 292.599ZM44.6465 272.965C42.382 272.663 41.0939 275.013 40.5303 276.891C40.3159 277.606 40.5456 278.417 41.2053 278.765C44.7706 280.646 47.8314 273.39 44.6465 272.965ZM79.7557 266.96C76.9303 266.96 76.1094 268.356 76.0169 269.463C75.977 269.939 76.2447 270.375 76.6183 270.674C81.9792 274.953 84 266.96 79.7557 266.96ZM115.789 278.971C113.994 276.873 111.972 278.886 110.737 280.872C110.251 281.654 110.384 282.695 111.147 283.21C114.602 285.541 118.28 281.882 115.789 278.971ZM135.191 304.61C132.959 305.125 134.011 308.075 134.975 309.786C135.113 310.032 135.309 310.249 135.543 310.406C139.949 313.359 138.119 303.934 135.191 304.61ZM143.045 328.632C141.556 328.943 142.836 331.9 144.046 334.021C144.435 334.703 145.187 335.14 145.96 334.997C150.576 334.141 145.094 328.203 143.045 328.632ZM110.649 201.184L107.838 203.29C106.968 203.942 104.72 202.671 103.985 201.87V201.87C103.485 201.324 103.65 200.6 104.222 200.131C105.624 198.981 106.84 198 107.854 197.191C109.287 196.047 111.361 196.992 111.476 198.822L111.507 199.325C111.553 200.05 111.23 200.748 110.649 201.184ZM244.741 227.918L245.404 230.737C245.593 231.538 246.193 232.178 246.981 232.417L251.543 233.805C252.345 234.049 253.216 233.84 253.819 233.258L257.443 229.764C258.049 229.18 258.289 228.314 258.071 227.502L257.264 224.497C257.027 223.613 256.289 222.952 255.384 222.813L250.064 221.995C249.283 221.875 248.495 222.162 247.975 222.756L245.251 225.867C244.76 226.428 244.57 227.192 244.741 227.918ZM114.299 210.597L110.849 212.512C109.66 213.173 109.296 214.714 110.065 215.837L111.456 217.869C112.137 218.864 113.47 219.167 114.515 218.565L117.216 217.008C118.76 216.117 118.688 213.265 117.912 211.66V211.66C117.242 210.273 115.645 209.849 114.299 210.597Z" stroke="#337BEF" stroke-linecap="round"/>
</svg>
