<svg width="237" height="229" viewBox="0 0 237 229" fill="none" xmlns="http://www.w3.org/2000/svg">
<g opacity="0.7">
<path d="M3.36133 55.7725L26.8127 46.4864L27.1275 46.8012H27.5997V47.2733H27.1275L26.8127 47.5881H26.1832L25.711 47.9029L25.0814 48.2177H24.2945L23.9797 48.6899H23.5075L22.091 49.949V50.5786L21.4614 50.736V51.3655L22.091 51.6803V52.6247L20.8318 51.9951L20.3597 52.3099L23.5075 54.1986C23.7698 54.3035 24.1686 54.6078 23.6649 54.9856C23.1612 55.3633 22.4058 56.0873 22.091 56.4021C21.8811 56.7169 21.7132 57.4409 22.7205 57.8186C23.7279 58.1964 25.4487 58.8154 26.1832 59.0778L32.4789 61.2812V66.3178M73.5577 15.0079C75.2891 15.0079 77.1782 13.4483 73.5577 13.1192C71.8269 12.9619 69.9378 14.6931 73.5577 15.0079Z" stroke="#337BEF" stroke-linecap="round"/>
<path d="M3.20349 33.3848L1 35.1161V55.577L1.31478 57.3083L3.20349 59.984C3.36088 60.2988 3.95897 60.9598 5.09219 61.0858C6.22542 61.2117 9.97135 62.0826 11.7027 62.5023C12.3847 62.6597 13.4654 63.1319 12.3322 63.7614C11.199 64.391 7.76786 66.3322 6.19394 67.224C5.93162 67.3814 5.40698 68.011 5.40698 69.2701C5.40698 70.5293 5.19712 82.3861 5.09219 88.1572L5.40698 89.2589L6.50872 91.4624C6.82351 91.9346 7.61047 92.8475 8.24003 92.7216L16.8966 94.7677C17.332 94.8072 17.9346 95.02 17.7177 95.5546M3.20349 33.3848L92.13 1.1194C92.3923 0.962003 93.1688 0.836089 94.1761 1.59157L100.157 3.95245V4.58201L171.456 31.3387L211.905 44.4022L204.508 47.55V48.0222H205.295L205.767 48.337V48.8092L205.295 49.124L198.37 52.1144L186.25 58.5675L185.936 59.6692H182.473M3.20349 33.3848L35.4689 47.3926C35.3115 47.55 34.9967 47.9278 34.9967 48.1796C34.9967 48.4231 15.3753 39.8566 4.5919 35.1161M182.473 59.6692L158.707 71.3162L127.228 86.8981M182.473 59.6692L175.39 62.3449L151.939 73.5197L127.228 85.4815M127.228 86.8981V85.4815M127.228 86.8981C118.624 84.0125 101.542 78.21 102.046 78.0841C102.549 77.9582 103.305 77.507 103.62 77.2971L127.228 85.4815M4.5919 35.1161C4.22332 34.954 3.86506 34.7965 3.51827 34.6439C3.20349 35.1685 2.38505 36.2178 1.62957 36.2178L1.94435 56.364C3.09856 56.2591 5.09219 56.6788 3.83306 59.1971L32.9506 67.224L32.4784 66.2797L5.09219 58.8823C5.30205 57.833 5.21811 55.7659 3.20349 55.8918L2.73131 36.5326C3.28967 36.5326 4.44349 36.2493 4.5919 35.1161ZM17.7177 95.5546C17.6471 95.7287 17.4897 95.9368 17.2114 96.1842C16.0782 97.1915 7.19075 106.467 2.8887 110.979C2.52146 111.241 1.78696 112.112 1.78696 113.497C1.78696 114.882 1.78696 126.771 1.78696 132.542L2.57392 133.801L3.99045 135.375C4.09538 135.637 4.62002 136.162 5.87915 136.162C7.13829 136.162 12.6995 136.267 15.3227 136.319C15.1128 136.739 15.1968 137.578 17.2114 137.578C19.226 137.578 38.3019 138.732 47.588 139.31L80.0108 141.828L124.553 146.707L103.462 138.837L77.9647 129.237L24.294 108.618L15.4801 105.156L15.3227 104.526L15.4801 103.424L15.7949 102.637L19.1001 100.749L24.7662 97.7581L19.7297 97.1285C19.0179 97.1285 17.6191 96.8137 17.7177 95.5546ZM39.8758 24.7544C38.7741 24.8856 38.7083 26.866 42.3941 26.4857C45.6993 26.1447 42.8663 24.3984 39.8758 24.7544ZM60.1794 27.876C61.7533 27.7104 63.9568 29.6073 60.3368 29.6073C58.6046 29.6073 57.189 28.1908 60.1794 27.876ZM81.1125 20.4786C83.0013 20.7934 84.5752 22.0525 81.1125 22.0525C79.0665 22.2099 77.9647 20.636 81.1125 20.4786Z" stroke="#337BEF" stroke-linecap="round"/>
<path d="M5.25 58.7629L20.3596 52.3099M23.1927 50.8933L30.9049 53.8838M23.6649 52.1525L32.0066 55.7725M24.4518 54.9855L31.6919 58.7629M28.544 46.1716C28.5965 47.011 28.9218 48.8472 29.8032 49.4768C30.6846 50.1064 31.6394 50.9983 32.0066 51.3655M24.6092 49.162L29.0162 51.6803M26.8127 46.4864C26.8652 46.1191 27.1275 45.3531 27.7571 45.2272M23.8223 56.2447L31.6919 59.5499M32.4788 61.4386L32.6362 56.2447M32.6362 56.2447C32.5837 55.4577 32.5418 53.5375 32.7936 52.1525C33.1084 50.4212 37.2006 43.3385 48.8476 40.0333C60.4946 36.7281 76.3912 35.7837 86.7791 38.1446C97.1669 40.5055 108.657 43.3385 114.165 53.569C114.91 55.9797 114.557 58.3905 113.258 60.6516M32.6362 56.2447C34.5249 62.0682 40.3772 66.1301 47.4311 68.3638C56.8746 71.3543 75.3944 73.3479 86.7791 72.6134C100.179 71.3643 109.892 66.5099 113.258 60.6516M33.1084 67.2621C40.191 77.65 66.6329 88.0378 102.046 78.1221M113.258 60.6516C113.613 60.809 114.323 61.2497 114.323 61.7534C114.323 62.3829 114.637 64.7438 114.008 67.1047C113.378 69.4656 109.129 75.1317 103.62 77.3352" stroke="#337BEF" stroke-linecap="round"/>
<path d="M78.7489 72.7706C100.469 74.5019 142.493 50.8931 80.9524 38.3017C55.2975 35.6263 6.35142 50.1065 55.2975 70.2523" stroke="#337BEF" stroke-linecap="round"/>
<path d="M34.8389 55.7724C45.5415 35.7836 101.573 38.774 112.905 57.0315M49.0042 57.0315C55.9294 68.3637 84.8895 75.1316 96.2218 58.448M114.322 61.7533H115.266M115.266 61.7533C115.161 60.1269 114.951 56.2445 114.951 53.7263M115.266 61.7533H121.404M114.951 53.7263H114.322M114.951 53.7263L121.247 53.5689M121.247 53.5689L121.09 52.9393C121.457 52.8344 122.317 52.656 122.821 52.7819C123.252 52.8896 123.461 53.513 123.551 54.1984M121.247 53.5689C121.509 53.6213 122.034 53.9151 122.034 54.6706C122.034 55.4261 122.034 59.0776 122.034 60.8089C122.087 61.0712 122.034 61.6273 121.404 61.7533M121.404 61.7533L121.562 61.9106C121.772 61.9106 122.317 61.9106 122.821 61.9106C123.325 61.9106 123.556 61.386 123.608 61.1237C123.608 60.9352 123.608 60.7231 123.608 60.4941M116.053 57.0315H121.09M123.551 54.1984C123.592 54.5149 123.608 54.8445 123.608 55.1428C123.608 55.8134 123.608 58.6836 123.608 60.4941M123.551 54.1984C124.304 53.6738 126 52.7504 126.756 53.2541M126.756 53.2541C127.7 53.8837 128.015 58.1332 127.228 61.5959M126.756 53.2541L126.913 52.7819L185.62 51.9949C185.935 53.359 186.502 56.5908 186.25 58.6054M127.228 61.5959C126.756 62.3828 124.615 61.8792 123.608 60.4941M127.228 61.5959L127.7 62.068L182.315 59.7072M131.32 56.5593L162.956 55.7724M124.395 56.8741C124.08 53.4115 127.543 53.7263 127.071 56.8741H124.395Z" stroke="#337BEF" stroke-linecap="round"/>
<path d="M55.9297 57.9758L89.6116 58.2906M199.786 51.5227C199.261 51.8375 198.558 52.53 199.943 52.7818C201.328 53.0337 207.865 54.4607 210.961 55.1427C211.59 55.2477 212.503 55.6149 211.118 56.2445C209.733 56.874 206.029 58.6053 204.35 59.3923C204.509 59.5073 204.675 59.5948 204.823 59.687M205.137 61.1236C204.382 61.5014 192.966 67.157 187.352 69.9376L162.641 81.4272L186.88 71.9837C187.352 71.7738 188.296 71.5745 188.296 72.4558C188.296 73.3372 187.142 84.7849 186.565 90.3985C186.355 90.9756 186.25 91.8151 185.936 90.3985M205.137 61.1236C205.48 60.2095 205.215 59.9314 204.823 59.687M205.137 61.1236L211.59 58.1332C212.168 57.8251 213.196 57.4567 212.692 58.448C212.587 58.7627 212.535 59.3923 213.164 59.3923C213.532 59.4972 214.235 59.9274 214.109 60.8088C213.983 61.6902 212.692 73.033 212.063 78.5941L211.905 80.6402C211.958 80.955 211.716 81.7735 210.331 82.5289C208.946 83.2844 205.242 84.8374 203.563 85.5194M185.936 90.3985C185.936 89.0135 186.775 79.0139 187.195 74.1872C187.3 73.9248 187.195 73.4002 186.565 73.8724C185.81 74.2501 170.931 79.9057 163.586 82.6863L142.81 90.5559L132.737 94.9629C132.265 95.2777 132.58 96.1276 132.58 97.009C132.894 100.524 133.209 108.089 131.95 110.23C130.691 112.37 138.665 108.813 142.81 106.767L165.317 97.796L185.936 90.3985ZM204.823 59.687L178.695 72.7706L160.281 81.1124L136.514 91.9725L131.32 94.176C129.432 94.9629 128.645 95.2777 125.34 94.0186L102.046 86.149L88.1951 81.8994M88.1951 81.8994C90.7133 81.4797 96.0647 80.4199 97.3238 79.5385M88.1951 81.8994L85.2046 82.2142C84.1553 82.2666 82.9067 82.5604 86.3064 83.3159C89.706 84.0714 98.2157 86.4637 102.046 87.5655L121.72 94.6481C122.087 94.8055 122.79 95.6554 122.664 97.796M122.664 97.796C122.538 99.9365 122.297 110.44 122.192 115.424L121.877 115.896V116.211L122.034 116.683C121.3 116.788 119.799 117.187 119.673 117.942H119.201L118.257 117.47L110.23 113.22L105.193 110.545L100.472 107.712L98.2681 106.295C99.0026 106.085 100.409 105.571 100.157 105.193C101.836 105.088 105.603 104.595 107.239 103.462C107.869 103.515 109.317 103.714 110.073 104.092C110.828 104.469 112.276 103.829 112.906 103.462L122.664 97.796ZM203.563 85.5194V86.149L203.878 86.3063H204.193V86.7785L204.35 87.2507H204.823L205.452 86.9359L209.859 83.7881C210.016 83.6307 210.174 83.2529 209.544 83.0011M203.563 85.5194L193.49 89.6116L185.936 92.7594L170.354 99.3699L153.198 106.295L132.422 115.109L123.923 118.729L122.034 119.673C121.247 119.988 120.807 120.492 117.785 118.729M198.055 72.2985C201.517 71.6689 201.36 83.9455 194.435 84.4176C187.824 82.6863 195.064 72.1411 198.055 72.2985ZM198.684 69.9376C194.12 69.6228 186.565 83.6307 193.49 86.149C198.055 88.6672 206.869 71.9837 198.684 69.9376ZM211.276 101.731C213.637 102.203 211.276 113.378 207.026 113.693C204.665 112.433 209.387 100.944 211.276 101.731ZM211.905 99.9995C209.23 100.314 202.934 110.545 207.026 115.424C209.859 116.526 216.627 100.786 211.905 99.9995ZM164.373 165.475C160.438 164.373 153.828 177.279 161.068 178.695C165.475 178.695 171.141 167.993 164.373 165.475ZM165.317 163.743C159.966 161.382 151.467 177.594 159.808 180.269C169.724 181.056 171.141 164.845 165.317 163.743Z" stroke="#337BEF" stroke-linecap="round"/>
<path d="M117.786 118.729L114.166 116.746M114.166 116.746L99.6855 108.813L90.8716 103.934L78.7524 96.6943L74.3454 94.0186L71.8271 92.9169L69.4663 92.2873L61.4393 88.8247L54.3566 85.6768L42.7096 80.7977L34.6826 77.4924L18.786 71.1968L13.5921 69.1507L9.18512 67.262C8.97526 67.8391 8.11485 68.9618 6.35206 68.8359L5.87988 88.5099C6.82423 88.6673 8.55555 89.4857 7.92598 91.5003L20.6747 94.6482L32.7939 97.3238L52.3105 101.888L70.0958 106.295L88.3533 110.702L114.166 116.746ZM195.38 88.8247L178.854 99.8421L167.049 108.026L148.949 120.775L145.959 122.664M145.959 122.664V121.247M145.959 122.664C145.592 122.716 144.511 122.695 143.126 122.192C141.741 121.688 133.21 118.351 129.118 116.746M145.959 121.247L158.078 112.748L174.919 101.259L189.714 91.1856M145.959 121.247C145.382 121.352 144.227 121.247 142.181 120.46C140.446 119.793 133.945 117.05 130.849 115.896M202.62 85.9916L147.218 122.664C146.826 122.913 146.378 123.298 146.06 123.766M147.061 127.071L163.744 115.896L183.261 102.203L195.38 94.0186L204.509 87.2508M147.061 127.071L147.218 125.182M147.061 127.071C145.313 125.906 145.44 124.677 146.06 123.766M204.194 86.6212L173.975 107.397L149.421 124.553C148.844 124.972 147.847 125.34 147.218 125.182M147.218 125.182C146.708 125.177 145.763 124.886 146.06 123.766M210.017 83.6307L219.146 85.9916L219.618 86.3064L220.248 87.2508L221.35 88.8247C221.612 89.087 222.011 90.0523 221.507 91.8151C221.003 93.5779 218.674 103.147 217.572 107.712L217.415 108.813L217.1 109.286L213.165 112.433L206.869 117.47C206.397 117.942 205.233 118.698 206.869 119.201L231.737 128.645L233.311 129.432L234.098 129.904L234.57 130.691L234.885 131.478L235.357 132.58C235.515 133.052 235.956 133.43 235.83 134.941L233.154 152.254C233.049 152.883 232.587 154.205 231.58 154.457C230.573 154.709 224.445 157.395 221.507 158.707V159.966C221.559 160.228 221.444 161.005 220.563 162.012C219.681 163.019 193.229 205.137 180.113 226.071C179.536 226.962 177.72 228.557 175.076 227.802C172.432 227.046 84.9956 208.075 41.6079 198.684L32.1644 199.629L31.22 199.786L30.5904 199.471L29.9609 198.684L28.5443 197.74C28.1246 197.215 27.2537 195.694 27.1278 193.805C27.0019 191.916 26.2359 190.395 25.8687 189.87M25.8687 189.87C25.5539 188.769 24.9243 186.093 24.9243 184.204C24.9243 182.316 24.9243 178.276 24.9243 176.492C25.0292 175.758 25.1761 174.068 24.9243 173.187C24.6725 172.305 23.5603 166.419 23.0356 163.586L19.1008 146.115L18.1565 141.236L17.9854 140.449M25.8687 189.87C23.7385 180.942 20.3027 166.538 17.7995 156.031M17.3695 137.616L17.9854 140.449M13.9069 136.514C14.0118 137.983 14.3161 141.331 14.6938 142.968C14.846 143.627 16.1105 148.942 17.7995 156.031M17.9854 140.449C17.6752 140.344 17.0862 140.701 17.2121 142.968C17.338 145.234 17.6562 152.621 17.7995 156.031M51.9957 191.129V191.444L60.1801 191.129C60.432 191.759 71.1976 192.021 76.5489 192.074L31.8496 198.684C32.731 195.411 30.3281 195.432 29.0165 195.851L27.4426 176.177C29.4572 176.555 30.1707 174.341 30.2756 173.187L47.274 172.872L47.5861 176.492M51.9957 191.129H48.8479L47.5861 176.492M51.9957 191.129V189.87H50.7366V189.398M26.813 191.444L25.8687 175.233L28.5443 172.557L56.0879 171.77L101.574 172.242M47.5861 176.492L49.1627 184.204H49.6349M49.6349 184.204H51.0514L51.3662 185.778L63.328 185.149M49.6349 184.204L49.9496 189.398H50.7366M54.3566 186.565L50.7366 186.723L51.0514 189.398H50.7366M54.3566 185.778L54.8288 188.296L67.2628 187.982M53.8844 189.398L66.161 188.769M51.3662 181.056L51.0514 182.158L51.5236 182.316V182.945M51.3662 181.056L49.9496 179.325V178.066H49.1627V177.751L49.9496 177.594V177.279M51.3662 181.056L65.6888 181.843L73.4011 182.158M51.0514 172.872L51.3662 176.492M51.3662 176.492L56.7175 176.177L57.8192 177.279L60.1801 176.492L69.1515 176.177M51.3662 176.492C50.3589 176.744 50.0021 175.653 49.9496 175.076H51.0514" stroke="#337BEF" stroke-linecap="round"/>
<path d="M80.9553 181.843L95.9075 182.001M74.3448 184.519L87.0936 184.047M65.0587 190.5L77.3353 189.083L87.8805 188.769M71.8265 176.177H80.9553L82.6866 176.807H84.8901L85.8344 176.492H87.0936L87.8805 176.807L89.297 176.964L90.5562 177.279H91.9727L93.3892 176.964H95.9075M98.4258 176.964H99.6849L101.574 177.436H103.62H106.61L108.656 176.492M123.766 184.991L106.61 188.296L84.1031 191.916L41.7646 198.684M82.3718 190.972L87.0936 190.185L90.5562 189.398L93.8614 189.083L94.1762 188.296H97.1666" stroke="#337BEF" stroke-linecap="round"/>
<path d="M97.9539 187.982L100.787 187.667V187.352H102.99V186.723H105.666L111.175 185.778L117.628 185.149L119.831 184.519M42.3945 198.684L64.9016 203.091L91.0287 208.443L114.008 213.322L137.145 218.358L160.596 223.395L176.493 227.015C176.744 225.126 178.486 225.074 179.326 225.284L179.127 222.765M84.4182 191.916L92.6026 193.176L97.9539 193.736M179.127 222.765L177.752 205.295C177.017 205.085 175.359 204.256 174.604 202.619L167.049 201.962M179.127 222.765C178.144 222.923 176.367 223.584 177.122 224.969L176.493 225.441L154.772 220.247M154.772 220.247L156.032 218.358H156.661L157.448 216.942H157.92L167.049 201.962M154.772 220.247C153.146 219.198 152.569 218.358 148.162 218.673C146.85 218.621 144.227 217.886 143.283 217.886L132.265 216.155C129.38 215.525 123.388 214.109 122.507 213.479L120.146 213.322L116.369 212.22L105.981 210.017L92.6026 206.869M167.049 201.962L164.846 201.771M164.846 201.771L160.124 208.128L158.392 208.285L156.346 210.961H142.024M164.846 201.771L162.957 201.606M158.865 210.331L155.087 214.896L145.801 213.794M113.693 207.183L101.731 204.665M162.957 201.606L161.698 203.406L160.753 203.249L156.032 208.757L155.559 208.684L150.995 207.97M162.957 201.606L160.596 201.401M150.995 207.97L153.199 207.183L153.356 206.554H154.772L155.087 205.767H155.559L156.032 204.823H156.661L157.133 204.036H157.92L160.596 201.401M150.995 207.97L140.292 207.183M160.596 201.401L160.124 201.36L155.3 200.798M155.3 200.798L134.469 198.37L124.868 197.089M155.3 200.798C155.386 201.615 155.245 203.28 153.985 203.406C152.726 203.532 149.998 203.878 148.792 204.036M146.431 204.193C144.752 204.179 141.174 203.877 140.292 202.777M138.404 202.304L134.784 201.203M134.784 204.823L128.488 204.508M153.985 216.47L146.745 216.942L139.191 215.997L133.997 214.896L123.766 212.85M71.9842 202.304C68.3117 201.727 60.5576 200.353 58.9207 199.471M55.9302 198.999L50.7363 197.268M75.7616 200.258L92.9174 204.193L95.7504 204.665L99.3704 204.193M120.618 206.869L134.626 209.859M124.868 197.089L106.138 194.592L97.9539 193.736M124.868 197.089L123.294 198.999L112.749 196.323L103.62 195.694M104.722 198.999L118.415 202.304L119.674 203.091L126.127 203.563M73.086 197.495L65.8459 196.323M79.2243 194.592L97.9539 193.736" stroke="#337BEF" stroke-linecap="round"/>
<path d="M180.741 225.126L179.168 205.138L178.695 203.721L176.964 202.462C176.704 202.234 176.102 201.866 175.233 201.619M137.773 198.684L155.401 199.786C160.595 200.311 171.455 201.36 173.344 201.36C174.063 201.36 174.698 201.467 175.233 201.619M175.233 201.619L199.471 167.993L203.721 166.262L195.379 178.223M182.473 200.888C183.207 203.564 184.582 210.489 184.204 216.785L209.702 177.437L209.229 163.743L207.341 164.53L182.473 200.888Z" stroke="#337BEF" stroke-linecap="round"/>
<path d="M209.23 163.743L211.532 162.799M221.507 158.707L216.519 160.753M212.535 162.484C212.22 165.947 212.405 171.598 214.424 167.993C216.627 164.058 215.683 161.855 215.368 161.225M215.368 161.225L211.532 162.799M215.368 161.225L216.519 160.753M211.532 162.799C211.37 165.074 211.464 168.39 211.909 170.197C212.063 170.669 212.567 171.644 212.85 171.456C215.211 169.882 215.84 167.363 215.998 166.891C216.155 166.419 216.883 162.012 216.519 160.753M207.341 164.53L203.406 166.419M199.472 167.993L191.287 171.456L175.705 178.223L140.764 193.018C139.925 193.281 138.404 192.704 136.672 191.759L131.321 188.769M131.321 188.769C130.954 188.506 130.093 187.919 131.478 187.037M131.321 188.769L41.6074 138.875M131.478 187.037L103.777 171.613L43.3387 139.033M131.478 187.037L138.718 191.444C138.718 190.972 139.19 189.996 141.079 189.871V168.78C140.187 168.255 138.529 166.86 139.033 165.475L131.006 161.855M131.006 161.855L85.5198 142.496M131.006 161.855C130.762 161.611 130.509 160.976 131.286 160.281C131.344 160.229 131.408 160.176 131.478 160.123M131.478 160.123L88.1955 142.81M131.478 160.123L139.977 164.53L140.45 165.003L141.709 167.206L142.181 167.993V170.826V190.815C141.919 191.563 141.111 193.019 139.977 192.861" stroke="#337BEF" stroke-linecap="round"/>
<path d="M141.079 175.705C138.508 177.437 132.769 180.962 130.376 181.214L127.701 181.057H126.599L125.655 181.686L116.054 176.335L97.0092 165.475L90.8709 161.855L89.9266 162.17L80.7978 156.976C79.3813 156.766 76.4223 155.905 75.9187 154.143L51.8377 141.079C51.0508 140.659 49.6972 139.757 50.5786 139.505M140.607 168.623L137.616 171.613L136.2 170.826M139.348 167.678L129.274 177.122L127.228 177.437L123.608 175.705M130.376 173.659L126.599 176.335L123.923 175.233M124.71 174.604L122.821 177.594L114.637 173.03M130.061 180.27C130.691 179.273 132.611 177.216 135.255 176.964M136.042 176.65L137.616 176.335L139.348 174.604M133.367 175.705L133.524 176.02L134.941 175.705L135.728 176.65M126.914 180.899L128.96 178.381L131.95 177.122M136.042 164.216L129.274 169.41L123.294 166.262M128.487 169.252L127.588 170.039M117.47 164.688L127.228 170.354L127.588 170.039M138.403 165.475L131.793 170.669L132.58 171.613L130.848 173.03L129.589 171.613M129.589 171.613L128.173 173.187L126.284 171.928M129.589 171.613L127.588 170.039M126.284 171.928L125.497 173.03M126.284 171.928L103.777 160.281M113.378 160.281L100.157 153.356L93.0743 150.523L89.1395 148.634M97.3239 160.753L112.434 171.298M143.282 167.678L235.671 133.996M233.94 129.904L140.607 164.688M172.872 159.022L172.085 177.122L227.172 154.457C228.222 150.26 230.005 141.268 228.746 138.876L172.872 159.022Z" stroke="#337BEF" stroke-linecap="round"/>
<path d="M182.316 160.753L190.815 157.605M196.166 155.874L220.405 147.06M191.445 161.855L196.166 159.966M201.045 158.077L216.312 152.254M147.06 127.228L67.8918 107.082L43.8108 101.922M24.7664 97.7959L37.043 100.472L43.8108 101.922M18.4707 94.9629L43.8108 101.922" stroke="#337BEF" stroke-linecap="round"/>
<path d="M148.791 126.127L157.605 128.432M140.607 135.413L139.347 136.759M149.578 125.497L159.336 127.543L159.966 127.7L160.438 128.015L162.169 130.534L162.799 131.163L162.956 132.422L162.641 137.459L160.753 151.781L160.595 153.198L160.281 153.985L158.392 155.716L157.605 156.346L156.346 156.503L155.401 156.661L153.041 155.874L146.43 153.985L135.255 150.05L124.08 146.587M157.605 128.432L159.021 128.802C159.074 129.642 159.619 131.509 161.382 132.265L159.179 153.198C158.339 153.198 156.535 153.607 156.031 155.244L114.637 141.551L74.0297 126.127L36.5704 111.646L16.739 103.777C15.6897 103.462 15.1965 102.801 21.6181 102.675C20.8836 103.357 20.1387 104.753 23.0347 104.879L29.0156 103.777L30.4321 103.462L34.5243 105.508L33.4226 106.453V106.767H34.6817L34.0521 107.712L35.626 108.026L38.4591 109.443L60.6514 117.942L80.4828 125.182L97.1663 131.635L120.775 139.977L121.562 139.347L131.95 145.014L132.922 143.44M157.605 128.432L140.449 143.125H137.931L132.922 143.44M132.922 143.44L135.255 139.662L136.042 140.292L139.347 136.759M154.772 129.274L144.384 137.774C143.177 137.044 140.481 135.821 139.347 136.759M152.726 129.589L142.18 135.57M142.653 132.422L136.672 137.459M134.153 138.875C133.157 138.088 130.282 136.357 126.756 135.727M144.069 126.599L136.672 132.737L108.813 120.933M114.322 132.265C108.603 130.376 96.7256 125.875 94.9628 122.979M22.4051 102.203L24.9234 100.944L25.3956 98.4255M26.0251 99.9995L26.6547 100.944H29.9599L35.1539 102.675L45.6991 104.879L58.4479 108.026L64.114 108.656M44.1252 107.239L54.9853 111.646L70.5671 115.424M57.8183 115.109L82.6863 123.766" stroke="#337BEF" stroke-linecap="round"/>
<path d="M74.9737 116.368C78.2789 116.841 85.6763 118.666 88.8242 122.192M71.9832 111.174L83.0007 114.322L90.7129 118.887M7.76726 69.4656L7.1377 87.4083M7.1377 87.4083C8.02958 87.6706 9.78188 88.6674 9.65597 90.5561M7.1377 87.4083L21.4604 79.5387M9.65597 90.5561L67.5762 104.249L113.535 116.368M9.65597 90.5561L22.8769 82.8439L21.9325 81.27L21.4604 79.5387M24.923 73.8726L20.9882 75.4465V77.8074L21.4604 79.5387" stroke="#337BEF" stroke-linecap="round"/>
<path d="M100.629 105.351L120.775 116.841M23.5069 83.4735L25.2382 85.0474L26.8121 85.6769L28.5434 87.2509L41.9217 89.7691L51.0505 92.917H55.9296M29.9599 75.9186L29.4878 76.863H28.8582V77.9647L33.7373 79.8534L37.0426 80.483L46.9583 83.4735M29.4878 78.4369L29.9599 79.8534M32.006 83.1587L37.6721 84.5752M24.9234 74.9743L28.2286 79.0665M63.1697 96.8518L73.5575 100.314M77.8071 102.36L84.4176 104.879L98.4255 108.341M77.3349 98.8979L81.8993 101.888L88.195 104.249M12.9616 63.3273L34.0521 68.836M8.71201 65.8455L22.8773 71.3543L43.653 79.8534L62.6975 87.723L67.1045 89.9265M61.1236 84.2604L69.4653 89.297C71.0917 90.0315 74.4704 91.7208 74.9741 92.6022L85.3619 99.2127L93.3889 103.777C94.9104 104.024 97.7644 104.842 97.0089 106.138L98.4255 106.295M89.1393 98.5831L97.0089 103.147M90.2411 96.3796L103.305 102.36M78.7515 90.5561L103.777 99.2127L104.249 91.0283L103.934 89.6117L103.777 88.9822L103.462 88.6674L91.1854 88.1952L83.6306 88.0378L77.0202 86.7787L72.4558 85.9917L70.0949 85.2048L67.734 85.0474L64.4288 84.89M110.23 102.36V104.092M106.925 103.62C106.295 103.305 105.162 102.266 105.666 100.629M112.433 102.046L121.09 96.6944M108.813 97.1666L113.693 93.0744M173.816 130.848L181.371 124.868M182.63 123.608L187.982 119.674M193.333 116.054L198.684 112.119M180.269 130.061L193.333 119.674M160.438 154.142L180.899 138.246L205.924 118.729M161.225 127.071L216.627 86.9361M221.663 90.5561L204.508 101.888L170.511 125.812M28.2286 171.298L20.6738 137.931M57.5035 137.616L31.2191 136.042L17.8408 135.098C16.2039 134.846 15.4799 135.413 15.3225 135.728L5.24939 135.098C5.12347 133.461 3.72793 132.737 3.0459 132.58V113.535C3.83286 113.535 5.43826 113.095 5.56417 111.332L14.3781 113.378M57.5035 137.616L76.548 139.348L96.5368 141.079L114.007 142.968M57.5035 137.616L23.5069 134.783L6.66592 133.682M14.3781 113.378V113.85L22.4051 115.833M14.3781 113.378C14.3257 112.958 14.4726 112.024 15.4799 111.647L35.9408 117.155L61.7531 123.923L67.5766 125.34M83.9454 131.635L60.6514 125.34L45.0696 121.405L27.7564 117.155L22.4051 115.833M4.14764 113.535L4.46243 131.163C5.30185 131.111 6.91774 131.541 6.66592 133.682M6.66592 133.682L22.4051 115.833M167.678 130.848C167.468 135.78 166.797 146.053 165.789 147.689L201.675 120.618C202.986 114.952 205.452 103.62 204.822 103.62C204.193 103.62 179.797 121.772 167.678 130.848Z" stroke="#337BEF" stroke-linecap="round"/>
<path d="M4.46289 131.163L19.2577 115.109M9.65683 112.434C9.23712 114.427 8.9643 118.478 11.2307 118.729C13.4972 118.981 13.9589 115.372 13.9064 113.535M10.129 112.591C9.70929 114.427 9.31057 118.131 11.0734 118.257C12.8361 118.383 13.4867 115.057 13.5916 113.378M27.7569 117.313L28.0717 120.146L29.4882 121.09L29.1734 121.248L28.6226 121.326M63.6423 136.829L49.9492 135.413L39.5613 132.58L34.5248 131.636C33.0138 130.628 31.272 130.481 30.59 130.534L27.4421 131.95L26.97 129.747L28.0717 128.645V128.173H26.4978L26.0256 127.229L27.4421 126.127L26.8126 124.71L27.4421 122.507H28.0717V121.405L28.6226 121.326M68.9936 137.616L84.418 138.246L92.445 139.663M100.157 140.607L105.823 141.394M47.2735 128.645L54.8283 131.163L60.0223 133.209L66.1606 132.58M71.9841 134.154H77.965M30.9048 125.34L35.9413 127.543M28.6226 121.326L32.4787 123.766M26.97 127.229L29.803 125.655M83.9459 134.154C86.2018 134.416 91.2489 135.161 93.3894 136.042M111.804 81.7422L99.9999 78.9092M31.6917 196.009L28.7013 181.686" stroke="#337BEF" stroke-linecap="round"/>
</g>
</svg>
