<svg width="351" height="306" viewBox="0 0 351 306" fill="none" xmlns="http://www.w3.org/2000/svg">
<g opacity="0.7">
<path d="M252.564 80.6396L240.115 142.727L235.094 143.723M252.564 80.6396C252.271 80.4926 251.812 80.3167 251.261 80.1878M252.564 80.6396C257.833 80.5484 268.632 79.7071 273.295 77.1298M233.618 52.4039L238.073 43.0466M233.618 52.4039L243.774 58.3349M233.618 52.4039L231.796 53.7252M237.64 72.6918C235.793 69.9072 232.008 63.8715 231.638 62.0059C231.268 60.1404 229.126 57.4952 228.101 56.4058L231.796 53.7252M237.64 72.6918L173.608 154.941L184.608 152.761M237.64 72.6918C238.247 72.5715 238.794 72.5526 239.285 72.6101M247.896 80.3532L230.074 144.718L235.094 143.723M247.896 80.3532L245.845 78.5784C244.77 79.034 242.26 79.6768 240.825 78.6041M247.896 80.3532C248.465 80.1172 249.062 80.0191 249.637 80.008M240.825 78.6041L187.854 152.118L184.608 152.761M240.825 78.6041L242.862 75.7766C242.718 75.2195 242.358 74.4551 241.732 73.8134M251.261 80.1878C250.775 80.074 250.217 79.9968 249.637 80.008M251.261 80.1878L251.073 79.2387M250.472 76.2071C253.077 77.1538 259.52 78.3864 266.071 76.5411M250.472 76.2071C245.123 73.7128 234.43 66.7844 234.445 59.0259M250.472 76.2071L251.073 79.2387M267.797 74.227L268.12 75.8594C267.439 76.1227 266.754 76.3486 266.071 76.5411M267.797 74.227L235.199 55.4834M267.797 74.227L272.055 76.4752M235.199 55.4834L234.445 59.0259M235.199 55.4834L231.796 53.7252M234.445 59.0259L266.071 76.5411M270.673 74.044L274.515 76.2882C274.18 76.5874 273.769 76.8675 273.295 77.1298M270.673 74.044L276.505 61.837L266.589 55.8894M270.673 74.044L268.751 72.9219M264.66 54.733L266.589 55.8894M266.589 55.8894L261.066 68.4336M261.066 68.4336L268.751 72.9219M261.066 68.4336L259.644 67.603M268.751 72.9219L270.302 69.9006M258.45 55.237L263.88 58.1422M258.45 55.237L256.688 58.5898M258.45 55.237L272.78 22.9154M253.757 64.1651L259.644 67.603M253.757 64.1651L255.222 61.3774M253.757 64.1651L250.878 62.4839M259.644 67.603L263.88 58.1422M263.88 58.1422L273.654 63.3716L271.853 66.8792M271.853 66.8792L256.688 58.5898M271.853 66.8792L270.302 69.9006M256.688 58.5898L255.222 61.3774M270.302 69.9006L255.222 61.3774M250.087 62.0217L251.619 58.8569M250.087 62.0217L243.774 58.3349M250.087 62.0217L250.878 62.4839M255.946 49.9167L254.736 52.4171M255.946 49.9167L249.646 46.3307M255.946 49.9167L269.741 21.4175M254.736 52.4171C250.078 50.1346 241.343 45.597 238.073 43.0466M254.736 52.4171L252.832 56.3506M238.073 43.0466C237.444 42.5554 237.017 42.1379 236.86 41.8244C235.893 39.8834 238.233 40.179 239.524 40.5694L249.646 46.3307M252.832 56.3506L237.223 47.3268C236.368 46.6884 234.416 45.6536 233.443 46.622C232.47 47.5904 245.155 55.1821 251.619 58.8569M252.832 56.3506L251.619 58.8569M243.774 58.3349L249.646 46.3307M249.637 80.008L235.094 143.723M241.732 73.8134L184.608 152.761M241.732 73.8134C241.155 73.2223 240.353 72.7353 239.285 72.6101M231.796 53.7252L230.174 56.4795C232.063 60.9376 236.53 70.4051 239.285 72.6101M273.295 77.1298L272.055 76.4752M251.073 79.2387C254.449 79.5 263.372 79.3131 272.055 76.4752M274.513 13.6683L278.241 10.5978L272.78 22.9154M274.513 13.6683L272.816 15.0661L269.741 21.4175M274.513 13.6683L250.878 62.4839M269.741 21.4175L247.221 10.8334M272.78 22.9154L284.04 28.2075" stroke="#337BEF" stroke-width="0.761702" stroke-linecap="round"/>
<g opacity="0.2">
<path d="M46.3452 179.149C46.7947 165.361 48.2309 170.535 56.8338 142.411C60.8783 129.189 63.9315 130.164 67.6912 124.173C71.1979 118.584 69.1829 112.84 72.2051 107.201C82.0029 88.9254 82.7759 81.1904 94.4158 66.5773C88.6744 63.816 91.5996 57.1566 93.8847 48.0079C100.705 20.7174 127.371 81.191 145.122 93.0069C154.746 99.4138 141.33 99.0961 158.065 115.433C162.383 119.648 167.431 128.624 175.242 130.362C192.804 134.271 192.525 112.742 222.36 144.259" stroke="#337BEF" stroke-width="0.761702" stroke-miterlimit="10" stroke-linecap="round" stroke-linejoin="round"/>
<path d="M94.415 66.5763C105.481 70.3532 106.233 90.2629 111.56 90.4839C114.872 90.6214 116.661 89.6716 117.757 92.252C130.992 123.429 132.872 122.573 158.455 128.525C182.279 134.066 159.051 126.273 170.285 154.579" stroke="#337BEF" stroke-width="0.761702" stroke-miterlimit="10" stroke-linecap="round" stroke-linejoin="round"/>
<path d="M86.1229 90.1031C97.8184 133.466 73.3819 121.969 85.2079 135.542C92.3759 143.769 90.7682 142.759 88.6724 151.078C86.2603 160.657 92.9521 160.46 94.8574 169.532" stroke="#337BEF" stroke-width="0.761702" stroke-miterlimit="10" stroke-linecap="round" stroke-linejoin="round"/>
<path d="M88.068 119.357C86.6184 122.487 78.6187 122.378 76.4949 125.97C66.2262 143.341 69.1811 144.028 67.2964 149.975C64.8103 157.823 57.8325 150.999 56.7388 177.088" stroke="#337BEF" stroke-width="0.761702" stroke-miterlimit="10" stroke-linecap="round" stroke-linejoin="round"/>
<path d="M112.946 100.406C116.423 109.244 111.076 122.706 123.884 128.371C131.445 131.715 144.875 130.989 149.037 134.451C153.092 137.823 148.093 142.235 148.847 146.181C149.101 147.504 149.786 148.766 149.528 150.155C148.955 153.254 144.836 156.444 145.431 159.507" stroke="#337BEF" stroke-width="0.761702" stroke-miterlimit="10" stroke-linecap="round" stroke-linejoin="round"/>
<path d="M114.971 115.937C112.963 120.689 114.319 127.191 114.36 131.843C114.409 137.453 111.395 143.314 110.987 148.977C110.298 158.564 114.945 156.714 110.63 166.405" stroke="#337BEF" stroke-width="0.761702" stroke-miterlimit="10" stroke-linecap="round" stroke-linejoin="round"/>
<path d="M124.128 163.73C119.566 148.59 132.216 149.089 131.115 141.633C130.744 139.115 128.282 136.797 121.521 127.107" stroke="#337BEF" stroke-width="0.761702" stroke-miterlimit="10" stroke-linecap="round" stroke-linejoin="round"/>
<path d="M97.8291 54.0372C99.3574 56.1691 100.884 58.3023 102.411 60.4346C112.267 54.7496 116.125 75.4499 118.523 85.9943C119.283 89.3425 121.23 88.6335 125.857 88.5591C142.38 88.2935 130.295 104.203 143.035 107.891C147.039 109.05 151.284 111.424 155.288 112.583" stroke="#337BEF" stroke-width="0.761702" stroke-miterlimit="10" stroke-linecap="round" stroke-linejoin="round"/>
<path d="M184.711 134.202C190.1 136.778 190.072 139.797 192.434 150.19" stroke="#337BEF" stroke-width="0.761702" stroke-miterlimit="10" stroke-linecap="round" stroke-linejoin="round"/>
<path d="M139.082 87.6324C140.147 61.8416 139.813 61.9395 142.146 60.9949C148.306 58.4998 163.129 78.2519 165.237 84.8265C169.006 96.5727 172.268 93.2405 183.331 96.8529C196.906 101.285 195.068 113.771 200.921 121.726C203.844 125.697 206.878 124.383 210.2 125.32C213.191 126.164 219.121 127.921 226.169 143.503" stroke="#337BEF" stroke-width="0.761702" stroke-miterlimit="10" stroke-linecap="round" stroke-linejoin="round"/>
<path d="M158.066 115.432C166.009 119.206 174.957 116.919 178.279 117.448C185.725 118.633 182.612 124.015 205.901 124.737" stroke="#337BEF" stroke-width="0.761702" stroke-miterlimit="10" stroke-linecap="round" stroke-linejoin="round"/>
<path d="M154.94 74.7892C156.915 82.0775 150.523 80.1278 158.664 93.5757C162.917 100.602 166.477 109.414 165.798 117.484" stroke="#337BEF" stroke-width="0.761702" stroke-miterlimit="10" stroke-linecap="round" stroke-linejoin="round"/>
<path d="M182.928 99.4593C176.587 102.917 181.448 112.316 186.76 121.568" stroke="#337BEF" stroke-width="0.761702" stroke-miterlimit="10" stroke-linecap="round" stroke-linejoin="round"/>
<path d="M158.162 73.1244C159.095 69.5557 161.956 65.8993 165.604 62.7262C167.449 62.7416 168.559 63.71 169.457 64.6031C199.425 94.4058 190.315 83.3616 202.368 89.4051C207.632 92.0451 208.392 97.4267 214.492 99.382C227.465 103.537 224.779 95.0926 245.929 139.587" stroke="#337BEF" stroke-width="0.761702" stroke-miterlimit="10" stroke-linecap="round" stroke-linejoin="round"/>
<path d="M194.537 106.874C208.607 106.546 208.728 106.541 210.04 107.034C213.552 108.353 213.333 116.328 219.824 119.329C223.182 120.881 225.061 120.443 227.707 125.21C229.078 127.68 233.285 139.6 234.245 141.902" stroke="#337BEF" stroke-width="0.761702" stroke-miterlimit="10" stroke-linecap="round" stroke-linejoin="round"/>
<path d="M167.591 71.2551C170.941 81.3752 165.932 82.5689 179.934 88.064C190.197 92.0907 201.075 98.8268 203.018 106.685" stroke="#337BEF" stroke-width="0.761702" stroke-miterlimit="10" stroke-linecap="round" stroke-linejoin="round"/>
<path d="M188.779 83.0586C189.414 81.2693 196.807 65.3853 199.491 64.4538C202.27 63.4901 202.916 66.4705 203.356 66.9846C208.391 72.8795 215.211 62.264 247.34 82.3404C265.26 93.5388 259.153 99.4062 265.753 109.007C269.961 115.129 279.432 119.99 281.081 132.617" stroke="#337BEF" stroke-width="0.761702" stroke-miterlimit="10" stroke-linecap="round" stroke-linejoin="round"/>
<path d="M220.003 70.0833C225.611 76.5503 225.169 81.7238 227.632 83.7417C229.753 85.4799 245.593 89.3225 261.464 98.3007" stroke="#337BEF" stroke-width="0.761702" stroke-miterlimit="10" stroke-linecap="round" stroke-linejoin="round"/>
<path d="M229.584 73.0549C233.036 73.9188 236.381 82.5325 243.005 89.6807" stroke="#337BEF" stroke-width="0.761702" stroke-miterlimit="10" stroke-linecap="round" stroke-linejoin="round"/>
<path d="M205.225 83.9355C212.545 94.1746 228.361 94.2581 234.173 95.602C256.82 100.839 252.364 124.784 262.109 136.378" stroke="#337BEF" stroke-width="0.761702" stroke-miterlimit="10" stroke-linecap="round" stroke-linejoin="round"/>
<path d="M240.054 103.61C246.937 131.732 247.739 136.831 249.164 138.944" stroke="#337BEF" stroke-width="0.761702" stroke-miterlimit="10" stroke-linecap="round" stroke-linejoin="round"/>
</g>
<path d="M47.9458 179.3L47.8334 178.733M47.9458 179.3L53.4209 185.09M47.9458 179.3L47.0912 179.961M47.8334 178.733C47.0654 178.911 46.1946 179.131 45.2602 179.387M47.8334 178.733C62.5716 180.167 99.613 185.601 129.873 195.863M26.96 187.782C26.3185 186.534 25.1951 183.849 25.8338 183.094C26.6322 182.15 26.3746 178.862 25.9625 176.783M26.96 187.782L26.4816 184.685L28.0984 183.249M26.96 187.782C26.7135 186.538 27.501 184.105 28.0984 183.249M25.9625 176.783L30.2144 174.369L33.4385 173.73C33.9976 173.339 34.6415 172.855 35.3225 172.297M25.9625 176.783C27.3828 178.267 28.3402 181.64 28.6413 183.141M37.1692 170.675C40.1586 167.857 43.0671 164.082 42.3402 160.965C42.0901 159.893 41.5256 159.324 40.7768 159.114M37.1692 170.675C38.6421 166.173 36.571 166 35.3513 166.476C33.1953 167.532 33.3088 169.761 33.6351 170.744L33.216 171.613C31.4927 169.283 33.063 166.864 34.0635 165.945C33.9697 165.472 33.2366 165.151 32.4876 164.955M37.1692 170.675C36.5464 171.262 35.9202 171.807 35.3225 172.297M32.4876 164.955C32.0401 164.838 31.5869 164.766 31.2608 164.733C31.1165 164.005 35.1836 160.336 38.4612 159.295M32.4876 164.955L31.6753 165.829C30.7536 165.488 28.6825 164.851 27.7722 165.032L27.367 165.97L26.1777 165.937L25.9927 164.009C26.9027 163.96 29.0941 163.945 30.5795 164.279C31.1375 163.448 32.8609 161.469 35.2903 160.202C35.0764 159.786 34.2694 159.029 32.7522 159.33C30.8557 159.706 30.4389 159.592 30.3617 160.197C30.2844 160.801 29.1886 159.251 29.8723 158.722C30.4193 158.3 32.2995 158.372 33.1713 158.461C32.0225 157.969 29.6873 156.795 29.5375 156.039C29.3501 155.094 27.5285 155.848 27.6784 156.604C27.8283 157.36 26.4656 156.451 26.6575 155.431C26.2533 155.38 25.4297 155.203 25.3698 154.901C25.2948 154.523 28.7086 153.846 30.7152 155.02C32.7217 156.193 35.5197 159.371 36.0887 159.258C36.5439 159.168 37.86 159.245 38.4612 159.295M38.4612 159.295C38.5867 159.255 38.7111 159.219 38.834 159.187M38.834 159.187C38.754 158.783 38.6473 157.847 38.8609 157.334M38.834 159.187C39.5486 159.001 40.2146 158.957 40.7768 159.114M38.8609 157.334L35.789 157.746C35.8155 157.217 36.0966 155.917 37.0088 154.951M38.8609 157.334C39.6137 156.206 41.4523 153.993 42.7834 154.161C44.4473 154.371 49.5089 152.624 50.1364 152.152L46.6315 154.477L45.631 155.795L44.9369 155.173L44.3042 156.377L43.2987 155.857L42.9166 156.652L41.6417 156.586C41.2203 157.236 40.4573 158.651 40.7768 159.114M37.0088 154.951C36.6945 154.77 36.265 154.418 36.0393 153.964M37.0088 154.951C37.905 154.954 39.8501 154.823 40.4609 154.266C41.2243 153.571 40.4198 151.512 41.3636 150.636M37.0088 154.951C38.5178 153.382 39.9674 151.948 41.3636 150.636M81.1597 114.181L76.2662 115.348L75.929 113.647L75.1727 112.814L74.1472 113.607L74.2971 114.363L73.0819 115.193L72.8525 116.024L70.7663 116.438L70.3542 114.359C69.4439 114.539 67.5461 115.439 66.711 115.867L65.9454 118.965L65.6083 117.264L64.7349 117.83L64.9597 118.964C64.4995 119.035 63.8898 119.145 63.249 119.283M81.1597 114.181L80.0732 108.7L80.4174 107.453L81.7075 107.001L81.7098 106.019L82.658 105.831L82.6557 106.813L83.7936 106.588L83.721 105.227L84.6693 105.039L84.7794 106.589L86.2966 106.288L86.2614 105.116C86.5401 104.865 87.2336 104.452 87.7786 104.816C88.46 105.27 89.9023 104.591 88.5021 103.494L91.0823 102.589L91.8386 103.422C92.2694 102.943 93.2972 102.229 93.9622 103.197L96.238 102.746L95.751 100.289L97.6522 97.9478L97.7271 98.3258M81.1597 114.181L81.4969 115.882L101.712 112.464M109.434 101.702L108.348 96.2206L97.7271 98.3258M109.434 101.702L113.454 101.101L113.342 100.534L112.698 100.269L111.836 95.9219C111.724 95.3549 111.689 94.1833 112.447 94.0329C113.396 93.8449 115.824 93.1672 116.201 94.0746C116.578 94.982 117.069 95.4738 120.293 94.8347L119.956 93.1337L125.873 92.1573C125.394 91.7285 124.481 90.7046 124.665 90.0397C124.848 89.3747 127.847 90.8492 129.324 91.6696C130.816 91.2429 133.936 91.0698 134.475 93.7914C135.015 96.513 136.364 96.6908 136.971 96.4395C137.378 95.5077 138.494 93.5839 139.708 93.3433L140.42 96.9343C141.42 96.3433 143.262 94.3674 142.632 91.1922L145.402 90.2503L145.618 95.3147L150.169 94.4125L150.546 95.3199L155.667 94.3048L155.779 94.8718C156.614 94.7719 158.479 94.7688 159.266 95.5557C160.249 96.5394 161.654 95.6716 163.623 96.6563M109.434 101.702L99.9849 103.75M97.7271 98.3258L98.851 103.996L99.9849 103.75M163.623 96.6563C165.592 97.6409 170.022 100.102 172.111 98.7059C173.781 97.589 175.588 97.6892 176.283 97.8789L177.386 96.4817L178.524 96.2561L178.294 97.0873L179.013 97.7306C179.794 97.6098 180.801 97.4587 181.885 97.3023M163.623 96.6563L151.136 99.2903M198.271 98.431C197.763 95.0745 196.55 94.0579 196.007 93.9691L193.504 94.2688C193.56 86.5971 190.944 86.3298 190.338 86.2536C189.687 86.1718 189.831 86.6813 189.919 87.1223C189.158 88.0588 190.003 88.8735 190.521 89.1638L191.244 87.8418C191.909 88.81 192.244 92.5543 192.328 94.3054L190.621 94.6437C190.509 94.0767 189.561 94.2647 189.256 94.7179C188.952 95.1711 191.186 96.4961 189.594 96.4189C188.652 96.3732 184.958 96.8589 181.885 97.3023M198.271 98.431L201.722 97.9433C201.912 97.9057 202.321 97.9817 202.441 98.5865M198.271 98.431L180.254 102.002L176.348 102.187L175.749 99.1633M202.441 98.5865C202.553 99.1539 203.334 103.092 203.781 105.346M202.441 98.5865L187.776 101.73M209.322 106.454C209.506 105.79 209.249 105.421 209.097 105.32L206.784 105.583L206.709 105.205L203.864 105.769C203.838 105.636 203.81 105.495 203.781 105.346M209.322 106.454C209.093 107.286 210.252 114.127 207.26 112.953C204.866 112.013 200.095 112.605 198.009 113.019L198.571 115.854L212.331 116.662M209.322 106.454L196.083 109.079L203.781 105.346M212.331 116.662L200.919 118.924M212.331 116.662C212.31 117.528 212.375 118.873 212.634 120.133M208.824 124.821C209.824 125.094 214.27 125.116 216.368 125.093C216.318 124.841 215.817 124.103 214.211 123.164C213.389 122.683 212.905 121.455 212.634 120.133M208.824 124.821C210.566 125.654 214.808 127.17 217.843 126.569C221.636 125.817 216.658 130.536 219.573 132.315M208.824 124.821L202.342 126.106M219.573 132.315L240.208 128.028C240.235 127.815 240.309 127.513 240.445 127.196M219.573 132.315L216.496 132.943M245.747 126.145C245.444 126.205 244.46 125.614 244.005 125.311L244.954 125.123C245.157 124.821 245.381 124.096 244.654 123.611C243.927 123.127 243.087 123.66 242.757 123.987L241.919 125.725C241.154 125.978 240.695 126.614 240.445 127.196M245.747 126.145C246.109 125.531 247.238 124.368 249.019 124.232M245.747 126.145C246.54 126.546 247.941 127.218 249.301 127.788M308.256 162.075C308.499 163.301 308.662 164.889 308.769 166.491M308.256 162.075C307.648 162.081 307.025 162.086 306.388 162.09M308.256 162.075C307.67 160.559 306.882 159.063 305.925 157.592M151.374 146.227L155.683 145.348M151.374 146.227L152.005 149.412M151.374 146.227C156.177 147.628 161.32 148.912 166.718 150.089M152.123 150.007C152.436 151.254 152.303 153.9 149.269 154.501M152.123 150.007C180.218 158.015 210.696 162.054 239.625 164.142M152.123 150.007L152.005 149.412M149.269 154.501C186.237 163.673 233.767 174.09 308.951 172.544M149.269 154.501L149.826 159.301L140.43 156.646L137.276 159.628C136.667 159.358 135.685 158.948 134.715 158.593M308.951 172.544C308.962 171.219 308.926 168.839 308.769 166.491M308.951 172.544L308.833 174.422M308.769 166.491C305.892 166.463 302.94 166.433 299.919 166.395M210.618 199.5C211.377 199.35 212.475 199.918 212.929 200.221C214.031 199.479 216.125 198.644 215.694 201.244C215.264 203.844 218.52 203.565 220.202 203.101L221.534 200.872L223.505 200.874L225.781 200.423L226.573 202.427C227.271 201.974 228.056 200.3 228.361 199.519C229.917 199.434 231.105 198.705 231.825 198.047M210.618 199.5C209.67 199.688 209.022 201.388 207.884 201.614C207.529 201.684 207.244 201.817 206.921 201.95M210.618 199.5C197.855 197.159 160.641 186.257 143.63 181.099M77.9344 195.356C78.1198 193.905 79.2541 193.064 79.7981 192.825C82.679 193.04 84.6666 191.533 85.3003 190.753C86.2728 191.018 88.664 192.011 90.4491 193.857C92.6805 196.165 99.2738 197.608 104.584 196.555C104.879 196.497 105.284 196.464 105.786 196.454M77.9344 195.356C77.749 196.807 74.9476 197.192 73.5701 197.203C68.8192 196.149 61.3346 194.248 55.1786 192.138M77.9344 195.356C72.8711 194.038 61.4697 191.196 56.4019 189.939M133.223 199.834C132.585 199.267 131.134 198.049 130.438 197.716C130.011 197.512 129.857 197.044 129.825 196.601M133.223 199.834C134.181 199.988 135.133 200.142 136.074 200.297M133.223 199.834C122.115 198.051 110.194 196.367 105.786 196.454M129.873 195.863C130.21 195.656 130.659 195.334 131.086 194.952M129.873 195.863C129.834 196.049 129.805 196.32 129.825 196.601M128.37 190.269C128.044 189.286 127.483 186.987 127.85 185.657M128.37 190.269C109.05 178.589 67.8371 174.526 49.6455 173.955M128.37 190.269C128.7 190.343 129.122 190.458 129.568 190.61M127.85 185.657C110.307 178.292 68.0917 173.212 49.1772 171.592M127.85 185.657C127.978 185.196 127.991 184.697 127.931 184.211M125.16 153.191C126.167 154.628 128.204 157.812 128.292 159.052C128.402 160.602 130.716 160.34 130.521 162.342C130.485 162.717 130.37 163.149 130.224 163.618M125.16 153.191C125.813 156.49 124.579 161.066 123.685 164.195M125.16 153.191C124.639 154.288 123.645 156.867 123.829 158.413C124.06 160.345 121.439 163.562 122.092 165.95C122.615 167.86 123.037 168.279 123.183 168.251M130.503 170.203C132.591 171.989 133.312 174.099 133.411 174.93C134.255 174.514 135.501 173.583 136.339 172.189M130.503 170.203C128.798 170.545 125.421 171.798 125.554 174.074C125.885 174.008 126.717 174.167 127.402 175.325M130.503 170.203C130.075 169.837 129.782 169.433 129.593 169.006M138.564 160.159C138.765 160.69 138.726 161.119 138.565 161.534M138.565 161.534C138.061 162.832 136.367 163.992 137.105 167.716C137.462 169.513 137.045 171.015 136.339 172.189M138.565 161.534C138.644 162.024 138.806 162.78 139.045 163.579M142.772 176.414C142.406 177.62 142.933 179.465 143.63 181.099M142.772 176.414L231.825 198.047M142.772 176.414C143.049 175.499 142.98 174.13 142.719 172.687M142.371 185.332L143.095 184.011C143.792 184.344 144.675 184.025 145.029 183.824C144.628 183.172 144.091 182.182 143.63 181.099M142.371 185.332C142.232 185.622 141.725 186.246 140.814 186.427C139.677 186.652 137.787 184.081 137.075 180.49C136.363 176.899 137.926 175.607 136.339 172.189M142.371 185.332C160.308 190.392 198.329 200.799 206.921 201.95M127.266 175.75C127.146 176.024 126.983 176.204 126.773 176.246C126.239 176.352 126.01 177.191 125.969 178.173M127.266 175.75C127.303 176.268 127.589 177.381 128.438 177.684M127.266 175.75C127.32 175.626 127.365 175.483 127.402 175.325M128.438 177.684C129.019 177.892 129.67 177.85 130.263 178.068M128.438 177.684C127.996 178.414 127.689 179.925 127.513 181.148M131.542 179.426C131.202 178.606 130.752 178.248 130.263 178.068M131.542 179.426C131.578 178.881 131.53 177.622 131.05 176.94C130.569 176.257 130.325 177.408 130.263 178.068M131.542 179.426L131.007 180.005L131.386 181.008L131.975 181.251L132.354 182.255L132.768 180.702M131.542 179.426C131.734 179.887 132.195 180.294 132.768 180.702M136.074 200.297C140.899 201.087 145.423 201.869 148.928 202.497L152.917 201.417M136.074 200.297C136.097 199.628 135.95 197.976 135.291 195.877M127.714 147.185C127.922 149.029 128.551 151.078 128.84 151.872L134.483 154.486C133.267 155.512 132.455 157.179 132.2 157.885C132.764 157.931 133.734 158.234 134.715 158.593M127.714 147.185L126.199 146.503L125.974 145.369M127.714 147.185L142.523 144.249M125.974 145.369L123.399 144.308M125.974 145.369L142.054 142.181M123.399 144.308L121.863 136.559M123.399 144.308C86.8892 137.604 56.0498 143.458 45.1937 147.224M123.399 144.308L143.51 140.321M121.863 136.559L144.431 132.085M121.863 136.559L114.244 135.909L114.843 138.933L112.303 139.043L112.537 136.247C105.509 135.099 91.5451 133.065 81.756 133.427M144.431 132.085C144.231 131.077 144.059 129.016 144.97 128.836C145.275 128.775 145.792 128.63 146.394 128.498M144.431 132.085L144.814 134.835M192.987 120.496L151.715 130.052L150.655 129.673C150.471 128.745 149.777 128.366 148.923 128.267M192.987 120.496C192.986 120.486 192.986 120.476 192.985 120.465M192.987 120.496L190.041 127.955M198.718 117.592C198.416 117.063 195.534 117.438 194.206 117.701C193.809 117.78 193.533 118.072 193.346 118.453M198.718 117.592C198.96 118.016 199.676 118.777 200.004 119.105L200.919 118.924M198.718 117.592C198.275 117.704 197.859 117.802 197.468 117.888M40.7768 159.114C48.8862 155.919 64.7433 154.265 72.4832 159.901M72.4832 159.901C72.3446 159.926 72.2028 159.953 72.0577 159.98M72.4832 159.901C76.9157 159.057 93.0809 159.275 122.281 166.902M35.3225 172.297C36.4145 171.654 37.5785 171.03 38.7973 170.427M43.6285 148.572C44.2797 146.642 47.5797 143.112 51.5183 140.026M43.6285 148.572C42.8892 149.225 42.1346 149.912 41.3636 150.636M43.6285 148.572C44.158 148.105 44.6796 147.656 45.1937 147.224M113.244 125.893L111.577 125.437L111.289 119.012M113.244 125.893C126.564 127.65 148.92 123.053 153.016 120.983C156.293 119.326 167.409 114.474 172.557 112.254L171.717 108.016M113.244 125.893C113.21 126.1 113.193 126.383 113.189 126.72M111.289 119.012L117.966 116.903M111.289 119.012L104.962 116.927L79.0665 117.543L63.1358 120.7L63.249 119.283M117.966 116.903C117.423 116.814 116.838 116.38 118.842 115.354C121.347 114.072 131.097 111.55 131.218 108.187L133.836 107.471L141.56 111.637M117.966 116.903L141.56 111.637M63.249 119.283C61.7598 119.603 60.1024 120.077 59.7619 120.584C59.1531 121.49 56.9874 123.491 54.3697 124.206C52.4261 124.737 48.6715 130.934 46.9741 134.631M101.712 112.464L100.176 104.715M101.712 112.464L118.924 112.785C118.522 109.867 117.933 107.828 117.296 106.429M99.9849 103.75L100.176 104.715M100.176 104.715L114.358 103.672C115.031 103.539 116.23 104.086 117.296 106.429M141.56 111.637L155.095 108.735M181.885 97.3023L175.749 99.1633M175.749 99.1633L172.86 102.486C160.966 104.529 153.422 101.207 151.136 99.2903M117.296 106.429L151.136 99.2903M49.1772 171.592C49.0133 171.428 48.3512 171.402 47.0138 172.61C45.6764 173.818 47.3853 175.81 48.407 176.655L50.1138 176.317L49.6455 173.955M49.1772 171.592L49.6455 173.955M135.984 187.912C136.315 187.245 136.598 186.519 136.722 185.667C136.97 183.964 135.888 182.863 134.64 181.964M135.984 187.912C134.978 189.934 133.52 191.4 134.654 194.13C134.907 194.737 135.117 195.323 135.291 195.877M135.984 187.912C137.284 188.502 156.702 192.995 163.776 195.868M163.776 195.868C164.645 195.39 165.563 194.911 166.462 194.503C169.536 193.108 170.37 193.336 173.128 197.307C175.886 201.278 179.38 199.014 184.496 199.964C189.611 200.915 199.808 201.643 203.067 202.176C205.311 202.542 206.209 202.245 206.921 201.95M163.776 195.868C161.674 197.023 159.862 198.169 159.326 198.275C158.567 198.426 157.769 199.37 157.387 200.427C157.082 201.274 155.994 201.686 155.488 201.786L154.353 201.029L152.917 201.417M85.8608 148.679L82.8748 149.984M85.8608 148.679C86.2693 149.284 86.8525 151.863 87.0931 153.076C86.0117 153.683 83.8327 154.816 83.7676 154.488M85.8608 148.679C85.561 148.378 84.8988 147.826 84.6487 148.02C84.3986 148.213 82.8087 149.044 82.045 149.435M82.8748 149.984C83.1453 151.348 83.7025 154.159 83.7676 154.488M82.8748 149.984L82.045 149.435M83.7676 154.488C83.4627 154.404 83.0824 154.062 82.9304 153.901L82.045 149.435M36.0393 153.964C35.8389 153.562 35.799 153.08 36.1425 152.569C36.2049 152.476 36.271 152.359 36.3405 152.222M36.0393 153.964C36.3973 153.438 36.8708 152.76 37.4114 152.01M46.9741 134.631C47.2419 135.129 47.4215 135.634 47.5259 136.14M46.9741 134.631C46.6327 135.375 46.3745 136.018 46.231 136.493M47.5259 136.14L49.166 137.253C48.7265 138.179 47.6144 140.186 46.6816 140.802M47.5259 136.14C47.8107 137.52 47.5366 138.911 46.9672 140.206M46.6816 140.802C45.7195 142.659 44.2078 144.274 42.9822 145.311C41.468 146.594 39.1093 149.655 37.4114 152.01M46.6816 140.802C46.7833 140.606 46.8788 140.407 46.9672 140.206M37.4114 152.01L38.2513 149.486L38.8448 149.368L39.538 147.792L40.6493 147.032L41.3096 145.823L42.9136 144.965L44.199 143.115L45.1668 142.541L45.9331 140.951L46.9672 140.206M36.3405 152.222L36.1849 150.794L37.9933 148.184M36.3405 152.222C36.7668 151.383 37.3248 149.78 37.9933 148.184M37.9933 148.184C38.6136 146.703 39.3289 145.228 40.1223 144.374M40.1223 144.374C40.3746 144.103 40.6348 143.894 40.9024 143.768C43.0658 142.75 46.3741 138.559 46.1118 137.236C46.0835 137.093 46.1272 136.837 46.231 136.493M40.1223 144.374L40.276 143.331L41.1775 143.332L41.2138 142.605L41.6998 142.329L42.3613 141.119L43.402 140.913L43.5774 139.979L44.3055 140.015C44.5317 139.337 45.0485 137.943 45.3062 137.788C45.0782 137.85 44.5386 138.099 44.2046 138.596C44.1203 138.138 44.4075 137.075 46.231 136.493M30.0001 187.179C29.8743 187.454 29.7942 187.732 29.7651 188.011C29.6371 188.692 29.5324 190.218 30.1374 190.884C29.5325 190.153 28.393 187.851 28.6739 184.496C28.7321 183.8 28.7126 183.368 28.6413 183.141M30.0001 187.179C30.3423 187.019 31.1097 186.754 31.4421 186.975C31.7745 187.197 31.4043 186.179 31.1777 185.642M30.0001 187.179C30.2393 186.656 30.6437 186.142 31.1777 185.642M31.1777 185.642C31.4845 185.354 31.834 185.071 32.2195 184.792M32.2195 184.792C32.273 185.278 32.4702 186.16 32.8316 185.801C33.193 185.442 33.2418 184.536 33.2211 184.128M32.2195 184.792C32.531 184.567 32.8661 184.346 33.2211 184.128M33.2211 184.128C33.3873 184.026 33.5578 183.925 33.7324 183.824M33.7324 183.824L34.8101 184.869L35.7136 183.971M33.7324 183.824C34.2856 183.506 34.879 183.197 35.5009 182.898M35.7136 183.971L37.0669 183.523M35.7136 183.971L35.5009 182.898M37.0669 183.523L37.6235 182.693L39.0303 183.425M37.0669 183.523L36.4916 182.439M39.0303 183.425L40.6407 182.455L41.1963 181.62L41.0117 180.689M39.0303 183.425L38.8247 181.478M41.0117 180.689C41.0681 180.67 41.1244 180.651 41.1807 180.632M41.0117 180.689C40.282 180.937 39.5483 181.201 38.8247 181.478M41.1807 180.632L42.6878 181.869L43.8696 180.556L45.2602 179.387M41.1807 180.632C42.5922 180.156 43.9853 179.737 45.2602 179.387M38.8247 181.478C38.0289 181.783 37.245 182.104 36.4916 182.439M36.4916 182.439C36.1547 182.589 35.8239 182.742 35.5009 182.898M53.4209 185.09C53.5146 185.866 53.9234 187.625 54.8093 188.457C55.2758 188.894 55.9807 189.405 56.4019 189.939M53.4209 185.09C62.8618 185.733 86.5521 188.905 105.786 196.454M55.1786 192.138C53.6189 191.604 52.1444 191.056 50.8214 190.506M55.1786 192.138C57.0238 191.448 56.9805 190.672 56.4019 189.939M50.8214 190.506C47.7731 189.237 45.5283 187.953 44.8951 186.78L44.5579 185.079L46.1477 186.139L45.5436 185.08L45.2439 183.568L44.4127 182.358C44.9566 182.119 46.083 181.437 46.2366 180.621L47.0912 179.961M50.8214 190.506C51.8146 190.249 53.6004 189.451 52.7985 188.316C51.796 186.896 48.1409 184.826 48.0224 184.228C47.9276 183.75 47.3621 181.184 47.0912 179.961M28.0984 183.249C28.3339 182.911 28.5399 182.819 28.6413 183.141M38.7973 170.427L39.908 168.755L40.734 168.772L43.2055 167.203L44.4539 167.135L45.3563 166.237L46.8136 166.308L48.5157 164.892L50.3531 165.067L51.7426 163.892L53.1988 163.963L55.7339 162.202L56.4257 162.964L60.6952 160.859L60.8083 161.429L62.5663 160.295L64.7531 160.414L66.419 159.725L68.6134 159.882L70.3478 159.538L72.0577 159.98M38.7973 170.427C41.5763 169.053 44.6397 167.786 47.7807 166.64M72.0577 159.98C66.6918 160.989 56.9085 163.308 47.7807 166.64M131.086 194.952C131.847 194.269 132.537 193.391 132.383 192.616C132.302 192.205 131.956 191.835 131.486 191.514M131.086 194.952L132.289 196.472L131.526 196.264L131.177 197.232L129.825 196.601M135.291 195.877C138.201 196.709 145.801 198.982 152.917 201.417M231.825 198.047C232.116 197.781 232.33 197.527 232.461 197.331C232.688 197.483 233.461 197.801 234.735 197.863C236.008 197.925 237.004 200.032 237.343 201.078C242.207 199.902 248.372 199.233 255.093 198.92M142.719 172.687L255.093 198.92M142.719 172.687C142.365 170.732 141.657 168.641 140.976 167.356M255.093 198.92C273.323 198.069 295.638 199.833 307.14 201.189L307.577 194.269M139.045 163.579C139.363 164.642 139.82 165.781 140.407 166.472C140.588 166.686 140.781 166.988 140.976 167.356M139.045 163.579L269.447 190M269.447 190L272.524 190.065M269.447 190C269.258 190.564 268.679 191.947 267.872 192.97M269.447 190C269.811 191.109 270.015 191.955 270.071 192.239M307.796 190.81L307.577 194.269M307.796 190.81L279.041 190.202M307.796 190.81L308.833 174.422M307.577 194.269L267.872 192.97M267.872 192.97L140.976 167.356M267.872 192.97C268.734 192.799 269.463 192.539 270.071 192.239M267.872 192.97C267.928 193.858 268.276 195.731 269.218 196.12C269.497 195.405 270.124 193.962 270.402 193.907C270.607 194.945 271.241 197.049 272.128 197.161L272.86 195.398C272.963 195.917 273.287 197.003 273.758 197.198C274.347 197.44 273.8 193.773 274.564 193.082C275.329 192.391 276.237 190.606 278.317 190.187M130.263 178.068C130.267 179.302 130.379 181.927 130.793 182.564C130.379 181.987 129.515 180.48 129.379 179.069C129.044 179.615 128.285 181.408 127.931 184.211M127.931 184.211C127.847 183.544 127.625 182.901 127.365 182.414M127.365 182.414C127.131 181.977 126.867 181.665 126.647 181.575C126.262 181.416 125.908 179.635 125.969 178.173M127.365 182.414C127.393 182.085 127.443 181.64 127.513 181.148M125.969 178.173C126.35 178.682 127.191 179.99 127.513 181.148M125.969 178.173C117.323 174.587 89.5801 167.26 47.7807 166.64M127.402 175.325C127.799 173.617 127.215 170.13 126.106 169.896C126.053 169.885 125.999 169.873 125.946 169.86M132.768 180.702C132.937 180.823 133.116 180.944 133.301 181.066M133.301 181.066C133.596 181.815 133.986 183.572 133.18 184.601C132.173 185.887 132.308 187.478 132.619 188.136C132.93 188.794 132.631 185.976 133.387 185.646C134.143 185.317 134.775 185.371 134.43 184.541C134.154 183.876 134.455 182.546 134.64 181.964M133.301 181.066C133.733 181.351 134.197 181.645 134.64 181.964M129.568 190.61C129.508 190.419 129.335 189.938 129.114 189.55C128.837 189.065 128.342 187.745 129.127 188.388C129.755 188.903 130.022 190.209 130.077 190.797M129.568 190.61C129.735 190.668 129.906 190.73 130.077 190.797M130.077 190.797C130.348 190.904 130.618 191.024 130.874 191.155M130.874 191.155C130.842 190.69 130.861 189.815 131.193 190.037C131.525 190.259 131.527 191.114 131.486 191.514M130.874 191.155C131.092 191.266 131.299 191.386 131.486 191.514M123.685 164.195C123.196 165.907 122.809 167.187 122.889 167.588C122.935 167.821 123.037 168.042 123.183 168.251M123.685 164.195L124.598 165.273C124.516 164.45 124.481 162.887 125.001 163.215C125.651 163.626 125.944 164.467 126.154 163.706C126.364 162.945 128.376 162.187 128.685 163.744C128.994 165.301 129.65 162.833 130.224 163.618M130.224 163.618C129.79 165.018 129.081 166.748 129.371 168.283M125.482 169.731C125.344 169.233 125.152 168.292 125.485 168.513C125.817 168.735 125.931 169.504 125.946 169.86M125.482 169.731C125.636 169.78 125.791 169.823 125.946 169.86M125.482 169.731C124.543 169.431 123.644 168.91 123.183 168.251M129.371 168.283C129.037 168.363 128.417 168.577 128.605 168.794C128.792 169.011 129.342 169.026 129.593 169.006M129.371 168.283C129.417 168.529 129.49 168.771 129.593 169.006M61.4985 126.718L61.1213 124.814M62.3354 124.574L62.6783 126.304M63.5456 126.132L63.134 124.056M64.2236 124.2L64.5666 125.93M65.28 125.788L64.9371 124.058M66.4941 125.547L66.1169 123.644M67.2217 125.403L66.8445 123.5M68.4364 125.342L68.0248 123.266M69.6162 124.929L69.239 123.026M70.4834 124.757L70.1062 122.854M71.5241 124.55L71.1126 122.474M72.5648 124.344L72.1876 122.441M73.6398 124.311L73.1939 122.062M74.8196 123.897L74.4424 121.994M76.068 123.829L75.6565 121.753M77.1087 123.623L76.6972 121.547M46.961 145.781C46.9898 145.416 47.1253 144.67 47.4361 144.608C47.7468 144.547 48.0417 144.751 48.1503 144.861M46.961 145.781C47.3619 145.464 47.7583 145.157 48.1503 144.861M46.961 145.781C46.3816 146.24 45.7928 146.72 45.1937 147.224M48.1503 144.861C48.1061 144.199 48.1452 142.921 48.6545 143.108C49.1639 143.295 49.2347 143.832 49.2065 144.078M48.1503 144.861C48.5059 144.591 48.8579 144.33 49.2065 144.078M49.2065 144.078C49.7241 142.057 50.8706 137.85 51.3159 137.187M49.2065 144.078C49.9493 143.539 50.6764 143.036 51.389 142.566M51.3159 137.187L51.7294 138.363L51.3462 139.158C51.251 139.896 51.1261 141.611 51.389 142.566M51.3159 137.187L52.4252 137.326L53.0161 136.67L53.2924 137.154L53.6756 136.359L54.3331 136.948L55.168 135.704L56.9711 135.706L57.8765 133.908L59.0544 134.394L60.1656 133.634L60.6154 134.085L62.9065 132.911L63.9487 133.622M51.389 142.566C52.0146 142.154 52.6291 141.767 53.2335 141.404M63.9487 133.622C62.5868 134.014 61.3395 134.421 60.221 134.832C57.4844 135.836 54.3377 137.817 51.5183 140.026M63.9487 133.622C68.425 132.333 74.1385 131.204 80.5797 130.633M51.5183 140.026L53.2335 141.404M53.2335 141.404L53.5628 140.337L55.0552 139.682L56.4085 139.234L56.6545 137.747L57.7295 137.713L58.8407 136.954L60.3312 137.198L61.2347 136.299L62.1705 136.473L64.2538 135.161L66.0912 135.337L68.0697 134.405L70.2539 134.511L71.5729 133.89L73.8963 133.789L74.3322 134.427M53.2335 141.404C61.3429 136.53 67.6211 135.883 74.3322 134.427M74.3322 134.427C74.5781 134.373 74.8246 134.319 75.0718 134.263M75.0718 134.263C75.2651 134.22 75.4588 134.175 75.653 134.13C77.3551 133.732 79.4385 133.512 81.756 133.427M75.0718 134.263L75.0761 133.376L76.012 133.55L76.2117 132.971L77.4338 133.448L78.7528 132.827L80.1017 133.266L81.756 133.427M80.5797 130.633L81.3908 131.585L81.6348 130.997L82.8469 131.656L84.6863 130.931L86.3845 131.314L87.7377 130.866L88.6716 131.939L89.2282 131.11L90.6481 131.907L92.1405 131.252L93.9416 132.153L94.4982 131.324L95.3615 132.951L95.9887 131.568L96.6099 132.883L98.1386 131.501L99.8348 132.783L99.8711 132.057L102.852 132.545L103.685 132.2L107.912 133.519L108.122 132.759L110.962 134.353L111.402 132.828M80.5797 130.633C89.8522 129.812 100.633 130.147 111.402 132.828M111.402 132.828C112.187 133.023 112.972 133.231 113.757 133.452C113.538 131.789 113.172 128.498 113.189 126.72M192.451 148.047C193.295 147.76 195.088 147.345 195.502 147.982C195.577 148.096 195.591 148.188 195.558 148.262M192.451 148.047C193.46 148.463 195.36 148.703 195.558 148.262M192.451 148.047L192.722 149.971M195.558 148.262L195.707 150.099M193.805 151.24L192.895 151.195L192.722 149.971M193.805 151.24L194.351 151.266M193.805 151.24C195.34 158.021 196.276 168.025 211.379 171.692M240.54 164.208C238.01 166.605 230.013 174.313 216.426 172.602C215.788 172.522 215.17 172.432 214.57 172.334M240.54 164.208C240.235 164.186 239.93 164.164 239.625 164.142M240.54 164.208C242.861 164.372 245.171 164.524 247.47 164.665M194.351 151.266L195.807 151.337L195.707 150.099M194.351 151.266C194.786 156.494 198.408 166.746 208.318 169.894C217.081 172.678 228.039 173.896 239.625 164.142M213.262 172.101L215.484 175.126L214.57 172.334M213.262 172.101C213.688 172.184 214.124 172.261 214.57 172.334M213.262 172.101C212.878 172.027 212.502 171.949 212.134 171.867M211.379 171.692L212.368 173.047L212.134 171.867M211.379 171.692C211.627 171.752 211.879 171.811 212.134 171.867M272.524 190.065C272.287 190.577 271.522 191.523 270.071 192.239M272.524 190.065L272.953 184.951L273.791 190.092M272.524 190.065L273.791 190.092M278.317 190.187L274.696 190.111M278.317 190.187L279.041 190.202M273.791 190.092L274.696 190.111M274.696 190.111C275.072 189.58 275.83 188.192 275.861 186.892C275.899 185.266 280.635 189.153 279.041 190.202M308.833 174.422C306.056 175.153 300.987 177.056 302.925 178.83C305.081 180.803 305.225 177.904 306.343 178.798M308.833 174.422C310.05 174.541 310.244 177.559 309.409 178.803C308.574 180.047 311.088 183.325 309.814 183.577C309.279 183.684 308.941 183.338 308.611 182.737M306.343 178.798C306.481 178.909 306.634 179.077 306.807 179.319C307.721 180.597 308.158 181.909 308.611 182.737M306.343 178.798C306.655 181.278 307.513 186.155 308.457 185.824C309.401 185.493 308.953 183.628 308.611 182.737M145.349 138.684L143.302 139.27M145.349 138.684L147.671 139.483M145.349 138.684L145.093 136.844M143.302 139.27L147.343 140.807M143.302 139.27L143.51 140.321M143.576 140.654L141.876 141.171M143.576 140.654C145.295 141.32 146.94 141.725 147.548 141.845M143.576 140.654L143.51 140.321M141.876 141.171C143.122 142.362 145.815 142.548 147.005 142.492M141.876 141.171C141.906 141.39 141.963 141.729 142.054 142.181M148.401 150.126L144.18 150.064C143.427 147.686 142.89 145.734 142.523 144.249M148.401 150.126L147.005 142.492M148.401 150.126L152.005 149.412M147.005 142.492C148.429 142.4 151.97 141.893 154.742 140.598M154.742 140.598L155.683 145.348M154.742 140.598L154.639 140.079M155.683 145.348L190.161 138.315M147.343 140.807L154.467 139.214M147.343 140.807L147.548 141.845M154.467 139.214L154.639 140.079M154.467 139.214L151.452 138.554M147.548 141.845C149.079 141.601 152.64 140.907 154.639 140.079M147.671 139.483C146.984 136.323 145.963 129.231 146.394 128.498M147.671 139.483L151.452 138.554M146.394 128.498C147.186 128.325 148.124 128.174 148.923 128.267M148.923 128.267L150.95 136.51M151.452 138.554L150.95 136.51M151.452 138.554C161.646 136.962 184.854 132.533 196.131 127.553C195.136 128.036 194.127 128.73 193.14 129.698M142.054 142.181C142.161 142.715 142.315 143.407 142.523 144.249M144.814 134.835C144.058 135.045 142.693 135.651 143.274 136.399C143.855 137.147 144.729 137.007 145.093 136.844M144.814 134.835L144.873 135.263M145.093 136.844L145.046 136.502M145.046 136.502C144.64 136.491 143.849 136.393 143.933 136.088C144.017 135.784 144.595 135.411 144.873 135.263M145.046 136.502L144.873 135.263M205.927 135.099L204.458 127.687M205.927 135.099L198.824 136.548M205.927 135.099L211.506 139.595L216.535 138.598L217.199 136.489L216.496 132.943M205.927 135.099L216.496 132.943M204.458 127.687C200.63 131.466 195.317 130.602 193.14 129.698M204.458 127.687C203.991 127.404 203.342 127.118 202.564 126.912M193.14 129.698L194.666 137.396M194.666 137.396L190.161 138.315M194.666 137.396L198.824 136.548M192.985 120.465C192.967 119.934 193.038 119.076 193.346 118.453M192.985 120.465L194.586 121.533M200.919 118.924L201.592 122.321M193.346 118.453C193.792 118.481 195.176 118.393 197.468 117.888M199.676 129.024C200.898 128.74 202.053 128.321 202.724 128.031L202.342 126.106M199.676 129.024C198.569 129.28 197.408 129.426 196.499 129.265L195.847 125.977M199.676 129.024L197.468 117.888M195.847 125.977L195.024 121.825L194.586 121.533M195.847 125.977C195.041 126.333 193.648 126.841 191.618 127.476M150.95 136.51C170.532 133.094 183.125 130.004 190.041 127.955M212.634 120.133L201.592 122.321M201.592 122.321L202.342 126.106M190.041 127.955C190.604 127.788 191.129 127.628 191.618 127.476M191.618 127.476L194.586 121.533M166.718 150.089C168.992 150.585 171.312 151.062 173.671 151.52M166.718 150.089C168.206 149.857 169.977 149.572 171.959 149.252M216.179 143.164L232.622 139.724M216.179 143.164L224.978 146.634M216.179 143.164L217.137 148.907M216.179 143.164C205.805 143.898 189.861 146.37 177.898 148.292M232.622 139.724L249.115 129.263C247.528 129.331 243.571 129.013 240.445 127.196M232.622 139.724L240.385 141.602M251.89 128.713L240.385 141.602M251.89 128.713C251.771 128.683 251.643 128.648 251.51 128.608M251.89 128.713C252.453 128.892 253.041 129.085 253.654 129.291M240.385 141.602L242.498 142.262L241.468 142.519M224.978 146.634L241.468 142.519M224.978 146.634L225.801 150.786M241.468 142.519L242.349 146.966L225.801 150.786M225.801 150.786L219.668 148.945L216.893 149.495L217.137 148.907M218.601 145.381L217.137 148.907M217.137 148.907L195.707 150.099M192.722 149.971L173.671 151.52M173.671 151.52C196.286 155.914 222.47 158.61 246.581 160.179M234.605 152.457L235.154 155.225L237.443 154.951L236.928 152.356M234.605 152.457C234.941 152.031 235.876 151.414 236.928 152.356M234.605 152.457C234.813 152.595 235.568 152.769 236.928 152.356M173.263 149.041L173.01 147.765M173.263 149.041C174.719 148.805 176.272 148.554 177.898 148.292M173.263 149.041C172.819 149.112 172.384 149.183 171.959 149.252M173.01 147.765L177.613 146.853M173.01 147.765L170.921 146.741M177.613 146.853L177.898 148.292M177.613 146.853L177.154 146.584M170.921 146.741C170.574 146.81 169.845 147.134 169.705 147.881L171.959 149.252M170.921 146.741L172.482 146.431M175.084 145.916L175.777 145.778L177.154 146.584M175.084 145.916L175.289 146.954L177.154 146.584M175.084 145.916L174.39 146.053M174.39 146.053L174.596 147.091L172.688 147.47L172.482 146.431M174.39 146.053L172.482 146.431M306.388 162.09C305.378 160.456 304.151 158.854 302.745 157.289M306.388 162.09L305.925 157.592M306.388 162.09C304.216 162.103 301.875 162.105 299.383 162.091M249.019 124.232C249.176 124.22 249.338 124.216 249.505 124.221C250.093 124.239 250.677 124.335 251.23 124.474M249.019 124.232L249.301 127.788M249.301 127.788C250.094 128.121 250.874 128.419 251.51 128.608M251.23 124.474L251.51 128.608M251.23 124.474C252.04 124.679 252.783 124.977 253.369 125.262M253.369 125.262C253.789 125.466 254.128 125.663 254.354 125.813C254.251 126.947 254.195 129.184 254.802 129.064C255.56 128.914 257.002 128.235 257.536 126.951C257.6 126.797 258.261 126.897 259.389 127.227M253.369 125.262L253.654 129.291M253.654 129.291C255.353 129.863 257.236 130.536 259.254 131.303M259.389 127.227L259.254 131.303M259.389 127.227C259.892 127.374 260.489 127.566 261.167 127.802M259.254 131.303C259.904 131.55 260.568 131.807 261.244 132.073M261.167 127.802L261.244 132.073M261.167 127.802C261.819 128.029 262.546 128.296 263.338 128.601M261.244 132.073C261.932 132.344 262.633 132.625 263.345 132.915M263.338 128.601L263.345 132.915M263.338 128.601C264.147 128.913 265.024 129.264 265.957 129.654M263.345 132.915C264.251 133.285 265.174 133.67 266.111 134.07M265.957 129.654L266.111 134.07M265.957 129.654C266.711 129.968 267.501 130.307 268.323 130.67M266.111 134.07C266.892 134.403 267.681 134.747 268.479 135.1M268.323 130.67L268.479 135.1M268.323 130.67C269.124 131.023 269.954 131.398 270.809 131.795M268.479 135.1C269.228 135.432 269.984 135.774 270.744 136.123M270.809 131.795L270.744 136.123M270.809 131.795C271.677 132.198 272.571 132.624 273.484 133.07M270.744 136.123C271.637 136.533 272.536 136.955 273.439 137.389M273.484 133.07L273.439 137.389M273.484 133.07C274.336 133.486 275.205 133.921 276.086 134.373M273.439 137.389C274.305 137.805 275.175 138.232 276.046 138.668M276.086 134.373L276.046 138.668M276.086 134.373C276.947 134.815 277.821 135.273 278.702 135.748M276.046 138.668C276.979 139.136 277.913 139.615 278.844 140.105M278.702 135.748L278.844 140.105M278.702 135.748C279.753 136.314 280.005 136.453 281.07 137.063M278.844 140.105C279.926 140.674 280.195 140.81 281.266 141.408M281.07 137.063L281.266 141.408M281.07 137.063C282.215 137.718 284.174 138.846 285.318 139.548M281.266 141.408C282.405 142.044 284.345 143.146 285.462 143.814M285.318 139.548L285.462 143.814M285.318 139.548C286.606 140.339 287.888 141.158 289.151 142.004M285.462 143.814C286.795 144.612 288.108 145.431 289.391 146.272M289.151 142.004L289.391 146.272M289.151 142.004C290.171 142.687 291.179 143.387 292.167 144.103M289.391 146.272C290.476 146.982 291.54 147.708 292.576 148.447M295.455 146.605L295.687 150.777M295.455 146.605C294.39 145.752 293.291 144.917 292.167 144.103M295.455 146.605C296.582 147.508 297.67 148.433 298.708 149.375M295.687 150.777C294.684 149.986 293.644 149.209 292.576 148.447M295.687 150.777C296.841 151.687 297.948 152.614 298.997 153.558M292.167 144.103L292.576 148.447M298.708 149.375L298.997 153.558M298.708 149.375C300.08 150.621 301.363 151.9 302.532 153.206M298.997 153.558C300.349 154.775 301.606 156.02 302.745 157.289M302.532 153.206L302.745 157.289M302.532 153.206C303.812 154.637 304.955 156.101 305.925 157.592M299.383 162.091L299.919 166.395M299.383 162.091C297.055 162.079 294.596 162.054 292.02 162.015M299.919 166.395C297.608 166.366 295.256 166.333 292.869 166.295M292.02 162.015L292.869 166.295M292.02 162.015C289.698 161.98 287.282 161.933 284.782 161.874M292.869 166.295C290.492 166.257 288.078 166.213 285.632 166.161M284.782 161.874L285.632 166.161M284.782 161.874C282.665 161.823 280.487 161.764 278.257 161.695M285.632 166.161C283.483 166.116 281.309 166.065 279.112 166.008M278.257 161.695L279.112 166.008M278.257 161.695C275.49 161.61 272.642 161.509 269.725 161.393M279.112 166.008C276.307 165.934 273.465 165.849 270.589 165.751M269.725 161.393L270.589 165.751M269.725 161.393C267.696 161.311 265.634 161.222 263.543 161.125M270.589 165.751C268.547 165.681 266.488 165.605 264.414 165.521M263.543 161.125L264.414 165.521M263.543 161.125C261.802 161.044 260.042 160.957 258.263 160.864M264.414 165.521C262.667 165.45 260.909 165.374 259.141 165.291M258.263 160.864L259.141 165.291M258.263 160.864C257.117 160.804 255.962 160.742 254.801 160.677M259.141 165.291C257.992 165.238 256.84 165.182 255.683 165.123M254.801 160.677L255.683 165.123M254.801 160.677C253.954 160.629 253.103 160.581 252.249 160.53M255.683 165.123C254.835 165.08 253.985 165.036 253.133 164.99M252.249 160.53L253.133 164.99M252.249 160.53C250.374 160.42 248.484 160.303 246.581 160.179M253.133 164.99C251.254 164.889 249.366 164.781 247.47 164.665M246.581 160.179L247.47 164.665M283.356 140.635L284.875 155.977L298.163 136.622L283.356 140.635ZM283.356 140.635L283.269 139.754M283.269 139.754L298.756 135.066L298.653 134.547L300.982 131.747L299.867 134.306L302.37 131.472L300.803 134.48L303.437 135.037L304.653 133.897L304.022 137.078L300.352 135.842L299.103 136.816L284.938 159.021C284.729 159.182 284.021 159.491 282.856 159.434L281.572 139.011M283.269 139.754L283.182 138.872M281.572 139.011L281.516 138.123C281.63 137.981 282.102 137.72 283.077 137.814L283.182 138.872M281.572 139.011C281.624 139.121 282.018 139.246 283.182 138.872M173.597 104.769L187.776 101.73M173.597 104.769L175.001 106.016M173.597 104.769L155.095 108.735M187.776 101.73L187.764 103.486L190.589 104.545L185.856 103.865L189.212 107.155L186.854 107.083L186.298 107.912L184.255 106.699L184.113 107.806L182.762 107.355L181.998 108.046L180.578 107.248L179.987 107.905L179.156 107.35L178.599 108.18L178.214 109.874L177.317 108.075L175.001 106.016M175.001 106.016L172.327 106.546M172.327 106.546L171.717 108.016M172.327 106.546L173.633 113.136C169.307 115.247 159.175 120.013 153.256 122.194C135.462 128.454 119.131 127.819 113.189 126.72M155.095 108.735L155.537 110.054L156.679 111.267L156.995 109.226L168.269 106.991L171.351 108.898L171.717 108.016M249.51 154.896C252.274 154.97 253.985 154.222 254.718 153.684M249.51 154.896L249.612 155.415M249.51 154.896C249.344 154.717 249.183 154.5 249.06 154.266M254.718 153.684C254.833 153.6 254.924 153.52 254.991 153.45C255.536 152.863 255.661 151.735 251.805 151.924C248.708 152.076 248.562 153.313 249.06 154.266M254.718 153.684L255.37 156.971C254.582 157.307 252.429 157.986 250.127 158.01L249.612 155.415M252.386 141.92L252.969 144.861C254.915 145.051 256.76 144.349 257.439 143.975L256.856 141.034M252.386 141.92C251.508 141.195 250.673 139.67 254.363 139.37C258.053 139.07 257.563 140.354 256.856 141.034M252.386 141.92C254.166 141.999 256.108 141.362 256.856 141.034M265.343 144.745L265.926 147.686L267.522 147.55L267.034 145.089M265.343 144.745C265.598 144.515 266.281 144.2 266.973 144.782C267.208 144.98 267.191 145.068 267.034 145.089M265.343 144.745C265.892 144.914 266.728 145.129 267.034 145.089M268.637 144.992L269.186 147.76L270.582 147.663L270.034 144.895M268.637 144.992C268.776 144.784 269.214 144.446 269.851 144.751C269.975 144.81 270.03 144.857 270.034 144.895M268.637 144.992C269.177 145.029 270.048 145.048 270.034 144.895M249.612 155.415L247.011 155.931L240.256 152.775L246.771 154.72L249.06 154.266M190.161 138.315L189.171 141.505L191.113 141.3L196.934 143.382L204.739 141.835L198.824 136.548M134.715 158.593C135.176 157.782 136.401 155.993 137.605 155.323M63.2484 150.104C61.4802 150.275 57.8188 150.713 57.3186 151.1C56.6934 151.584 57.5283 150.339 58.0144 150.063C58.5004 149.787 57.3246 148.402 59.0247 147.885C60.7249 147.368 64.7142 146.577 65.5108 146.959C66.3075 147.34 60.5495 148.302 61.8302 149.307C63.1109 150.311 64.8078 149.795 63.2484 150.104ZM50.1743 135.974C49.3427 135.72 47.763 135.086 48.0969 134.588C48.4309 134.091 49.0011 133.39 49.2444 133.102L50.3174 133.968L50.7026 132.274L51.5012 131.756C51.3418 130.649 51.2937 128.345 52.3764 127.986C52.0739 128.885 51.5932 130.947 52.0902 131.999C52.7114 133.314 53.4395 133.349 52.4331 133.729C51.4267 134.108 50.4546 134.66 50.1743 135.974ZM55.2788 132.625C54.3443 131.852 52.7395 130 53.7963 128.784C55.1172 127.263 55.325 127.402 55.1535 126.537C54.982 125.672 56.059 124.739 56.8899 125.294C57.7209 125.848 58.2067 126.471 58.207 125.572C58.2072 124.673 56.7924 123.993 58.352 122.666C59.5998 121.605 60.0995 121.142 60.1933 121.043C60.1081 123.038 60.2065 127.657 61.2828 130.176C60.9016 130.072 60.0844 129.587 59.8649 128.48C59.5906 127.096 58.0579 130.276 58.4371 131.28C58.8163 132.284 57.3298 130.241 55.2788 132.625ZM80.263 124.077L79.7143 121.309L80.4081 121.171L80.9568 123.939L80.263 124.077ZM81.4772 123.836L80.9628 121.241L81.6566 121.103L82.171 123.698L81.4772 123.836ZM82.9333 123.907L82.4189 121.312L83.1127 121.174L83.6271 123.769L82.9333 123.907ZM84.2161 124.012L83.7016 121.417L84.3954 121.28L84.9098 123.875L84.2161 124.012ZM85.6036 123.737L85.1235 121.315L85.8173 121.178L86.2974 123.6L85.6036 123.737ZM86.9206 124.016L86.4748 121.767L87.1686 121.629L87.6144 123.878L86.9206 124.016ZM88.3425 123.914L87.931 121.838L88.7982 121.666L89.2097 123.742L88.3425 123.914ZM90.0064 124.123L89.5949 122.047L90.2887 121.91L90.7002 123.986L90.0064 124.123ZM91.4626 124.194L91.0167 121.945L91.7105 121.808L92.1564 124.057L91.4626 124.194ZM93.2656 124.196L92.7169 121.428L93.4107 121.291L93.9594 124.059L93.2656 124.196ZM94.7561 124.44L94.1731 121.499L95.0403 121.327L95.6233 124.268L94.7561 124.44ZM96.2122 124.511L95.6978 121.916L96.5651 121.744L97.0795 124.339L96.2122 124.511ZM98.0153 124.513L97.4323 121.572L98.1261 121.435L98.7091 124.376L98.0153 124.513ZM43.4566 152.101C43.8575 151.395 44.7632 149.962 45.1795 149.88C45.6998 149.777 44.8442 151.826 43.4566 152.101ZM279.441 155.793L254.477 150.855L255.694 149.715L280.059 154.415C280.289 154.635 280.489 155.219 279.441 155.793ZM235.348 161.659L234.696 158.372L237.298 157.856L237.949 161.144L235.348 161.659ZM240 161.484L239.377 158.343L241.112 157.999L241.734 161.14L240 161.484Z" stroke="#337BEF" stroke-width="0.761702" stroke-linecap="round"/>
<path d="M43.023 238.4C47.2655 214.555 49.2311 226.407 49.1648 216.524C49.1568 215.255 51.5527 207.485 54.6971 205.873C56.2333 205.085 56.2515 200.691 61.065 200.893C74.5735 201.461 64.869 199.754 74.716 200.287C79.3907 200.54 74.496 205.891 78.2433 207.067C79.1627 207.355 80.4743 207.266 81.0028 207.809C81.9046 208.734 80.0358 208.716 82.3977 210.073C84.4038 211.225 83.0824 213.753 85.5082 214.535C86.756 214.938 89.929 214.478 90.2234 217.219C90.3201 218.118 90.0374 219.02 90.2673 219.912C90.5681 221.082 91.7127 222.116 92.378 223.236C93.2673 224.732 93.1425 222.785 95.6348 240.192" stroke="#337BEF" stroke-width="0.761702" stroke-miterlimit="10" stroke-linecap="round" stroke-linejoin="round"/>
<path d="M67.6851 200.949C64.928 202.088 66.366 205.483 63.5981 206.613C62.3624 207.117 60.711 207.017 59.2681 207.259C53.2975 208.259 56.157 212.204 54.5348 214.01C53.5157 215.145 49.4954 216.537 49.0454 219.784" stroke="#337BEF" stroke-width="0.761702" stroke-miterlimit="10" stroke-linecap="round" stroke-linejoin="round"/>
<path d="M85.5107 214.535C63.68 210.178 68.1592 221.98 67.3763 239.229" stroke="#337BEF" stroke-width="0.761702" stroke-miterlimit="10" stroke-linecap="round" stroke-linejoin="round"/>
<path d="M52.8788 215.214C54.7349 214.547 58.3226 215.247 58.822 216.561C59.9543 219.543 61.7468 217.127 63.8512 221.084" stroke="#337BEF" stroke-width="0.761702" stroke-miterlimit="10" stroke-linecap="round" stroke-linejoin="round"/>
<path d="M68.9697 207.865C70.2266 208.489 72.3796 208.011 73.4581 208.751C74.0981 209.191 74.1605 209.96 75.0548 210.171C75.2691 210.221 80.9426 210.341 80.1291 213.735" stroke="#337BEF" stroke-width="0.761702" stroke-miterlimit="10" stroke-linecap="round" stroke-linejoin="round"/>
<path d="M61.8479 209.529C66.2706 208.156 64.0525 213.917 65.5216 215.099" stroke="#337BEF" stroke-width="0.761702" stroke-miterlimit="10" stroke-linecap="round" stroke-linejoin="round"/>
<path d="M90.2697 219.912C83.1281 218.783 88.261 235.013 85.2759 239.838" stroke="#337BEF" stroke-width="0.761702" stroke-miterlimit="10" stroke-linecap="round" stroke-linejoin="round"/>
<path d="M54.2812 219.177C56.3317 221.749 53.1531 224.771 53.8639 226.101C55.2907 228.77 55.5824 225.287 58.9973 238.944" stroke="#337BEF" stroke-width="0.761702" stroke-miterlimit="10" stroke-linecap="round" stroke-linejoin="round"/>
<path d="M80.6652 218.475C69.7346 217.882 74.9934 222.533 73.2567 229.935C72.4873 233.213 72.5779 236.08 72.6528 239.41" stroke="#337BEF" stroke-width="0.761702" stroke-miterlimit="10" stroke-linecap="round" stroke-linejoin="round"/>
<path d="M87.3677 214.823C86.1449 201.654 89.9181 207.598 92.1617 195.6C92.6765 192.845 94.7636 190.319 95.5805 187.598C96.963 182.991 94.86 183.059 99.1492 175.197C103.308 167.574 103.082 167.689 103.861 167.374C105.004 166.913 109.977 167.621 115.208 164.981C122.412 161.344 125.265 167.453 129.463 168.708C131.056 169.183 133.022 168.447 134.628 168.906C135.998 169.296 136.097 169.559 137.507 168.598C140.01 166.891 145.334 167.294 147.291 169.338C150.539 172.728 150.594 171.585 153.216 169.97C156.333 168.051 159.029 171.471 159.392 171.603C160.472 171.996 165.475 170.927 168.363 173.888C169.892 175.455 170.118 177.723 172.838 178.46C177.934 179.84 175.795 178.39 177.573 181.548C178.753 183.643 183.56 184.135 185.411 186.052C187.055 187.756 186.144 190.344 188.868 191.413C195.725 194.105 185.758 202.178 209.014 206.309C215.21 207.41 223.939 210.312 226.163 213.913C228.512 217.716 225.819 217.48 232.448 220.114C241.165 223.578 235.864 234.756 240.658 245.13" stroke="#337BEF" stroke-width="0.761702" stroke-miterlimit="10" stroke-linecap="round" stroke-linejoin="round"/>
<path d="M96.1736 223.442C99.3601 190.842 97.9447 199.626 101.44 194.447C103.524 191.36 100.772 187.085 104.712 184.796C106.91 183.518 107.582 183.912 107.725 181.456C107.979 177.115 112.687 173.643 114.487 173.419C116.407 173.181 118.033 174.729 122.178 177.6C124.247 179.033 123.947 179.704 123.32 181.735C121.444 187.819 126.008 191.427 128.034 195.793C131.789 203.885 125.179 216.611 128.22 220.68C130.02 223.087 134.338 216.265 136.856 241.597" stroke="#337BEF" stroke-width="0.761702" stroke-miterlimit="10" stroke-linecap="round" stroke-linejoin="round"/>
<path d="M103.762 218.372C117.882 221.226 119.181 216.639 124.771 220.783" stroke="#337BEF" stroke-width="0.761702" stroke-miterlimit="10" stroke-linecap="round" stroke-linejoin="round"/>
<path d="M108.499 186.107C112.282 187.284 108.329 190.434 113.957 193.046C119.387 195.565 115.515 206.624 117.032 214.689" stroke="#337BEF" stroke-width="0.761702" stroke-miterlimit="10" stroke-linecap="round" stroke-linejoin="round"/>
<path d="M119.426 223.071C124.615 227.034 119.744 226.371 123.511 241.141" stroke="#337BEF" stroke-width="0.761702" stroke-miterlimit="10" stroke-linecap="round" stroke-linejoin="round"/>
<path d="M135.034 172.198C138.681 174.14 139.509 177.755 143.77 179.137C145.231 179.611 146.912 179.743 148.42 180.158C155.08 181.99 155.424 187.685 157.759 191.034C161.294 196.1 170.783 199.654 160.426 213.926C157.302 218.231 164.087 216.821 164.31 216.811C166.672 216.703 168.107 218.419 170.144 219.209C176.128 221.526 188.499 215.014 185.871 229.29C183.707 241.046 191.975 230.413 194.674 243.565" stroke="#337BEF" stroke-width="0.761702" stroke-miterlimit="10" stroke-linecap="round" stroke-linejoin="round"/>
<path d="M161.814 219.449C161.001 221.073 158.641 222.236 157.73 223.839C156.453 226.09 158.282 228.668 157.471 231.007C156.473 233.885 154.435 234.743 155.529 242.233" stroke="#337BEF" stroke-width="0.761702" stroke-miterlimit="10" stroke-linecap="round" stroke-linejoin="round"/>
<path d="M132.452 212.096C139.85 217.455 149.395 213.671 154.382 217.418" stroke="#337BEF" stroke-width="0.761702" stroke-miterlimit="10" stroke-linecap="round" stroke-linejoin="round"/>
<path d="M134.705 195.812C147.043 200.997 141.539 197.964 150.478 199.301C152.418 199.591 154.316 200.169 155.613 201.113" stroke="#337BEF" stroke-width="0.761702" stroke-miterlimit="10" stroke-linecap="round" stroke-linejoin="round"/>
<path d="M151.218 173.136C153.567 174.549 158.164 172.924 159.365 177.537C161.371 185.24 167.006 182.527 170.876 186.363C172.141 187.617 172.422 189.376 174.548 190.066C175.798 190.472 177.316 190.35 178.633 190.662C184.376 192.018 180.57 198.125 185.846 199.827C188.149 200.57 194.82 200.653 196.09 202.044" stroke="#337BEF" stroke-width="0.761702" stroke-miterlimit="10" stroke-linecap="round" stroke-linejoin="round"/>
<path d="M172.006 194.883C182.785 206.66 194.341 197.728 195.832 210.626C196.075 212.728 195.774 214.917 197.18 216.866C199.466 220.036 205.756 221.834 207.229 225.165C208.717 228.53 205.222 232.295 212.499 234.076C222.33 236.48 228.42 233.928 230.353 244.781" stroke="#337BEF" stroke-width="0.761702" stroke-miterlimit="10" stroke-linecap="round" stroke-linejoin="round"/>
<path d="M209.729 208.79C205.5 214.348 212.007 218.535 212.837 219.824C213.588 220.991 213.442 221.164 213.962 232.385" stroke="#337BEF" stroke-width="0.761702" stroke-miterlimit="10" stroke-linecap="round" stroke-linejoin="round"/>
<path d="M174.116 206.765C191.855 202.902 192.334 233.591 198.08 238.137C199.145 238.98 202.294 238.974 203.82 239.385C207.455 240.363 205.884 242.905 211.439 243.034C213.512 243.082 217.549 243.082 217.336 244.934" stroke="#337BEF" stroke-width="0.761702" stroke-miterlimit="10" stroke-linecap="round" stroke-linejoin="round"/>
<path d="M188.869 191.415C194.651 187.12 205.039 185.47 207.418 186.151C207.649 186.218 215.317 192.709 224.628 187.045C232.035 182.539 231.283 183.33 236.578 184.362C242.303 185.478 246.817 180.439 256.906 181.265C266.411 182.043 267.157 186.692 269.347 188.301C271.387 189.799 274.862 190.273 277.114 191.654C280.434 193.692 280.131 196.979 282.212 199.547C286.631 205.002 300.294 205.836 304.384 211.38C305.559 212.973 305.758 214.773 306.994 216.349C314.587 226.036 331.662 216.197 333.184 248.285" stroke="#337BEF" stroke-width="0.761702" stroke-miterlimit="10" stroke-linecap="round" stroke-linejoin="round"/>
<path d="M216.787 191.431C207.25 202.111 227.385 202.864 233.148 204.713C246.674 209.052 241.065 218.296 247.995 221.608C249.48 222.318 251.376 222.683 252.695 223.508C257.664 226.618 250.854 231.604 258.111 233.011C269.528 235.226 262.872 242.045 271.492 246.183" stroke="#337BEF" stroke-width="0.761702" stroke-miterlimit="10" stroke-linecap="round" stroke-linejoin="round"/>
<path d="M244.858 185.635C250.576 196.002 261.925 198.953 264.866 201.397C267.132 203.28 267.516 205.972 270.548 207.395C273.945 208.99 278.767 208.153 282.846 208.883C290.037 210.168 298.106 219.113 295.98 222.427C293.807 225.812 288.134 225.049 293.271 233.776C297.278 240.582 299.474 239.982 299.194 247.127" stroke="#337BEF" stroke-width="0.761702" stroke-miterlimit="10" stroke-linecap="round" stroke-linejoin="round"/>
<path d="M283.882 246.605C281.337 232.592 277.346 238.973 277.193 235.415C277.084 232.888 280.19 230.517 284.221 230.048C285.689 228.973 285.007 227.65 285.06 226.227C285.195 222.545 268.866 224.731 280.221 214.951" stroke="#337BEF" stroke-width="0.761702" stroke-miterlimit="10" stroke-linecap="round" stroke-linejoin="round"/>
<path d="M303.505 216.886C307.002 227.89 307.024 229.101 309.262 230.521C318.988 236.688 318.442 219.191 321.134 247.874" stroke="#337BEF" stroke-width="0.761702" stroke-miterlimit="10" stroke-linecap="round" stroke-linejoin="round"/>
<path d="M255.343 188.182C269.081 188.236 260.841 192.851 267.607 194.48C272.576 195.676 273.761 199.22 274.525 202.192" stroke="#337BEF" stroke-width="0.761702" stroke-miterlimit="10" stroke-linecap="round" stroke-linejoin="round"/>
<path d="M225.892 190.407C223.806 193.417 225.826 197.349 230.41 199.208" stroke="#337BEF" stroke-width="0.761702" stroke-miterlimit="10" stroke-linecap="round" stroke-linejoin="round"/>
<path d="M238.745 188.564C239.171 191.054 239.597 193.544 240.024 196.034C247.198 194.811 247.068 203.323 248.062 208.668" stroke="#337BEF" stroke-width="0.761702" stroke-miterlimit="10" stroke-linecap="round" stroke-linejoin="round"/>
</g>
</svg>
