<svg width="401" height="331" viewBox="0 0 401 331" fill="none" xmlns="http://www.w3.org/2000/svg">
<g opacity="0.7">
<path d="M176.645 205.453L200.5 161.5L224.355 205.453L232.452 220.371L240.42 235.052L248.263 249.504L255.987 263.735L263.594 277.75L271.086 291.554L278.467 305.153L285.738 318.55L292.901 331.748L299.958 344.75L399.415 528H1.58496L101.043 344.75L108.099 331.748L115.263 318.55L122.534 305.153L129.914 291.554L137.407 277.75L145.013 263.735L152.737 249.504L160.581 235.052L168.549 220.371L176.645 205.453Z" fill="#337CEF" fill-opacity="0.05"/>
<path d="M101.043 344.75L200.5 161.5C239.341 233.064 261.117 273.187 299.958 344.75M101.043 344.75C164.756 370.967 236.244 370.967 299.958 344.75M101.043 344.75L1.58496 528H399.415C360.575 456.436 338.798 416.314 299.958 344.75M101.043 328.963C164.756 355.18 236.244 355.18 299.958 328.963M101.043 313.176C164.756 339.393 236.244 339.393 299.958 313.176M101.043 297.389C164.756 323.606 236.244 323.606 299.958 297.389M101.043 281.602C164.756 307.819 236.244 307.819 299.958 281.602M101.043 265.816C164.756 292.032 236.244 292.032 299.958 265.816M101.043 250.029C164.756 276.245 236.244 276.245 299.958 250.029M101.043 234.242C164.756 260.458 236.244 260.458 299.958 234.242M101.043 218.455C164.756 244.671 236.244 244.671 299.958 218.455M101.043 202.668C164.756 228.884 236.244 228.884 299.958 202.668M101.043 186.881C164.756 213.098 236.244 213.098 299.958 186.881M101.043 471.045C164.756 497.262 236.244 497.262 299.958 471.045M101.043 455.259C164.756 481.475 236.244 481.475 299.958 455.259M101.043 439.472C164.756 465.688 236.244 465.688 299.958 439.472M101.043 423.685C164.756 449.901 236.244 449.901 299.958 423.685M101.043 407.898C164.756 434.114 236.244 434.114 299.958 407.898M101.043 392.111C164.756 418.327 236.244 418.327 299.958 392.111M101.043 376.324C164.756 402.54 236.244 402.54 299.958 376.324M101.043 360.537C164.756 386.754 236.244 386.754 299.958 360.537M25.0022 520.571L71.5736 434.763M375.209 520.571C357.136 487.273 342.759 460.782 328.637 434.763" stroke="#337CEF" stroke-opacity="0.75" stroke-width="0.772486" stroke-linecap="round"/>
<path d="M173.164 233.597C168.743 230.44 123.786 197.901 101.859 182.026C98.404 179.582 91.6282 173.235 91.104 166.766C91.0827 166.503 91.0717 166.239 91.0717 165.976C91.0717 165.22 91.0653 164.528 91.0587 163.871L91.0567 163.677C91.0481 162.83 91.04 162.038 91.046 161.24C91.0863 155.896 91.7584 150.275 97.1235 125.72C102.123 105.986 109.49 104.934 113.436 104.144C113.975 104.036 114.981 103.87 116.331 103.666C124.866 102.375 147.188 99.5878 152.641 100.724C154.05 101.017 155.479 101.359 156.851 101.714C157.953 101.999 159.019 102.294 160.008 102.579C162.195 103.21 164.005 103.796 165.007 104.144C174.378 108.299 185.818 113.383 198.148 118.879C199.401 116.563 200.607 116.511 201.054 116.774L314.429 164.633L316.419 165.473L329.454 170.976L341.821 172.291C348.749 174.922 363.238 180.606 365.764 182.29C368.281 183.968 364.778 185.144 360.054 187.286C359.675 187.457 359.288 187.635 358.895 187.82C358.044 188.222 357.168 188.656 356.292 189.131C349.977 192.551 346.82 188.341 336.032 183.868C325.244 179.395 325.244 177.553 324.455 175.712C323.823 174.238 322.262 173.344 321.561 173.08L304.957 165.788L302.589 164.748L198.148 118.879C208.126 123.326 218.687 128.044 229.207 132.757C257.648 145.498 285.789 158.208 301.301 165.473C302.521 166.045 303.663 166.582 304.721 167.084C308.549 168.898 311.275 170.237 312.615 170.976C315.122 172.357 317.271 173.627 319.131 174.922C328.201 181.24 330.389 188.178 333.664 211.758C333.434 212.049 333.136 212.407 332.779 212.811C331.092 214.719 328.108 217.651 324.981 219.389C324.488 219.663 323.582 219.693 322.35 219.524C316.218 218.685 301.996 212.918 290.25 207.728C286.993 206.289 283.927 204.894 281.276 203.661C281.009 203.537 280.746 203.414 280.487 203.293C280.137 203.13 279.795 202.969 279.462 202.812L275.488 203.761L221.051 216.758C221.547 222.654 222.421 233.012 222.965 239.386C223.189 242.018 223.357 243.971 223.419 244.648L211.842 249.121C210.801 248.757 209.652 248.352 208.421 247.915C196.586 243.706 177.168 236.457 173.164 233.597Z" fill="white"/>
<path d="M211.842 249.121L223.419 244.648M211.842 249.121C212.299 246.577 214.202 241.438 218.156 241.227C222.111 241.017 223.312 243.42 223.419 244.648M211.842 249.121C210.801 248.757 209.652 248.352 208.421 247.915M173.164 233.597C168.743 230.44 123.786 197.901 101.859 182.026M173.164 233.597C177.168 236.457 196.586 243.706 208.421 247.915M173.164 233.597C173.953 222.985 179.163 200.55 193.687 195.708C208.211 190.867 215.267 197.375 216.98 201.234M101.859 182.026C103.877 168.783 114.542 144.664 141.064 154.136M101.859 182.026C98.404 179.582 91.6282 173.235 91.104 166.766M113.436 104.144C109.49 104.934 102.123 105.986 97.1235 125.72C91.7584 150.275 91.0863 155.896 91.046 161.24M113.436 104.144C137.012 105.197 141.678 132.298 141.064 145.716M113.436 104.144C113.975 104.036 114.981 103.87 116.331 103.666M279.462 202.812C279.462 187.657 290.864 177.553 296.565 174.396M279.462 202.812L275.488 203.761M279.462 202.812C279.795 202.969 280.137 203.13 280.487 203.293M221.051 216.758C221.547 222.654 222.421 233.012 222.965 239.386M221.051 216.758C221.309 213.782 220.642 207.523 216.98 201.234M221.051 216.758L275.488 203.761M223.419 244.648C223.357 243.971 223.189 242.018 222.965 239.386M208.421 247.915C209.123 244.019 211.625 236.853 215.788 236.228C221.051 235.439 222.327 238.333 222.965 239.386M322.35 219.524C323.582 219.693 324.488 219.663 324.981 219.389C328.108 217.651 331.092 214.719 332.779 212.811M322.35 219.524C323.315 217.637 325.718 213.653 327.612 212.811C329.507 211.969 331.846 212.46 332.779 212.811M322.35 219.524C316.218 218.685 301.996 212.918 290.25 207.728M332.779 212.811C333.136 212.407 333.434 212.049 333.664 211.758C330.389 188.178 328.201 181.24 319.131 174.922M141.064 154.136V145.716M141.064 154.136C146.101 156.677 152.524 159.976 159.454 163.622M141.064 145.716L149.192 144.87M153.693 144.401C169.042 150.891 201.212 164.45 207.106 166.766M153.693 144.401C153.167 134.411 153.693 112.062 160.008 102.579M153.693 144.401L150.245 144.76M207.106 166.766C204.913 156.723 206.264 135.86 229.207 132.757M207.106 166.766L229.207 176.501M207.106 166.766L178.924 170.836M174.216 171.516C184.099 176.896 193.798 182.392 201.054 186.941M174.216 171.516C170.688 169.595 167.136 167.689 163.664 165.846M174.216 171.516L178.924 170.836M160.008 102.579C162.195 103.21 164.005 103.796 165.007 104.144C174.378 108.299 185.818 113.383 198.148 118.879M160.008 102.579C159.019 102.294 157.953 101.999 156.851 101.714M201.054 186.941L205.527 185.973V179.658L217.367 178.08M201.054 186.941C202.166 187.639 203.222 188.314 204.211 188.963M229.207 176.501V181.237H231.312L233.68 182.553L263.675 177.817C265.079 176.939 268.359 175.133 270.253 174.922C271.23 174.814 274.627 174.328 278.41 173.774M229.207 176.501L217.367 178.08M296.565 174.396L294.46 173.08H290.25L288.408 172.291C286.79 172.534 284.628 172.856 282.356 173.193M296.565 174.396L291.829 174.922L290.513 174.528M216.98 201.234C216.323 200.105 215.57 198.976 214.708 197.864M290.25 207.728C291.349 197.143 298.665 175.764 319.131 174.922M290.25 207.728C286.993 206.289 283.927 204.894 281.276 203.661M319.131 174.922C317.271 173.627 315.122 172.357 312.615 170.976C311.275 170.237 308.549 168.898 304.721 167.084M229.207 132.757C257.648 145.498 285.789 158.208 301.301 165.473M229.207 132.757C218.687 128.044 208.126 123.326 198.148 118.879M204.211 188.963C207.674 191.235 210.334 193.187 211.842 194.656C212.909 195.696 213.861 196.772 214.708 197.864M204.211 188.963L208.421 188.078M208.421 188.078C208.947 187.201 210.579 185.394 212.894 185.184C215.209 184.973 226.488 183.517 231.838 182.816M208.421 188.078C210.692 189.289 215.129 192.943 214.708 197.864M231.838 182.816L235.522 184.394V185.184M231.838 182.816V208.601L235.522 209.917M235.522 185.184L266.306 180.185M235.522 185.184V209.917M266.306 180.185C266.833 179.308 268.464 177.448 270.779 177.027C271.123 176.965 271.655 176.875 272.33 176.764M266.306 180.185C260.623 185.868 259.904 198.69 260.255 204.391L235.522 209.917M91.046 161.24C91.0396 162.099 91.0494 162.95 91.0587 163.871M91.046 161.24L138.261 193.161M91.104 166.766C91.0827 166.503 91.0717 166.239 91.0717 165.976C91.0717 165.22 91.0653 164.528 91.0587 163.871M91.104 166.766C116.089 184.307 167.112 220.125 171.322 223.072C175.532 226.019 187.986 229.036 193.687 230.176L191.582 225.967M191.582 225.967L189.477 221.757C183.583 221.757 176.146 218.424 173.164 216.758L152.921 203.072M191.582 225.967C187.109 225.44 176.953 223.493 172.111 219.915C167.27 216.337 116.059 181.062 91.0587 163.871M278.41 173.774C280.69 171.365 288.461 166.333 301.301 165.473M278.41 173.774C279.707 173.584 281.05 173.386 282.356 173.193M301.301 165.473C302.521 166.045 303.663 166.582 304.721 167.084M282.356 173.193C284.37 171.61 290.049 168.688 298.642 167.546M304.721 167.084C303.321 167.114 301.976 167.193 300.689 167.314M198.148 118.879C199.401 116.563 200.607 116.511 201.054 116.774L314.429 164.633M198.148 118.879L302.589 164.748M116.331 103.666C124.866 102.375 147.188 99.5878 152.641 100.724C154.05 101.017 155.479 101.359 156.851 101.714M116.331 103.666C120.628 104.088 128.96 105.197 134.749 113.353M156.851 101.714C155.71 102.875 153.483 106.828 153.693 113.353M233.68 187.022L233.652 188.864C233.126 189.215 232.389 190.022 233.652 190.443V192.811M238.388 188.078V187.549M238.388 207.019V206.23M253.912 204.125V203.336M172.835 199.126L152.613 199.652M172.835 199.126C173.295 199.477 174.216 200.441 174.216 201.494C174.216 202.546 173.295 203.614 172.835 204.016H169.715M172.835 199.126C172.852 199.097 172.869 199.068 172.886 199.04C173.597 197.848 174.047 196.991 174.216 196.495L179.451 199.389C178.398 202.333 174.119 208.158 172.111 210.703L167.347 207.545C168.183 206.314 168.949 205.173 169.644 204.125C169.668 204.089 169.692 204.052 169.715 204.016M152.613 199.652C153.402 201.231 155.823 204.388 159.191 204.388M152.613 199.652C144.558 196.16 135.75 185.257 132.353 180.242C133.056 177.563 134.133 174.467 135.51 172.814L131.564 170.972C131.112 171.688 130.446 172.915 129.801 174.432M159.191 204.388C160.143 204.388 161.231 204.368 162.348 204.337C165.181 204.258 168.206 204.105 169.715 204.016M159.191 204.388C144.877 202.915 134.809 190.092 131.564 183.865L127.88 181.497C128.02 180.025 128.359 178.552 128.787 177.179M173.662 193.337C172.233 191.583 170.068 187.496 172.835 186.233M173.662 193.337C175.557 191.443 178.837 189.829 180.24 189.39C179.627 188.164 178.997 187.29 178.398 186.678M173.662 193.337L172.083 192.548C169.137 189.18 170.505 186.584 171.557 185.707L172.835 186.233M172.835 186.233C172.996 187.362 173.606 189.344 174.841 189.484M175.504 185.444C176.206 186.496 177.188 188.759 175.504 189.39C175.265 189.48 175.044 189.507 174.841 189.484M175.504 185.444L174.188 184.918M175.504 185.444C176.038 185.266 177.149 185.401 178.398 186.678M174.188 184.918C174.623 186.208 175.362 188.927 174.841 189.484M174.188 184.918C174.926 184.569 176.8 184.433 178.398 186.678M140.246 161.47L144.719 162.026V158.08M140.246 161.47L138.405 161.24C139.019 160.099 141.141 157.711 144.719 157.29V158.08M140.246 161.47C140.51 160.603 141.773 158.711 144.719 158.08M149.192 166.236C148.842 164.482 148.561 160.921 150.245 160.711M149.192 166.236L156.823 164.395C155.332 163.079 151.929 160.5 150.245 160.711M149.192 166.236L147.614 165.447C147.438 163.781 147.719 160.5 150.245 160.711M201.054 241.227C201.474 238.507 203.372 232.647 207.604 230.963M205.527 210.703C208.49 210.44 215.317 211.019 218.918 215.439M182.082 211.755C182.774 209.153 185.112 203.457 188.923 201.494M205.527 196.495C207.018 196.933 210.579 198.179 212.894 199.652M290.513 174.528L289.197 174.133C287.218 174.435 284.398 174.868 281.539 175.31M290.513 174.528C285.505 177.749 275.488 188.105 275.488 203.761M298.642 167.546C300.133 168.777 302.378 171.818 299.431 174.133C295.748 177.027 281.512 183.781 280.487 203.293M298.642 167.546C299.307 167.457 299.99 167.38 300.689 167.314M280.487 203.293C280.746 203.414 281.009 203.537 281.276 203.661M281.276 203.661C281.364 196.968 285.433 181.771 301.01 174.528C302.136 173.798 303.648 171.334 300.689 167.314M272.33 176.764V179.129L281.539 177.817V175.31M272.33 176.764C274.467 176.413 278.032 175.854 281.539 175.31M302.589 164.748L314.429 164.633M302.589 164.748L304.957 165.788M314.429 164.633L316.419 165.473M304.957 165.788L321.561 173.08C322.262 173.344 323.823 174.238 324.455 175.712C325.244 177.553 325.244 179.395 336.032 183.868C346.82 188.341 349.977 192.551 356.292 189.13C357.168 188.656 358.044 188.222 358.895 187.82M304.957 165.788L309.43 165.665M316.419 165.473L329.454 170.976L341.821 172.291C348.749 174.922 363.238 180.606 365.764 182.29C368.281 183.968 364.778 185.144 360.054 187.286M316.419 165.473L311.008 165.622M309.43 165.665L358.895 187.82M309.43 165.665L311.008 165.622M358.895 187.82C359.288 187.635 359.675 187.457 360.054 187.286M311.008 165.622L360.054 187.286M149.192 144.87C150.42 149.185 154.297 158.29 159.98 160.185C167.084 162.553 178.716 162.553 171.557 164.395C165.83 165.868 161.102 164.493 159.454 163.622M149.192 144.87L150.245 144.76M159.454 163.622C160.839 164.351 162.245 165.093 163.664 165.846M163.664 165.846C167.168 166.25 174.31 166.371 174.841 163.622C175.504 160.185 167.347 160.626 163.138 160.185C158.928 159.744 151.824 151.963 150.245 144.76M178.924 170.836C185.345 171.146 202.023 173.028 217.367 178.08M105.515 113.353C106.499 111.598 109.459 107.825 113.436 106.772M112.093 157.29C113.058 155.799 116.724 152.449 123.67 150.976M125.775 109.403C128.933 111.947 135.668 120.349 137.352 133.61M129.722 103.666C132.879 103.345 140.457 102.506 145.509 101.714M152.641 126.769C152.27 128.699 151.587 134.505 151.824 142.293M157.349 143.608L173.399 150.186M197.079 160.185L204.183 163.079M206.288 147.292C207.535 143.893 211.495 136.661 217.367 134.926M289.197 163.079L270.253 154.396M264.174 175.712C265.402 174.909 268.594 173.282 271.541 173.193C274.488 173.103 276.628 172.201 277.33 171.762M103.937 144.87C104.112 142.344 104.779 136.715 106.042 134.399M132.353 174.13C132.528 174.744 132.721 176.129 132.09 176.761C129.722 176.936 123.67 177.498 118.408 178.34C118.496 177.813 118.618 176.656 118.408 176.235L132.353 174.13Z" stroke="#337CEF" stroke-width="0.772486" stroke-linecap="round"/>
<path d="M105.086 225.024C103.618 225.605 101.268 229.087 103.618 231.118C104.38 231.777 105.942 232.013 107.737 232.015M105.086 225.024C105.046 220.055 105.009 212.72 105.012 205.272M105.086 225.024C105.237 225.218 107.151 225.546 113.602 225.314M105.086 225.024C104.643 226.785 104.554 230.65 107.737 232.015M113.602 225.314V222.703L114.777 221.252C114.91 217.15 115.085 211.901 115.274 206.41M113.602 225.314C114.189 225.314 115.364 225.605 115.364 226.765C115.364 227.926 115.364 230.151 115.364 231.118C113.502 231.52 110.368 232.018 107.737 232.015M109.037 171.921C110.164 171.487 111.319 171.615 112.134 171.921C112.547 171.998 113.067 172.119 113.602 172.282M109.037 171.921V168.439M109.037 171.921C108.692 172.054 108.35 172.239 108.022 172.487M109.037 168.439H110.078M109.037 168.439L108.022 168.002M110.078 168.439C110.883 168.572 112.241 168.85 113.015 169.161M110.078 168.439L110.126 167.552M113.602 172.282C113.602 171.581 113.602 170.064 113.602 169.6C113.602 169.454 113.37 169.304 113.015 169.161M113.602 172.282C113.826 172.35 114.052 172.425 114.275 172.507M115.951 59.6221L110.372 59.3319M115.951 59.6221H119.769M115.951 59.6221L115.476 68.4268M110.372 59.3319V55.2694M110.372 59.3319L109.443 58.7538V54.7708M110.372 55.2694L116.245 55.5596M110.372 55.2694L109.443 54.7708M116.245 55.5596L116.307 54.4863M116.245 55.5596H120.062M113.896 13.7738C112.127 12.5529 109.272 9.82512 112.001 8.68154C115.412 7.25207 121.097 10.0015 120.528 11.4524C119.96 12.9033 118.783 14.0466 116.245 14.2091M113.896 13.7738L116.245 14.2091M113.896 13.7738C112.956 13.5997 111.546 13.1209 110.959 12.9033M113.896 13.7738L113.805 14.9406M110.959 12.9033C110.078 12.6131 108.375 11.5104 108.61 9.42112C108.903 6.8095 107.435 7.68004 107.729 4.19789M110.959 12.9033V14.9406M107.729 4.19789C108.022 0.715743 115.364 1.00592 118.007 1.00592C120.65 1.00592 134.745 2.16667 134.452 4.77828C134.41 5.14702 134.328 5.49841 134.216 5.83652M107.729 4.19789C108.584 5.31311 111.66 7.48663 117.117 7.25903C123.939 6.97453 130.28 7.82803 134.216 5.83652M107.729 4.19789C109.087 5.0286 116.287 6.51933 134.216 5.83652M120.062 55.5596L121.531 56.14C121.433 57.1072 120.943 59.1578 119.769 59.6221M120.062 55.5596L120.945 37.9852M119.769 59.6221L119.226 68.4268M113.015 169.161L113.069 168.287M117.466 34.2867L118.594 14.6443L116.245 14.2091M117.466 34.2867C117.929 34.54 119.305 34.9707 121.112 34.6667M117.466 34.2867L117.254 37.9852M121.112 34.6667L122.118 14.6443C123.273 14.7157 124.357 14.7143 125.35 14.6443M121.112 34.6667L120.945 37.9852M117.254 37.9852C117.771 37.9852 119.232 37.9852 120.945 37.9852M117.254 37.9852L116.307 54.4863M125.35 14.6443C127.258 14.51 128.828 14.1229 129.908 13.5125M125.35 14.6443C125.599 15.1399 126.129 15.9336 126.782 16.3661M127.919 16.6476C129.056 16.42 129.719 14.4627 129.908 13.5125M127.919 16.6476C127.52 16.7273 127.133 16.5991 126.782 16.3661M127.919 16.6476C125.929 24.8981 127.919 28.5966 129.908 31.7262C131.898 34.8557 136.446 63.0213 127.919 101.429C121.097 132.155 134.172 147.803 141.562 151.786C141.335 152.013 141.088 152.639 140.994 152.924C121.665 143.82 122.118 114.232 127.919 94.8855C133.719 75.5394 131.614 37.9852 127.919 31.7262C124.962 26.7189 125.929 19.3998 126.782 16.3661M129.908 13.5125C130.841 12.9858 131.409 12.2928 131.515 11.4524C131.767 9.45876 133.536 7.89312 134.216 5.83652M109.443 54.7708L116.307 54.4863M115.476 68.4268C116.102 68.5217 117.729 68.6544 119.226 68.4268M115.476 68.4268L114.063 94.601M119.226 68.4268L117.612 94.601M114.063 94.601C114.653 94.7906 116.189 95.0562 117.612 94.601M114.063 94.601L112.681 120.206M117.612 94.601L116.033 120.206M112.681 120.206C113.248 120.301 114.711 120.434 116.033 120.206M112.681 120.206L111.315 145.527M116.033 120.206L114.472 145.527M111.315 145.527C111.675 145.622 112.81 145.754 114.472 145.527M111.315 145.527L110.823 154.631M114.472 145.527L113.911 154.631M110.823 154.631C111.257 154.726 112.482 154.858 113.911 154.631M110.823 154.631L110.516 160.321M113.911 154.631L113.56 160.321M110.516 160.321C110.819 160.416 111.851 160.548 113.56 160.321M110.516 160.321L110.126 167.552M113.56 160.321L113.069 168.287M108.022 168.002V172.487M108.022 168.002L110.126 167.552M108.022 172.487C107.424 172.938 106.87 173.599 106.422 174.533M113.069 168.287C113.471 168.309 114.275 168.602 114.275 169.6C114.275 170.598 114.275 171.954 114.275 172.507M114.275 172.507C115.538 172.972 116.685 173.662 116.539 174.533C116.463 174.98 116.305 178.414 116.108 183.365M106.422 174.533C106.401 175.011 106.804 176.082 108.59 176.537C110.377 176.993 107.357 177.106 105.624 177.106M106.422 174.533C106.089 175.229 105.814 176.078 105.624 177.106M105.624 177.106C105.51 177.729 105.426 178.416 105.38 179.176C105.329 179.995 105.285 181.026 105.247 182.227M105.247 182.227C105.783 182.796 108.707 183.821 116.108 183.365M105.247 182.227C105.161 184.927 105.103 188.491 105.066 192.469M116.108 183.365C115.988 186.413 115.852 190.036 115.713 193.892M105.066 192.469C105.4 192.849 107.995 193.664 115.713 193.892M105.066 192.469C105.029 196.471 105.014 200.891 105.012 205.272M115.713 193.892C115.567 197.94 115.417 202.244 115.274 206.41M105.012 205.272C106.018 205.651 109.478 206.41 115.274 206.41M110.959 14.9406V32.6354C109.55 33.0997 109.784 34.57 110.078 35.2471C111.057 35.3438 113.132 35.3631 113.602 34.6667C114.072 33.9703 113.994 33.2158 113.896 32.9256L112.427 32.6354L113.805 14.9406M110.959 14.9406C111.148 14.9406 112.482 14.6561 113.805 14.9406M114.559 12.3801C113.138 12.3801 111.035 9.25054 113.991 9.25054C117.686 9.25054 119.391 11.5266 117.402 12.0956C115.81 12.5508 114.938 12.3801 114.559 12.3801Z" stroke="#337CEF" stroke-width="0.772486" stroke-linecap="round"/>
</g>
</svg>
